<?xml version="1.0" encoding="utf-8"?>
<!-- Generator: Adobe Illustrator 22.1.0, SVG Export Plug-In . SVG Version: 6.00 Build 0)  -->
<svg version="1.1" id="Слой_1" xmlns="http://www.w3.org/2000/svg" xmlns:xlink="http://www.w3.org/1999/xlink" x="0px" y="0px"
	 viewBox="0 0 1024 500" enable-background="new 0 0 1024 500" xml:space="preserve">
<g id="descp-fight">
	<g>
		<linearGradient id="SVGID_1_" gradientUnits="userSpaceOnUse" x1="512" y1="377.9649" x2="512" y2="0">
			<stop  offset="0.0117" style="stop-color:#C1FF99"/>
			<stop  offset="0.2057" style="stop-color:#BEFABC"/>
			<stop  offset="0.4101" style="stop-color:#BCF6D9"/>
			<stop  offset="0.6128" style="stop-color:#BAF2EE"/>
			<stop  offset="0.8111" style="stop-color:#B9F1FB"/>
			<stop  offset="1" style="stop-color:#B9F0FF"/>
		</linearGradient>
		<polygon fill="url(#SVGID_1_)" points="0,372.629 1023.947,377.965 1024,0 0,0 		"/>
		
			<radialGradient id="SVGID_2_" cx="-5.2368" cy="281.1406" r="212.7406" gradientTransform="matrix(1.152 0 0 0.3992 473.0851 167.1204)" gradientUnits="userSpaceOnUse">
			<stop  offset="0" style="stop-color:#DDD2CA"/>
			<stop  offset="0.3643" style="stop-color:#D3C5BC"/>
			<stop  offset="1" style="stop-color:#BAA799"/>
		</radialGradient>
		<polygon fill="url(#SVGID_2_)" points="473.991,196.469 330.717,203.421 191.146,236.808 133.927,289.352 217.25,341.444 
			403.255,362.234 565.276,362.234 711.698,336.592 800.178,271.036 749.096,232.882 643.816,205.295 		"/>
		<polygon fill="#BCABA0" points="800.178,271.036 896.739,351.839 1023.949,421.834 1023.949,362.234 869.682,302.792 
			749.096,232.882 		"/>
		<polygon fill="#A59488" points="133.927,289.352 33.932,398.172 0,425.299 0,372.629 66.841,321.128 191.146,236.808 		"/>
		<polygon fill="#AA978A" points="217.25,341.444 178.995,425.299 113.185,499 154.356,499 299.545,439.555 403.255,362.234 		"/>
		<polygon fill="#B29E8D" points="711.698,336.592 760.854,425.299 869.682,499 596.014,499 571.354,425.299 565.276,362.234 		"/>
		<polygon fill="#B5A293" points="800.178,271.036 711.698,336.592 760.854,425.299 869.682,499 1023.949,499 1023.949,421.834 
			896.739,351.839 		"/>
		<polygon fill="#AF9B8C" points="565.276,362.234 571.354,425.299 596.014,499 154.356,499 299.545,439.555 403.255,362.234 		"/>
		<polygon fill="#A8968A" points="217.25,341.444 178.995,425.299 113.185,499 0,499 0,425.299 33.932,398.172 133.927,289.352 		
			"/>
	</g>
	<g>
		<g id="left-leg10_2_">
			<g id="first-left-leg10_2_">
				<path fill="#EDD2BC" d="M471.96,263.76c0.012-0.444,0.314-1.591,0.429-2.414c0.097-0.691,0.65-1.744,1.014-2.339
					c0.343-0.561,0.845-0.909,1.251-1.194l0.277-0.194c0.438-0.307,0.93-0.497,1.44-0.554l1.248-0.141
					c0.998-0.113,2.562,0.103,3.506,0.483l0,0c0.661,0.266,1.447,0.82,2.059,1.472l0.714,1.018c0.278,0.713,0.479,1.066,0.521,1.771
					l0.087,1.926c-0.019,0.702-0.15,1.968-0.183,2.669c-0.032,0.665,0.026,2.146,0.026,2.146c-0.025,1.597,0.379,3.515,0.342,4.888
					l-0.149,5.544c-0.037,0.795-0.565,4.327-0.731,5.106c-0.338,1.578-0.769,3.467-0.973,4.431l-0.938,4.506
					c-0.276,1.766-0.586,3.985-0.784,5.699l-1.54,11.732l-1.314,9.038c-0.468,1.256-0.553,1.107-1.515,1.473l-0.621,0.236
					c-0.67,0.09-0.211,0.089-1.046,0.064l-1.126-0.203c-0.932-0.472-1.522-0.705-1.539-1.879l-1.034-10.619l-1.147-16.781
					l-0.407-9.742c0.043-2.269,0.231-5.158,0.459-7.416l0.828-5.958C471.13,268.169,471.946,264.298,471.96,263.76z"/>
				<path id="left-foot10_2_" fill="#EDD2BC" d="M478.371,320.207l0.027,0.206c0.02,0.263,0.125,0.502,0.295,0.672l0.364,0.364
					c0.326,0.327,0.567,0.75,0.699,1.227l0,0c0.224,0.815,0.113,1.721-0.305,2.474l-0.248,0.447
					c-0.206,0.371-0.479,0.691-0.799,0.937l-3.871,2.968c-0.217,0.166-0.429,0.34-0.637,0.521l-3.386,2.947
					c-1.068,0.929-2.064,1.962-2.977,3.087l-0.663,0.816c-0.392,0.482-0.943,0.751-1.503,0.734l-0.641-0.02
					c-0.314-0.01-0.607-0.154-0.821-0.404l0,0c-0.382-0.447-0.442-1.145-0.146-1.709l0.196-0.374
					c0.181-0.344,0.399-0.663,0.65-0.947l0.965-1.094l-2.441,2.157l0,0c-0.287,0.258-0.663,0.339-0.996,0.214l0,0
					c-0.464-0.175-0.698-0.747-0.527-1.288l0,0c0.053-0.168,0.147-0.319,0.27-0.433l2.083-1.936l-1.813,1.456
					c-0.287,0.23-0.653,0.27-0.953,0.102l0,0c-0.357-0.199-0.553-0.638-0.491-1.099l0,0c0.026-0.19,0.121-0.364,0.263-0.477
					l2.09-1.669l-1.933,1.543c-0.222,0.177-0.514,0.162-0.703-0.036h0c-0.189-0.198-0.293-0.482-0.287-0.783l0,0
					c0.006-0.305,0.164-0.59,0.407-0.735l2.274-1.361l-1.636,0.774c-0.223,0.106-0.47,0.1-0.679-0.014l0,0
					c-0.214-0.118-0.292-0.419-0.172-0.667l0.006-0.012c0.157-0.325,0.392-0.596,0.676-0.78l1.335-0.862
					c0.512-0.331,1.042-0.622,1.586-0.872l2.63-1.209c0.907-0.417,1.793-0.894,2.655-1.429l0.673-0.418
					c1.034-0.642,1.856-1.666,2.322-2.892l0.393-1.035c0.154-0.405,0.291-1.132,0.631-1.349c0,0,1.205,0.051,1.56,0.103l1.592,0.336
					c0.203,0.03,0.398,0.103,0.573,0.216l0.678,0.314c0.397,0.184,0.671,0.594,0.719,1.084
					C478.36,320.068,478.366,320.136,478.371,320.207z"/>
				<g>
					<polygon fill="#828793" points="470.145,313.723 474.021,314.691 477.832,314.691 481.507,314.207 482.031,318.244 
						483.711,320.57 483.711,323.864 482.225,326.996 477.703,330.583 477.703,325.46 475.036,322.153 470.843,320.241 
						467.735,320.062 469.213,319.29 470.403,317.405 					"/>
					<polygon fill="#828793" points="460.722,323.739 468.268,320.156 470.788,320.596 474.429,322.711 477.024,325.46 
						477.605,329.843 472.583,335.685 472.426,330.424 468.387,325.396 463.78,323.244 					"/>
					<path fill="#828793" d="M455.675,326.811l5.99-3.088l2.087-0.037l4.248,2.51l4.055,4.883l0.445,3.896
						c-0.633,0.777-5.737,6.33-5.737,6.33l-5.039,0.84l-5.405-4.78l-1.357-7.041L455.675,326.811z"/>
					<polygon fill="#696970" points="460.722,323.739 463.753,323.686 468.001,326.196 472.057,331.079 472.583,335.685 
						472.426,330.424 468.387,325.396 463.78,323.244 					"/>
					<polygon fill="#696970" points="467.735,320.062 470.788,320.596 474.429,322.711 477.024,325.46 477.703,330.583 
						477.703,325.46 475.036,322.153 470.843,320.241 					"/>
					<path fill="#6B717F" d="M461.883,334.968l1.29,0.03c0.933,0.021,1.768,0.584,2.137,1.441l0,0
						c0.295,0.683,0.127,1.478-0.42,1.983l-0.532,0.492c-0.674,0.623-1.571,0.949-2.488,0.905l-1.788-0.087
						c-0.918-0.045-1.81-0.321-2.593-0.802l-2.601-1.6c-0.359-0.221-0.682-0.495-0.959-0.813l-1.883-2.168
						c-0.14-0.161,0.004-0.408,0.213-0.366l5.687,1.145c0.298,0.06,0.603,0.079,0.906,0.058L461.883,334.968z"/>
					<path fill="#6B717F" d="M457.853,329.031l1.036,0.024c0.75,0.017,1.42,0.469,1.718,1.158l0,0
						c0.237,0.549,0.102,1.188-0.337,1.593l-0.427,0.395c-0.542,0.501-1.262,0.763-2,0.727l-1.437-0.07
						c-0.738-0.036-1.454-0.258-2.083-0.645l-2.09-1.286c-0.288-0.177-0.548-0.398-0.77-0.654l-1.513-1.742
						c-0.112-0.129,0.003-0.328,0.171-0.294l4.57,0.92c0.239,0.048,0.484,0.064,0.728,0.046L457.853,329.031z"/>
				</g>
				<g>
					<path fill="#7D8393" d="M469.828,264.721l5.148,1.776l5.88,0.429l5.384-0.429l0.921,8.284l-0.496,8.784l-1.97,11.051
						l-3.982,22.946l-2.84,0.235c-2.038,0.168-4.091-0.013-6.068-0.538l-1.474-0.391l-1.59-23.953l-0.779-11.972l0.708-9.847
						L469.828,264.721z"/>
					<path fill="#6B717F" d="M469.828,264.721l1.631,0.563c2.334,0.805,4.763,1.304,7.226,1.484l0,0
						c1.445,0.105,2.895,0.101,4.34-0.014l3.215-0.256l0,0c0.815-0.158,1.6,0.387,1.737,1.207l0.228,1.371
						c0.163,0.981-0.535,1.896-1.524,1.998l-3.461,0.356c-1.524,0.157-3.06,0.127-4.577-0.087l-2.688-0.38
						c-1.359-0.192-2.701-0.494-4.011-0.903l-3.028-0.944c-0.905-0.282-1.45-1.202-1.264-2.131l0.254-1.27
						C468.079,264.842,469.017,264.358,469.828,264.721L469.828,264.721z"/>
					<path fill="#6B717F" d="M471.26,312.804l-1.029-0.308c-0.615-0.184-1.224,0.307-1.175,0.947l0.173,2.245
						c0.046,0.603,0.504,1.093,1.102,1.181l0,0l0.727,0.193c2.471,0.655,5.036,0.883,7.584,0.672l2.071-0.171l0.067-0.016
						c0.817-0.201,1.433-0.874,1.558-1.706l0.161-1.068c0.102-0.674-0.445-1.269-1.125-1.225l-2.24,0.147"/>
					<path fill="#6B717F" d="M471.052,266.745l-0.378-0.823c-0.73-1.588-1.821-2.984-3.186-4.076l-2.106-1.685
						c-0.302-0.241-0.041-0.72,0.325-0.599l4.273,1.416c1.387,0.46,2.707,1.098,3.928,1.901l2.388,1.569
						c0.82,0.539,1.595,1.143,2.316,1.808l2.242,2.065L471.052,266.745z"/>
				</g>
			</g>
			<g id="second-left-leg10_2_">
				<path fill="#EDD2BC" d="M485.902,213.522l1.089-2.418c0.238-0.528,0.554-1.008,0.933-1.419l0,0
					c0.73-0.789,1.662-1.285,2.641-1.406l1.482-0.183c0.637-0.079,1.274,0.005,1.864,0.243l0.692,0.28
					c0.961,0.389,1.745,1.169,2.208,2.196l0.224,0.498c0.328,0.728,0.48,1.551,0.443,2.388l-0.056,1.241
					c-0.021,0.471-0.56,6.681-0.56,6.681l-1.313,8.456c-0.082,0.472-0.754,3.753-0.876,4.217l-1.468,5.231
					c-0.122,0.461-0.776,2.428-0.939,2.876l-4.618,12.54c-0.155,0.493-1.501,3.785-1.816,4.476c-0.35,0.769-0.932,2.152-1.054,2.53
					l-0.744,1.651c-0.35,0.765-0.508,0.881-0.951,1.438c0,0-1.884,1.31-2.964,1.387l-0.882,0.063
					c-0.528,0.038-1.058-0.047-1.549-0.247l-1.68-0.685c-0.622-0.253-1.168-0.686-1.587-1.256l-0.446-0.607
					c-0.32-0.435-0.652-1.125-0.886-1.657c-0.226-0.514-0.321-1.075-0.277-1.634c0.053-0.684,0.046-1.439,0.285-2.418
					c0.132-0.541,0.304-1.69,0.398-2.095l0.636-2.696c0.326-1.642,0.521-3.111,0.869-5.09l1.709-9.504
					c0.128-0.751,0.523-2.678,0.713-3.416l1.814-7.056c0.173-0.699,0.975-3.314,1.205-3.997l2.293-6.351
					C482.812,217.49,485.779,213.795,485.902,213.522z"/>
				<path fill="#767C50" d="M482.734,217.779l0.996-2.445c0.158-0.396,1.014-1.994,1.137-2.267l1.208-2.1
					c0.237-0.528,1.464-1.686,1.464-1.686c0.719-0.554,1.445-0.883,2.488-1.161l1.644-0.073c0.751-0.017,1.649,0.054,2.239,0.292
					l1.349,0.518c1.112,0.762,1.44,1.036,1.904,1.875l0.41,1.128c0.196,0.833,0.31,1.335,0.275,2.143l-0.056,2.472
					c-0.102,0.87-0.329,2.065-0.439,2.781l-0.492,2.366L482.734,217.779z"/>
				<g>
					<polygon fill="#7D8393" points="498.141,220.645 496.972,231.638 495.59,238.97 493.04,246.879 486.983,261.179 
						481.032,260.648 474.656,258.947 472.106,256.894 475.188,236.738 478.694,223.349 483.264,212.51 490.808,218.249 					"/>
					<path fill="#6B717F" d="M498.267,220.581l-4.138-1.584c-2.277-0.871-4.413-2.184-6.32-3.882l-4.305-3.835
						c-0.406-0.362-0.773-0.781-1.091-1.247l0,0c-0.41-0.6-0.736-1.271-0.966-1.991l-0.52-1.622
						c-0.227-0.707-0.401-1.435-0.521-2.177l-0.112-0.694c-0.066-0.411-0.574-0.394-0.62,0.021l-0.215,1.94
						c-0.053,0.481-0.057,0.968-0.01,1.45l0.453,4.679c0.041,0.426,0.104,0.85,0.188,1.267l0.42,2.097
						c0.195,0.973,0.69,1.828,1.39,2.401l5.579,4.563c1.18,0.965,2.498,1.674,3.891,2.092l6.5,1.953
						c0.472,0.142,0.938-0.255,0.968-0.825l0.192-3.658C499.055,221.016,498.707,220.581,498.267,220.581L498.267,220.581z"/>
					<path fill="#6B717F" d="M471.025,252.629l-0.832,1.002l-5.646,3.731c-0.198,0.131-0.114,0.438,0.123,0.45l5.789-0.038
						c0.16-0.023,0.305,0.044,0.445,0.145c0.483,0.35,1.042,0.583,1.632,0.668l1.415,0.205c0.248,0.036,0.494,0.086,0.734,0.158
						c0.078,0.024,0.157,0.046,0.236,0.067l1.964,0.524c0.243,0.065,0.456,0.213,0.602,0.418l0.62,1.168
						c0.14,0.264,0.429,0.415,0.726,0.38l2.73-0.328c0.406-0.128,2.95-0.226,3.375-0.2l2.266,0.258
						c0.517,0.059,1.011-0.231,1.212-0.711l1.445-3.453c0.201-0.48-0.141-1.014-0.661-1.032l-3.55-0.123
						c-0.987-0.034-1.969-0.152-2.936-0.352l-3.628-0.749c-1.527-0.315-3.005-0.833-4.395-1.539l-1.967-1
						C472.145,251.983,471.44,252.129,471.025,252.629z"/>
				</g>
			</g>
		</g>
		<g id="right-leg10_2_">
			<g id="first-right-leg10_2_">
				<path fill="#EDD2BC" d="M525.101,264.389c-0.005-0.444-0.289-1.596-0.392-2.42c-0.086-0.692-0.623-1.754-0.978-2.354
					c-0.335-0.566-0.831-0.922-1.233-1.213l-0.274-0.198c-0.433-0.314-0.923-0.511-1.431-0.576l-1.245-0.16
					c-0.996-0.128-2.564,0.063-3.513,0.429l0,0c-0.665,0.256-1.459,0.798-2.082,1.441l-0.73,1.007
					c-0.289,0.708-0.495,1.059-0.548,1.763l-0.117,1.925c0.008,0.702,0.12,1.97,0.142,2.672c0.021,0.665-0.059,2.145-0.059,2.145
					c0.001,1.597-0.433,3.509-0.417,4.882l0.064,5.546c0.025,0.796,0.499,4.335,0.653,5.116c0.313,1.583,0.715,3.478,0.905,4.445
					l0.869,4.52c0.249,1.77,0.525,3.993,0.697,5.71l1.361,11.755l1.176,9.057c0.449,1.263,0.536,1.115,1.492,1.496l0.617,0.246
					c0.669,0.1,0.209,0.092,1.045,0.08l1.129-0.186c0.939-0.458,1.533-0.681,1.568-1.855l1.196-10.602l1.403-16.762l0.556-9.735
					c-0.009-2.269-0.152-5.161-0.345-7.422l-0.737-5.97C525.864,268.811,525.107,264.927,525.101,264.389z"/>
				<path id="right-foot10_2_" fill="#EDD2BC" d="M517.696,320.687l-0.033,0.205c-0.028,0.262-0.14,0.498-0.315,0.664l-0.374,0.354
					c-0.336,0.317-0.589,0.733-0.734,1.206l0,0c-0.248,0.808-0.162,1.717,0.234,2.481l0.235,0.454
					c0.195,0.377,0.459,0.705,0.772,0.96l3.783,3.079c0.212,0.172,0.419,0.352,0.622,0.539l3.3,3.044
					c1.04,0.96,2.007,2.021,2.887,3.171l0.639,0.835c0.378,0.493,0.921,0.778,1.481,0.777l0.642-0.002
					c0.315-0.001,0.612-0.136,0.832-0.38l0,0c0.395-0.436,0.475-1.132,0.195-1.704l-0.185-0.379
					c-0.171-0.349-0.38-0.674-0.622-0.965l-0.933-1.122l2.377,2.227l0,0c0.28,0.267,0.653,0.358,0.989,0.242l0,0
					c0.469-0.161,0.719-0.727,0.564-1.272l0,0c-0.048-0.17-0.138-0.323-0.257-0.441l-2.026-1.995l1.77,1.508
					c0.28,0.239,0.645,0.288,0.95,0.129l0,0c0.362-0.189,0.571-0.622,0.522-1.084l0,0c-0.02-0.191-0.111-0.367-0.249-0.484
					l-2.041-1.728l1.888,1.598c0.217,0.183,0.509,0.177,0.703-0.015l0,0c0.195-0.193,0.307-0.473,0.31-0.775l0,0
					c0.003-0.305-0.146-0.594-0.385-0.747l-2.233-1.426l1.613,0.821c0.22,0.112,0.467,0.114,0.679,0.005l0,0
					c0.218-0.112,0.304-0.41,0.191-0.662l-0.006-0.012c-0.148-0.33-0.375-0.608-0.653-0.799l-1.309-0.9
					c-0.502-0.346-1.024-0.652-1.56-0.918l-2.594-1.284c-0.894-0.443-1.767-0.945-2.612-1.505l-0.66-0.437
					c-1.015-0.672-1.807-1.719-2.237-2.958l-0.363-1.046c-0.142-0.409-0.259-1.14-0.592-1.366c0,0-1.206,0.017-1.562,0.058
					l-1.601,0.29c-0.204,0.024-0.4,0.091-0.579,0.199l-0.687,0.295c-0.402,0.172-0.688,0.574-0.75,1.063
					C517.712,320.549,517.704,320.617,517.696,320.687z"/>
				<g>
					<polygon fill="#828793" points="526.968,314.301 523.05,315.082 519.243,314.898 515.595,314.237 514.878,318.244 
						513.088,320.486 512.929,323.777 514.262,326.977 518.606,330.777 518.853,325.66 521.676,322.485 525.956,320.778 
						529.07,320.75 527.631,319.907 526.532,317.966 					"/>
					<polygon fill="#828793" points="535.896,324.761 528.533,320.817 525.994,321.135 522.255,323.073 519.531,325.693 
						518.739,330.043 523.474,336.121 523.884,330.873 528.16,326.046 532.866,324.119 					"/>
					<path fill="#828793" d="M540.79,328.072l-5.834-3.373l-2.083-0.138l-4.365,2.303l-4.286,4.682l-0.633,3.871
						c0.595,0.807,5.425,6.6,5.425,6.6l4.992,1.082l5.629-4.514l1.695-6.968L540.79,328.072z"/>
					<polygon fill="#696970" points="535.896,324.761 532.872,324.561 528.507,326.863 524.221,331.545 523.474,336.121 
						523.884,330.873 528.16,326.046 532.866,324.119 					"/>
					<polygon fill="#696970" points="529.07,320.75 525.994,321.135 522.255,323.073 519.531,325.693 518.606,330.777 
						518.853,325.66 521.676,322.485 525.956,320.778 					"/>
					<path fill="#6B717F" d="M534.196,335.92l-1.29-0.033c-0.933-0.024-1.794,0.498-2.204,1.336l0,0
						c-0.327,0.668-0.198,1.47,0.324,2.001l0.508,0.517c0.643,0.655,1.523,1.024,2.442,1.024l1.79-0.001
						c0.919,0,1.823-0.233,2.628-0.676l2.676-1.473c0.369-0.203,0.705-0.462,0.997-0.766l1.985-2.075
						c0.147-0.154,0.016-0.407-0.195-0.375l-5.736,0.87c-0.301,0.046-0.606,0.05-0.908,0.014L534.196,335.92z"/>
					<path fill="#6B717F" d="M538.507,330.184l-1.036-0.026c-0.75-0.019-1.441,0.4-1.771,1.074l0,0
						c-0.263,0.537-0.159,1.181,0.26,1.608l0.408,0.415c0.517,0.526,1.224,0.823,1.962,0.823l1.439,0
						c0.739,0,1.465-0.187,2.112-0.543l2.15-1.184c0.297-0.163,0.567-0.371,0.801-0.616l1.595-1.667
						c0.118-0.124,0.013-0.327-0.157-0.302l-4.609,0.699c-0.242,0.037-0.487,0.04-0.729,0.011L538.507,330.184z"/>
				</g>
				<g>
					<path fill="#7D8393" d="M527.393,264.951l-5.175,1.695l-5.886,0.337l-5.377-0.513l-1.051,8.268l0.358,8.791l1.796,11.081
						l3.622,23.006l2.836,0.279c2.035,0.2,4.09,0.051,6.075-0.443l1.48-0.368l1.964-23.925l0.967-11.959l-0.554-9.857
						L527.393,264.951z"/>
					<path fill="#6B717F" d="M527.393,264.951l-1.64,0.537c-2.346,0.769-4.783,1.229-7.248,1.37l0,0
						c-1.446,0.083-2.897,0.055-4.339-0.082l-3.21-0.306l0,0c-0.813-0.171-1.606,0.362-1.755,1.179l-0.25,1.367
						c-0.179,0.978,0.505,1.904,1.492,2.022l3.455,0.41c1.521,0.18,3.058,0.175,4.578-0.015l2.694-0.338
						c1.362-0.171,2.708-0.452,4.025-0.84l3.042-0.897c0.909-0.268,1.469-1.179,1.298-2.111l-0.234-1.274
						C529.14,265.099,528.209,264.601,527.393,264.951L527.393,264.951z"/>
					<path fill="#6B717F" d="M517.75,317.819l-2.068-0.203l-0.067-0.017c-0.814-0.213-1.419-0.897-1.531-1.731l-0.145-1.071
						c-0.091-0.675,0.465-1.262,1.144-1.207l2.237,0.182c2.654,0.215,5.325-0.044,7.887-0.767l1.034-0.291
						c0.618-0.174,1.219,0.326,1.16,0.965l-0.208,2.242c-0.056,0.602-0.521,1.085-1.12,1.163l0,0l-0.73,0.181
						C522.863,317.883,520.294,318.07,517.75,317.819z"/>
					<path fill="#6B717F" d="M526.138,266.956l0.391-0.817c0.755-1.577,1.867-2.955,3.249-4.026l2.132-1.651
						c0.305-0.237,0.053-0.72-0.316-0.604l-4.295,1.349c-1.394,0.438-2.724,1.056-3.958,1.839l-2.413,1.531
						c-0.828,0.526-1.612,1.118-2.344,1.771l-2.274,2.03L526.138,266.956z"/>
				</g>
			</g>
			<g id="second-right-leg10_2_">
				<path fill="#EDD2BC" d="M513.289,213.701l-0.984-2.463c-0.215-0.537-0.51-1.031-0.872-1.457l0,0
					c-0.695-0.82-1.605-1.355-2.578-1.518l-1.473-0.246c-0.633-0.106-1.273-0.05-1.873,0.164l-0.703,0.25
					c-0.976,0.348-1.793,1.094-2.299,2.1l-0.245,0.488c-0.359,0.713-0.546,1.529-0.545,2.367l0.002,1.242
					c0.001,0.472,0.274,6.698,0.274,6.698l0.95,8.504c0.062,0.475,0.593,3.782,0.695,4.25l1.243,5.289
					c0.102,0.466,0.672,2.459,0.816,2.914l4.078,12.726c0.134,0.499,1.338,3.845,1.623,4.55c0.317,0.783,0.839,2.19,0.945,2.573
					l0.672,1.682c0.318,0.779,0.47,0.902,0.889,1.477c0,0,1.826,1.389,2.902,1.512l0.878,0.1c0.526,0.06,1.059-0.001,1.558-0.18
					l1.708-0.612c0.632-0.227,1.196-0.635,1.639-1.187l0.471-0.587c0.338-0.421,0.699-1.096,0.956-1.617
					c0.248-0.504,0.367-1.06,0.347-1.621c-0.024-0.686,0.016-1.439-0.181-2.428c-0.109-0.546-0.231-1.701-0.308-2.11l-0.521-2.72
					c-0.256-1.655-0.388-3.13-0.651-5.123l-1.301-9.569c-0.095-0.756-0.408-2.698-0.566-3.444l-1.511-7.127
					c-0.143-0.706-0.832-3.353-1.033-4.044l-2.02-6.443C516.207,217.797,513.401,213.979,513.289,213.701z"/>
				<path fill="#767C50" d="M516.272,218.089l-0.891-2.486c-0.141-0.403-0.928-2.035-1.039-2.313l-1.118-2.15
					c-0.215-0.537-1.391-1.747-1.391-1.747c-0.694-0.585-1.406-0.944-2.436-1.266l-1.639-0.143c-0.75-0.049-1.65-0.017-2.25,0.196
					l-1.37,0.46c-1.143,0.714-1.482,0.973-1.983,1.792l-0.458,1.11c-0.231,0.824-0.367,1.32-0.366,2.129l-0.05,2.472
					c0.065,0.874,0.24,2.077,0.32,2.797l0.39,2.385L516.272,218.089z"/>
				<g>
					<polygon fill="#7D8393" points="500.84,220.648 501.665,231.673 502.817,239.045 505.12,247.029 510.727,261.511 
						516.692,261.166 523.117,259.666 525.731,257.693 523.28,237.451 520.193,223.959 515.964,212.983 508.244,218.483 					"/>
					<path fill="#6B717F" d="M500.716,220.581l4.185-1.454c2.303-0.8,4.479-2.045,6.438-3.683l4.423-3.699
						c0.417-0.349,0.797-0.756,1.13-1.213l0,0c0.428-0.587,0.775-1.248,1.028-1.959l0.57-1.605c0.248-0.7,0.445-1.422,0.588-2.16
						l0.134-0.69c0.079-0.409,0.586-0.376,0.619,0.04l0.154,1.946c0.038,0.483,0.026,0.969-0.035,1.45l-0.599,4.663
						c-0.055,0.425-0.13,0.846-0.227,1.261l-0.485,2.083c-0.225,0.967-0.746,1.806-1.464,2.356l-5.718,4.386
						c-1.209,0.928-2.549,1.595-3.955,1.97l-6.557,1.749c-0.476,0.127-0.929-0.284-0.941-0.855l-0.077-3.662
						C499.914,220.991,500.276,220.568,500.716,220.581L500.716,220.581z"/>
					<path fill="#6B717F" d="M526.944,253.463l0.8,1.027l5.527,3.906c0.194,0.137,0.1,0.441-0.137,0.446l-5.785-0.219
						c-0.16-0.028-0.306,0.035-0.449,0.131c-0.494,0.335-1.059,0.55-1.652,0.617l-1.421,0.161c-0.249,0.028-0.497,0.07-0.739,0.135
						c-0.079,0.021-0.158,0.041-0.238,0.06l-1.979,0.462c-0.245,0.057-0.463,0.198-0.615,0.399l-0.656,1.148
						c-0.149,0.26-0.442,0.402-0.738,0.357l-2.718-0.413c-0.402-0.14-2.941-0.318-3.367-0.305l-2.273,0.187
						c-0.519,0.043-1.004-0.262-1.19-0.749l-1.336-3.497c-0.186-0.487,0.172-1.009,0.693-1.011l3.552-0.013
						c0.987-0.003,1.973-0.09,2.945-0.26l3.649-0.636c1.536-0.268,3.03-0.739,4.441-1.401l1.998-0.938
						C525.845,252.783,526.545,252.951,526.944,253.463z"/>
				</g>
			</g>
		</g>
		<g id="underpants9_1_">
			<path fill="#767C50" d="M513.184,211.182c-0.096-0.383-0.505-1.788-0.602-2.175l-1.008-3.301l-3.643,0.876
				c-1.831,0.44-3.697,0.663-5.568,0.664l-5.724,0.001c-1.871,0-3.737-0.222-5.568-0.661l-3.643-0.875l-1.039,3.37
				c-0.098,0.387-0.582,2.069-0.667,2.464l-1.04,3.505l7.472,0.7l2.87,0.124c1.139,0.049,2.269,0.253,3.367,0.607h0
				c0.722,0.233,1.486,0.235,2.209,0.004l0.014-0.004c1.098-0.355,2.228-0.559,3.367-0.609l2.87-0.125l7.473-0.703L513.184,211.182z
				"/>
			<path fill="#6B717F" d="M513.1,204.355l-5.797,1.395c-0.805,0.194-1.639,0.228-2.457,0.101l-3.093-0.479
				c-0.516-0.08-0.994-0.317-1.37-0.68l-0.496-0.479c-0.223-0.215-0.575-0.214-0.797,0.001l-0.489,0.474
				c-0.376,0.365-0.856,0.604-1.374,0.684l-3.09,0.479c-0.818,0.127-1.652,0.092-2.457-0.101l-5.88-1.415
				c-0.698-0.168-1.39,0.301-1.492,1.012l-0.461,3.203c-0.091,0.634,0.302,1.237,0.918,1.41l5.418,1.519
				c0.956,0.268,1.869,0.674,2.707,1.206l0.709,0.449c0.662,0.42,1.181,1.031,1.488,1.752l0,0.001
				c0.273,0.64,0.621,1.246,1.036,1.804l0.872,1.17c0.287,0.386,0.688,0.672,1.147,0.818l0.936,0.298
				c0.269,0.086,0.558,0.086,0.826,0l0.936-0.298c0.458-0.146,0.859-0.432,1.147-0.818l0.872-1.17
				c0.416-0.558,0.764-1.164,1.037-1.805h0c0.307-0.721,0.826-1.333,1.488-1.752l0.708-0.449c0.839-0.532,1.751-0.938,2.707-1.206
				l5.369-1.505c0.645-0.181,1.056-0.812,0.96-1.475l-0.441-3.067C514.579,204.675,513.843,204.176,513.1,204.355z"/>
		</g>
		<g id="left-arm10_2_">
			<g id="second-left-arm10_1_">
				<path fill="#EDD2BC" d="M473.267,144.297c0.624-0.32,2.357-0.591,3.056-0.533c0.705,0.058,2.333,0.716,2.837,1.031l1.106,0.98
					l1.064,1.451c0.37,1.073,0.481,2.459,0.181,3.569c0,0-0.907,2.121-1.442,2.733l-1.431,1.733c-0.637,0.728-1.556,1.53-2.316,2.1
					c-0.574,0.431-2.589,4.292-2.589,4.292l-2.721,4.485c-0.283,0.467-0.59,0.919-0.92,1.355c-0.784,1.036-2.274,2.992-3.163,4.158
					c-0.522,0.685-1.093,1.326-1.713,1.925c-2.046,1.975-6.09,5.746-6.09,5.746c-0.184,0.208-2.879,1.88-2.879,1.88l-1.002,0.695
					c-0.566,0.333-1.007,0.447-1.453,0.606l0.348-0.145c-0.703,0.249-1.463,0.258-2.166,0.008c-0.373-0.132-0.782-0.303-1.1-0.502
					l0,0c-0.695-0.433-1.807-1.444-1.807-1.444c-0.045-0.075-0.838-1.376-0.838-1.376l-0.356-1.535
					c0.235-0.734,0.573-1.682,1.096-2.248l0.72-1.805c0,0,1.211-2.767,1.613-3.479l2.654-4.255c0.785-1.154,2.4-3.564,3.288-4.641
					l4.749-5.44c1.191-1.489,5.749-5.079,5.749-5.079c0.519-0.817,0.773-1.07,1.43-2.083l1.773-2.351
					C471.39,145.657,473.118,144.374,473.267,144.297z"/>
				<g>
					<path fill="#7D8393" d="M468.346,145.381l-2.833,2.483c-3.759,3.294-7.193,6.942-10.254,10.894v0
						c-2.784,3.593-5.248,7.423-7.364,11.446l-1.496,2.842l6.02-0.742l5.136,1.669l5.231,4.314l1.935-1.612
						c2.799-2.332,5.335-4.962,7.564-7.843l2.177-2.815l2.007-3.423l-1.889-8.578L468.346,145.381z"/>
					<path fill="#6B717F" d="M446.398,173.046l3.691-0.455c1.534-0.189,3.091-0.039,4.561,0.438l0.993,0.323
						c1.263,0.41,2.437,1.055,3.461,1.9l3.68,3.036l0,0c0.49,0.44,1.231,0.443,1.726,0.008l2.564-2.255
						c0.589-0.518,0.591-1.435,0.004-1.955l-3.265-2.895c-1.869-1.657-4.087-2.87-6.49-3.55l-0.353-0.1
						c-1.82-0.515-3.714-0.715-5.601-0.592l-2.736,0.179c-0.173,0.011-0.345,0.029-0.516,0.054l-1.045,0.15
						c-1.022,0.146-2.062,0.098-3.065-0.143l-5.209-1.249c-0.293-0.07-0.476,0.306-0.241,0.494l4.621,3.689
						c0.624,0.498,1.12,1.137,1.447,1.865l0,0c0.309,0.687,1.012,1.109,1.764,1.059L446.398,173.046z"/>
				</g>
			</g>
			<g id="first-left-arm10_1_">
				<path fill="#EDD2BC" d="M450.756,215.572c-0.017-0.592,0.82-2.711,0.898-3.29l2.455-8.269c0,0,2.191-7.357,2.559-8.878
					c0.105-0.434,0.97-4.266,1.391-6.04c0.218-0.919,0.243-4.973,0.243-4.973c0.037-0.587-0.535-3.387-0.535-3.387
					c-0.04-0.613-0.777-2.712-0.777-2.712l-0.416-1.309c-0.06-0.295-0.167-0.578-0.316-0.838l-0.226-0.393
					c-0.218-0.38-0.523-0.703-0.888-0.943l-0.309-0.203c-0.38-0.25-0.815-0.404-1.268-0.447l-1.923-0.186
					c-0.756,0.153-0.99,0.127-2.006,0.666c0,0-0.79,0.636-1.291,1.375l-0.599,1.27l-0.46,0.86c-0.39,0.728-0.719,1.488-0.995,2.267
					c-0.299,0.844-0.631,1.609-0.905,2.694c-0.295,1.171-0.339,2.469-0.443,3.613c-0.099,1.091-0.15,3.508-0.091,4.602l0.569,9.355
					l0.478,11.154c-0.066,0.756,0.207,2.023-0.051,2.712l-0.062,0.165l0,0L450.756,215.572z"/>
				<path fill="#EDD2BC" d="M451.467,219.473l0.169,1.013c0.149,0.896-0.045,1.816-0.543,2.575l-0.174,0.265
					c-0.149,0.227-0.194,0.508-0.124,0.771l0.149,0.553c0.114,0.423,0.5,0.714,0.938,0.706l0,0c0.29-0.005,0.562-0.143,0.739-0.373
					l0.839-1.093c0.405-0.529,0.657-1.159,0.726-1.821l0.227-2.173L451.467,219.473z"/>
				<g>
					<polygon fill="#586A72" points="453.16,225.121 455.965,223.099 437.346,212.976 434.238,214.834 434.369,218.453 
						452.988,228.576 					"/>
					<polygon fill="#2E3C47" points="453.16,225.121 456.238,222.598 460.044,217.799 458.569,210.129 460.812,203.237 
						463.006,212.35 467.113,219.925 473.745,223.149 481.038,221.009 486.489,216.913 484.522,225.574 485.926,231.298 
						490.372,234.096 497.158,231.108 504.868,224.044 500.834,234.728 502.206,241.102 508.501,243.762 516.042,241.756 
						521.938,237.14 519.78,246.746 523.243,252.539 532.286,251.923 536.324,249.539 531.085,256.803 529.856,262.621 
						535.994,270.155 					"/>
					<polygon fill="#28333F" points="453.16,225.121 452.715,229.077 450.757,234.88 443.518,237.813 438.953,243.444 
						447.795,240.329 456.385,239.657 462.697,243.471 464.866,250.754 464.393,257.557 470.592,251.197 476.159,249.263 
						480.925,251.472 482.107,258.792 480.37,269.104 487.144,259.909 493.239,257.595 498.894,261.432 501.311,268.852 
						500.643,276.31 507.531,269.276 514.276,269.032 518.676,276.957 518.871,281.641 522.118,273.295 526.334,269.101 
						535.994,270.155 					"/>
					<polygon fill="#414F5B" points="535.994,270.155 529.856,262.621 531.085,256.803 536.324,249.539 532.286,251.923 
						523.243,252.539 519.78,246.746 521.938,237.14 516.042,241.756 508.501,243.762 502.206,241.102 500.834,234.728 
						504.868,224.044 497.158,231.108 490.372,234.096 485.926,231.298 484.522,225.574 486.489,216.913 481.038,221.009 
						473.745,223.149 467.113,219.925 463.006,212.35 460.812,203.237 458.569,210.129 460.044,217.799 455.965,223.099 
						462.76,218.81 465.165,223.262 473.652,228.118 479.654,226.422 481.845,234.629 489.807,239.562 496.179,236.979 
						498.872,245.458 508.495,249.238 514.87,247.745 521.711,257.633 526.672,257.185 526.052,262.775 526.467,264.976 					"/>
					<polygon fill="#33414C" points="535.994,270.155 526.334,269.101 522.118,273.295 518.871,281.641 518.676,276.957 
						514.276,269.032 507.531,269.276 500.643,276.31 501.311,268.852 498.894,261.432 493.239,257.595 487.144,259.909 
						480.37,269.104 482.107,258.792 480.925,251.472 476.159,249.263 470.592,251.197 464.393,257.557 464.866,250.754 
						462.697,243.471 456.385,239.657 447.795,240.329 438.953,243.444 443.518,237.813 450.757,234.88 452.988,228.576 
						453.082,236.61 458.127,236.208 466.817,240.691 468.657,246.65 476.736,244.027 485.205,248.026 486.502,254.779 
						495.083,252.429 503.487,258.449 505.7,264.612 517.718,264.977 520.039,269.384 524.394,265.824 526.467,264.976 					"/>
					<polygon fill="#2E3C47" points="434.238,214.834 437.346,212.976 434.383,207.132 437.829,203.24 442.086,202.974 
						436.969,199.708 430.203,201.473 421.759,208.05 					"/>
					<polygon fill="#28333F" points="434.238,214.834 434.368,218.453 427.852,219.144 426.46,224.152 428.551,227.87 
						423.028,225.351 420.83,218.713 421.759,208.05 					"/>
				</g>
				<path fill="#EDD2BC" d="M451.636,220.485c-0.079-0.146-0.447-0.136-0.458,0.03l-0.065,1.007l-0.861,5.306
					c-0.047,0.249-0.207,0.462-0.433,0.575l-0.319,0.16c-0.298,0.149-0.658,0.101-0.905-0.122l-0.247-0.222
					c-0.205-0.185-0.302-0.461-0.257-0.733l0.562-4.731l-0.956,4.107c-0.038,0.147-0.11,0.282-0.211,0.394l-0.339,0.377
					c-0.17,0.188-0.846,0.056-0.846,0.056c-0.308,0.012-0.702-0.257-0.702-0.257c-0.163-0.218-0.223-0.496-0.164-0.761l0.647-4.002
					l-1.062,3.457c-0.083,0.256-0.294,0.451-0.556,0.514c0,0-0.406,0.016-0.581-0.089l-0.489-0.293
					c-0.124-0.075-0.325-0.377-0.325-0.377c-0.088-0.173-0.109-0.372-0.058-0.559l0.589-2.926l-0.992,2.44
					c-0.07,0.189-0.207,0.346-0.384,0.442l-0.127,0.069c-0.311,0.169-0.959-0.113-0.959-0.113c-0.242-0.218-0.336-0.558-0.239-0.87
					l0.261-1.216c0.357-1.148,0.813-2.262,1.363-3.33l0.56-1.087c0.585-1.136,1.363-2.163,2.299-3.033l1.786-1.76l4.451,0.194
					l1.576,3.337l1.221,3.427L451.636,220.485z"/>
				<g>
					<polygon fill="#7D8393" points="444.794,178.623 449.499,180.882 454.533,182.033 459.726,182.578 460.035,188.277 
						458.636,195.66 455.387,206.309 452.648,215.103 448.26,214.904 444.406,213.897 444.04,205.054 443.566,195.53 
						443.455,186.391 					"/>
					<path fill="#6B717F" d="M446.095,178.762l1.657,1.032c1.157,0.72,2.425,1.243,3.753,1.547l1.898,0.434
						c0.752,0.172,1.516,0.293,2.284,0.362l4.842,0.435c0.559,0.05,1.001,0.494,1.05,1.053l0.249,2.853
						c0.07,0.799-0.6,1.467-1.399,1.396l-4.904-0.438c-1.074-0.096-2.137-0.296-3.172-0.596l-2.898-0.84
						c-1.086-0.315-2.138-0.739-3.139-1.266l-3.046-1.604c-0.793-0.418-1.516-0.957-2.143-1.597l-0.378-0.387
						c-0.472-0.482-0.982-0.925-1.525-1.324l-3.824-2.808c-0.208-0.153-0.059-0.481,0.193-0.425l4.858,1.09
						c0.512,0.115,1.034,0.185,1.558,0.208l1.484,0.067C444.414,177.995,445.311,178.274,446.095,178.762z"/>
					<path fill="#6B717F" d="M446.851,214.535c0.937,0.245,1.897,0.39,2.865,0.434l2.932,0.133l0.477,0.022
						c0.541,0.025,1.033-0.309,1.211-0.82l0.602-1.731c0.222-0.639-0.207-1.319-0.879-1.393l-4.667-0.518
						c-0.341-0.038-0.679-0.09-1.016-0.156l-4.676-0.923c-0.2-0.04-0.404-0.06-0.608-0.06l-2.906-0.001
						c-0.74,0-1.48-0.057-2.211-0.169l-2.524-0.388c-0.192-0.029-0.285,0.226-0.12,0.327l3.166,1.933
						c0.599,0.366,1.225,0.687,1.871,0.96l4.039,1.709L446.851,214.535z"/>
				</g>
			</g>
		</g>
		<g id="right-arm10_2_">
			<g id="second-right-arm10_1_">
				<path fill="#EDD2BC" d="M525.967,144.598c-0.591-0.378-2.291-0.811-2.992-0.82c-0.707-0.009-2.39,0.492-2.922,0.757
					l-1.193,0.871l-1.197,1.344c-0.47,1.033-0.711,2.402-0.518,3.536c0,0,0.702,2.197,1.176,2.857l1.26,1.861
					c0.566,0.786,1.404,1.67,2.107,2.31c0.531,0.483,2.171,4.518,2.171,4.518l2.284,4.723c0.238,0.492,0.5,0.971,0.788,1.436
					c0.683,1.106,1.981,3.194,2.755,4.439c0.455,0.732,0.962,1.424,1.523,2.078c1.85,2.16,5.519,6.297,5.519,6.297
					c0.163,0.225,2.688,2.144,2.688,2.144l0.932,0.787c0.532,0.385,0.96,0.54,1.389,0.741l-0.332-0.177
					c0.676,0.314,1.432,0.395,2.156,0.213c0.384-0.097,0.807-0.228,1.143-0.395l0,0c0.732-0.365,1.936-1.266,1.936-1.266
					c0.052-0.071,0.964-1.29,0.964-1.29l0.499-1.494c-0.164-0.753-0.411-1.729-0.878-2.342l-0.546-1.865
					c0,0-0.944-2.869-1.276-3.616l-2.239-4.488c-0.672-1.223-2.052-3.775-2.834-4.931l-4.212-5.865
					c-1.045-1.595-5.242-5.6-5.242-5.6c-0.44-0.862-0.669-1.139-1.227-2.209l-1.542-2.509
					C527.707,146.129,526.108,144.688,525.967,144.598z"/>
				<g>
					<path fill="#7D8393" d="M530.991,146.304l2.541,2.781c3.371,3.69,6.38,7.696,8.984,11.963v0
						c2.369,3.88,4.393,7.959,6.051,12.191l1.172,2.991l-5.901-1.404l-5.29,1.09l-5.676,3.708l-1.744-1.817
						c-2.523-2.628-4.752-5.522-6.648-8.633l-1.852-3.039l1.211-11.941L530.991,146.304z"/>
					<path fill="#6B717F" d="M549.739,176.23l-3.618-0.861c-1.504-0.358-3.068-0.382-4.582-0.07l-1.023,0.211
						c-1.3,0.268-2.539,0.778-3.65,1.504l-3.994,2.609l0,0c-0.536,0.383-1.273,0.304-1.716-0.183l-2.298-2.525
						c-0.528-0.58-0.428-1.492,0.213-1.944l3.566-2.515c2.041-1.439,4.38-2.4,6.843-2.809l0.362-0.06
						c1.866-0.31,3.771-0.299,5.633,0.033l2.699,0.481c0.17,0.03,0.34,0.067,0.507,0.111l1.022,0.265
						c0.999,0.259,2.038,0.326,3.062,0.198l5.315-0.664c0.299-0.037,0.44,0.357,0.185,0.517l-5.001,3.154
						c-0.675,0.426-1.239,1.006-1.644,1.694l0,0c-0.383,0.649-1.129,0.99-1.87,0.857L549.739,176.23z"/>
				</g>
			</g>
			<g id="first-right-arm10_1_">
				<path fill="#EDD2BC" d="M534.647,216.789l-0.02-0.001c0.169-0.567-0.094-2.831-0.021-3.411l-0.245-8.622
					c0,0-0.225-7.673-0.189-9.237c0.01-0.446,0.16-4.372,0.21-6.194c0.026-0.944,1.045-4.869,1.045-4.869
					c0.116-0.577,1.388-3.136,1.388-3.136c0.197-0.582,1.448-2.421,1.448-2.421l0.739-1.158c0.133-0.269,0.31-0.516,0.521-0.729
					l0.319-0.322c0.309-0.311,0.686-0.545,1.101-0.683l0.351-0.117c0.432-0.144,0.892-0.18,1.34-0.106l1.906,0.315
					c0.691,0.342,0.924,0.377,1.767,1.16c0,0,0.6,0.818,0.894,1.661l0.252,1.381l0.223,0.949c0.189,0.804,0.311,1.623,0.378,2.447
					c0.072,0.892,0.196,1.717,0.181,2.836c-0.016,1.208-0.308,2.473-0.501,3.605c-0.185,1.08-0.757,3.429-1.096,4.471l-2.956,8.894
					l-3.331,10.656c-0.131,0.747-1.092,3.436-1.092,3.436L534.647,216.789z"/>
				<path fill="#EDD2BC" d="M539.484,220.092l-0.225-2.497l-4.154-1.644l-3.148,1.005l-2.726,1.262l-1.749,1.31
					c-0.533,0.399-0.945,0.938-1.191,1.558l-0.508,1.281c-0.107,0.27-0.085,0.574,0.059,0.825l0,0
					c0.218,0.38,0.666,0.563,1.087,0.443l0.551-0.156c0.262-0.074,0.479-0.257,0.598-0.502l0.138-0.285
					c0.396-0.818,1.086-1.456,1.932-1.788l0.956-0.374c0.155-0.061,0.292,0.119,0.193,0.252l-0.601,0.81l-2.523,3.637l-2.38,4.179
					c-0.125,0.22-0.141,0.486-0.041,0.719l0.14,0.328c0.131,0.307,0.437,0.502,0.77,0.492l0.332-0.01
					c0.276-0.008,0.529-0.157,0.67-0.393l2.003-3.34l2.757-3.843l-2.399,4.197l-1.83,3.776c-0.066,0.136-0.098,0.286-0.093,0.437
					l0.015,0.507c0.008,0.253,0.118,0.493,0.305,0.664l0,0c0.228,0.208,0.543,0.291,0.844,0.222l0.163-0.038
					c0.265-0.061,0.49-0.234,0.618-0.475l2.026-3.824l2.372-3.871l-2.036,4.186l-1.246,3.042c-0.102,0.25-0.067,0.534,0.092,0.752
					l0,0c0.12,0.164,0.3,0.275,0.501,0.307l0.563,0.092c0.143,0.023,0.289,0.006,0.423-0.049l0.069-0.029
					c0.179-0.074,0.324-0.213,0.405-0.389l1.111-2.388l2.189-4.129l-2.047,5.681c-0.068,0.19-0.066,0.397,0.007,0.585l0.052,0.135
					c0.128,0.331,0.451,0.545,0.805,0.534l0,0c0.326-0.01,0.617-0.209,0.744-0.509l1.814-4.274c0.469-1.106,0.842-2.251,1.113-3.422
					l0.276-1.191C539.565,222.647,539.635,221.361,539.484,220.092z"/>
				<g>
					<path fill="#7D8393" d="M549.96,183.408l-5.129,0.961l-5.161-0.193l-5.157-0.82l-1.776,5.424l-0.564,7.493l0.376,11.128
						l0.365,9.203l4.039,0.89c0.166,0.037,0.336,0.056,0.507,0.057l3.728,0.025l2.646-8.445l2.929-9.076l2.476-8.798L549.96,183.408
						z"/>
					<path fill="#6B717F" d="M548.668,183.205l-1.867,0.567c-1.304,0.396-2.665,0.572-4.026,0.521l-1.946-0.073
						c-0.771-0.029-1.54-0.11-2.3-0.243l-4.789-0.836c-0.553-0.096-1.095,0.217-1.287,0.744l-0.98,2.691
						c-0.274,0.754,0.199,1.572,0.989,1.711l4.85,0.848c1.062,0.186,2.14,0.269,3.218,0.247l3.017-0.06
						c1.131-0.022,2.256-0.159,3.36-0.409l3.358-0.759c0.874-0.198,1.713-0.531,2.484-0.987l0.466-0.275
						c0.58-0.343,1.188-0.638,1.816-0.883l4.422-1.72c0.241-0.094,0.181-0.45-0.076-0.46l-4.975-0.208
						c-0.525-0.022-1.046-0.09-1.559-0.203l-1.451-0.32C550.49,182.9,549.552,182.936,548.668,183.205z"/>
					<path fill="#6B717F" d="M538.511,217.617c-0.968-0.018-1.932-0.138-2.876-0.357l-2.859-0.665l-0.465-0.108
						c-0.527-0.123-0.911-0.577-0.944-1.117l-0.111-1.829c-0.041-0.675,0.556-1.214,1.223-1.104l4.633,0.764
						c0.338,0.056,0.678,0.097,1.02,0.124l4.752,0.377c0.204,0.016,0.405,0.052,0.602,0.107l2.798,0.786
						c0.713,0.2,1.44,0.346,2.175,0.436l2.534,0.31c0.193,0.024,0.214,0.295,0.027,0.348l-3.571,1.004
						c-0.676,0.19-1.365,0.33-2.061,0.418l-4.35,0.553L538.511,217.617z"/>
				</g>
			</g>
		</g>
		<g>
			<g id="body10_2_">
				<g>
					<path fill="#EDD2BC" d="M487.663,139.708l-2.4,0.517c-1.996,0.43-3.948,1.016-5.833,1.753l-2.995,1.17
						c-1.305,0.51-2.515,1.209-3.584,2.07c-0.594,0.479-1.032,1.103-1.262,1.801l-0.208,0.63c-0.342,1.034-0.372,2.135-0.088,3.185
						c0.276,1.016,0.836,1.947,1.625,2.699l0.182,0.173c0.704,0.671,4.181,4.272,4.998,5.457c0.649,0.943,1.944,4.364,2.19,5.458
						c0,0,1.365,7.132,1.485,7.834c0,0,0.579,3.3,0.942,5.474c0.217,1.301,0.5,2.591,0.849,3.863l1.2,4.101
						c0.339,1.158,0.616,2.331,0.831,3.519c0.322,1.78,0.783,4.273,0.783,4.273c0.101,0.629,0.666,5.053,0.706,5.688
						c0.172,2.753,0.343,6.339,0.343,6.339l5.668,1.536l6.409,0.46l-0.01-69.47l-5.078,0.449
						C492.144,138.888,489.888,139.229,487.663,139.708z"/>
					<path fill="#EDD2BC" d="M527.607,147.649l-0.208-0.63c-0.23-0.698-0.667-1.322-1.262-1.801c-1.069-0.861-2.278-1.56-3.584-2.07
						l-2.995-1.17c-1.885-0.737-3.836-1.323-5.833-1.753l-2.4-0.517c-2.224-0.479-4.481-0.82-6.754-1.021l-5.078-0.449l0.01,69.471
						v-0.001l6.39-0.46l5.679-1.541c0,0,0.16-3.581,0.332-6.334c0.04-0.635,0.604-5.059,0.706-5.688c0,0,0.461-2.492,0.783-4.273
						c0.214-1.188,0.492-2.361,0.831-3.519l1.2-4.101c0.349-1.272,0.632-2.561,0.849-3.863c0.363-2.174,0.942-5.474,0.942-5.474
						c0.12-0.702,1.485-7.834,1.485-7.834c0.246-1.094,1.542-4.515,2.19-5.458c0.817-1.186,4.294-4.787,4.998-5.457l0.182-0.173
						c0.789-0.752,1.349-1.683,1.625-2.699C527.979,149.784,527.949,148.683,527.607,147.649z"/>
				</g>
				<path id="neck_4_" fill="#EDD2BC" d="M506.488,139.025L506.488,139.025l-0.735-2.217c-0.209-0.629-0.352-1.281-0.427-1.944l0,0
					c-0.089-0.783-0.082-1.572,0.02-2.354l0.337-2.581c0,0,0,0,0,0l-6.19,0.398l0,0l-6.19-0.395l0,0l0.338,2.581
					c0.102,0.782,0.109,1.571,0.021,2.353l0,0c-0.075,0.663-0.218,1.314-0.426,1.943l-0.735,2.217c0,0,0,0,0,0L506.488,139.025z"/>
				<ellipse fill="#E5C5AC" cx="489.534" cy="164.932" rx="1.282" ry="1.186"/>
				<ellipse fill="#E5C5AC" cx="499.491" cy="195.186" rx="1.455" ry="0.593"/>
				<ellipse fill="#E5C5AC" cx="510.471" cy="164.932" rx="1.282" ry="1.186"/>
				<path fill="none" stroke="#E5C5AC" stroke-miterlimit="10" d="M481.218,160.821c1.22,2.542,1.854,5.353,3.987,7.469
					c0.429,0.426,0.927,0.823,1.543,1.058c0.733,0.28,1.57,0.307,2.38,0.33c0.725,0.02,1.45,0.04,2.175,0.06
					c1.12,0.031,2.256,0.061,3.361-0.067c0.632-0.073,1.219-0.313,1.706-0.657l0.753-0.532"/>
				<path fill="none" stroke="#E5C5AC" stroke-miterlimit="10" d="M517.772,160.821c-1.22,2.542-1.854,5.353-3.987,7.469
					c-0.429,0.426-0.927,0.823-1.542,1.058c-0.733,0.28-1.57,0.307-2.38,0.33c-0.725,0.02-1.45,0.04-2.175,0.06
					c-1.157,0.032-2.331,0.063-3.47-0.08c-0.563-0.07-1.077-0.307-1.469-0.651l-0.595-0.524"/>
				<path fill="none" stroke="#E5C5AC" stroke-miterlimit="10" d="M499.513,174.361c0.2,0.888,0.197,1.811-0.009,2.698
					c-0.106,0.457-0.257,0.962,0.016,1.364c-0.714-0.028-1.577,0.08-2.286,0.159c-0.349,0.039-0.694,0.103-1.043,0.143
					c-0.735,0.084-1.48,0.057-2.22,0.029c-0.293,0.024-0.643,0.006-0.936,0.029c-0.277,0.022-0.554,0.045-0.83,0.074"/>
				<path fill="none" stroke="#E5C5AC" stroke-miterlimit="10" d="M499.892,178.537c0.81,0.09,1.619-0.146,2.435-0.165
					c0.721-0.017,1.432,0.134,2.132,0.285c0.514,0.11,1.111,0.241,1.636,0.245"/>
				<path fill="none" stroke="#E5C5AC" stroke-miterlimit="10" d="M498.926,185.056c-1.996-0.003-3.992,0.024-5.987,0.081
					c-0.16-0.066-0.288-0.162-0.462-0.17c-0.208-0.01-0.408,0.065-0.612,0.107c-0.312,0.065-0.634,0.054-0.953,0.043"/>
				<path fill="none" stroke="#E5C5AC" stroke-miterlimit="10" d="M500.083,185.037c1.974,0.045,3.948,0.081,5.923,0.106
					c0.608,0.008,1.3,0.112,1.907,0.077"/>
				<path fill="none" stroke="#E5C5AC" stroke-miterlimit="10" d="M499.303,185.444c0.494,1.261,0.421,2.627,0.343,3.957
					c-0.024,0.405-0.048,0.809-0.071,1.214c-0.058,0.988-0.116,1.976-0.174,2.964"/>
				<path fill="none" stroke="#E5C5AC" stroke-miterlimit="10" d="M499.59,178.847c-0.078,0.598-0.156,1.196-0.234,1.794
					c-0.087,0.664-0.173,1.337-0.069,2c0.109,0.691,0.425,1.381,0.268,2.064"/>
				<path fill="none" stroke="#E5C5AC" stroke-miterlimit="10" d="M499.03,193.75c-0.694-0.155-1.418,0.005-2.13,0.064
					c-0.428,0.036-0.859,0.035-1.289,0.034c-0.561-0.001-1.123-0.003-1.684-0.004c-0.496-0.001-1.043-0.153-1.532-0.066"/>
				<path fill="none" stroke="#E5C5AC" stroke-miterlimit="10" d="M499.77,193.827c1.907,0.014,3.814,0.028,5.722,0.042
					c0.322,0.002,0.726-0.042,1.047-0.026"/>
			</g>
			<path fill="#7D8393" d="M515.382,138.393l-5.874-1.603l-1.595-2.085l-8.418,3.688l-7.992-3.183l-1.208,1.579l-5.874,1.603
				l-5.841,31.098l1.641,8.067l1.24,8.621l2.126-0.407c2.308-0.442,4.496-1.401,6.414-2.813l3.034-2.232l6.857-3.178l6.876,3.178
				l3.034,2.233c1.918,1.411,4.106,2.371,6.414,2.812l2.126,0.407l1.24-8.621l1.641-8.067L515.382,138.393z"/>
			<path fill="#747A89" d="M519.205,185.386l-2.72-0.395c-1.83-0.266-3.556-1.013-5.002-2.165l-1.804-1.438
				c-0.7-0.558-1.464-1.031-2.276-1.409l-1.933-0.9c-0.936-0.436-1.675-1.207-2.071-2.161l-0.533-1.284
				c-1.104-2.662-1.761-5.488-1.945-8.363l-1.426-29.032l-0.867,29.075c-0.111,2.871-0.695,5.705-1.726,8.387l-0.35,0.91
				c-0.396,1.029-1.187,1.857-2.196,2.299l-1.259,0.552c-0.79,0.346-1.538,0.782-2.229,1.298l-2.713,2.027
				c-1.395,1.042-3.029,1.719-4.753,1.967l-2.892,0.417c-0.704,0.102-1.189,0.761-1.075,1.464l0.497,3.068
				c0.117,0.72,0.82,1.189,1.53,1.021l3.083-0.565c1.677-0.308,3.268-0.976,4.662-1.958l2.534-1.785
				c0.862-0.607,1.781-1.128,2.745-1.556l4.374-1.942c0.658-0.292,1.41-0.293,2.068-0.001l4.385,1.941
				c0.969,0.429,1.893,0.952,2.76,1.563l2.519,1.775c1.399,0.986,2.996,1.655,4.68,1.961l3.508,0.638
				c0.72,0.131,1.403-0.368,1.498-1.093l0.324-2.471C520.716,186.335,520.095,185.515,519.205,185.386z"/>
			<g>
				<path fill="#6B717F" d="M486.239,137.411l-1.819-2.933l-1.538-1.685c-2.947-3.229-5.423-6.859-7.355-10.781l-2.288-4.644
					c-0.217-0.441-0.885-0.239-0.821,0.249l0.893,6.826c0.413,3.154,0.355,6.352-0.171,9.489l-0.081,0.485
					c-0.143,0.854-0.712,1.576-1.51,1.914l-4.783,2.03c-0.975,0.414-2.095,0.294-2.96-0.318l-3.025-2.138
					c-1.34-0.947-2.534-2.084-3.546-3.375l-0.771-0.984c-0.219-0.279-0.667-0.123-0.664,0.232l0.053,6.767
					c0.006,0.765-0.157,1.522-0.479,2.216l-0.658,1.422c-0.182,0.393-0.409,0.763-0.677,1.102l-5.207,6.599l5.902-0.838
					c1.074-0.153,2.166-0.115,3.227,0.112l0,0c1.375,0.293,2.789,0.355,4.184,0.183l4.519-0.558
					c1.236-0.153,2.467,0.322,3.281,1.265l1.746,2.024c0.927,1.074,1.6,2.343,1.971,3.712l3.784,13.978l2.904,1.336
					c2.686,1.236,5.103,2.988,7.113,5.156l5.116,5.519v-11.493c0-2.757,0.47-5.494,1.391-8.093l2.276-6.425l-4.239-6.769
					c-1.341-2.142-2.473-4.408-3.378-6.767l0,0C487.988,140.552,487.187,138.939,486.239,137.411z"/>
				<path fill="#6F7584" d="M465.199,139.028l-5.455,5.758l8.669-1.425c1.053-0.173,2.125,0.166,2.887,0.912l3.521,3.448
					c1.36,1.332,2.4,2.956,3.04,4.749l4.025,12.462l5.004,3.09l0.206-1.827c0.277-2.455,0.88-4.861,1.793-7.157l1.104-2.776
					l-4.427-7.274c-0.897-1.473-1.607-3.052-2.115-4.7v0c-0.526-1.708-1.546-3.221-2.93-4.351v0c-1.382-1.127-2.91-2.06-4.544-2.773
					l-3.148-1.374L465.199,139.028z"/>
			</g>
			<g>
				<path fill="#6B717F" d="M512.75,137.411l1.819-2.933l1.538-1.685c2.947-3.229,5.423-6.859,7.355-10.781l2.288-4.644
					c0.217-0.441,0.885-0.239,0.821,0.249l-0.893,6.826c-0.413,3.154-0.355,6.352,0.171,9.489l0.081,0.485
					c0.143,0.854,0.713,1.576,1.51,1.914l4.783,2.03c0.975,0.414,2.095,0.294,2.96-0.318l3.025-2.138
					c1.34-0.947,2.534-2.084,3.546-3.375l0.771-0.984c0.219-0.279,0.667-0.123,0.664,0.232l-0.053,6.767
					c-0.006,0.765,0.157,1.522,0.479,2.216l0.658,1.422c0.182,0.393,0.409,0.763,0.677,1.102l5.207,6.599l-5.902-0.838
					c-1.074-0.153-2.166-0.115-3.227,0.112l0,0c-1.375,0.293-2.789,0.355-4.183,0.183l-4.519-0.558
					c-1.236-0.153-2.467,0.322-3.281,1.265l-1.746,2.024c-0.927,1.074-1.6,2.343-1.971,3.712l-3.784,13.978l-2.904,1.336
					c-2.686,1.236-5.103,2.988-7.113,5.156l-5.116,5.519v-11.493c0-2.757-0.471-5.494-1.391-8.093l-2.277-6.425l4.239-6.769
					c1.341-2.142,2.473-4.408,3.378-6.767l0,0C511.002,140.552,511.803,138.939,512.75,137.411z"/>
				<path fill="#6F7584" d="M533.791,139.028l5.455,5.758l-8.669-1.425c-1.053-0.173-2.125,0.166-2.887,0.912l-3.521,3.448
					c-1.36,1.332-2.4,2.956-3.04,4.749l-4.026,12.462l-5.004,3.09l-0.206-1.827c-0.277-2.455-0.88-4.861-1.793-7.157l-1.104-2.776
					l4.427-7.274c0.897-1.473,1.607-3.052,2.115-4.7v0c0.526-1.708,1.546-3.221,2.93-4.351v0c1.382-1.127,2.911-2.06,4.544-2.773
					l3.148-1.374L533.791,139.028z"/>
			</g>
		</g>
		<g id="head-menu_2_">
			<g id="right-eye_3_">
				<path fill="#ECF5F4" d="M511.445,102.747l-0.251-0.272c-0.414-0.447-0.91-0.78-1.452-0.975l-0.153-0.055
					c-1.168-0.419-2.395-0.573-3.613-0.456h0c-1.104,0.107-2.165,0.54-3.08,1.259l-0.435,0.342
					c-0.334,0.262-0.599,0.624-0.768,1.046l-0.176,0.441c-0.139,0.347-0.163,0.74-0.068,1.106l0,0
					c0.059,0.228,0.162,0.437,0.302,0.612l0.034,0.042c0.822,1.032,1.872,1.789,3.037,2.192l0.156,0.054
					c0.972,0.336,1.997,0.416,3,0.234l0,0c1.4-0.254,2.696-1.008,3.703-2.154l0,0c0.32-0.364,0.502-0.857,0.508-1.374l0-0.032
					C512.196,103.997,511.926,103.268,511.445,102.747z"/>
				<ellipse fill="#80A9A7" cx="506.796" cy="104.687" rx="1.899" ry="2.183"/>
				<ellipse fill="#495B5A" cx="506.796" cy="104.687" rx="0.765" ry="0.88"/>
				<path id="rigth-upper-eyelid_3_" fill="#D8BFAD" d="M511.788,103.223l0.54,0.389l-0.297-2.661l-1.295-2.047H503.3l-1.974,2.048
					l-0.178,3.324l0.486-0.496l0,0l0.611-0.375c0.638-0.391,1.313-0.696,2.012-0.909l0,0c0.587-0.179,1.188-0.291,1.793-0.337
					l0.468-0.035c0.96-0.072,1.925,0.027,2.859,0.293l0.778,0.221c0.224,0.064,0.447,0.137,0.666,0.22L511.788,103.223z"/>
				<path id="right-lower-eyelid_3_" fill="#D8BFAD" d="M501.882,105.984l0.624,0.379c0.474,0.288,0.972,0.519,1.488,0.689
					l0.813,0.269c0.813,0.269,1.659,0.384,2.505,0.34l0,0c0.507-0.026,1.01-0.109,1.502-0.247l0.094-0.026
					c0.859-0.241,1.676-0.649,2.416-1.206l0.567-0.323l0.507-0.5l-0.21,2.88l-2.957,2.314h-5.317l-2.523-2.314l-0.102-2.672
					L501.882,105.984z"/>
			</g>
			<g id="left-eye_3_">
				<path fill="#ECF5F4" d="M487.617,102.798l0.249-0.274c0.41-0.452,0.904-0.79,1.444-0.99l0.153-0.057
					c1.164-0.431,2.39-0.599,3.609-0.495l0,0c1.105,0.095,2.17,0.517,3.09,1.226l0.437,0.337c0.336,0.259,0.604,0.617,0.776,1.037
					l0.18,0.439c0.142,0.345,0.169,0.738,0.077,1.105l0,0c-0.057,0.228-0.159,0.439-0.297,0.616l-0.033,0.043
					c-0.814,1.041-1.857,1.809-3.019,2.225l-0.155,0.056c-0.969,0.347-1.994,0.438-2.998,0.267h0
					c-1.402-0.239-2.704-0.978-3.72-2.114v0c-0.323-0.36-0.509-0.852-0.519-1.369l-0.001-0.032
					C486.876,104.056,487.139,103.324,487.617,102.798z"/>
				<ellipse fill="#80A9A7" cx="492.282" cy="104.687" rx="1.899" ry="2.183"/>
				<ellipse fill="#495B5A" cx="492.282" cy="104.687" rx="0.765" ry="0.88"/>
				<path id="left-upper-eyelid_3_" fill="#D8BFAD" d="M487.277,103.277l-0.667,0.447l0.315-3.213l3.603-1.969l4.811,0.241
					l2.418,2.091l0.171,3.381l-0.494-0.531l-0.614-0.368c-0.641-0.384-1.319-0.682-2.02-0.887v0
					c-0.588-0.172-1.19-0.279-1.796-0.317l-0.469-0.03c-0.961-0.061-1.924,0.048-2.857,0.324l-0.776,0.23
					c-0.224,0.066-0.445,0.142-0.664,0.227L487.277,103.277z"/>
				<path id="left-lower-eyelid_3_" fill="#D8BFAD" d="M497.206,105.931l-0.621,0.386c-0.472,0.293-0.968,0.529-1.482,0.705
					l-0.811,0.278c-0.811,0.278-1.656,0.402-2.502,0.368l0,0c-0.507-0.021-1.011-0.098-1.504-0.231l-0.094-0.025
					c-0.861-0.232-1.681-0.631-2.426-1.179l-0.569-0.316l-0.519-0.455l0.212,2.953l2.765,2.401l5.808-0.262l2.279-2.27l0.066-2.822
					L497.206,105.931z"/>
			</g>
			<path id="face1_3_" fill="#E5C2A5" d="M515.663,96.723l-0.067-2.972c-0.032-1.404-0.261-2.792-0.679-4.103
				c-0.327-1.028-0.815-1.971-1.436-2.778c-0.943-1.224-2.04-2.26-3.251-3.069c-0.773-0.517-1.598-0.914-2.454-1.182l-0.426-0.133
				c-1.967-0.616-3.98-0.995-6.009-1.131c-1.235-0.083-2.474-0.082-3.709,0.001l-0.023,0.002c-2.032,0.138-4.049,0.519-6.018,1.138
				l-0.421,0.132c-0.855,0.269-1.679,0.667-2.452,1.185l0,0c-1.211,0.811-2.307,1.848-3.249,3.073l0,0
				c-0.621,0.808-1.108,1.751-1.434,2.78l0,0c-0.416,1.312-0.645,2.699-0.676,4.103l-0.065,2.972
				c-0.016,0.744-0.007,1.489,0.028,2.232l0.22,4.714l0.291,6.024c0.114,2.36,0.516,4.687,1.192,6.906l0.155,0.51
				c0.806,2.642,1.772,5.209,2.891,7.679c0.99,2.184,2.29,4.14,3.843,5.778c0.745,0.786,1.633,1.349,2.592,1.642h0
				c1.495,0.458,3.032,0.689,4.575,0.688l0.821,0c1.543-0.001,3.079-0.234,4.575-0.693c0.959-0.294,1.846-0.858,2.59-1.645
				l0.001-0.001c1.551-1.64,2.85-3.597,3.838-5.782l0-0.001c1.118-2.471,2.082-5.039,2.886-7.682l0.155-0.511
				c0.675-2.22,1.075-4.547,1.187-6.908l0.287-6.024l0.216-4.715C515.671,98.211,515.68,97.466,515.663,96.723z M497.633,105.097
				c-0.057,0.228-0.159,0.439-0.297,0.616l-0.033,0.043c-0.049,0.062-0.101,0.12-0.151,0.181l0.054-0.033
				c-0.585,0.723-1.29,1.298-2.07,1.698c-0.275,0.148-0.56,0.275-0.852,0.379l-0.155,0.056c-0.365,0.131-0.739,0.225-1.116,0.282
				c-0.596,0.097-1.203,0.098-1.802-0.001l-0.13-0.021c-0.9-0.149-1.755-0.52-2.514-1.075c-0.414-0.294-0.804-0.638-1.157-1.032
				c-0.323-0.36-0.509-0.852-0.519-1.369l-0.001-0.032c-0.015-0.76,0.249-1.492,0.726-2.018l0.045-0.05l0.032-0.044
				c0.053-0.059,0.108-0.116,0.164-0.172l0.008-0.009c0.002-0.002,0.005-0.004,0.007-0.007c0.016-0.016,0.032-0.032,0.049-0.048
				c0.399-0.423,0.872-0.744,1.389-0.936l0.081-0.03c0.047-0.019,0.094-0.039,0.141-0.056c0.748-0.271,1.522-0.428,2.302-0.475
				c0.412-0.027,0.825-0.025,1.238,0.01c1.014,0.087,1.993,0.453,2.859,1.06c0.088,0.06,0.175,0.119,0.261,0.183l0.301,0.227
				c0.037,0.028,0.07,0.062,0.105,0.092l0.002,0.001c0.005,0.004,0.009,0.009,0.014,0.012c0.061,0.052,0.124,0.102,0.18,0.16
				c0.245,0.237,0.445,0.53,0.582,0.865l0.059,0.143l0,0l0,0l0.121,0.296C497.698,104.337,497.725,104.73,497.633,105.097z
				 M512.187,104.76c-0.006,0.517-0.188,1.011-0.508,1.374c-0.35,0.399-0.737,0.746-1.149,1.045
				c-0.754,0.563-1.605,0.943-2.504,1.102l-0.13,0.023c-0.599,0.106-1.205,0.111-1.802,0.021c-0.377-0.054-0.751-0.144-1.118-0.27
				l-0.156-0.054c-0.293-0.101-0.579-0.225-0.855-0.37c-0.783-0.392-1.493-0.959-2.083-1.676l0.054,0.033
				c-0.051-0.06-0.103-0.117-0.153-0.179l-0.034-0.042c-0.14-0.175-0.243-0.385-0.302-0.612c-0.095-0.366-0.071-0.759,0.068-1.106
				l0.119-0.297v0l0.057-0.144c0.134-0.336,0.332-0.631,0.575-0.871c0.056-0.058,0.118-0.109,0.178-0.162
				c0.005-0.004,0.009-0.009,0.014-0.013l0.002-0.001c0.035-0.03,0.068-0.065,0.105-0.093l0.3-0.23
				c0.085-0.065,0.172-0.126,0.26-0.186c0.861-0.616,1.836-0.993,2.849-1.09c0.413-0.04,0.827-0.046,1.239-0.023
				c0.78,0.039,1.554,0.188,2.304,0.45c0.048,0.017,0.094,0.036,0.142,0.055l0.082,0.029c0.519,0.186,0.994,0.502,1.397,0.921
				c0.016,0.016,0.033,0.031,0.049,0.048c0.002,0.002,0.005,0.004,0.007,0.006l0.008,0.009c0.056,0.056,0.112,0.112,0.165,0.17
				l0.032,0.044l0.046,0.049c0.482,0.521,0.751,1.25,0.743,2.01L512.187,104.76z"/>
			<g id="nose_4_">
				<path fill="#DDB99F" d="M502.566,114.671l-0.865-0.475c-0.337-0.185-0.584-0.555-0.667-0.999l-0.343-1.839
					c-0.103-0.551-0.168-1.112-0.195-1.677l-0.138-2.901c-0.021-0.439-0.017-0.88,0.013-1.318l0.078-1.162
					c0.047-0.696-0.397-1.292-0.963-1.292l0,0c-0.565,0-1.009,0.597-0.963,1.292l0.078,1.162c0.03,0.438,0.034,0.879,0.013,1.318
					l-0.138,2.901c-0.027,0.565-0.092,1.126-0.195,1.677l-0.343,1.839c-0.083,0.444-0.33,0.814-0.667,0.999l-0.865,0.475
					c-0.322,0.177-0.604,0.446-0.824,0.786l-0.158,0.244c-0.212,0.327-0.25,0.776-0.099,1.151l0,0
					c0.107,0.264,0.314,0.443,0.552,0.475l0.893,0.123c0.41,0.056,0.822,0.085,1.235,0.085h1.48h1.48
					c0.413,0,0.825-0.028,1.235-0.085l0.893-0.123c0.237-0.033,0.445-0.212,0.552-0.475l0,0c0.152-0.375,0.113-0.824-0.099-1.151
					l-0.158-0.244C503.17,115.117,502.888,114.848,502.566,114.671z"/>
				<path fill="#E0BCA2" d="M498.2,107.744c0.157-0.907,0.254-1.829,0.29-2.755l0.032-0.834l0.107,1.688
					c0.012,0.186,0.013,0.372,0.004,0.558l-0.182,3.832c-0.009,0.198-0.032,0.395-0.068,0.588l-0.444,2.379
					c-0.083,0.442-0.329,0.811-0.664,0.995l-1.273,0.767l0.265-0.598c0.509-1.007,0.868-2.062,1.196-3.179l0.022-0.075
					c0.215-0.732,0.39-1.482,0.522-2.243L498.2,107.744z"/>
				<path fill="#E0BCA2" d="M500.736,107.556c-0.137-0.78-0.222-1.573-0.254-2.371l-0.041-1.028l-0.088,1.427
					c-0.022,0.36-0.024,0.722-0.006,1.083l0.173,3.501c0.012,0.244,0.041,0.486,0.086,0.725l0.449,2.376
					c0.076,0.4,0.299,0.734,0.604,0.9l1.363,0.84l-0.379-0.834c-0.44-0.866-0.773-1.794-1.058-2.754l-0.137-0.462
					c-0.187-0.629-0.338-1.274-0.453-1.929L500.736,107.556z"/>
				<path fill="#AE9F80" d="M496.311,117.358l0.261-0.069c0.227-0.06,0.459-0.091,0.692-0.091h0.27c0.431,0,0.858,0.105,1.257,0.308
					l0,0h-0.785l-0.882-0.049L496.311,117.358z"/>
				<path fill="#AE9F80" d="M502.836,117.334l-0.238-0.05c-0.276-0.058-0.558-0.078-0.838-0.061l-0.285,0.018
					c-0.267,0.016-0.53,0.067-0.786,0.15l-0.354,0.115l0.577-0.002l0.674-0.03l0.67-0.065L502.836,117.334z"/>
			</g>
			<g id="mouth1_3_">
				<path fill="#C66B4A" d="M506.787,121.673l-0.896,0.279c-0.41,0.128-0.831,0.204-1.256,0.227l-0.979,0.053
					c-0.484,0.026-0.969,0.001-1.449-0.077l-0.541-0.087c-0.614-0.099-1.24,0.02-1.794,0.34v0c-0.243,0.14-0.529,0.14-0.772,0
					l-0.001,0c-0.554-0.321-1.179-0.44-1.793-0.341l-0.541,0.087c-0.48,0.077-0.965,0.102-1.448,0.075l-0.98-0.054
					c-0.424-0.023-0.845-0.1-1.255-0.228l-0.896-0.28c-0.294-0.092-0.607,0.045-0.774,0.338l0,0l0,0.001
					c0.163,0.586,0.46,1.11,0.86,1.518l0.083,0.084c0.53,0.54,1.127,0.985,1.772,1.321l0.423,0.22
					c0.52,0.271,1.061,0.488,1.615,0.648l0.172,0.05c0.976,0.282,1.978,0.426,2.984,0.426l0.329,0c1.007,0,2.009-0.142,2.986-0.424
					l0.171-0.049c0.554-0.16,1.095-0.377,1.615-0.647l0.422-0.22c0.645-0.335,1.243-0.781,1.773-1.32l0.082-0.083
					c0.401-0.408,0.698-0.932,0.861-1.518v0l0,0C507.394,121.718,507.081,121.582,506.787,121.673z"/>
				<path fill="none" stroke="#C2573A" stroke-linecap="round" stroke-miterlimit="10" d="M491.503,122.065l1.165,0.632
					c0.52,0.282,1.064,0.504,1.623,0.661l1.224,0.345c0.451,0.127,0.909,0.221,1.371,0.281l1.442,0.187
					c0.813,0.105,1.634,0.102,2.446-0.009l1.424-0.194c0.666-0.091,1.322-0.256,1.96-0.493l1.721-0.64
					c0.269-0.1,0.533-0.215,0.792-0.344l0.777-0.389"/>
			</g>
			<path fill="#A67449" d="M498.289,98.664l0.008-0.362c0.018-0.792-0.411-1.506-1.062-1.766l0,0
				c-1.076-0.431-2.205-0.668-3.344-0.702l-1.763-0.053c-0.691-0.021-1.382,0.033-2.064,0.161l-1.33,0.249
				c-0.52,0.097-1.01,0.347-1.422,0.725l0,0c-0.444,0.407-0.741,0.988-0.833,1.632l-0.084,0.58c-0.052,0.36,0.272,0.636,0.557,0.474
				l0.083-0.047c0.781-0.446,1.606-0.784,2.457-1.007l0.391-0.103c0.63-0.165,1.272-0.266,1.917-0.303l0.867-0.049
				c0.805-0.045,1.611,0.011,2.405,0.167l0.265,0.052c0.718,0.141,1.423,0.364,2.103,0.665l0.279,0.123
				C497.989,99.221,498.281,98.997,498.289,98.664z"/>
			<path fill="#A67449" d="M500.854,98.664l-0.014-0.362c-0.031-0.791,0.387-1.515,1.033-1.789l0,0
				c1.069-0.454,2.193-0.715,3.332-0.774l1.762-0.091c0.69-0.036,1.382,0.004,2.066,0.117l1.334,0.221
				c0.522,0.086,1.015,0.325,1.433,0.694l0,0c0.45,0.397,0.756,0.972,0.86,1.614l0.093,0.578c0.058,0.359-0.262,0.642-0.549,0.486
				l-0.084-0.046c-0.789-0.429-1.618-0.749-2.472-0.954l-0.393-0.094c-0.633-0.152-1.276-0.239-1.922-0.262l-0.868-0.03
				c-0.805-0.028-1.611,0.045-2.402,0.219l-0.264,0.058c-0.716,0.157-1.417,0.395-2.092,0.71l-0.277,0.129
				C501.162,99.214,500.867,98.997,500.854,98.664z"/>
			<g id="left-ear_3_">
				<path fill="#E5C2A5" d="M483.685,106.21l-0.449-1.676c-0.123-0.458-0.424-0.824-0.816-0.99l-0.222-0.094
					c-0.606-0.256-1.285,0.023-1.612,0.663v0c-0.313,0.612-0.431,1.33-0.332,2.031l0.478,3.413l0.367,3.35
					c0.102,0.929,0.508,1.779,1.135,2.376l0,0c0.341,0.325,0.8,0.434,1.225,0.291l0,0c0.57-0.191,0.962-0.792,0.962-1.475v-4.496
					c0-0.133-0.015-0.265-0.044-0.393L483.685,106.21z"/>
				<path fill="#E0BCA2" d="M483.421,107.349l-0.25-0.933c-0.068-0.255-0.236-0.459-0.454-0.551l-0.124-0.052
					c-0.337-0.143-0.715,0.013-0.897,0.369l-0.134,0.262c-0.088,0.172-0.121,0.373-0.093,0.569l0.308,2.199l0.255,2.334
					c0.024,0.216,0.118,0.413,0.264,0.552l0.317,0.302c0.19,0.181,0.445,0.241,0.682,0.162h0c0.317-0.106,0.536-0.441,0.536-0.821
					v-1.635c0-0.65-0.073-1.297-0.218-1.925L483.421,107.349z"/>
			</g>
			<g id="right-ear_3_">
				<path fill="#E5C2A5" d="M515.191,106.211l0.451-1.675c0.123-0.458,0.425-0.823,0.817-0.988l0.222-0.093
					c0.606-0.255,1.284,0.025,1.611,0.666l0,0c0.312,0.613,0.429,1.331,0.33,2.032l-0.482,3.412l-0.371,3.35
					c-0.103,0.929-0.51,1.778-1.138,2.374l0,0c-0.341,0.324-0.8,0.432-1.225,0.289h0c-0.57-0.192-0.961-0.793-0.96-1.476
					l0.006-4.496c0-0.133,0.015-0.265,0.045-0.393L515.191,106.211z"/>
				<path fill="#E0BCA2" d="M515.453,107.351l0.251-0.932c0.069-0.255,0.237-0.458,0.455-0.55l0.124-0.052
					c0.337-0.142,0.715,0.014,0.897,0.37l0.134,0.262c0.087,0.172,0.12,0.373,0.092,0.569l-0.311,2.199l-0.258,2.334
					c-0.024,0.216-0.118,0.413-0.264,0.551l-0.317,0.301c-0.19,0.18-0.445,0.241-0.682,0.161l0,0
					c-0.317-0.107-0.535-0.442-0.535-0.822l0.002-1.635c0.001-0.65,0.075-1.297,0.22-1.925L515.453,107.351z"/>
			</g>
			<path id="hair_3_" fill="#93603E" d="M483.831,107.596l0.243-0.497c0.227-0.465,0.347-0.99,0.347-1.524v-9.522
				c0-1.151,0.39-2.257,1.087-3.083l1.823-2.161c0.241-0.285,0.609-0.372,0.928-0.217l0.469,0.227l1.94-1.275
				c0.163-0.107,0.364-0.101,0.522,0.015l0.707,0.521c0.216,0.159,0.347,0.434,0.347,0.73v0.13l1.284-1.322
				c0.129-0.133,0.33-0.111,0.435,0.047l0.487,0.732l1.395-1.356c0.09-0.088,0.223-0.085,0.31,0.006l0.604,0.626l0.225-0.193
				c0.165-0.141,0.402-0.053,0.463,0.172l0.105,0.384l0.919-1.376c0.085-0.128,0.253-0.128,0.338,0l0.678,1.014l0.614-0.393
				c0.133-0.085,0.3-0.041,0.388,0.102l0.66,1.076l1.233-1.245c0.117-0.118,0.29-0.124,0.413-0.015l0.943,0.838l0.749-1.292
				c0.086-0.149,0.28-0.133,0.347,0.028l0.333,0.802c0.061,0.146,0.092,0.305,0.092,0.466v0.72l0.594-0.791
				c0.114-0.152,0.177-0.345,0.177-0.546v-0.1c0-0.136,0.152-0.193,0.221-0.082l0.136,0.217c0.265,0.422,0.592,0.789,0.965,1.085
				l0.426,0.338v-0.41c0-0.179,0.178-0.28,0.301-0.172l1.011,0.883l1.025-0.835c0.128-0.104,0.306-0.065,0.391,0.087l0.317,0.566
				l0.398-0.555c0.178-0.249,0.506-0.259,0.695-0.021l1.277,1.602c0.806,1.012,1.265,2.326,1.289,3.698l0.171,9.572
				c0.009,0.486,0.074,0.969,0.194,1.435l0.104,0.403l0.569-2.274c0.099-0.395,0.284-0.753,0.538-1.042l0.007-0.008l0.16-3.696
				l0.324-1.207l-0.324-4.627v-3.179l-0.784-2.414l-0.404-2.052l-0.96-0.885l-0.665-2.454h-1.085l-1.505-1.811l-2.379-0.402
				l-2.413-1.368l-2.292,0.161l-2.06-0.885l-0.288,0.523l-2.751-1.167l-0.71,1.046h-3.901l-1.33,0.966l-0.84-0.161l-1.994,1.127
				h-1.12l-1.435,1.288l-2.889,1.891l0.545,0.201l-1.68,2.092l0.141,0.402l-1.106,2.535l0.325,0.362l-0.759,3.38l0.434,3.621
				l-0.259,0.62l0.551,3.932c0.022,0.158,0.04,0.316,0.054,0.475l0.149,1.687l0.328,0.469l0.422,1.488L483.831,107.596z"/>
		</g>
		<g>
			<path fill="#767B8C" d="M519.586,82.866l-1.795-19.482c-0.032-0.346-0.513-0.404-0.626-0.076l-3.014,8.732
				c-0.282,0.816-0.904,1.469-1.705,1.79l-3.675,1.472l-3.735-3.602l-5.411-16.406l-5.519,16.37l-3.759,3.578l-3.666-1.496
				c-0.799-0.326-1.417-0.983-1.693-1.801l-2.956-8.751c-0.111-0.329-0.592-0.274-0.626,0.072l-1.923,19.469l-0.633,6.929
				c-0.363,3.974-0.361,7.973,0.005,11.946l0.116,1.257c0.34,3.692,0.994,7.348,1.954,10.929v0c0.928,3.463,2.14,6.843,3.623,10.107
				l1.303,2.869c0.684,1.506,1.689,2.844,2.945,3.921l3.608,3.094c0.832,0.714,1.786,1.271,2.816,1.646l2.979,1.084
				c0.653,0.238,1.367,0.246,2.026,0.023l3.195-1.081c1.086-0.367,2.092-0.936,2.967-1.676l3.57-3.021
				c1.263-1.069,2.277-2.4,2.971-3.902l1.322-2.86c1.504-3.254,2.738-6.627,3.689-10.084v0c0.984-3.574,1.662-7.226,2.026-10.915
				l0.124-1.255c0.393-3.972,0.421-7.972,0.084-11.949L519.586,82.866z M512.343,107.481c-0.953,0.913-2.303,1.433-3.719,1.433
				h-2.142c-1.312,0-2.623-0.091-3.923-0.273l-0.314-0.044c-1.826-0.256-3.68-0.256-5.506,0l-0.312,0.044
				c-1.301,0.182-2.614,0.274-3.928,0.274h-2.139c-1.415,0-2.765-0.52-3.719-1.433c-0.931-0.891-1.378-2.089-1.228-3.288
				c0.174-1.385,1.385-2.5,2.961-2.726l1.748-0.251c1.944-0.279,3.913-0.339,5.87-0.179l2.003,0.164
				c0.997,0.082,1.998,0.082,2.995,0l2.003-0.164c1.957-0.16,3.926-0.1,5.869,0.179l1.748,0.251
				c1.577,0.226,2.787,1.341,2.961,2.726C513.721,105.392,513.274,106.59,512.343,107.481z"/>
			<path fill="#3E4149" d="M498.594,110.271l-0.895,4.516c-0.112,0.566-0.179,1.14-0.199,1.717l-0.147,4.163
				c-0.023,0.647,0.01,1.295,0.097,1.936l1.145,8.403l-2.078-7.791c-0.279-1.046-0.407-2.126-0.38-3.208l0.058-2.362
				c0.036-1.444,0.361-2.867,0.956-4.183L498.594,110.271z"/>
			<path fill="#3E4149" d="M494.18,111.72l-0.57,7.678c-0.061,0.824-0.01,1.652,0.153,2.462l1.472,7.341l-2.206-6.777
				c-0.514-1.579-0.586-3.27-0.208-4.887L494.18,111.72z"/>
			<path fill="#3E4149" d="M500.379,110.271l0.895,4.516c0.112,0.566,0.179,1.14,0.199,1.717l0.147,4.163
				c0.023,0.647-0.01,1.295-0.097,1.936l-1.145,8.403l2.078-7.791c0.279-1.046,0.407-2.126,0.38-3.208l-0.058-2.362
				c-0.036-1.444-0.361-2.867-0.956-4.183L500.379,110.271z"/>
			<path fill="#3E4149" d="M504.793,111.72l0.57,7.678c0.061,0.824,0.01,1.652-0.153,2.462l-1.472,7.341l2.206-6.777
				c0.514-1.579,0.586-3.27,0.208-4.887L504.793,111.72z"/>
			<path fill="#6E7384" d="M481.406,63.265l0.147,11.702l0.333,13.677l1.547,12.755l0.251,4.811l1.35,4.061l3.259,4.691
				l-0.496,6.677l2.196,6.144l-1.158,2.944l-1.129-0.969c-0.538-0.461-0.969-1.035-1.262-1.68l-3.08-6.78
				c-0.695-1.531-1.263-3.116-1.699-4.74l-1.507-5.621c-0.45-1.679-0.757-3.394-0.916-5.125l-0.673-7.305
				c-0.176-1.91-0.173-3.833,0.011-5.742L481.406,63.265z"/>
			<path fill="#6E7384" d="M517.791,63.385l-0.164,11.582l-0.405,13.675l-1.614,12.747l-0.276,4.81l-1.371,4.054l-3.283,4.674
				l0.461,6.679l-2.228,6.132l1.142,2.95l1.135-0.963c0.54-0.459,0.974-1.03,1.271-1.674l3.115-6.764
				c0.703-1.527,1.28-3.109,1.724-4.731l1.537-5.613c0.459-1.677,0.775-3.39,0.943-5.12l0.712-7.301
				c0.186-1.909,0.193-3.832,0.02-5.742L517.791,63.385z"/>
			<path fill="#6E7384" d="M506.635,73.219c-1.039-1-1.818-2.238-2.27-3.607l-4.733-14.318l-0.006,0.172l0-0.172l-4.818,14.29
				c-0.461,1.366-1.247,2.6-2.292,3.594l-2.168,2.064l1.004,10.749c0.11,1.174,0.356,2.331,0.734,3.447l2.249,6.642
				c0.479,1.415,1.407,2.635,2.644,3.474l0.952,0.646l0,0l0.31,0.21c0.758,0.514,1.752,0.517,2.512,0.007l1.266-0.849
				c1.241-0.832,2.177-2.046,2.664-3.459l2.288-6.629c0.385-1.114,0.638-2.27,0.754-3.443l1.067-10.743L506.635,73.219z"/>
		</g>
	</g>
	<text transform="matrix(1 0 0 1 305.7315 63.3843)" opacity="0.3"><tspan x="0" y="0" font-family="'PTSans-Bold'" font-size="67.7521px" letter-spacing="7">L</tspan><tspan x="42.616" y="0" font-family="'PTSans-Bold'" font-size="67.7521px" letter-spacing="7">AST</tspan></text>
	
		<text transform="matrix(1 0 0 1 525.8234 63.3843)" opacity="0.3" font-family="'PTSans-Bold'" font-size="67.7521px" letter-spacing="7">FIGHT</text>
	
		<text transform="matrix(1 0 0 1 311.7315 447.3842)" opacity="0.2" font-family="'PTSans-Bold'" font-size="67.7521px" letter-spacing="7">Action</text>
	
		<text transform="matrix(1 0 0 1 575.8234 447.3842)" opacity="0.2" font-family="'PTSans-Bold'" font-size="67.7521px" letter-spacing="7">RPG</text>
</g>
</svg>
