<?xml version="1.0" encoding="utf-8"?>
<!-- Generator: Adobe Illustrator 24.0.1, SVG Export Plug-In . SVG Version: 6.00 Build 0)  -->
<svg version="1.1" id="Слой_1" xmlns="http://www.w3.org/2000/svg" xmlns:xlink="http://www.w3.org/1999/xlink" x="0px" y="0px"
	 viewBox="0 0 1024 500" enable-background="new 0 0 1024 500" xml:space="preserve">
<g id="description-pick2">
	<g id="backgr-main1_1_">
		<rect y="361.128" fill="#8B7757" width="1024" height="138.872"/>
		<rect fill="#D8ECDC" width="1024" height="361.128"/>
		<g id="bed_1_">
			<rect x="589.452" y="345.698" fill="#E4937A" width="330.446" height="77.433"/>
			<g>
				<rect x="579.07" y="91.578" fill="#F1A890" width="32.353" height="154.162"/>
				<polygon fill="#F1A890" points="845.4,245.74 845.4,91.578 877.753,91.578 877.753,255.082 				"/>
				<polygon fill="#F6B2A0" points="611.423,91.578 606.144,89.173 576.417,89.173 579.07,91.578 				"/>
				<polygon fill="#F6B2A0" points="579.07,245.74 576.417,240.108 576.417,89.173 579.07,91.578 				"/>
				<polygon fill="#F6B2A0" points="877.753,91.578 872.473,89.173 842.746,89.173 845.4,91.578 				"/>
				<polygon fill="#F6B2A0" points="845.4,245.74 842.746,240.108 842.746,89.173 845.4,91.578 				"/>
				<rect x="611.423" y="100.025" fill="#E89E85" width="233.976" height="30.269"/>
				<rect x="611.423" y="147.189" fill="#E89E85" width="233.976" height="30.269"/>
				<rect x="611.423" y="194.352" fill="#E89E85" width="233.976" height="30.269"/>
			</g>
			<path fill="#77A6A9" d="M916.34,289.777c-3.93-9.914-31.853-56.551-42.57-57.412H593.676c-22.294,0-27.06,19.071-27.06,40.359
				v26.785l22.836,46.19h4.224l5.51-41.46L916.34,289.777z"/>
			<path fill="#719C9D" d="M589.452,345.698v-45.217c0-7.09,3.213-27.758,24.739-27.758h278.881
				c18.83,0,26.958,21.797,26.824,30.614l-0.493,42.361H589.452z"/>
			<g>
				<path fill="#8EC0C0" d="M810.211,159.219l-1.962-1.256c-8.105-5.191-17.635-7.708-27.247-7.198l-36.197,1.923
					c-6.012,0.319-12.036,0.336-18.049,0.051l-46.827-2.224c-12.01-0.57-23.09,6.447-27.708,17.548l-3.278,7.88
					c-3.668,8.818-5.557,18.275-5.557,27.826v22.611c0,2.267,1.714,8.575,3.373,10.119c3.036,2.826,4.207,4.116,7.007,5.486
					c5.397,2.641,10.081,2.641,10.081,2.641L810.211,159.219z"/>
				<path fill="#80B3B4" d="M658.953,174.125l-1.575,3.181c-3.906,7.89-5.939,16.576-5.939,25.38v27.884
					c0,4.294,1.766,8.4,4.884,11.354v0c2.02,1.914,4.749,2.894,7.525,2.702l56.669-3.908c16.654-1.149,33.369-1.082,50.013,0.198
					l46.1,3.546c3.351,0.258,6.29-2.218,6.605-5.565l1.039-11.05c1.184-12.591,0.72-25.282-1.381-37.753l-2.204-13.081
					c-0.924-5.481-3.323-10.606-6.94-14.826l0,0c-2.921-3.407-7.285-5.227-11.761-4.903l-48.365,3.496
					c-9.903,0.716-19.845,0.72-29.748,0.013l-37.012-2.644C675.178,157.315,664.15,163.628,658.953,174.125z"/>
			</g>
			<polygon fill="#E9A393" points="589.452,423.131 566.616,362.026 566.616,299.508 589.452,345.698 			"/>
		</g>
		<g>
			<g>
				<rect x="68.019" y="189.577" fill="#BE8A60" width="389.535" height="13.909"/>
				<polygon fill="#DAA372" points="457.554,189.577 374.102,152.818 133.269,152.818 68.019,189.577 				"/>
				<path fill="#99A6A7" d="M422.077,399.667L422.077,399.667c-3.665,0-6.636-2.971-6.636-6.636V203.485h13.273V393.03
					C428.714,396.695,425.743,399.667,422.077,399.667z"/>
				<path fill="#99A6A7" d="M103.077,399.667L103.077,399.667c-3.665,0-6.636-2.971-6.636-6.636V203.485h13.273V393.03
					C109.714,396.695,106.743,399.667,103.077,399.667z"/>
				<path fill="#99A6A7" d="M355.108,370.104L355.108,370.104c-3.155,0-5.712-2.557-5.712-5.712V203.485h11.424v160.907
					C360.821,367.547,358.263,370.104,355.108,370.104z"/>
				<path fill="#99A6A7" d="M151.608,370.104L151.608,370.104c-3.155,0-5.712-2.557-5.712-5.712V203.485h11.424v160.907
					C157.321,367.547,154.763,370.104,151.608,370.104z"/>
			</g>
			<g>
				<polygon fill="#9D9DC5" points="355.009,154.448 393.486,183.342 207.41,183.342 233.913,154.448 				"/>
				<rect x="207.41" y="183.342" fill="#8585A7" width="186.077" height="4.623"/>
				<polygon fill="#6F6F8D" points="233.913,154.448 228.213,83.562 362.496,83.562 355.009,154.448 				"/>
				<polygon points="237.352,150.981 232.21,87.029 358.056,87.029 351.301,150.981 				"/>
				<polygon fill="#464666" points="237.17,158.205 227.057,168.895 364.592,168.895 353.613,158.205 				"/>
				<polygon fill="#9191AC" points="281.667,170.918 276.055,180.453 320.674,180.453 316.917,170.918 				"/>
				<g id="pick_3_">
					<path fill="#D0D0CE" d="M317.152,115.252l-1.785-2.785c-0.467-0.729-0.476-1.661-0.023-2.399l1.085-1.766
						c0.417-0.679,0.677-1.442,0.76-2.235l0.189-1.809c0.087-0.827-0.022-1.663-0.316-2.441l-0.399-1.056
						c-0.463-1.223-1.359-2.233-2.518-2.838l0,0c-1.147-0.599-2.473-0.76-3.73-0.453l-1.168,0.285
						c-1.167,0.285-2.204,0.956-2.942,1.904l-1.034,1.329c-0.483,0.621-0.823,1.342-0.995,2.11l-0.385,1.722
						c-0.134,0.601-0.752,0.961-1.341,0.781l-1.514-0.463c-1.168-0.357-2.365-0.612-3.577-0.76v0c-1.687-0.206-3.393-0.206-5.079,0
						v0c-1.212,0.148-2.409,0.403-3.577,0.76l-1.514,0.463c-0.589,0.18-1.207-0.179-1.341-0.781l-0.385-1.722
						c-0.172-0.768-0.512-1.489-0.995-2.11l-1.034-1.329c-0.738-0.948-1.775-1.619-2.942-1.904l-1.168-0.285
						c-1.257-0.307-2.583-0.146-3.73,0.453l0,0c-1.159,0.605-2.055,1.615-2.518,2.838l-0.399,1.056
						c-0.294,0.778-0.403,1.614-0.316,2.441l0.189,1.809c0.083,0.792,0.343,1.556,0.76,2.235l1.085,1.766
						c0.453,0.738,0.445,1.67-0.023,2.399l-1.785,2.785c-0.239,0.373-0.445,0.765-0.616,1.173l-0.378,0.901
						c-0.393,0.938-0.595,1.945-0.595,2.962v0c0,1.351,0.357,2.678,1.035,3.846l0.487,0.84c0.326,0.562,0.722,1.08,1.178,1.542
						l13.457,13.614c0.848,0.858,1.879,1.512,3.017,1.915l0,0c0.855,0.302,1.755,0.457,2.661,0.457h1.985h1.985
						c0.907,0,1.806-0.154,2.661-0.457h0c1.137-0.402,2.169-1.057,3.017-1.915l13.457-13.614c0.457-0.462,0.853-0.98,1.178-1.542
						l0.487-0.84c0.678-1.168,1.035-2.495,1.035-3.846v0c0-1.017-0.202-2.024-0.595-2.962l-0.378-0.901
						C317.597,116.017,317.391,115.624,317.152,115.252z"/>
					<path fill="#4E4D54" d="M290.25,121.417l-0.447-2.162c-0.235-1.136-0.353-2.292-0.353-3.452v-8.388
						c0-0.355-0.1-0.704-0.288-1.005l0,0c-0.244-0.391-0.622-0.679-1.064-0.812l0,0c-0.261-0.078-0.54-0.077-0.8,0.002l-0.007,0.002
						c-0.589,0.18-1.207-0.179-1.341-0.781l-0.385-1.722c-0.172-0.768-0.512-1.489-0.995-2.11l-1.034-1.329
						c-0.738-0.948-1.775-1.619-2.942-1.904l-1.168-0.285c-1.257-0.307-2.583-0.146-3.73,0.453v0
						c-1.159,0.605-2.055,1.615-2.518,2.838l-0.399,1.056c-0.294,0.778-0.403,1.614-0.316,2.441l0.189,1.809
						c0.083,0.792,0.343,1.556,0.76,2.235l1.085,1.766c0.143,0.233,0.217,0.61,0.254,0.94c0.054,0.472,0.229,0.921,0.508,1.307
						l4.787,6.624c0.484,0.669,0.857,1.412,1.106,2.199l0,0c0.28,0.887,0.754,1.699,1.389,2.379l0.26,0.278
						c0.428,0.458,0.922,0.849,1.466,1.16l0.087,0.049c0.615,0.351,1.064,0.934,1.248,1.618l0.279,1.036
						c0.243,0.902,0.311,1.841,0.202,2.769l0,0c-0.068,0.574-0.203,1.139-0.403,1.682l-0.633,1.719l-0.135,0.63
						c-0.174,0.81-0.127,1.653,0.135,2.439l0,0l0.057-0.456c0.051-0.405,0.162-0.8,0.331-1.172l0,0
						c0.271-0.596,0.682-1.117,1.199-1.519l0.777-0.604c0.55-0.428,1.201-0.706,1.89-0.808l1.744-0.258
						c0.446-0.066,0.753-0.482,0.685-0.927L290.25,121.417z"/>
					<path fill="#4E4D54" d="M299.591,121.417l0.447-2.162c0.235-1.136,0.353-2.292,0.353-3.452v-8.388
						c0-0.355,0.1-0.704,0.288-1.005l0,0c0.244-0.391,0.622-0.679,1.064-0.812l0,0c0.261-0.078,0.54-0.077,0.8,0.002l0.007,0.002
						c0.589,0.18,1.207-0.179,1.341-0.781l0.385-1.722c0.172-0.768,0.512-1.489,0.995-2.11l1.034-1.329
						c0.738-0.948,1.775-1.619,2.942-1.904l1.168-0.285c1.257-0.307,2.583-0.146,3.73,0.453v0c1.159,0.605,2.055,1.615,2.518,2.838
						l0.399,1.056c0.294,0.778,0.403,1.614,0.316,2.441l-0.189,1.809c-0.083,0.792-0.343,1.556-0.76,2.235l-1.085,1.766
						c-0.143,0.233-0.217,0.61-0.254,0.94c-0.054,0.472-0.229,0.921-0.508,1.307l-4.786,6.624c-0.484,0.669-0.857,1.412-1.106,2.199
						l0,0c-0.28,0.887-0.754,1.699-1.389,2.379l-0.26,0.278c-0.428,0.458-0.922,0.849-1.466,1.16l-0.087,0.049
						c-0.615,0.351-1.064,0.934-1.248,1.618l-0.279,1.036c-0.243,0.902-0.311,1.841-0.202,2.769l0,0
						c0.068,0.574,0.203,1.139,0.403,1.682l0.633,1.719l0.135,0.63c0.174,0.81,0.127,1.653-0.135,2.439l0,0l-0.057-0.456
						c-0.051-0.405-0.162-0.8-0.331-1.172l0,0c-0.271-0.596-0.682-1.117-1.199-1.519l-0.777-0.604
						c-0.55-0.428-1.201-0.706-1.89-0.808l-1.744-0.258c-0.446-0.066-0.753-0.482-0.685-0.927L299.591,121.417z"/>
					<g id="nose_4_">
						<path fill="#2B271F" d="M300.036,136.55l-1.399-0.777c-0.251-0.139-0.526-0.228-0.81-0.263l-2.642-0.317
							c-0.175-0.021-0.352-0.021-0.527,0l-2.642,0.317c-0.285,0.034-0.56,0.123-0.81,0.263l-1.399,0.777
							c-0.405,0.225-0.73,0.572-0.927,0.992l-0.269,0.572c-0.31,0.658-0.276,1.427,0.091,2.056l0,0
							c0.227,0.389,0.567,0.699,0.975,0.89l1.093,0.51c0.187,0.087,0.386,0.148,0.59,0.18l2.056,0.325
							c0.114,0.018,0.229,0.027,0.345,0.027h1.161h1.161c0.116,0,0.231-0.009,0.345-0.027l2.056-0.325
							c0.204-0.032,0.403-0.093,0.59-0.18l1.093-0.51c0.408-0.19,0.748-0.501,0.975-0.89h0c0.367-0.629,0.401-1.397,0.091-2.056
							l-0.269-0.572C300.765,137.122,300.441,136.776,300.036,136.55z"/>
						<ellipse fill="#181110" cx="291.851" cy="139.165" rx="1.601" ry="0.734"/>
						<ellipse fill="#181110" cx="298.123" cy="139.165" rx="1.601" ry="0.734"/>
					</g>
					<g id="r-eye_2_">
						<path fill="#1F2222" d="M301.33,120.733l0.423-0.582c0.535-0.736,1.329-1.242,2.223-1.415l0.449-0.087
							c0.819-0.158,1.667-0.027,2.399,0.372l0.398,0.217c0.434,0.237,0.643,0.745,0.501,1.218l-0.255,0.849l-0.527,0.716
							c-0.422,0.573-1.017,0.994-1.697,1.202l-0.356,0.109c-0.585,0.179-1.209,0.18-1.795,0.005l0,0
							c-0.738-0.221-1.367-0.71-1.764-1.37l-0.049-0.081C301.064,121.527,301.083,121.072,301.33,120.733z"/>
						<path fill="#2F2826" d="M300.796,119.861l0.664-0.834c0.444-0.559,1.028-0.99,1.693-1.252v0
							c0.779-0.306,1.633-0.364,2.447-0.166l0.394,0.096c0.543,0.132,1.053,0.375,1.498,0.713l0.54,0.548l-0.447-0.831
							c-0.345-0.641-1.029-1.191-1.699-1.475l-0.143-0.061c-0.677-0.288-1.432-0.334-2.139-0.131l-0.057,0.016
							c-0.641,0.184-1.208,0.563-1.623,1.085l0,0c-0.171,0.214-0.313,0.45-0.424,0.7L300.796,119.861z"/>
					</g>
					<g id="l-eye_2_">
						<path fill="#1F2222" d="M288.511,120.733l-0.423-0.582c-0.535-0.736-1.329-1.242-2.223-1.415l-0.449-0.087
							c-0.819-0.158-1.667-0.027-2.399,0.372l-0.398,0.217c-0.434,0.237-0.643,0.745-0.501,1.218l0.255,0.849l0.527,0.716
							c0.422,0.573,1.017,0.994,1.697,1.202l0.356,0.109c0.585,0.179,1.209,0.18,1.795,0.005l0,0c0.738-0.221,1.367-0.71,1.764-1.37
							l0.049-0.081C288.777,121.527,288.758,121.072,288.511,120.733z"/>
						<path fill="#2F2826" d="M289.046,119.861l-0.664-0.834c-0.444-0.559-1.028-0.99-1.693-1.252v0
							c-0.779-0.306-1.633-0.364-2.447-0.166l-0.394,0.096c-0.543,0.132-1.053,0.375-1.498,0.713l-0.54,0.548l0.447-0.831
							c0.345-0.641,1.029-1.191,1.699-1.475l0.143-0.061c0.677-0.288,1.432-0.334,2.139-0.131l0.057,0.016
							c0.641,0.184,1.208,0.563,1.623,1.085l0,0c0.171,0.214,0.313,0.45,0.424,0.7L289.046,119.861z"/>
					</g>
				</g>
			</g>
			<g>
				<ellipse fill="#8D999A" cx="248.671" cy="406.425" rx="39.659" ry="12.846"/>
				<path fill="#99A6A7" d="M252.155,406.425h-6.969c-3.602,0-6.522-2.92-6.522-6.522V300.32h20.013v99.583
					C258.677,403.505,255.757,406.425,252.155,406.425z"/>
				<g>
					<path fill="#A79751" d="M178.583,278.296v15.872c0,12.537,31.379,22.701,70.087,22.701c38.709,0,70.087-10.164,70.087-22.701
						v-15.872H178.583z"/>
					<ellipse fill="#B9A552" cx="248.671" cy="278.296" rx="70.088" ry="22.701"/>
				</g>
			</g>
		</g>
	</g>
	<g>
		<g id="shop-floor_2_">
			<polygon fill="#C39850" stroke="#9F804A" stroke-miterlimit="10" points="645.011,395.617 379.213,395.617 406.885,378.281 
				617.342,378.281 			"/>
			<polygon fill="#C39850" stroke="#9F804A" stroke-width="2" stroke-miterlimit="10" points="817.723,421.393 519.974,421.393 
				521.642,395.617 768.546,395.617 			"/>
			<polygon fill="#C39850" stroke="#9F804A" stroke-width="2" stroke-miterlimit="10" points="222.225,421.393 519.974,421.393 
				521.642,395.617 271.402,395.617 			"/>
			<polygon fill="#C39850" stroke="#9F804A" stroke-width="4" stroke-miterlimit="10" points="521.227,500.525 519.974,463.66 
				83.841,463.66 0.667,498.413 0.667,500.749 			"/>
			<polygon fill="#C39850" stroke="#9F804A" stroke-width="4" stroke-miterlimit="10" points="1023.161,500.482 951.403,463.663 
				519.974,463.66 521.227,500.525 			"/>
			<polygon fill="#C39850" stroke="#9F804A" stroke-width="3" stroke-miterlimit="10" points="280.537,463.664 743.687,463.664 
				675.807,421.393 350.139,421.393 			"/>
			<polygon fill="#C39850" stroke="#9F804A" stroke-width="3" stroke-miterlimit="10" points="0.667,463.664 280.537,463.664 
				350.139,421.393 21.574,421.393 0.667,434.09 			"/>
			<polygon fill="#C39850" stroke="#9F804A" stroke-width="3" stroke-miterlimit="10" points="743.687,463.664 1022.879,463.664 
				1023.161,435.639 1000.284,421.393 675.807,421.393 			"/>
			<polygon fill="#C39850" stroke="#9F804A" stroke-width="2" stroke-miterlimit="10" points="0.667,421.393 222.225,421.393 
				271.402,395.617 19.33,395.617 0.667,405.399 			"/>
			<polygon fill="#C39850" stroke="#9F804A" stroke-width="2" stroke-miterlimit="10" points="1022.879,421.393 817.723,421.393 
				769.727,395.617 1022.879,395.617 			"/>
			<polygon fill="#C39850" stroke="#9F804A" stroke-miterlimit="10" points="855.615,395.617 645.011,395.617 617.489,378.281 
				827.946,378.281 			"/>
			<polygon fill="#C39850" stroke="#9F804A" stroke-miterlimit="10" points="168.337,395.617 378.941,395.617 406.463,378.281 
				196.006,378.281 			"/>
			<polygon fill="#C39850" stroke="#9F804A" stroke-miterlimit="10" points="0.667,395.617 168.324,395.617 195.846,378.281 
				0.667,378.281 			"/>
			<polygon fill="#C39850" stroke="#9F804A" stroke-miterlimit="10" points="1022.879,395.617 854.775,395.617 827.253,378.281 
				1022.879,378.281 			"/>
			<polygon fill="#C39850" stroke="#9F804A" stroke-width="2" stroke-miterlimit="10" points="0.667,395.617 19.33,395.617 
				0.667,405.399 			"/>
			<polygon fill="#C39850" stroke="#9F804A" stroke-width="3" stroke-miterlimit="10" points="1022.879,421.393 1022.879,435.913 
				1000.284,421.393 			"/>
			<polygon fill="#C39850" stroke="#9F804A" stroke-width="3" stroke-miterlimit="10" points="0.667,434.09 0.667,421.393 
				21.574,421.393 			"/>
			<polygon fill="#C39850" stroke="#9F804A" stroke-width="4" stroke-miterlimit="10" points="0.667,463.664 0.667,498.413 
				83.841,463.66 			"/>
			<polygon fill="#C39850" stroke="#9F804A" stroke-width="4" stroke-miterlimit="10" points="1022.879,463.664 951.403,463.663 
				1023.161,500.482 			"/>
		</g>
		<polyline fill="#CACACA" points="1023.914,377.776 1023.914,1.589 0.466,1.589 -0.086,377.776 		"/>
		<g id="wall_1_">
			<rect x="3.607" y="-33.73" fill="#C9764A" width="90.129" height="39.57"/>
			<rect x="102.125" y="-33.73" fill="#C47944" width="90.13" height="39.57"/>
			<rect x="200.667" y="-33.73" fill="#C9764A" width="90.129" height="39.57"/>
			<rect x="-45.382" y="12.436" fill="#C9764A" width="90.13" height="39.571"/>
			<rect x="52.595" y="12.436" fill="#C56842" width="90.13" height="39.571"/>
			<rect x="151.113" y="12.436" fill="#C9764A" width="90.13" height="39.571"/>
			<rect x="5.339" y="58.602" fill="#C47944" width="90.129" height="39.57"/>
			<rect x="103.857" y="58.602" fill="#C9764A" width="90.129" height="39.57"/>
			<rect x="202.399" y="58.602" fill="#C9764A" width="90.129" height="39.57"/>
			<rect x="-49.305" y="104.769" fill="#C9764A" width="90.129" height="39.571"/>
			<rect x="48.672" y="104.769" fill="#C9764A" width="90.129" height="39.571"/>
			<rect x="147.19" y="104.769" fill="#C47944" width="90.129" height="39.571"/>
			<rect x="103.857" y="150.935" fill="#C9764A" width="90.129" height="39.571"/>
			<rect x="5.339" y="150.935" fill="#C47944" width="90.129" height="39.571"/>
			<rect x="202.399" y="150.935" fill="#C47944" width="90.129" height="39.571"/>
			<rect x="-49.305" y="197.101" fill="#C47944" width="90.129" height="39.571"/>
			<rect x="48.672" y="197.101" fill="#C9764A" width="90.129" height="39.571"/>
			<rect x="147.19" y="197.101" fill="#C56842" width="90.129" height="39.571"/>
			<rect x="-0.317" y="243.267" fill="#C9764A" width="90.13" height="39.571"/>
			<rect x="98.201" y="243.267" fill="#C47944" width="90.13" height="39.571"/>
			<rect x="196.743" y="243.267" fill="#C9764A" width="90.13" height="39.571"/>
			<rect x="-49.305" y="290.775" fill="#C47944" width="90.129" height="39.571"/>
			<rect x="48.672" y="290.775" fill="#C9764A" width="90.129" height="39.571"/>
			<rect x="147.19" y="290.775" fill="#C9764A" width="90.129" height="39.571"/>
			<rect x="245.732" y="290.775" fill="#C47944" width="90.129" height="39.571"/>
			<rect x="-0.317" y="336.941" fill="#C9764A" width="90.13" height="39.571"/>
			<rect x="98.201" y="336.941" fill="#C47944" width="90.13" height="39.571"/>
			<rect x="196.743" y="336.941" fill="#C56842" width="90.13" height="39.571"/>
			<rect x="297.08" y="-33.73" fill="#C9764A" width="90.129" height="39.57"/>
			<rect x="395.622" y="-33.73" fill="#C9764A" width="90.129" height="39.57"/>
			<rect x="492.361" y="-33.73" fill="#C9764A" width="90.13" height="39.57"/>
			<rect x="590.338" y="-33.73" fill="#C9764A" width="90.13" height="39.57"/>
			<rect x="688.857" y="-33.73" fill="#C47944" width="90.129" height="39.57"/>
			<rect x="787.398" y="-33.73" fill="#C9764A" width="90.13" height="39.57"/>
			<rect x="346.068" y="12.436" fill="#C9764A" width="90.13" height="39.571"/>
			<rect x="444.61" y="12.436" fill="#C47944" width="90.13" height="39.571"/>
			<rect x="541.35" y="12.436" fill="#C9764A" width="90.129" height="39.571"/>
			<rect x="639.326" y="12.436" fill="#C56842" width="90.129" height="39.571"/>
			<rect x="737.844" y="12.436" fill="#C9764A" width="90.13" height="39.571"/>
			<rect x="836.386" y="12.436" fill="#C9764A" width="88.893" height="39.571"/>
			<rect x="298.812" y="58.602" fill="#C47944" width="90.13" height="39.57"/>
			<rect x="397.354" y="58.602" fill="#C56842" width="90.13" height="39.57"/>
			<rect x="494.094" y="58.602" fill="#C9764A" width="90.13" height="39.57"/>
			<rect x="592.07" y="58.602" fill="#C47944" width="90.13" height="39.57"/>
			<rect x="690.588" y="58.602" fill="#C9764A" width="90.13" height="39.57"/>
			<rect x="789.13" y="58.602" fill="#C9764A" width="90.13" height="39.57"/>
			<rect x="342.145" y="104.769" fill="#C9764A" width="90.13" height="39.571"/>
			<rect x="440.687" y="104.769" fill="#C9764A" width="90.129" height="39.571"/>
			<rect x="537.426" y="104.769" fill="#C9764A" width="90.13" height="39.571"/>
			<rect x="635.402" y="104.769" fill="#C9764A" width="90.13" height="39.571"/>
			<rect x="733.921" y="104.769" fill="#C47944" width="90.129" height="39.571"/>
			<rect x="832.462" y="104.769" fill="#C56842" width="90.13" height="39.571"/>
			<rect x="298.812" y="150.935" fill="#C9764A" width="90.13" height="39.571"/>
			<rect x="397.354" y="150.935" fill="#C47944" width="90.13" height="39.571"/>
			<rect x="494.094" y="150.935" fill="#C56842" width="90.13" height="39.571"/>
			<rect x="690.588" y="150.935" fill="#C9764A" width="90.13" height="39.571"/>
			<rect x="592.07" y="150.935" fill="#C47944" width="90.13" height="39.571"/>
			<rect x="789.13" y="150.935" fill="#C47944" width="90.13" height="39.571"/>
			<rect x="342.145" y="197.101" fill="#C9764A" width="90.13" height="39.571"/>
			<rect x="440.687" y="197.101" fill="#C9764A" width="90.129" height="39.571"/>
			<rect x="537.426" y="197.101" fill="#C47944" width="90.13" height="39.571"/>
			<rect x="635.402" y="197.101" fill="#C9764A" width="90.13" height="39.571"/>
			<rect x="733.921" y="197.101" fill="#C56842" width="90.129" height="39.571"/>
			<rect x="832.462" y="197.101" fill="#C9764A" width="90.13" height="39.571"/>
			<rect x="293.157" y="243.267" fill="#C9764A" width="90.129" height="39.571"/>
			<rect x="391.699" y="243.267" fill="#C47944" width="90.13" height="39.571"/>
			<rect x="488.438" y="243.267" fill="#C9764A" width="90.129" height="39.571"/>
			<rect x="586.415" y="243.267" fill="#C9764A" width="90.129" height="39.571"/>
			<rect x="684.933" y="243.267" fill="#C47944" width="90.129" height="39.571"/>
			<rect x="783.475" y="243.267" fill="#C9764A" width="90.129" height="39.571"/>
			<rect x="342.145" y="290.775" fill="#C9764A" width="90.13" height="39.571"/>
			<rect x="440.687" y="290.775" fill="#C56842" width="90.129" height="39.571"/>
			<rect x="537.426" y="290.775" fill="#C47944" width="90.13" height="39.571"/>
			<rect x="635.402" y="290.775" fill="#C9764A" width="90.13" height="39.571"/>
			<rect x="733.921" y="290.775" fill="#C9764A" width="90.129" height="39.571"/>
			<rect x="832.462" y="290.775" fill="#C47944" width="90.13" height="39.571"/>
			<rect x="293.157" y="336.941" fill="#C56842" width="90.129" height="39.571"/>
			<rect x="391.699" y="336.941" fill="#C47944" width="90.13" height="39.571"/>
			<rect x="488.438" y="336.941" fill="#C9764A" width="90.129" height="39.571"/>
			<rect x="586.415" y="336.941" fill="#C9764A" width="90.129" height="39.571"/>
			<rect x="684.933" y="336.941" fill="#C47944" width="90.129" height="39.571"/>
			<rect x="783.475" y="336.941" fill="#C56842" width="90.129" height="39.571"/>
			<rect x="245.732" y="197.101" fill="#C56842" width="90.129" height="39.571"/>
			<rect x="244.631" y="104.769" fill="#C9764A" width="90.131" height="39.571"/>
			<rect x="248.092" y="12.436" fill="#C56842" width="90.13" height="39.571"/>
			<rect x="883.183" y="-33.73" fill="#C9764A" width="90.129" height="39.57"/>
			<rect x="981.726" y="-33.73" fill="#C9764A" width="90.129" height="39.57"/>
			<rect x="932.171" y="12.436" fill="#C9764A" width="90.13" height="39.571"/>
			<rect x="884.916" y="58.602" fill="#C47944" width="90.129" height="39.57"/>
			<rect x="983.457" y="58.602" fill="#C56842" width="90.13" height="39.57"/>
			<rect x="928.248" y="104.769" fill="#C9764A" width="90.13" height="39.571"/>
			<rect x="884.916" y="150.935" fill="#C9764A" width="90.129" height="39.571"/>
			<rect x="983.457" y="150.935" fill="#C47944" width="90.13" height="39.571"/>
			<rect x="928.248" y="197.101" fill="#C9764A" width="90.13" height="39.571"/>
			<rect x="879.26" y="243.267" fill="#C9764A" width="90.129" height="39.571"/>
			<rect x="977.802" y="243.267" fill="#C47944" width="90.13" height="39.571"/>
			<polygon fill="#C9764A" points="936.359,330.346 1018.378,330.346 1018.378,290.775 936.359,290.775 929.202,290.775 
				928.248,290.775 928.248,330.346 929.202,330.346 			"/>
			<rect x="879.26" y="336.941" fill="#C56842" width="90.129" height="39.571"/>
			<rect x="977.802" y="336.941" fill="#C47944" width="90.13" height="39.571"/>
		</g>
	</g>
	<text transform="matrix(1 0 0 1 232.9583 141.7871)" opacity="0.8"><tspan x="0" y="0" fill="#2B4E66" font-family="'PTSans-Bold'" font-size="137.3831px" letter-spacing="13">MUSCLE</tspan><tspan x="-14.355" y="152.77" fill="#2B4E66" font-family="'PTSans-Bold'" font-size="137.3831px" letter-spacing="13">CLICKER</tspan></text>
	<g>
		<g>
			<path fill="#E1D1AB" stroke="#C0A674" stroke-miterlimit="10" d="M558.816,200.946l-0.36-1.354
				c-0.398-1.499-1.155-2.839-2.183-3.869l0,0c-1.849-1.85-3.941-3.351-6.199-4.446l-5.18-2.512
				c-3.263-1.583-6.638-2.841-10.088-3.762l-4.152-1.108c-3.847-1.027-7.749-1.758-11.681-2.19l-8.762-0.961l-8.781,0.964
				c-3.932,0.433-7.834,1.166-11.68,2.194l-4.152,1.11c-3.449,0.922-6.824,2.182-10.087,3.766l-5.18,2.515
				c-2.258,1.096-4.35,2.598-6.198,4.449c-1.028,1.029-1.784,2.37-2.182,3.87l-0.359,1.354c-0.59,2.223-0.643,4.589-0.151,6.843
				c0.476,2.184,1.445,4.185,2.81,5.8l0.314,0.372c1.218,1.441,2.714,2.533,4.367,3.185l0.852,0.336
				c2.486,0.981,4.608,2.902,6.021,5.451c1.123,2.025,1.917,4.268,2.343,6.619l2.248,12.386c1.272,7.008,2.151,14.102,2.63,21.24
				l1.312,19.519l0.823,25.299c0.193,5.923-0.102,11.854-0.88,17.714l13.747,3.3l12.199,0.991l12.194-0.996l13.746-3.306
				c-0.78-5.859-1.076-11.79-0.885-17.714l0.816-25.3l1.305-19.52c0.478-7.138,1.354-14.233,2.624-21.241l2.244-12.387
				c0.426-2.351,1.219-4.594,2.341-6.62l0,0c1.412-2.549,3.534-4.471,6.019-5.453l0.851-0.337c1.653-0.653,3.149-1.745,4.366-3.187
				l0.314-0.372c1.364-1.616,2.332-3.617,2.808-5.801C559.46,205.535,559.407,203.169,558.816,200.946z"/>
			<path fill="#E1D1AB" d="M520.915,182.436l-1.126-4.764c-0.319-1.352-0.539-2.753-0.654-4.177v0
				c-0.136-1.68-0.126-3.38,0.03-5.056l0.516-5.548l-9.474,0.855l-9.474-0.85l0.518,5.549c0.156,1.676,0.167,3.375,0.032,5.055
				l0,0.001c-0.115,1.424-0.334,2.824-0.653,4.176l-1.124,4.765L520.915,182.436z"/>
			<g>
				<path fill="#6AADD2" d="M537.61,263.199l2.867-22.546l-0.159-0.516c-1.855-6.033-3.078-12.241-3.65-18.526v0
					c-0.385-4.224-0.474-8.469-0.268-12.705l1.128-23.162l-5.193-1.452l-1.411,11.097c-1.123,8.837-3.625,17.442-7.415,25.504
					l0,0.001c-1.533,3.261-4.219,5.838-7.54,7.235h0c-3.615,1.52-7.689,1.52-11.304,0l0,0c-3.321-1.397-6.007-3.974-7.54-7.235v0
					c-3.79-8.062-6.292-16.668-7.415-25.505l-1.41-11.096l-5.193,1.452l1.129,23.16c0.207,4.237,0.117,8.484-0.268,12.709l0,0.001
					c-0.572,6.283-1.795,12.489-3.649,18.52l-0.16,0.519l2.867,22.546l1.552,26.891l0.637,22.349l-0.934,13.293l7.828,1.879
					l7.771,1.363l10.438,0.326l10.439-0.326l7.771-1.363l7.828-1.879l-0.933-13.293l0.637-22.349L537.61,263.199z"/>
			</g>
		</g>
		<g>
			<g>
				<path fill="#E1D1AB" stroke="#C0A674" stroke-miterlimit="10" d="M490.609,326.387l5.183,2.368
					c1.131,0.517,2.159,1.202,3.037,2.023l0,0c1.687,1.578,2.742,3.586,2.99,5.692l0.375,3.187c0.161,1.37-0.025,2.738-0.545,4.003
					l-0.61,1.483c-0.847,2.06-2.533,3.736-4.745,4.717l-1.073,0.476c-1.568,0.696-3.337,1.014-5.137,0.923l-2.665-0.134
					c-1.012-0.051-2.019-0.23-2.988-0.533l-40.97-12.771l-45.807-13.615c-2.501-0.743-5.07-1.25-7.663-1.51l0,0
					c-0.989-0.099-1.972-0.273-2.938-0.517l-2.541-0.644c-1.529-0.388-2.95-1.091-4.14-2.05l0,0c-2-1.611-3.216-3.832-3.369-6.153
					l-0.124-1.887c-0.075-1.145,0.111-2.279,0.548-3.334l1.491-3.601c0.552-1.333,1.487-2.501,2.719-3.395l1.31-0.951
					c1.707-1.239,3.889-1.885,6.166-1.825l0.094,0.002c2.909,0.077,5.784,0.855,8.311,2.25l1.462,0.807
					c0.422,0.233,0.86,0.439,1.311,0.619l3.594,1.427c3.555,1.412,7.214,2.58,10.945,3.495l50.82,12.452l23.142,6.339
					C489.417,325.899,490.025,326.12,490.609,326.387z"/>
				<g>
					<path fill="#2BAE49" d="M481.03,321.026l6.422,2.091c0.624,0.171,3.627,1.621,4.212,1.888l4.849,2.775
						c1.131,0.517,2.159,1.202,3.037,2.023l0,0c1.687,1.578,2.022,4.561,2.269,6.666l0.375,3.187
						c0.161,1.37-0.025,2.738-0.545,4.003l-0.61,1.483c-0.847,2.06-3.479,6.996-5.691,7.977l-1.073,0.476
						c-1.568,0.696-3.337,1.014-5.137,0.923l-2.665-0.134c-1.012-0.051-2.019-0.23-2.988-0.533l-10.646-3.319l-20.69-6.45
						l-20.778-6.316l-29.13-8.42l7.8-26.523l29.235,7.544l19.608,4.805L481.03,321.026z"/>
				</g>
			</g>
			<g>
				<path fill="#E1D1AB" stroke="#C0A674" stroke-miterlimit="10" d="M377.513,313.635l-0.342-0.743
					c-0.471-1.024-0.758-2.131-0.846-3.256l0,0c-0.175-2.253,0.465-4.429,1.774-6.028l0.46-0.562
					c0.728-0.89,1.636-1.567,2.657-1.982l2.499-1.016c2-0.813,4.162-1.11,6.335-0.871l1.022,0.112
					c1.523,0.167,2.993,0.864,4.207,1.994l0.74,0.688c1.063,0.989,1.886,2.27,2.38,3.704l1.2,3.48
					c0.262,0.761,0.428,1.553,0.493,2.353l0.427,5.291c0.208,2.584,0.578,5.161,1.107,7.71l4.494,21.669
					c0.62,2.988,1.11,5.999,1.471,9.021l1.515,12.711c0.454,3.813,1.095,7.608,1.919,11.368l9.023,45.953l0.499,3.71
					c0.305,2.602,0.423,3.325-1.355,4.641c0,0-9.465,0.424-10.181-1.995l-2.285-6.574l-14.718-51.94l-13.002-55.101
					C378.652,316.478,378.152,315.022,377.513,313.635z"/>
				<path fill="#E1D1AB" stroke="#C0A674" stroke-miterlimit="10" d="M420.712,430.557c0.197,1.864,0.497,2.679,0.752,3.889
					c0,0,1.092,2.871,1.421,3.841c0.319,0.94,0.329,1.993,0.102,3.032l0,0c-0.388,1.774-1.507,3.385-3.055,4.399l-0.919,0.602
					c-0.763,0.5-1.602,0.835-2.458,0.982l-10.33,1.773c-0.578,0.099-1.156,0.217-1.732,0.353l-9.388,2.218
					c-2.96,0.699-5.888,1.667-8.749,2.892l-2.076,0.889c-1.227,0.525-2.545,0.486-3.592-0.108l-1.199-0.68
					c-0.588-0.333-1.001-0.901-1.158-1.589l0,0c-0.28-1.232,0.305-2.62,1.433-3.396l0.747-0.514
					c0.688-0.474,1.422-0.861,2.183-1.151l2.929-1.116l-6.799,1.661l0,0c-0.805,0.204-1.6-0.018-2.107-0.589l0,0
					c-0.707-0.796-0.58-2.119,0.286-2.977l0,0c0.27-0.267,0.598-0.459,0.947-0.553l5.898-1.597l-4.904,0.956
					c-0.776,0.151-1.511-0.141-1.914-0.76l0,0c-0.479-0.736-0.413-1.767,0.166-2.58l0,0c0.24-0.336,0.595-0.571,0.977-0.644
					l5.645-1.082l-5.22,1.001c-0.599,0.115-1.139-0.205-1.3-0.77l0,0c-0.162-0.567-0.076-1.21,0.237-1.777l0,0
					c0.317-0.574,0.901-0.958,1.509-0.992l5.685-0.314l-3.886-0.165c-0.53-0.022-0.994-0.279-1.277-0.707h0
					c-0.29-0.439-0.136-1.088,0.34-1.44l0.024-0.017c0.624-0.461,1.342-0.742,2.066-0.807l3.401-0.304
					c1.305-0.117,2.604-0.141,3.888-0.072l6.21,0.332c2.141,0.115,4.304,0.094,6.478-0.062l1.698-0.122
					c1.853-0.133,3.695-0.739,5.363-1.747"/>
			</g>
		</g>
		<g>
			<g>
				<path fill="#E1D1AB" stroke="#C0A674" stroke-miterlimit="10" d="M529.814,326.387l-5.184,2.367
					c-1.131,0.516-2.16,1.201-3.038,2.022l0,0c-1.687,1.578-2.743,3.586-2.991,5.691l-0.375,3.187
					c-0.161,1.37,0.025,2.738,0.545,4.003l0.61,1.483c0.847,2.06,2.533,3.736,4.745,4.718l1.073,0.476
					c1.568,0.696,3.337,1.014,5.137,0.924l2.665-0.134c1.012-0.051,2.019-0.23,2.989-0.532l40.972-12.765l45.809-13.609
					c2.501-0.743,5.07-1.249,7.663-1.509l0,0c0.989-0.099,1.972-0.272,2.938-0.517l2.541-0.644c1.529-0.388,2.95-1.091,4.141-2.049
					h0c2-1.61,3.217-3.831,3.37-6.152l0.124-1.887c0.075-1.145-0.111-2.279-0.547-3.334l-1.491-3.602
					c-0.552-1.333-1.487-2.501-2.718-3.395l-1.309-0.951c-1.707-1.24-3.889-1.886-6.166-1.826l-0.094,0.002
					c-2.909,0.076-5.784,0.854-8.311,2.249l-1.462,0.807c-0.422,0.233-0.86,0.439-1.311,0.619l-3.594,1.427
					c-3.555,1.411-7.215,2.579-10.946,3.493l-50.822,12.445l-23.143,6.336C531.007,325.9,530.399,326.12,529.814,326.387z"/>
				<g>
					<path fill="#2BAE49" d="M539.394,321.028l-6.422,2.09c-0.624,0.171-3.628,1.62-4.212,1.887l-4.849,2.775
						c-1.131,0.516-2.16,1.201-3.038,2.022l0,0c-1.687,1.578-2.022,4.56-2.27,6.666l-0.375,3.187
						c-0.161,1.37,0.025,2.738,0.545,4.003l0.61,1.483c0.847,2.06,3.478,6.996,5.69,7.978l1.073,0.476
						c1.568,0.696,3.337,1.014,5.137,0.924l2.665-0.134c1.012-0.051,2.019-0.23,2.989-0.532l10.646-3.317l20.691-6.446l20.779-6.312
						l29.131-8.416l-7.796-26.524l-29.236,7.54l-19.609,4.802L539.394,321.028z"/>
				</g>
			</g>
			<g>
				<path fill="#E1D1AB" stroke="#C0A674" stroke-miterlimit="10" d="M642.713,313.329l0.317-0.754
					c0.437-1.039,0.688-2.155,0.739-3.282l0,0c0.101-2.258-0.61-4.412-1.97-5.967l-0.478-0.546c-0.757-0.865-1.687-1.513-2.72-1.894
					l-2.531-0.933c-2.025-0.747-4.196-0.973-6.36-0.663l-1.017,0.146c-1.517,0.217-2.964,0.962-4.14,2.131l-0.717,0.712
					c-1.03,1.023-1.811,2.33-2.258,3.78l-1.086,3.517c-0.237,0.769-0.377,1.567-0.416,2.368l-0.254,5.302
					c-0.124,2.59-0.409,5.177-0.854,7.742l-3.784,21.804c-0.522,3.006-0.914,6.032-1.175,9.065l-1.099,12.753
					c-0.33,3.826-0.846,7.64-1.547,11.424l-7.134,43.784l-1.233,5.802c0.333,2.86,0.316,2.87,2.136,4.126l1.174,0.811
					c1.352,0.532,0.395,0.293,2.15,0.669l2.454,0.153c2.187-0.508,3.538-0.691,4.175-3.132l2.069-6.645l13.013-52.393l11.195-55.496
					C641.668,316.208,642.121,314.737,642.713,313.329z"/>
				<path fill="#E1D1AB" stroke="#C0A674" stroke-miterlimit="10" d="M602.997,429.621c-0.525,1.923-1.368,3.587-2.785,6.92
					l-0.399,1.574c-0.244,0.962-0.224,2.008,0.057,3.033v0c0.48,1.751,1.681,3.302,3.28,4.234l0.949,0.553
					c0.788,0.46,1.644,0.751,2.505,0.853l10.408,1.232c0.583,0.069,1.166,0.156,1.748,0.262l9.49,1.726
					c2.992,0.544,5.967,1.358,8.887,2.432l2.12,0.779c1.253,0.461,2.567,0.352,3.582-0.295l1.162-0.742
					c0.57-0.364,0.953-0.952,1.073-1.648l0,0c0.216-1.245-0.441-2.6-1.608-3.317l-0.773-0.475c-0.712-0.437-1.465-0.786-2.24-1.035
					l-2.983-0.962l6.876,1.304l0,0c0.814,0.162,1.596-0.102,2.073-0.698l0,0c0.665-0.832,0.469-2.147-0.441-2.958l0,0
					c-0.283-0.253-0.621-0.427-0.974-0.503l-5.973-1.287l4.947,0.699c0.782,0.111,1.502-0.219,1.872-0.858l0,0
					c0.44-0.76,0.32-1.786-0.3-2.568l0,0c-0.257-0.323-0.624-0.539-1.009-0.592l-5.693-0.786l5.264,0.727
					c0.604,0.083,1.127-0.264,1.258-0.837l0,0c0.132-0.575,0.013-1.212-0.329-1.762l0,0c-0.346-0.557-0.95-0.91-1.558-0.912
					l-5.694-0.018l3.872-0.367c0.528-0.05,0.979-0.331,1.238-0.772l0,0c0.266-0.453,0.08-1.094-0.415-1.421l-0.024-0.016
					c-0.647-0.428-1.379-0.671-2.105-0.698l-3.412-0.127c-1.309-0.049-2.608-0.005-3.886,0.13l-6.184,0.655
					c-2.132,0.226-4.293,0.318-6.473,0.275l-1.702-0.033c-1.132-0.022-2.268-0.22-3.372-0.579"/>
			</g>
		</g>
		<g>
			<path fill="#2BAE49" d="M538.247,336.074c-0.109-0.782-0.243-1.559-0.404-2.329l-1.676-8.025l-7.827,1.883
				c-3.935,0.946-7.945,1.424-11.965,1.426l-12.301,0.003c-4.02,0-8.03-0.476-11.965-1.421l-7.828-1.879l-1.675,8.03
				c-0.16,0.767-0.294,1.54-0.402,2.319l-1.377,9.947l13.609,1.275l6.168,0.266c2.448,0.106,4.876,0.544,7.234,1.305l0,0
				c1.552,0.501,3.193,0.504,4.746,0.009l0.03-0.009c2.358-0.762,4.787-1.202,7.235-1.308l6.168-0.269l13.609-1.28L538.247,336.074z
				"/>
		</g>
		<g>
			<path fill="#ECF5F4" d="M538.889,94.224l-0.603-0.651c-0.993-1.072-2.184-1.872-3.484-2.338l-0.368-0.132
				c-2.801-1.004-5.744-1.376-8.668-1.094l0,0c-2.649,0.256-5.194,1.296-7.388,3.021l-1.043,0.819
				c-0.8,0.629-1.436,1.496-1.841,2.508l-0.423,1.057c-0.333,0.832-0.391,1.776-0.163,2.654l0,0c0.142,0.546,0.39,1.049,0.725,1.469
				l0.081,0.101c1.973,2.475,4.49,4.291,7.286,5.258l0.374,0.129c2.332,0.806,4.791,0.998,7.196,0.562l0,0
				c3.359-0.609,6.466-2.417,8.883-5.168v0c0.767-0.873,1.204-2.057,1.218-3.297l0.001-0.077
				C540.691,97.222,540.045,95.473,538.889,94.224z"/>
			<ellipse fill="#80A9A7" cx="527.738" cy="98.877" rx="4.555" ry="5.238"/>
			<ellipse fill="#495B5A" cx="527.738" cy="98.877" rx="1.835" ry="2.111"/>
			<path fill="#DFCF9B" d="M539.713,95.365l1.295,0.934l-0.713-6.382l-3.105-4.91h-17.835l-4.735,4.912l-0.427,7.974l1.165-1.189
				l0,0l1.465-0.898c1.53-0.939,3.15-1.67,4.827-2.181l0,0c1.408-0.429,2.849-0.699,4.302-0.808l1.123-0.084
				c2.304-0.172,4.617,0.065,6.858,0.703l1.866,0.531c0.538,0.153,1.071,0.329,1.598,0.527L539.713,95.365z"/>
			<path fill="#DFCF9B" d="M515.951,101.989l1.496,0.909c1.137,0.691,2.333,1.245,3.568,1.653l1.951,0.645
				c1.951,0.645,3.981,0.921,6.009,0.816l0,0c1.215-0.063,2.422-0.261,3.603-0.593l0.225-0.063c2.061-0.579,4.021-1.557,5.796-2.892
				l1.359-0.774l1.217-1.2l-0.505,6.908l-7.092,5.55h-12.755l-6.053-5.55l-0.245-6.41L515.951,101.989z"/>
		</g>
		<g>
			<path fill="#ECF5F4" d="M481.733,94.345l0.598-0.658c0.984-1.083,2.168-1.895,3.465-2.376l0.367-0.136
				c2.792-1.035,5.733-1.438,8.658-1.188l0,0c2.651,0.227,5.205,1.24,7.413,2.941l1.049,0.808c0.805,0.62,1.449,1.48,1.862,2.488
				l0.431,1.052c0.34,0.829,0.405,1.771,0.184,2.652l0,0c-0.137,0.548-0.381,1.053-0.713,1.477l-0.08,0.102
				c-1.952,2.496-4.455,4.34-7.242,5.337l-0.373,0.133c-2.325,0.831-4.783,1.05-7.191,0.64l0,0
				c-3.364-0.573-6.486-2.347-8.925-5.071l0,0c-0.774-0.864-1.221-2.044-1.245-3.284l-0.001-0.077
				C479.955,97.362,480.588,95.606,481.733,94.345z"/>
			<ellipse fill="#80A9A7" cx="492.922" cy="98.877" rx="4.555" ry="5.238"/>
			<ellipse fill="#495B5A" cx="492.922" cy="98.877" rx="1.835" ry="2.111"/>
			<path fill="#DFCF9B" d="M480.919,95.495l-1.6,1.073l0.756-7.707l8.644-4.724l11.54,0.579l5.801,5.015l0.41,8.111l-1.185-1.275
				l-1.473-0.883c-1.538-0.922-3.164-1.636-4.844-2.128v0c-1.411-0.413-2.854-0.668-4.308-0.761l-1.124-0.072
				c-2.305-0.147-4.616,0.115-6.852,0.777l-1.862,0.551c-0.537,0.159-1.068,0.341-1.594,0.545L480.919,95.495z"/>
			<path fill="#DFCF9B" d="M504.734,101.861l-1.489,0.925c-1.131,0.703-2.322,1.27-3.554,1.692l-1.946,0.666
				c-1.946,0.666-3.973,0.964-6.002,0.882l0,0c-1.216-0.049-2.424-0.235-3.608-0.554l-0.226-0.061
				c-2.065-0.557-4.033-1.513-5.82-2.829l-1.366-0.759l-1.244-1.09l0.509,7.082l6.631,5.76l13.933-0.627l5.466-5.445l0.158-6.77
				L504.734,101.861z"/>
		</g>
		<path fill="#E6D6AD" d="M549.008,79.772l-0.161-7.13c-0.076-3.368-0.626-6.696-1.628-9.841c-0.785-2.467-1.955-4.729-3.445-6.664
			c-2.261-2.936-4.894-5.421-7.799-7.362c-1.855-1.24-3.833-2.192-5.885-2.835l-1.021-0.32c-4.718-1.478-9.547-2.387-14.414-2.713
			c-2.963-0.198-5.934-0.197-8.897,0.003l-0.054,0.004c-4.875,0.33-9.711,1.245-14.437,2.731l-1.009,0.318
			c-2.052,0.645-4.028,1.6-5.882,2.842l-0.001,0.001c-2.904,1.945-5.534,4.432-7.793,7.37l-0.001,0.001
			c-1.489,1.937-2.657,4.2-3.44,6.668l0,0.001c-0.999,3.146-1.547,6.474-1.621,9.842l-0.156,7.13
			c-0.039,1.785-0.017,3.571,0.066,5.354l0.527,11.308l0.699,14.449c0.274,5.662,1.237,11.244,2.86,16.566l0.373,1.224
			c1.932,6.338,4.25,12.495,6.935,18.421c2.374,5.238,5.494,9.93,9.218,13.861c1.786,1.885,3.916,3.235,6.217,3.939h0
			c3.587,1.097,7.273,1.652,10.974,1.649l1.969-0.001c3.701-0.002,7.387-0.56,10.973-1.662c2.3-0.706,4.429-2.058,6.213-3.945
			l0.001-0.002c3.72-3.934,6.837-8.629,9.206-13.869l0.001-0.003c2.681-5.928,4.994-12.087,6.922-18.426l0.372-1.226
			c1.619-5.324,2.579-10.908,2.848-16.57l0.689-14.45l0.519-11.31C549.027,83.342,549.048,81.557,549.008,79.772z M505.76,99.86
			c-0.137,0.548-0.381,1.053-0.713,1.477l-0.08,0.102c-0.117,0.149-0.242,0.289-0.363,0.433l0.129-0.08
			c-1.403,1.734-3.095,3.114-4.965,4.074c-0.661,0.355-1.344,0.659-2.045,0.91l-0.373,0.133c-0.876,0.313-1.772,0.539-2.676,0.678
			c-1.43,0.233-2.885,0.236-4.323-0.002l-0.312-0.051c-2.16-0.357-4.21-1.248-6.03-2.579c-0.993-0.706-1.928-1.53-2.775-2.476
			c-0.774-0.864-1.221-2.044-1.245-3.284l-0.001-0.077c-0.035-1.823,0.597-3.579,1.742-4.84l0.109-0.119l0.076-0.105
			c0.128-0.142,0.26-0.278,0.393-0.412l0.019-0.021c0.005-0.006,0.011-0.01,0.016-0.016c0.039-0.039,0.078-0.077,0.117-0.115
			c0.958-1.014,2.091-1.785,3.332-2.245l0.195-0.072c0.113-0.046,0.225-0.094,0.339-0.135c1.795-0.65,3.65-1.028,5.522-1.14
			c0.987-0.064,1.979-0.061,2.969,0.024c2.432,0.208,4.78,1.086,6.857,2.542c0.21,0.143,0.421,0.285,0.626,0.439l0.723,0.543
			c0.089,0.067,0.167,0.15,0.253,0.222l0.004,0.003c0.012,0.009,0.022,0.021,0.033,0.03c0.147,0.125,0.296,0.245,0.432,0.384
			c0.587,0.569,1.067,1.271,1.396,2.075l0.141,0.343l0,0l0,0l0.291,0.709C505.915,98.037,505.981,98.979,505.76,99.86z
			 M540.671,99.053c-0.014,1.24-0.451,2.425-1.218,3.297c-0.84,0.956-1.768,1.79-2.756,2.508c-1.809,1.35-3.851,2.263-6.007,2.643
			l-0.311,0.055c-1.436,0.253-2.891,0.267-4.323,0.049c-0.905-0.129-1.803-0.345-2.682-0.649l-0.374-0.129
			c-0.703-0.243-1.388-0.54-2.052-0.888c-1.878-0.94-3.58-2.301-4.998-4.02l0.13,0.079c-0.122-0.143-0.248-0.281-0.366-0.429
			l-0.081-0.101c-0.335-0.42-0.583-0.923-0.725-1.469c-0.228-0.878-0.17-1.821,0.163-2.653l0.285-0.712v0l0.138-0.344
			c0.323-0.807,0.797-1.514,1.379-2.09c0.134-0.14,0.283-0.262,0.428-0.388c0.012-0.009,0.022-0.021,0.034-0.031l0.004-0.003
			c0.085-0.073,0.163-0.156,0.251-0.224l0.719-0.551c0.204-0.157,0.414-0.301,0.623-0.446c2.065-1.478,4.405-2.381,6.835-2.615
			c0.991-0.096,1.984-0.11,2.973-0.056c1.871,0.092,3.728,0.45,5.527,1.08c0.114,0.04,0.227,0.087,0.34,0.131l0.196,0.07
			c1.244,0.446,2.384,1.205,3.35,2.209c0.039,0.038,0.079,0.075,0.118,0.114c0.005,0.005,0.011,0.01,0.016,0.015l0.019,0.021
			c0.135,0.133,0.268,0.267,0.397,0.408l0.077,0.105l0.109,0.118c1.155,1.249,1.802,2.998,1.782,4.821L540.671,99.053z"/>
		<g>
			<path fill="#E1D0A3" d="M517.592,122.827l-2.074-1.139c-0.808-0.444-1.401-1.332-1.6-2.397l-0.824-4.41
				c-0.247-1.322-0.404-2.668-0.468-4.022l-0.331-6.96c-0.05-1.054-0.04-2.11,0.031-3.162l0.188-2.787
				c0.113-1.669-0.953-3.1-2.309-3.1l0,0c-1.355,0-2.421,1.431-2.309,3.1l0.188,2.787c0.071,1.052,0.081,2.108,0.031,3.162
				l-0.331,6.96c-0.064,1.355-0.221,2.7-0.468,4.022l-0.824,4.41c-0.199,1.065-0.791,1.953-1.6,2.397l-2.074,1.139
				c-0.772,0.424-1.449,1.07-1.977,1.884l-0.379,0.585c-0.508,0.784-0.6,1.862-0.237,2.76v0c0.256,0.633,0.754,1.062,1.324,1.14
				l2.143,0.294c0.984,0.135,1.973,0.203,2.963,0.203h3.55h3.55c0.99,0,1.979-0.068,2.963-0.203l2.143-0.294
				c0.569-0.078,1.068-0.507,1.324-1.14v0c0.364-0.898,0.271-1.976-0.237-2.76l-0.378-0.585
				C519.041,123.897,518.363,123.251,517.592,122.827z"/>
			<path fill="#E2D3A8" d="M507.12,106.209c0.377-2.176,0.61-4.387,0.695-6.609l0.076-2.001l0.257,4.049
				c0.028,0.446,0.032,0.893,0.011,1.34l-0.438,9.193c-0.023,0.475-0.078,0.947-0.164,1.411l-1.066,5.707
				c-0.198,1.06-0.788,1.944-1.593,2.386l-3.054,1.84l0.635-1.434c1.222-2.416,2.081-4.947,2.869-7.624l0.053-0.18
				c0.517-1.756,0.935-3.554,1.252-5.381L507.12,106.209z"/>
			<path fill="#E2D3A8" d="M513.202,105.76c-0.328-1.872-0.532-3.774-0.609-5.687l-0.099-2.466l-0.211,3.422
				c-0.053,0.864-0.058,1.732-0.016,2.597l0.416,8.397c0.029,0.585,0.098,1.167,0.206,1.738l1.076,5.7
				c0.181,0.96,0.718,1.76,1.448,2.158l3.271,2.015l-0.91-2c-1.056-2.076-1.855-4.303-2.538-6.606l-0.328-1.107
				c-0.448-1.51-0.811-3.056-1.086-4.628L513.202,105.76z"/>
			<path fill="#AE9F80" d="M502.589,129.271l0.627-0.167c0.546-0.145,1.102-0.218,1.66-0.218h0.647c1.034,0,2.058,0.251,3.014,0.739
				l0,0h-1.882l-2.115-0.117L502.589,129.271z"/>
			<path fill="#AE9F80" d="M518.239,129.214l-0.572-0.119c-0.662-0.138-1.338-0.187-2.011-0.146l-0.683,0.042
				c-0.639,0.039-1.272,0.16-1.886,0.359l-0.848,0.275l1.383-0.004l1.617-0.073l1.608-0.157L518.239,129.214z"/>
		</g>
		<g>
			<path fill="#C66B4A" d="M527.717,139.623l-2.15,0.67c-0.984,0.307-1.994,0.489-3.012,0.545l-2.349,0.128
				c-1.161,0.063-2.324,0.002-3.475-0.184l-1.297-0.209c-1.473-0.237-2.974,0.047-4.303,0.816l0,0
				c-0.583,0.337-1.269,0.337-1.852-0.001l-0.002-0.001c-1.328-0.769-2.829-1.055-4.302-0.819l-1.297,0.208
				c-1.151,0.184-2.314,0.245-3.475,0.181l-2.35-0.13c-1.018-0.056-2.027-0.239-3.01-0.546l-2.15-0.671
				c-0.706-0.221-1.456,0.107-1.856,0.811l0,0l0,0.001c0.39,1.405,1.103,2.662,2.063,3.64l0.198,0.202
				c1.271,1.295,2.704,2.364,4.252,3.17l1.014,0.528c1.248,0.65,2.545,1.171,3.874,1.555l0.412,0.119
				c2.34,0.678,4.744,1.021,7.157,1.022l0.79,0c2.414,0.001,4.82-0.341,7.161-1.017l0.41-0.118c1.329-0.384,2.626-0.903,3.874-1.553
				l1.013-0.527c1.548-0.805,2.982-1.872,4.254-3.167l0.196-0.2c0.961-0.978,1.674-2.236,2.065-3.642l0,0l-0.001-0.001
				C529.172,139.731,528.423,139.403,527.717,139.623z"/>
			<path fill="none" stroke="#C2573A" stroke-linecap="round" stroke-miterlimit="10" d="M491.055,140.563l2.794,1.516
				c1.248,0.677,2.553,1.209,3.893,1.586l2.937,0.827c1.082,0.305,2.181,0.53,3.288,0.673l3.46,0.448
				c1.95,0.252,3.919,0.246,5.867-0.02l3.416-0.466c1.597-0.218,3.172-0.614,4.702-1.183l4.129-1.535
				c0.644-0.24,1.278-0.515,1.899-0.826l1.864-0.933"/>
		</g>
		<g>
			<polygon fill="#D3907F" points="495.15,139.241 491.841,140.343 490.261,141.718 489.705,143.73 490.602,146.287 
				495.814,148.252 504.528,149.48 524.776,148.878 528.364,146.975 530.244,145.403 530.714,143.594 530.372,141.768 
				527.937,139.803 514.695,138.56 499.06,138.575 			"/>
			<path fill="#EDE5CA" d="M510.209,149.48l0.243-4.231c0.025-0.439,0.342-0.78,0.725-0.78h2.15c0.401,0,0.726,0.374,0.726,0.835
				v3.733L510.209,149.48z"/>
			<path fill="#EDE5CA" d="M514.054,148.89l0.296-3.622c0.028-0.342,0.277-0.603,0.576-0.603h1.754c0.319,0,0.578,0.298,0.578,0.665
				v3.559H514.054z"/>
			<path fill="#EDE5CA" d="M517.258,148.89l0.209-1.726c0.031-0.256,0.097-0.505,0.195-0.737l0.28-0.665
				c0.167-0.396,0.423-0.734,0.742-0.979l0.338-0.259c0.249-0.191,0.574-0.181,0.814,0.024l0.385,0.329
				c0.214,0.183,0.387,0.422,0.503,0.698l0.527,1.245c0.043,0.102,0.077,0.208,0.102,0.318l0.248,1.112L517.258,148.89z"/>
			<path fill="#EDE5CA" d="M521.601,148.252l0.247-1.78c0.044-0.317,0.135-0.623,0.27-0.905l0.427-0.892
				c0.146-0.305,0.366-0.553,0.634-0.715l0.284-0.172c0.261-0.158,0.573-0.161,0.836-0.007l0.302,0.176
				c0.286,0.166,0.546,0.385,0.771,0.647l0.219,0.255c0.366,0.426,0.671,0.916,0.904,1.451l0.289,0.665l-2.862,1.032
				L521.601,148.252z"/>
			<path fill="#EDE5CA" d="M510.209,139.361l0.232,3.983c0.028,0.486,0.379,0.863,0.803,0.863h2.817
				c0.444,0,0.805-0.414,0.805-0.925v-4.708h-4.656V139.361z"/>
			<path fill="#EDE5CA" d="M514.866,138.575l0.179,4.362c0.019,0.464,0.365,0.821,0.768,0.792l2.005-0.144
				c0.382-0.027,0.679-0.391,0.679-0.831v-3.786L514.866,138.575z"/>
			<path fill="#EDE5CA" d="M518.497,138.575l0.299,2.866c0.055,0.526,0.28,1.009,0.631,1.352l0,0c0.205,0.2,0.429,0.373,0.667,0.515
				l0.304,0.181c0.303,0.181,0.667,0.161,0.954-0.051l0.266-0.197c0.299-0.221,0.512-0.566,0.595-0.963l0.319-1.526
				c0.043-0.206,0.065-0.418,0.065-0.63v-0.86L518.497,138.575z"/>
			<path fill="#EDE5CA" d="M522.597,139.262l0.162,1.156c0.088,0.624,0.383,1.184,0.823,1.562l0.516,0.444
				c0.138,0.119,0.287,0.219,0.443,0.301l0.612,0.318c0.296,0.154,0.641,0.121,0.911-0.086l0.399-0.306
				c0.293-0.224,0.526-0.536,0.676-0.902l0.796-1.946L522.597,139.262z"/>
			<path fill="#EDE5CA" d="M510.194,149.48l-0.238-4.231c-0.025-0.439-0.341-0.781-0.724-0.781l-2.15-0.004
				c-0.401-0.001-0.727,0.373-0.727,0.834l-0.005,3.733L510.194,149.48z"/>
			<path fill="#EDE5CA" d="M506.351,148.884l-0.291-3.622c-0.027-0.342-0.277-0.603-0.575-0.604l-1.754-0.003
				c-0.319-0.001-0.579,0.297-0.579,0.664l-0.005,3.559L506.351,148.884z"/>
			<path fill="#EDE5CA" d="M503.147,148.878l-0.207-1.727c-0.031-0.256-0.096-0.505-0.194-0.737l-0.279-0.665
				c-0.167-0.397-0.422-0.735-0.741-0.98l-0.337-0.259c-0.248-0.191-0.574-0.182-0.814,0.023l-0.386,0.329
				c-0.214,0.183-0.387,0.422-0.504,0.697l-0.528,1.244c-0.043,0.102-0.077,0.208-0.102,0.318l-0.249,1.112L503.147,148.878z"/>
			<path fill="#EDE5CA" d="M498.805,148.232l-0.244-1.781c-0.044-0.317-0.135-0.624-0.269-0.905l-0.426-0.893
				c-0.145-0.305-0.366-0.554-0.633-0.716l-0.284-0.172c-0.261-0.158-0.572-0.162-0.836-0.009l-0.303,0.175
				c-0.286,0.166-0.547,0.384-0.772,0.645l-0.219,0.254c-0.366,0.425-0.672,0.915-0.906,1.45l-0.29,0.665l2.861,1.037
				L498.805,148.232z"/>
			<path fill="#EDE5CA" d="M510.208,139.361l-0.237,3.983c-0.029,0.486-0.38,0.863-0.804,0.862l-2.817-0.005
				c-0.444-0.001-0.804-0.416-0.803-0.927l0.006-4.708l4.656,0.008L510.208,139.361z"/>
			<path fill="#EDE5CA" d="M505.553,138.566l-0.185,4.362c-0.02,0.464-0.366,0.82-0.769,0.79l-2.004-0.148
				c-0.382-0.028-0.678-0.393-0.678-0.832l0.005-3.786L505.553,138.566z"/>
			<path fill="#EDE5CA" d="M501.922,138.56l-0.303,2.865c-0.056,0.526-0.282,1.008-0.633,1.351l0,0
				c-0.205,0.2-0.429,0.372-0.668,0.514l-0.304,0.181c-0.303,0.18-0.667,0.16-0.954-0.053l-0.266-0.197
				c-0.299-0.221-0.511-0.567-0.594-0.965l-0.317-1.527c-0.043-0.206-0.064-0.418-0.064-0.63l0.001-0.86L501.922,138.56z"/>
			<path fill="#EDE5CA" d="M497.82,139.241l-0.164,1.156c-0.088,0.624-0.384,1.183-0.825,1.561l-0.517,0.443
				c-0.138,0.118-0.287,0.219-0.444,0.3l-0.612,0.317c-0.297,0.153-0.641,0.12-0.911-0.088l-0.399-0.307
				c-0.292-0.225-0.526-0.537-0.675-0.904l-0.794-1.947L497.82,139.241z"/>
			<path fill="#C66B4A" d="M527.996,137.788l-2.088-0.822c-2.255-0.889-4.599-1.445-6.976-1.657l-1.842-0.164
				c-1.763-0.157-3.535,0.06-5.23,0.639l0,0c-1.077,0.368-2.223,0.367-3.299-0.003l0,0c-1.694-0.582-3.466-0.802-5.229-0.648
				l-1.842,0.161c-2.377,0.208-4.722,0.76-6.979,1.645l-2.088,0.819c-0.439,0.172-0.836,0.46-1.16,0.841l0,0
				c-2.212,2.603-2.446,6.67-0.551,9.585l0,0c0.522,0.803,1.239,1.409,2.061,1.743l2.234,0.906c1.99,0.807,4.052,1.356,6.148,1.636
				l1.951,0.261c1.227,0.164,2.462,0.248,3.698,0.25l3.385,0.006l0.006-4.585l-4.316,0.084c-1.254,0.024-2.508-0.04-3.756-0.191
				l-4.09-0.498c-1.118-0.136-2.228-0.357-3.32-0.662l-1.936-0.54c-0.754-0.21-1.454-0.622-2.044-1.201v0
				c-1.093-1.074-0.995-3.05,0.198-3.974l0,0c1.209-0.936,2.615-1.48,4.069-1.574l3.698-0.239l5.511-0.406
				c0.96-0.071,1.923-0.078,2.883-0.021l2.301,0.136c0.542,0.032,1.084,0.033,1.626,0.001l2.301-0.132
				c0.962-0.055,1.925-0.047,2.886,0.026l5.51,0.415l3.697,0.245c1.455,0.097,2.86,0.643,4.068,1.581v0
				c1.191,0.926,1.287,2.902,0.193,3.974l0,0c-0.591,0.579-1.291,0.989-2.046,1.198l-1.936,0.537
				c-1.093,0.303-2.203,0.522-3.321,0.657l-4.092,0.491c-1.247,0.15-2.501,0.211-3.755,0.185l-4.571-0.097l0.028,4.59h3.612
				c1.236,0,2.471-0.081,3.699-0.243l1.951-0.258c2.096-0.277,4.159-0.822,6.149-1.625l2.236-0.902
				c0.823-0.332,1.541-0.937,2.064-1.739l0,0c1.899-2.911,1.67-6.979-0.538-9.586v0C528.832,138.25,528.435,137.961,527.996,137.788
				z"/>
		</g>
		<path fill="#A67449" d="M507.332,84.431l0.02-0.868c0.043-1.899-0.987-3.612-2.547-4.237v0c-2.582-1.034-5.288-1.602-8.021-1.684
			l-4.23-0.127c-1.657-0.05-3.314,0.08-4.95,0.386l-3.19,0.598c-1.248,0.234-2.422,0.833-3.411,1.739l0,0
			c-1.064,0.976-1.776,2.37-1.999,3.914l-0.201,1.391c-0.125,0.863,0.654,1.526,1.335,1.137l0.199-0.114
			c1.875-1.069,3.852-1.88,5.893-2.414l0.938-0.246c1.512-0.396,3.05-0.639,4.599-0.726l2.081-0.117
			c1.93-0.109,3.865,0.026,5.77,0.401l0.636,0.125c1.723,0.339,3.413,0.873,5.045,1.595l0.668,0.295
			C506.614,85.766,507.314,85.229,507.332,84.431z"/>
		<path fill="#A67449" d="M513.485,84.43l-0.034-0.867c-0.074-1.898,0.928-3.633,2.478-4.291h0c2.565-1.089,5.261-1.715,7.993-1.856
			l4.227-0.218c1.656-0.085,3.315,0.008,4.956,0.28l3.199,0.529c1.251,0.207,2.435,0.781,3.438,1.666l0,0
			c1.08,0.953,1.814,2.332,2.062,3.871l0.223,1.387c0.139,0.861-0.629,1.54-1.317,1.166l-0.201-0.109
			c-1.892-1.029-3.882-1.797-5.931-2.287l-0.942-0.226c-1.518-0.364-3.06-0.574-4.61-0.627l-2.082-0.072
			c-1.932-0.067-3.864,0.109-5.762,0.524l-0.634,0.139c-1.717,0.376-3.398,0.946-5.018,1.703l-0.663,0.31
			C514.224,85.75,513.516,85.228,513.485,84.43z"/>
		<g>
			<path fill="#E7D7AF" d="M472.301,102.53l-1.076-4.019c-0.294-1.099-1.018-1.977-1.956-2.374l-0.533-0.225
				c-1.454-0.614-3.081,0.055-3.866,1.59v0c-0.751,1.468-1.033,3.191-0.798,4.873l1.146,8.187l0.879,8.037
				c0.244,2.229,1.218,4.268,2.723,5.701l0,0c0.818,0.778,1.918,1.04,2.938,0.699l0,0c1.368-0.458,2.308-1.899,2.308-3.537v-10.784
				c0-0.318-0.036-0.635-0.107-0.943L472.301,102.53z"/>
			<path fill="#DFCF9B" d="M471.668,105.262l-0.599-2.237c-0.164-0.612-0.567-1.1-1.089-1.321l-0.296-0.125
				c-0.809-0.342-1.715,0.031-2.152,0.885l-0.321,0.628c-0.21,0.411-0.289,0.894-0.224,1.366l0.739,5.276l0.613,5.599
				c0.057,0.518,0.283,0.991,0.632,1.324l0.76,0.723c0.455,0.433,1.068,0.579,1.635,0.389l0,0c0.761-0.255,1.285-1.057,1.285-1.969
				v-3.921c0-1.559-0.176-3.111-0.523-4.618L471.668,105.262z"/>
		</g>
		<g>
			<path fill="#E7D7AF" d="M547.875,102.533l1.081-4.018c0.296-1.098,1.02-1.975,1.959-2.37l0.533-0.224
				c1.454-0.612,3.081,0.06,3.864,1.597l0,0c0.749,1.469,1.029,3.193,0.791,4.874l-1.157,8.185l-0.89,8.035
				c-0.247,2.229-1.223,4.266-2.731,5.696l0,0c-0.819,0.777-1.919,1.037-2.938,0.694l0,0c-1.367-0.46-2.306-1.903-2.304-3.541
				l0.014-10.784c0-0.318,0.037-0.635,0.108-0.943L547.875,102.533z"/>
			<path fill="#DFCF9B" d="M548.504,105.267l0.602-2.236c0.165-0.611,0.568-1.099,1.091-1.319l0.297-0.125
				c0.81-0.341,1.715,0.034,2.151,0.889l0.32,0.628c0.21,0.412,0.288,0.895,0.222,1.366l-0.746,5.275l-0.62,5.598
				c-0.057,0.518-0.284,0.991-0.634,1.323l-0.761,0.722c-0.456,0.432-1.068,0.577-1.636,0.386l0,0
				c-0.761-0.256-1.283-1.059-1.282-1.971l0.005-3.921c0.002-1.559,0.18-3.111,0.529-4.617L548.504,105.267z"/>
		</g>
		<g>
			<g>
				<path fill="#926B49" d="M546.155,121.863c0,0-6.379,17.671-10.66,17.97c-2.266-1.785-3.782-2.532-5.55-3.552
					c-2.948-1.7-8.581-3.811-11.471-4.121c-2.074-0.222-6.258,0.117-8.344,0.16c-2.086-0.043-6.27-0.38-8.344-0.157
					c-2.89,0.31-8.522,2.424-11.469,4.125c-1.767,1.021-3.284,1.768-5.549,3.554c-4.281-0.298-10.666-17.966-10.666-17.966
					s-2.281,15.982-1.742,21.353c0.574,5.715,4.759,16.003,7.128,19.82c6.793,10.943,26.544,22.429,30.651,22.392
					s24.504-12.687,30.663-23.156c2.278-3.873,6.19-13.162,6.763-18.878C548.104,138.035,546.155,121.863,546.155,121.863z
					 M529.777,151.9c-1.455,2.535-4.575,6.247-7.22,7.491c-2.18,1.026-6.822,2.903-8.478,1.154c-0.973-1.027,0.8-2.612-0.12-3.687
					c-0.622-0.726-2.223-1.089-3.824-1.089c-1.601,0-3.202,0.364-3.824,1.091c-0.919,1.075,0.854,2.659-0.118,3.687
					c-1.656,1.75-6.299-0.126-8.479-1.151c-2.645-1.244-5.989-4.954-7.445-7.489c-1.231-2.141-2.13-6.026-1.646-8.449
					c0.365-1.831,1.508-3.254,3.044-4.316c2.44-1.686,8.397-1.054,11.339-1.429c1.518-0.194,5.289,0.318,7.054,0.311
					c1.801-0.007,5.447-0.537,7.198-0.314c2.942,0.374,8.899-0.26,11.34,1.425c1.536,1.061,2.457,2.484,2.823,4.315
					C531.904,145.872,531.007,149.758,529.777,151.9z"/>
			</g>
		</g>
		<g>
			<path fill="#926B49" d="M474.234,105.191c0,0,1.851-9.233,2.116-12.355c0.254-2.99-0.829-9.118-0.002-12.002
				c0.459-1.601,3.07-4.048,3.529-5.649c0.34-1.188-0.001-4.942-0.001-4.942s7.75-2.179,10.236-3.179
				c2.197-0.884,8.471-4.237,8.471-4.237s5.982,2.747,8.119,3.176c7.443,1.493,30.358,0.701,30.358,0.701s4.367,4.228,5.296,6
				c1.207,2.302,2.242,7.505,2.5,10.091c0.268,2.686-0.549,8.089-0.474,10.788c0.081,2.912,1.157,11.596,1.157,11.596
				s1.952-3.061,2.457-4.157c0.951-2.064,2.147-6.471,2.943-8.6c0.796-2.129,2.986-6.193,3.421-8.424
				c0.913-4.677,2.129-14.8-0.003-19.062c-0.819-1.638-5.862-4.395-5.862-4.395s2.681-3.468,3.036-4.854
				c0.542-2.117-0.502-8.725-0.502-8.725s-0.703,5.169-1.552,6.651c-0.711,1.24-4.149,3.936-4.149,3.936s3.012-7.194,3.258-9.753
				c0.25-2.597-1.359-10.346-1.359-10.346s-0.742,4.685-1.188,6.199c-0.449,1.524-2.378,5.893-2.378,5.893
				s1.524-10.743,0.473-14.114c-0.929-2.979-7.434-10.025-7.434-10.025l0.707,4.942c0,0-7.432-7.046-10.591-8.117
				c-4.597-1.558-14.615-0.721-19.415,0.003c-8.584,1.296-25.567,6.07-33.18,10.243c-4.667,2.558-13.925,8.975-16.235,13.77
				c-1.578,3.275-1.409,14.473-1.409,14.473l4.938-6.695c0,0-1.266,5.04-1.933,6.633c-0.587,1.401-2.564,3.839-2.964,5.304
				c-0.685,2.508-0.244,10.395-0.244,10.395s2.601-7.869,4.518-9.753c0.596-0.586,3.058-1.352,3.058-1.352s-2.272,4.944-2.582,6.716
				c-0.321,1.837,0.154,7.46,0.154,7.46l3.652-4.975c0,0-0.231,13.091,1.192,17.145c0.62,1.764,3.426,4.475,4.261,6.148
				c0.543,1.089,0.972,3.539,1.53,4.62C472.559,103.143,474.234,105.191,474.234,105.191z"/>
		</g>
		<g display="none">
			<path display="inline" fill="#926B49" d="M472.651,105.854l0.583-1.193c0.546-1.116,0.832-2.375,0.832-3.656V78.163
				c0-2.761,0.935-5.414,2.607-7.395l4.373-5.185c0.578-0.685,1.462-0.892,2.226-0.522l1.124,0.544l4.652-3.057
				c0.39-0.257,0.873-0.243,1.251,0.036l1.696,1.249c0.519,0.382,0.832,1.042,0.832,1.75v0.311l3.08-3.172
				c0.31-0.319,0.79-0.267,1.043,0.113l1.168,1.757l3.347-3.252c0.216-0.21,0.534-0.204,0.745,0.014l1.448,1.501l0.541-0.464
				c0.395-0.339,0.964-0.128,1.112,0.413l0.252,0.92l2.204-3.302c0.205-0.306,0.606-0.307,0.811,0l1.627,2.433l1.473-0.944
				c0.319-0.204,0.721-0.099,0.931,0.244l1.583,2.581l2.958-2.987c0.28-0.283,0.696-0.298,0.991-0.036l2.263,2.009l1.796-3.1
				c0.207-0.357,0.672-0.319,0.833,0.068l0.8,1.923c0.145,0.349,0.221,0.732,0.221,1.119v1.728l1.425-1.897
				c0.273-0.364,0.424-0.829,0.424-1.31v-0.239c0-0.327,0.364-0.463,0.531-0.198l0.327,0.52c0.637,1.013,1.419,1.893,2.314,2.603
				l1.022,0.81v-0.983c0-0.428,0.426-0.671,0.723-0.412l2.425,2.119l2.458-2.002c0.307-0.25,0.734-0.155,0.937,0.209l0.76,1.359
				l0.954-1.332c0.427-0.596,1.214-0.62,1.668-0.051l3.063,3.843c1.934,2.427,3.033,5.58,3.092,8.871l0.41,22.96
				c0.021,1.166,0.177,2.325,0.465,3.443l0.249,0.967l1.366-5.456c0.237-0.947,0.681-1.807,1.291-2.499l0.018-0.02l0.383-8.865
				l0.778-2.896l-0.778-11.1v-7.625l-1.881-5.791l-0.97-4.922l-2.303-2.123l-1.595-5.888h-2.602l-3.609-4.343l-5.707-0.965
				l-5.789-3.282l-5.498,0.386l-4.942-2.123l-0.69,1.255l-6.6-2.799l-1.702,2.509h-9.358l-3.189,2.316l-2.014-0.386l-4.784,2.702
				h-2.686l-3.441,3.089l-6.931,4.536l1.307,0.483l-4.031,5.019l0.338,0.965L469.028,63l0.779,0.869l-1.82,8.107l1.041,8.687
				l-0.621,1.487l1.321,9.431c0.053,0.378,0.096,0.758,0.13,1.14l0.357,4.046l0.786,1.124l1.013,3.57L472.651,105.854z"/>
		</g>
		<g>
			<path fill="#E1D1AB" stroke="#C0A674" stroke-miterlimit="10" d="M475.141,220.636l-3.293,25.395l-2.558,25.351
				c-0.245,2.424-0.267,4.866-0.066,7.295l0.124,1.504c0.133,1.609,0.313,3.198,0.075,4.794l-0.285,0.382
				c-0.201,1.35-15.458-0.179-15.458-0.179c-0.124-0.461-0.46-0.929-0.522-1.401c-0.147-1.111,0.119-2.24,0.314-3.349l0.373-2.123
				c0.28-1.591,0.68-3.15,1.197-4.659l0.637-1.86c0.4-1.169,0.686-2.386,0.851-3.629l2.541-19.083
				c0.675-5.069,1.144-10.173,1.407-15.294l0.568-11.079c0.187-3.651-0.169-10.955-0.169-10.955l-0.027-5.619
				c-0.01-2.08,0.239-4.15,0.741-6.147l0.325-1.293c0.454-1.809,1.341-3.432,2.56-4.687l0,0c1.572-1.618,3.602-2.525,5.716-2.554"/>
			<g>
				<path fill="#757881" d="M505.479,370.051c-68.486,0.099-273.757,12.318-273.757,12.318l0.275,7.79
					c0,0,205.065-12.209,273.482-12.308c70.922-0.103,283.527,11.853,283.527,11.853l0.264-7.79
					C789.269,381.913,576.467,369.948,505.479,370.051z"/>
				<path fill="#3A4244" stroke="#3C4F54" stroke-miterlimit="10" d="M322.068,449.369c3.868-0.137,6.893-3.384,6.757-7.252
					l-2.081-58.864l-2.081-58.864c-0.137-3.868-3.384-6.893-7.252-6.757l-16.27,0.575c-3.868,0.137-6.893,3.384-6.757,7.252
					l2.081,58.864l2.081,58.864c0.137,3.868,3.384,6.893,7.252,6.757L322.068,449.369z"/>
				<path fill="#3A4244" stroke="#3C4F54" stroke-miterlimit="10" d="M291.988,435.762c3.011-0.106,5.365-2.634,5.259-5.645
					l-1.62-45.818l-1.62-45.818c-0.106-3.011-2.634-5.365-5.645-5.259l-12.664,0.448c-3.011,0.106-5.365,2.634-5.259,5.645
					l1.62,45.818l1.62,45.818c0.106,3.011,2.634,5.365,5.645,5.259L291.988,435.762z"/>
				<path fill="#3A4244" stroke="#3C4F54" stroke-miterlimit="10" d="M728.635,435.762c-3.011-0.106-5.365-2.634-5.259-5.645
					l1.62-45.818l1.62-45.818c0.106-3.011,2.634-5.365,5.645-5.259l12.664,0.448c3.011,0.106,5.365,2.634,5.259,5.645l-1.62,45.818
					l-1.62,45.818c-0.106,3.011-2.634,5.365-5.645,5.259L728.635,435.762z"/>
				<path fill="#3A4244" stroke="#3C4F54" stroke-miterlimit="10" d="M715.293,449.597c3.868,0.131,7.111-2.899,7.242-6.767
					l1.995-58.867l1.995-58.867c0.131-3.868-2.899-7.111-6.767-7.242l-16.271-0.551c-3.868-0.131-7.111,2.899-7.242,6.767
					l-1.995,58.867l-1.995,58.867c-0.131,3.868,2.899,7.111,6.767,7.242L715.293,449.597z"/>
				<path fill="#3A4244" stroke="#3C4F54" stroke-miterlimit="10" d="M760.726,420.07c2.108,0.071,3.875-1.58,3.947-3.688
					l1.087-32.082l1.087-32.082c0.071-2.108-1.58-3.875-3.688-3.947l-8.868-0.301c-2.108-0.071-3.875,1.58-3.947,3.688
					l-1.087,32.082l-1.087,32.082c-0.071,2.108,1.58,3.875,3.688,3.947L760.726,420.07z"/>
				<path fill="#3A4244" stroke="#3C4F54" stroke-miterlimit="10" d="M259.572,420.07c-2.108,0.071-3.875-1.58-3.947-3.688
					l-1.087-32.082l-1.087-32.082c-0.071-2.108,1.58-3.875,3.688-3.947l8.868-0.301c2.108-0.071,3.875,1.58,3.947,3.688
					l1.087,32.082l1.087,32.082c0.071,2.108-1.58,3.875-3.688,3.947L259.572,420.07z"/>
			</g>
			<g>
				<g>
					<path fill="#E1D1AB" stroke="#C0A674" stroke-miterlimit="10" d="M444.769,383.274l-0.306-0.837
						c-0.4-1.094-0.532-2.256-0.38-3.36l0.07-0.511c0.054-0.397,0.25-0.738,0.546-0.954l0.149-0.109
						c0.37-0.27,0.857-0.312,1.307-0.114l0,0c0.385,0.17,0.705,0.499,0.885,0.911l0.636,1.457c0.239,0.548,0.411,1.121,0.509,1.704
						l0.256,1.511c0.109,0.641-0.115,1.257-0.579,1.595l-0.38,0.277c-0.208,0.152-0.454,0.239-0.715,0.254l0,0
						c-0.566,0.033-1.136-0.278-1.488-0.811l0,0C445.07,383.971,444.899,383.63,444.769,383.274z"/>
					<path fill="#E1D1AB" stroke="#C0A674" stroke-miterlimit="10" d="M448.159,380.231l0.008-1.22
						c0.003-0.385,0.131-0.742,0.362-1.007l0.416-0.478c0.261-0.299,0.632-0.459,1.031-0.443l0,0c0.499,0.02,0.983,0.311,1.29,0.776
						l0.381,0.577c0.125,0.19,0.216,0.401,0.267,0.622l0.347,1.49c0.125,0.537,0.201,1.081,0.226,1.623l0.034,0.716
						c0.026,0.544-0.194,1.039-0.587,1.326l-0.289,0.21c-0.276,0.201-0.618,0.285-0.968,0.236l-0.77-0.107
						c-0.265-0.037-0.524-0.148-0.751-0.322l-0.556-0.426l-0.321-2.011C448.196,381.272,448.156,380.749,448.159,380.231z"/>
					<path fill="#E1D1AB" stroke="#C0A674" stroke-miterlimit="10" d="M452.367,381.456l-0.334-2.115
						c-0.069-0.439,0.025-0.871,0.26-1.198l0.202-0.281c0.199-0.277,0.487-0.46,0.816-0.519l0.039-0.007
						c0.581-0.104,1.199,0.192,1.569,0.752l0,0c0.108,0.164,0.191,0.345,0.244,0.534l1.044,3.707
						c0.172,0.61-0.012,1.232-0.461,1.559l-0.337,0.246c-0.19,0.138-0.416,0.215-0.654,0.222l-1.289,0.037l-0.542-0.821
						l-0.307-1.018C452.509,382.192,452.425,381.826,452.367,381.456z"/>
					<path fill="#E1D1AB" stroke="#C0A674" stroke-miterlimit="10" d="M456.53,383.481l0.645,0.466l0.843-0.212
						c0.35-0.088,0.649-0.31,0.845-0.628l0.012-0.019c0.271-0.439,0.319-1.016,0.13-1.553l-0.691-1.963
						c-0.032-0.092-0.076-0.18-0.13-0.262l-0.644-0.976c-0.255-0.386-0.696-0.568-1.081-0.445l-0.311,0.099
						c-0.238,0.075-0.426,0.258-0.521,0.506l-0.166,0.436c-0.079,0.208-0.087,0.447-0.022,0.677L456.53,383.481z"/>
				</g>
				<path fill="#E1D1AB" stroke="#C0A674" stroke-miterlimit="10" d="M453.034,359.993c0.122,0.69,0.276,1.376,0.461,2.057
					l2.59,9.513l-11.695-0.012l-0.723,3.499c-0.341,1.649-0.115,3.441,0.638,5.053l1.3,2.784c0.22,0.472,0.23,1.006,0.026,1.437
					c-0.25,0.528-0.778,0.812-1.348,0.726l-0.4-0.061c-0.469-0.071-0.901-0.384-1.161-0.84l-2.432-4.276l-0.387-0.829
					c-0.627-1.342-0.891-2.816-0.758-4.233l0.134-1.432c0.126-1.347,0.435-2.645,0.918-3.853l1.334-3.339
					c0.504-1.261,0.845-2.607,1.016-4.004l0.046-0.376c0.047-0.383,0.08-0.769,0.101-1.158L453.034,359.993z"/>
			</g>
			<path fill="#E1D1AB" stroke="#C0A674" stroke-miterlimit="10" d="M453.16,283.777l-3.206,29.699l-6.103,42.136
				c-0.177,1.22-0.473,2.406-0.883,3.538l10.086,2.369c0.067-0.559,0.153-1.113,0.26-1.662l7.778-40.033
				c0.203-1.042,0.434-2.074,0.693-3.097l2.285-9l3.219-14.381c0.126-0.564,0.274-1.121,0.444-1.668l1.277-4.109
				c0.257-0.829,0.397-1.705,0.413-2.594"/>
			<circle fill="#E1D1AB" cx="447.894" cy="360.824" r="5.2"/>
		</g>
		<g>
			<path fill="#E1D1AB" stroke="#C0A674" stroke-miterlimit="10" d="M545.417,220.637l3.609,25.408l2.863,25.319
				c0.274,2.421,0.325,4.863,0.154,7.293l-0.106,1.505c-0.114,1.61-0.041,3.228,0.216,4.822l0.057,0.351
				c0.217,1.347,0.814,2.574,1.699,3.492l0,0c1.479,1.534,3.399,2.384,5.391,2.387l0,0c1.759,0.003,3.499-0.42,5.107-1.24l0,0
				c1.445-0.737,2.535-2.168,2.98-3.912l0.279-1.093c0.396-1.554,0.448-3.175,0.151-4.751l-0.399-2.118
				c-0.299-1.587-0.718-3.141-1.253-4.644l-0.659-1.852c-0.414-1.164-0.714-2.378-0.895-3.618l-2.771-19.051
				c-0.736-5.061-1.267-10.158-1.591-15.276l-0.701-11.072c-0.231-3.649,0.037-10.956,0.037-10.956l-0.041-5.619
				c-0.015-2.08-0.289-4.147-0.815-6.137l-0.34-1.289c-0.476-1.803-1.382-3.416-2.616-4.656v0c-1.591-1.599-3.632-2.481-5.746-2.485
				l-0.083,0"/>
			<g>
				<g>
					<path fill="#E1D1AB" stroke="#C0A674" stroke-miterlimit="10" d="M578.942,382.846l0.227-0.862
						c0.296-1.127,0.319-2.296,0.064-3.381l-0.117-0.502c-0.091-0.39-0.318-0.712-0.632-0.898l-0.159-0.094
						c-0.394-0.234-0.882-0.231-1.312,0.008l0,0c-0.367,0.205-0.655,0.563-0.796,0.989l-0.497,1.51
						c-0.187,0.568-0.304,1.155-0.348,1.744l-0.114,1.529c-0.048,0.648,0.232,1.24,0.725,1.534l0.404,0.24
						c0.222,0.132,0.474,0.196,0.735,0.186l0,0c0.566-0.02,1.105-0.383,1.405-0.947l0,0
						C578.707,383.568,578.846,383.213,578.942,382.846z"/>
					<path fill="#E1D1AB" stroke="#C0A674" stroke-miterlimit="10" d="M575.282,380.134l-0.122-1.213
						c-0.039-0.383-0.2-0.726-0.454-0.969l-0.459-0.437c-0.287-0.274-0.672-0.398-1.068-0.345l0,0
						c-0.495,0.066-0.949,0.401-1.211,0.893l-0.325,0.61c-0.107,0.2-0.178,0.42-0.208,0.644l-0.206,1.515
						c-0.074,0.547-0.099,1.095-0.074,1.637l0.033,0.716c0.025,0.544,0.29,1.017,0.708,1.265l0.307,0.182
						c0.294,0.175,0.642,0.226,0.986,0.144l0.757-0.179c0.26-0.062,0.508-0.196,0.718-0.391l0.513-0.476l0.132-2.032
						C575.343,381.173,575.334,380.649,575.282,380.134z"/>
					<path fill="#E1D1AB" stroke="#C0A674" stroke-miterlimit="10" d="M571.207,381.747l0.134-2.137
						c0.028-0.443-0.106-0.865-0.371-1.168l-0.228-0.26c-0.224-0.257-0.528-0.412-0.861-0.44l-0.04-0.003
						c-0.588-0.049-1.176,0.304-1.492,0.895l0,0c-0.093,0.174-0.158,0.361-0.193,0.555l-0.693,3.788
						c-0.114,0.623,0.127,1.225,0.605,1.509l0.358,0.213c0.202,0.12,0.434,0.175,0.672,0.16l1.287-0.084l0.463-0.868l0.211-1.042
						C571.134,382.492,571.184,382.12,571.207,381.747z"/>
					<path fill="#E1D1AB" stroke="#C0A674" stroke-miterlimit="10" d="M567.252,384.151l-0.599,0.524l-0.859-0.132
						c-0.357-0.055-0.675-0.248-0.9-0.546l-0.014-0.018c-0.31-0.412-0.412-0.982-0.274-1.534l0.504-2.019
						c0.024-0.095,0.059-0.187,0.105-0.273l0.55-1.032c0.218-0.408,0.64-0.63,1.035-0.544l0.319,0.069
						c0.244,0.053,0.448,0.217,0.566,0.455l0.206,0.418c0.098,0.199,0.129,0.437,0.086,0.672L567.252,384.151z"/>
				</g>
				<path fill="#E1D1AB" stroke="#C0A674" stroke-miterlimit="10" d="M568.537,360.44c-0.057,0.698-0.146,1.396-0.267,2.091
					l-1.69,9.713l11.643-1.105l1.047,3.416c0.493,1.61,0.436,3.416-0.163,5.091l-1.034,2.893c-0.175,0.49-0.135,1.023,0.109,1.434
					c0.298,0.502,0.85,0.736,1.41,0.597l0.393-0.098c0.46-0.115,0.862-0.467,1.077-0.944l2.022-4.485l0.307-0.861
					c0.498-1.395,0.623-2.887,0.359-4.286l-0.267-1.414c-0.251-1.33-0.681-2.593-1.274-3.751l-1.64-3.2
					c-0.619-1.208-1.085-2.516-1.385-3.891l-0.081-0.37c-0.082-0.377-0.152-0.759-0.209-1.143L568.537,360.44z"/>
			</g>
			<path fill="#E1D1AB" stroke="#C0A674" stroke-miterlimit="10" d="M567.814,280.219l0.333,3.543l3.329,29.686l6.278,42.11
				c0.182,1.219,0.483,2.404,0.897,3.534l-10.076,2.411c-0.069-0.558-0.158-1.112-0.267-1.661l-7.944-40
				c-0.207-1.041-0.442-2.073-0.706-3.094l-2.323-8.991l-3.279-14.368c-0.128-0.564-0.279-1.119-0.451-1.666l-1.295-4.104
				c-0.261-0.828-0.336-4.043-0.336-4.043"/>
			<circle fill="#E1D1AB" cx="573.732" cy="360.786" r="5.2"/>
		</g>
	</g>
</g>
</svg>
