<?xml version="1.0" encoding="utf-8"?>
<!-- Generator: Adobe Illustrator 24.0.1, SVG Export Plug-In . SVG Version: 6.00 Build 0)  -->
<svg version="1.1" id="Слой_1" xmlns="http://www.w3.org/2000/svg" xmlns:xlink="http://www.w3.org/1999/xlink" x="0px" y="0px"
	 viewBox="0 0 1024 500" enable-background="new 0 0 1024 500" xml:space="preserve">
<g>
	<g>
		<rect y="-1.51" fill="#BAF8F6" width="1022.464" height="153.959"/>
		<path opacity="0.7" fill="#DEFFF8" d="M506.823,41.321c-3.892,4.975-22.932-0.031-24.524,6.081
			c-1.059,4.065,8.356,9.942,12.262,11.486c9.672,3.822,31.513-2.533,41.599,0c5.155,1.295,13.54,8.937,18.739,10.046
			c10.286,2.194,32.473,1.516,41.963-3.019c4.518-2.159,15.062-9.831,13.667-14.639c-1.939-6.684-20.898-3.567-26.937-7.027
			c-3.772-2.161-8.328-10.523-12.297-12.297c-9.636-4.308-19.334,6.151-29.886,6.396c-5.671,0.132-30.955-8.998-34.586-4.639
			C505.605,35.171,507.996,39.822,506.823,41.321z"/>
		<path opacity="0.7" fill="#DEFFF8" d="M337.321,64.918c-3.889,2.636-11.453,11.807-9.63,16.137
			c1.948,4.625,15.104,2.301,19.52,4.685c3.929,2.121,8.936,10.413,13.014,12.233c6.977,3.115,23.53,5.839,30.452,2.603
			c3.597-1.682,6.185-10.327,9.109-13.013c4.488-4.122,21.002-6.14,21.082-12.233c0.086-6.571-15.882-12.824-22.383-13.784
			c-7.79-1.151-22.765,9.769-30.452,8.058c-3.064-0.682-6.751-6.806-9.63-8.058C353.508,59.416,341.739,61.923,337.321,64.918z"/>
		<path opacity="0.7" fill="#DEFFF8" d="M1023.302,28.723v37.998c-3.931,2.217-10.233,3.584-13.524,3.404
			c-9.526-0.511-25.037-14.812-34.438-16.409c-7.722-1.308-23.912,6.379-31.15,3.385c-4.79-1.979-14.367-11.134-13.016-16.135
			c2.819-10.416,29.55-15.362,40.344-15.359c7.66,0.004,20.969,11.056,28.628,10.931
			C1006.319,36.437,1013.604,28.477,1023.302,28.723z"/>
		<path opacity="0.7" fill="#DEFFF8" d="M785.899,79.805c-5.087,8.421-28.058,11.536-37.869,10.736
			c-6.231-0.508-14.664-3.006-20.887-3.627c-4.599-0.461-16.092,0.328-20.496-1.078c-2.186-0.699-4.665-1.702-6.606-3.084V71.009
			c4.396-4.517,12.017-8.675,16.171-10.158c8.456-3.026,27.168,6.844,36.112,7.613c8.093,0.695,25.755-6.004,31.428-0.195
			C787.062,71.657,788.351,75.749,785.899,79.805z"/>
		<path opacity="0.7" fill="#DEFFF8" d="M114.262,50.612c5.087-8.421,28.058-11.536,37.869-10.736
			c6.231,0.508,14.664,3.006,20.887,3.627c4.599,0.461,16.093-0.328,20.496,1.078c2.186,0.699,4.665,1.702,6.606,3.084v11.743
			c-4.396,4.517-12.017,8.675-16.171,10.158c-8.456,3.026-27.168-6.844-36.112-7.613c-8.093-0.695-25.755,6.004-31.428,0.195
			C113.099,58.76,111.81,54.668,114.262,50.612z"/>
		<path opacity="0.7" fill="#DEFFF8" d="M0,88.826V66.912c10.272-0.113,19.352,1.273,38.603,6.001
			c1.292,0.316,2.346,1.019,1.636,2.143c-1.679,2.651-6.594,8.265-8.562,9.296C24.67,88.029,9.807,88.728,0,88.826z"/>
	</g>
	<path fill="#89E6FF" d="M1022.464,273.11H0V129.544c0,0,381.566-7.954,508.775-7.963c128.438-0.01,513.688,7.963,513.688,7.963
		V273.11z"/>
	<path fill="#EBE496" d="M1022.464,500H0V273.11c0,0,387.213-7.898,516.303-7.878c126.555,0.019,506.16,7.878,506.16,7.878V500z"/>
	<g>
		<path fill="#403D3B" d="M36.108,155.198l-14.195-3.44c-2.35-0.483-4.481-1.711-6.078-3.502l-2.253-2.526
			c-1.406-1.577-2.336-3.52-2.681-5.604l-11.589-70.03c-0.233-1.41-1.538-2.384-2.956-2.208l-2.57,0.32
			c-1.489,0.186-2.531,1.565-2.302,3.048l10.252,66.49c0.885,5.74,3.431,11.095,7.324,15.404l0,0
			c2.772,3.068,6.448,5.174,10.497,6.012l14.929,3.091c2.697,0.558,5.032-1.261,4.584-3.978l0,0
			C38.814,156.737,37.637,155.512,36.108,155.198z"/>
		<path fill="#6E83A3" d="M184.829,328.922c-2.938-1.428-7.186,1.028-9.547,5.55c-2.361,4.521-1.948,9.411,0.903,11.006
			l36.248,18.97l8.648-16.563L184.829,328.922z"/>
		<g>
			<path fill="#332927" d="M226.766,344.353c-4.603-2.232-11.349,1.794-15.162,9.096c-3.812,7.302-3.26,15.138,1.202,17.64
				l25.36,13.292l13.966-26.749L226.766,344.353z"/>
			
				<ellipse transform="matrix(0.4628 -0.8864 0.8864 0.4628 -197.1795 416.7882)" fill="#4D433D" cx="245.307" cy="371.089" rx="15.088" ry="9.408"/>
		</g>
		<polygon fill="#6E83A3" points="63.396,379.44 61.598,366.12 192.359,339.342 197.414,352.351 		"/>
		<g>
			<path fill="#332927" d="M6.363,332.732c-4.771-2.313-11.762,1.859-15.713,9.427c-3.951,7.567-3.379,15.689,1.246,18.282
				l20.476,10.656l14.474-27.722L6.363,332.732z"/>
			
				<ellipse transform="matrix(0.4628 -0.8864 0.8864 0.4628 -306.1248 209.4685)" fill="#4D433D" cx="19.772" cy="357.321" rx="15.637" ry="9.75"/>
		</g>
		<path fill="#B3CDE4" stroke="#929292" stroke-width="0.25" stroke-miterlimit="10" d="M171.545,255.234l-36.927,1.288
			c-3.349,0-6.584,0.675-9.64,1.926l-11.347,4.57c-14.109,5.683-27.123,13.774-38.461,23.913v0
			c-13.924,12.452-25.031,27.731-32.578,44.819c-2.012,4.556-10.106,22.902-10.106,22.902l26.86,13.186
			C104.775,282.952,171.545,255.234,171.545,255.234z"/>
		<path fill="#C0D1DE" stroke="#808080" stroke-width="0.25" stroke-miterlimit="10" d="M205.393,301.96
			c0-25.806-15.155-46.726-33.849-46.726c-4.876,0-92.98,44.578-112.198,112.603l115.323-19.351
			C211.595,339.065,205.393,326.311,205.393,301.96z"/>
		<path fill="#CEE2F3" stroke="#666666" stroke-width="0.25" stroke-miterlimit="10" d="M203.464,300.915
			c0-19.148-8.687-34.67-24.195-34.67c-4.045,0-64.239,30.726-108.295,92.941c-1.64,2.316,105.532-20.202,105.532-20.202
			C190.798,337.368,203.464,318.983,203.464,300.915z"/>
		<path fill="#6E83A3" d="M26.603,348.806c-3.404-1.654-8.326,1.191-11.062,6.43s-2.257,10.904,1.046,12.752l43.662,22.777
			l10.02-19.191L26.603,348.806z"/>
		<g>
			<path fill="#332927" d="M74.303,368.237c-4.771-2.313-11.762,1.859-15.713,9.427c-3.951,7.567-3.379,15.689,1.246,18.282
				l21.396,11.144l14.474-27.722L74.303,368.237z"/>
			
				<ellipse transform="matrix(0.4628 -0.8864 0.8864 0.4628 -301.0414 289.8428)" fill="#4D433D" cx="88.632" cy="393.314" rx="15.637" ry="9.75"/>
		</g>
		<g>
			<path fill="#A0A0A0" d="M169.649,254.996c7.674-0.115,11.249,1.154,17.79,5.272l10.891-24.353
				c3.601-8.244,5.425-17.155,5.353-26.151l-0.444-33.63h-19.247l0.578,31.546c0.104,9.627-1.963,19.154-6.049,27.872
				L169.649,254.996z"/>
			<path fill="#4C3F37" d="M230.841,171.136c0,3.048-1.61,6.261-6.343,6.834c-31.228,3.782-64.282,17.956-71.063,11.72
				c-6.126-5.633,8.665-16.737,12.872-19.453c4.013-2.591,9.012-7.287,14.183-7.961c20.935-2.727,45.485,3.993,45.485,3.993
				C228.662,166.27,230.841,168.449,230.841,171.136L230.841,171.136z"/>
		</g>
		<g>
			<path fill="#A0A0A0" d="M49.999,122.273c-1.476-1.44-3.507-2.164-5.561-1.982l-40.128,3.556l-2.699,0.239
				c-1.279,0.113-2.488-0.605-3-1.782l-0.269-0.619c-0.757-1.74,0.414-3.71,2.304-3.877l45.699-4.05
				c2.089-0.185,4.152,0.567,5.632,2.052l34.096,34.226c1.026,1.03,1.124,2.664,0.228,3.809l0,0
				c-0.817,1.045-2.585,1.163-3.534,0.237L49.999,122.273z"/>
			<path fill="#403D3B" d="M39.491,154.173c0,0,45.424,0.962,44.106,0.385l-34.477-33.01c-0.829-0.739-6.272-2.211-7.365-1.976
				l-39.218,2.707c0,0-3.235,1.611-2.559,2.781l34.54,27.397C35.797,153.455,38.073,154.325,39.491,154.173z"/>
		</g>
		<path fill="#ACACAC" d="M35.272,141.548c1.096,15.115,5.845,80.008,8.103,100.577c2.883,26.265,12.478,69.117,12.478,69.117
			c1.091,6.041,7.979,10.98,13.05,10.065c5.043-0.91,9.986-8.905,8.501-12.317c-0.946-2.174-10.967-43.865-13.77-69.396
			c-1.718-15.646-4.874-73.001-6.304-92.969C57.019,142.283,35.145,139.803,35.272,141.548z"/>
		<path fill="#403D3B" d="M57.377,158.565l30.391,6.908c2.972,0.611,6.065,0.044,8.627-1.581l1.277-0.811
			c2.806-1.781,4.293-5.053,3.789-8.338l-12.33-80.368c-0.189-1.233,0.677-2.379,1.915-2.533l3.454-0.43
			c1.181-0.147,2.267,0.665,2.459,1.84l12.988,79.428c1.074,6.569-2.158,12.712-7.778,16.278l0,0
			c-5.404,3.429-11.649,5.055-17.916,3.758l-28.106-6.57c-2.792-0.601-4.045-3.873-2.368-6.185l0,0
			C54.6,158.829,56.007,158.283,57.377,158.565z"/>
		<path fill="#4B6171" d="M124.965,261.258c-18.547,6.197-29.873,17.576-35.117,24.424c-5.245,6.849-10.702,12.75,9.319,5.25
			c12.247-4.588,39.565-19.073,45.646-28.166C147.723,258.415,126.272,260.821,124.965,261.258z"/>
		<ellipse fill="#4B6171" cx="170.66" cy="306.719" rx="16.855" ry="20.551"/>
		<g id="pedal_x5F_group">
			<g>
				<path fill="#ACB8BD" d="M174.242,339.968l-0.045-33.113c-0.003-1.829,1.477-3.314,3.306-3.317h0
					c1.829-0.003,3.314,1.477,3.317,3.306l0.045,33.113c0.003,1.829-1.477,3.314-3.306,3.317l0,0
					C175.73,343.277,174.245,341.797,174.242,339.968z"/>
				<circle fill="#ACB8BD" cx="177.508" cy="306.85" r="3.311"/>
			</g>
			<path fill="#ACB8BD" d="M171.529,303.584l5.974-0.045c1.829-0.003,3.314,1.477,3.317,3.306l0,0
				c0.003,1.829-1.477,3.314-3.306,3.317l-5.974,0.045c-1.829,0.003-3.323-1.477-3.326-3.306v0
				C168.212,305.071,169.701,303.587,171.529,303.584z"/>
			<g id="pedal">
				<circle fill="#ACB8BD" cx="177.562" cy="339.314" r="3.311"/>
				<polygon fill="#4D433D" points="195.555,330.933 132.005,345.036 163.104,362.086 214.313,340.349 				"/>
				<polygon fill="#605552" points="214.313,340.349 214.313,347.038 163.104,371.628 163.104,362.086 				"/>
				<polygon fill="#665B57" points="132.005,345.036 132.005,352.74 163.104,371.628 163.104,362.086 				"/>
			</g>
		</g>
	</g>
	<g>
		<path fill="#BA7070" d="M886.918,361.254c5.154-6.416,8.327-15.125,8.327-24.726c0-19.715-13.356-35.697-29.833-35.697
			l-82.289-1.025c-8.516,0-18.244,4.082-26.99,11.125l-23.3,18.929l6.121,2.168c-0.155,1.475-0.244,2.975-0.244,4.5
			c0,19.715,13.357,35.697,29.833,35.697h96.869c1.422,0,2.819-0.127,4.189-0.357l-2.504,13.127l19.134-22.91
			c0.179-0.209,0.357-0.421,0.531-0.635l0.162-0.193L886.918,361.254z"/>
		<path fill="#BC8080" d="M845.987,324.075h-96.869c-16.476,0-29.833,15.982-29.833,35.697c0,19.715,13.357,35.697,29.833,35.697
			h96.869c16.476,0,29.833-15.982,29.833-35.697C875.819,340.057,862.463,324.075,845.987,324.075z"/>
		<g>
			<path fill="#917373" d="M854.633,302.811l-0.839-5.093c-0.853-5.18-3.562-9.802-7.553-12.887v0
				c-4.765-3.683-10.497-5.665-16.379-5.665h-21.945v0l0,0h-21.945c-5.882,0-11.614,1.983-16.379,5.665l0,0
				c-3.991,3.084-6.7,7.706-7.553,12.887l-0.839,5.093c-0.252,1.529-0.922,2.943-1.927,4.065l-1.291,1.441
				c-0.886,0.989-0.597,2.615,0.566,3.19l1.789,0.884c5.149,2.543,11.039,2.773,16.348,0.637l3.49-1.404
				c1.176-0.473,1.597-2.019,0.842-3.091v0c-1.208-1.717-1.766-3.856-1.563-5.993l0,0c0.223-2.347,1.344-4.492,3.1-5.925
				l0.568-0.464c1.396-1.14,3.105-1.758,4.863-1.758l19.931,0l0,0v0l19.931,0c1.758,0,3.467,0.618,4.863,1.758l0.568,0.464
				c1.755,1.434,2.877,3.578,3.099,5.925v0c0.203,2.136-0.355,4.276-1.563,5.993l-0.03,0.043c-0.747,1.062-0.349,2.591,0.804,3.089
				l1.887,0.815c5.657,2.442,12.067,2.806,17.239-0.651l1.495-0.999c0.977-0.653,1.146-2.099,0.349-2.988l0,0
				C855.556,306.718,854.885,304.34,854.633,302.811z"/>
		</g>
	</g>
	<g>
		<path fill="#D47373" d="M931.883,427.663c5.56,1.244,11.343,1.901,17.278,1.901c31.852,0,59.29-18.904,71.704-46.105l1.598-32.672
			l-40.176-5.252L931.883,427.663z"/>
		<path fill="#7599C8" d="M871.009,360.757c4.176,33.061,28.842,59.737,60.874,66.906c0,0,36.224,0,50.404-82.129l-64.86-1.838
			L871.009,360.757z"/>
		<path fill="#8B71BB" d="M918.44,278.224c-28.244,11.973-48.056,39.954-48.056,72.562c0,3.378,0.213,6.706,0.625,9.971
			c0,0,33.288-6.82,111.278-15.223l-5.777-64.86L918.44,278.224z"/>
		<path fill="#80AB77" d="M1009.287,299.883c-14.45-17.051-36.024-27.875-60.125-27.875c-10.899,0-21.281,2.213-30.722,6.215
			c0,0,36.275,4.288,63.847,67.31l40.702-6.302L1009.287,299.883z"/>
		<path fill="#DEC86F" d="M1020.865,383.459c4.542-9.953,7.074-21.017,7.074-32.672c0-19.406-7.017-37.173-18.652-50.903
			c0,0,4.511,13.615-27,45.651C1020.363,366.542,1020.865,383.459,1020.865,383.459z"/>
		<circle fill="#B9D7D6" cx="982.044" cy="346.342" r="7.827"/>
	</g>
	<g>
		<path fill="#9B9BAB" d="M502.325,385.438l119.997-5.291c3.142-0.142,5.546-3.43,5.37-7.344c-0.176-3.915-2.866-6.973-6.008-6.832
			l-119.997,5.291L502.325,385.438z"/>
		<g>
			<path fill="#6E6E6E" stroke="#D3D36C" stroke-miterlimit="10" d="M548.994,324.575c-2.856,0.126-20.275,0.891-20.275,0.891
				l4.579,103.141c0,0,17.398-0.764,20.246-0.89c19.781-0.872,34.792-24.673,33.527-53.155S568.775,323.702,548.994,324.575z"/>
			<path fill="#6E6E6E" stroke="#D3D36C" stroke-miterlimit="10" d="M533.433,325.258c-2.855,0.126-20.275,0.891-20.275,0.891
				l4.579,103.141c0,0,17.398-0.764,20.246-0.89c19.781-0.872,34.792-24.673,33.527-53.155S553.214,324.385,533.433,325.258z"/>
			<path fill="#6E6E6E" stroke="#D3D36C" stroke-miterlimit="10" d="M517.871,325.941c-2.856,0.126-18.441,0.811-18.441,0.811
				l4.579,103.141c0,0,15.564-0.684,18.412-0.809c19.781-0.872,34.792-24.673,33.527-53.155S537.652,325.069,517.871,325.941z"/>
			
				<ellipse transform="matrix(0.999 -0.0445 0.0445 0.999 -16.3272 22.824)" fill="#595958" stroke="#D3D36C" stroke-miterlimit="10" cx="504.57" cy="378.197" rx="35.852" ry="51.621"/>
			<path fill="#D3D36C" d="M501.661,338.141c-15.383,0.681-27.057,19.188-26.074,41.338c0.983,22.15,14.251,39.554,29.634,38.873
				c15.383-0.681,27.057-19.188,26.074-41.338C530.312,354.864,517.044,337.46,501.661,338.141z M504.767,408.114
				c-11.457,0.507-22.466-12.405-23.199-28.901c-0.732-16.495,9.09-30.328,20.547-30.835c11.456-0.507,20.209,12.504,20.941,29
				C523.788,393.874,516.224,407.607,504.767,408.114z"/>
			<g>
				<g>
					<path fill="#A06FCE" d="M502.352,379.725c1.93,0,1.934-3,0-3C500.421,376.725,500.418,379.725,502.352,379.725L502.352,379.725
						z"/>
				</g>
			</g>
		</g>
		<path fill="#9B9BAB" d="M501.823,371.585l-366.514,15.751l0.604,14.446l366.464-16.725c2.647-0.119,4.599-3.008,4.423-6.923
			C506.623,374.219,504.47,371.466,501.823,371.585z"/>
		<g>
			<path fill="#6E6E6E" stroke="#D3D36C" stroke-miterlimit="10" d="M149.393,341.217c-2.909,0.128-20.658,0.908-20.658,0.908
				l4.665,105.087c0,0,17.726-0.779,20.628-0.907c20.154-0.889,35.448-25.139,34.16-54.158
				C186.9,363.128,169.547,340.328,149.393,341.217z"/>
			<path fill="#6E6E6E" stroke="#D3D36C" stroke-miterlimit="10" d="M133.538,341.913c-2.909,0.128-20.658,0.908-20.658,0.908
				l4.665,105.087c0,0,17.726-0.779,20.628-0.907c20.154-0.889,35.448-25.139,34.16-54.158
				C171.045,363.824,153.692,341.024,133.538,341.913z"/>
			<path fill="#6E6E6E" stroke="#D3D36C" stroke-miterlimit="10" d="M117.683,342.609c-2.909,0.128-18.789,0.826-18.789,0.826
				l4.665,105.087c0,0,15.857-0.697,18.759-0.825c20.154-0.889,35.448-25.139,34.16-54.158S137.837,341.72,117.683,342.609z"/>
			
				<ellipse transform="matrix(0.999 -0.0445 0.0445 0.999 -17.5092 5.025)" fill="#595958" stroke="#D3D36C" stroke-miterlimit="10" cx="104.131" cy="395.851" rx="36.528" ry="52.595"/>
			<path fill="#D3D36C" d="M101.166,355.039c-15.674,0.693-27.567,19.55-26.565,42.118c1.002,22.568,14.52,40.3,30.193,39.607
				c15.674-0.693,27.567-19.55,26.566-42.118C130.358,372.078,116.84,354.346,101.166,355.039z M104.331,426.333
				c-11.673,0.516-22.89-12.639-23.636-29.446c-0.746-16.807,9.262-30.9,20.934-31.417c11.673-0.516,20.59,12.74,21.336,29.547
				C123.712,411.824,116.004,425.816,104.331,426.333z"/>
			<g>
				<path fill="#9B9BAB" d="M14.157,407.187l85.201-3.821c3.178-0.143,5.597-3.525,5.417-7.514c-0.18-3.989-2.843-7.075-6.021-6.932
					l-85.248,3.823L14.157,407.187z"/>
				
					<ellipse transform="matrix(0.999 -0.045 0.045 0.999 -17.9844 1.0258)" fill="#AAAAB7" cx="13.792" cy="399.965" rx="4.742" ry="7.229"/>
			</g>
		</g>
	</g>
	<g>
		<polygon fill="#D9AC89" points="682.359,386.536 704.171,468.748 694.171,468.748 674.888,393.15 		"/>
		<polygon fill="#C89380" points="694.171,468.748 684.548,468.748 666.359,392.618 674.888,393.15 		"/>
		<polygon fill="#D9AC89" points="762.524,312.999 784.336,395.211 774.336,395.211 755.053,319.613 		"/>
		<polygon fill="#C89380" points="774.336,395.211 764.713,395.211 746.524,319.08 755.053,319.613 		"/>
		<polygon fill="#D6AB89" points="184.403,165.182 174.56,175.406 407.892,376.492 674.888,393.15 676.528,377.376 411.063,360.721 
					"/>
		<polygon fill="#EBC8A8" points="676.528,377.376 767.677,297.813 762.935,315.204 674.888,393.15 		"/>
		<polygon fill="#D9AC89" points="407.892,376.492 368.705,459.723 380.778,459.723 417.324,377.081 		"/>
		<polygon fill="#C89380" points="380.778,459.723 390.17,459.723 424.938,377.556 417.324,377.081 		"/>
		<polygon fill="#E6C6AD" points="683.079,371.657 676.528,377.376 411.063,360.721 184.403,165.182 193.607,160.755 
			417.324,354.105 		"/>
		<polygon fill="#EBC8A8" points="762.363,302.451 767.677,297.813 488.694,275.438 312.654,103.497 304.978,105.408 
			486.981,280.474 		"/>
		<polygon fill="#A2C299" stroke="#7C9F6F" stroke-miterlimit="10" points="210.322,152.449 428.648,338.526 700.427,356.515 
			683.079,371.657 417.324,354.105 193.607,160.755 		"/>
		<polygon fill="#F0E6E6" stroke="#C2B6B6" stroke-miterlimit="10" points="210.322,152.449 428.648,338.526 700.427,356.515 
			718.776,340.498 446.408,317.821 236.893,139.243 		"/>
		<polygon fill="#A2C299" stroke="#7C9F6F" stroke-miterlimit="10" points="265.235,125.158 236.893,139.243 446.408,317.821 
			718.776,340.498 737.624,324.046 464.202,301.023 		"/>
		<polygon fill="#F0E6E6" stroke="#C2B6B6" stroke-miterlimit="10" points="288.351,113.671 481.14,288.879 752.315,311.223 
			737.624,324.046 464.202,301.023 265.235,125.158 		"/>
		<polygon fill="#A2C299" stroke="#7C9F6F" stroke-miterlimit="10" points="752.315,311.223 762.363,302.451 486.981,280.474 
			304.978,105.408 288.351,113.671 481.14,288.879 		"/>
	</g>
	<g>
		<g>
			<g>
				<circle fill="#EABD9E" stroke="#D9A886" stroke-miterlimit="10" cx="413.423" cy="97.685" r="9.093"/>
				<path fill="#EABD9E" stroke="#C08C6C" stroke-miterlimit="10" d="M404.426,180.127l2.859-21.283
					c0.466-3.473,1.051-6.929,1.753-10.362l1.968-9.629c1.779-8.702,4.073-17.291,6.872-25.72l4.151-12.503l-17.503-1.069
					l-1.706,9.815c-1.752,10.078-4.276,20.007-7.549,29.699v0c-2.648,7.841-5.853,15.482-9.592,22.865l-4.899,9.675L404.426,180.127
					z"/>
			</g>
			<g>
				<g>
					<path fill="#EABD9E" stroke="#C08C6C" stroke-miterlimit="10" d="M411.063,88.934l-25.482,6.089
						c-1.741,0.416-3.494,0.786-5.255,1.109l-43.11,7.909l1.791,9.589l21.753-3.006l21.161-2.503
						c3.313-0.392,6.639-0.661,9.971-0.807l19.119-0.838L411.063,88.934z"/>
					<circle fill="#C0947A" cx="338.337" cy="108.801" r="4.875"/>
					<circle fill="#EABD9E" cx="413.439" cy="97.713" r="9.093"/>
				</g>
				<g>
					<path fill="#EABD9E" stroke="#D9A886" stroke-miterlimit="10" d="M311.511,92.216c1.688-0.186,5.117-0.371,6.792-0.087
						c5.375,0.911,10.718,4.035,12.079,5.166c2.002,1.662,8.018,6.634,8.018,6.634l0.811,9.632c0,0-5.472,3.881-7.394,5.02
						c-3.067,1.818-6.62,2.647-10.166,3.01c0,0-10.747,0.896-14.326,1.233c-0.937,0.088-10.225,1.724-11.056,1.283
						c-0.778-0.413-1.09-2.603-0.662-3.312c0.523-0.868,10.013-2.352,11.013-2.515c2.214-0.361,8.886-1.244,8.886-1.244
						s-6.88,0.269-9.173,0.382c-1.033,0.051-11.549,2.318-12.167,1.489c-0.673-0.903-1.074-2.233-0.543-3.439
						c0.469-1.066,10.91-2.91,12.061-3.083c2.345-0.353,9.406-1.226,9.406-1.226s-7.119,0.338-9.492,0.471
						c-1.26,0.07-12.342,1.84-13.216,0.929c-1.111-1.158-1.052-2.607-0.834-3.397c0.398-1.441,11.941-3.616,13.429-3.754
						c2.41-0.223,9.64-0.914,9.64-0.914c-0.267,0.061-7.463,0.028-9.951-0.01c-1.151-0.017-12.074,2.667-12.718,1.714
						c-0.826-1.222-1.16-2.582-0.617-3.434c0.813-1.275,11.603-4.127,13.114-4.175c2.333-0.075,9.333-0.29,9.333-0.29
						c0.136-0.004,0.268,0.015,0.402,0.026l-0.003-0.038l1.004-0.624c0,0-2.478-0.445-3.303-0.349
						c-2.303,0.267-3.098,1.289-8.45,0.528c-1.455-0.207-2.392-2.762-1.602-3.182C304.284,93.353,309.546,92.433,311.511,92.216z"/>
					<circle fill="#EABD9E" cx="338.357" cy="108.782" r="4.853"/>
				</g>
			</g>
		</g>
		<g>
			<g>
				<circle fill="#EABD9E" stroke="#D9A886" stroke-miterlimit="10" cx="558.178" cy="219.718" r="11.745"/>
				<path fill="#EABD9E" stroke="#C08C6C" stroke-miterlimit="10" d="M490.099,292.925l17.516-19.815l21.774-17.86
					c2.255-1.849,4.566-3.629,6.93-5.337l27.709-20.011l-15.675-16.617l-40.695,30.518l-35.58,25.475L490.099,292.925z"/>
				<circle fill="#EABD9E" cx="475.593" cy="285.287" r="16.39"/>
				<path fill="#DCBE2D" stroke="#9A8000" stroke-miterlimit="10" d="M472.909,302.89l-9.326-4.795l-5.159-9.539l0.031-12.449
					l6.529-7.55c3.183-3.681,6.588-7.165,10.194-10.432l7.634-6.917c2.622-2.376,5.315-4.672,8.076-6.885l16.071-12.883l2.406,3.615
					c6.052,9.095,12.862,17.662,20.357,25.61l5.634,5.974l-21.914,15.536l-19.729,13.775c-1.93,1.392-3.963,2.637-6.08,3.724
					l-0.261,0.134c-2.686,1.379-5.609,2.235-8.615,2.522L472.909,302.89z"/>
			</g>
			<g>
				<g>
					<path fill="#EABD9E" stroke="#C08C6C" stroke-miterlimit="10" d="M548.97,227.011l14.405,20.425
						c3.388,4.804,7.195,9.299,11.374,13.433l5.865,5.8c2.929,2.897,5.609,6.036,8.012,9.382l24.386,33.973l13.619-8.931
						l-42.757-64.324l-14.181-19.367L548.97,227.011z"/>
					<circle fill="#EABD9E" cx="619.928" cy="305.721" r="8.147"/>
					<circle fill="#EABD9E" cx="558.179" cy="219.719" r="11.743"/>
				</g>
				<g>
					<path fill="#EABD9E" stroke="#C08C6C" stroke-miterlimit="10" d="M627.185,302.108l-15.076,5.919
						c0.27,1.192,0.174,3.374-0.219,4.532l-0.685,2.02c-0.842,2.484-0.291,5.228,1.446,7.193l0,0
						c1.059,1.198,2.522,1.965,4.109,2.154l18.672,2.223c0.689,0.082,1.373,0.201,2.049,0.356l25.347,6.113
						c1.869,0.43,3.831,0.113,5.47-0.882l0.411-0.25c1.214-0.738,1.944-2.426,2.171-3.411c0.264-1.146-0.588-2.267-1.709-2.622
						l-12.432-3.932l11.777,2.973c1.348,0.331,2.723-0.429,3.16-1.746l0.31-0.935c0.466-1.405-0.303-2.921-1.713-3.373
						l-10.584-2.855l9.757,1.813c1.209,0.279,2.414-0.478,2.689-1.687l0.239-1.05c0.268-1.18-0.448-2.359-1.618-2.666l-9.331-1.337
						l7.698,0.548c1.22,0.224,2.378-0.625,2.529-1.857l0.019-0.152c0.135-1.1-0.586-2.124-1.667-2.367l-7.417-0.136l5.847-0.21
						c1.131,0.152,2.171-0.642,2.322-1.773l0.022-0.162c0.165-1.237-0.797-2.336-2.045-2.337l-12.843,0.604l-14.301,1.832
						c-1.429,0.183-2.872,0.236-4.311,0.159l-7.344-0.395c-0.743-0.04-1.427-0.42-1.854-1.03L627.185,302.108z"/>
					<circle fill="#EABD9E" cx="619.922" cy="305.725" r="8.147"/>
				</g>
			</g>
		</g>
		<g>
			<g>
				<circle fill="#EABD9E" stroke="#D9A886" stroke-miterlimit="10" cx="563.328" cy="309.799" r="11.901"/>
				<path fill="#EABD9E" stroke="#C08C6C" stroke-miterlimit="10" d="M463.635,327.754l26.245-5.414l28.508-1.24
					c2.952-0.128,5.908-0.166,8.862-0.113l34.628,0.624l-2.604-23l-51.542-0.001l-44.33-0.98L463.635,327.754z"/>
				<circle fill="#EABD9E" cx="456.52" cy="312.744" r="16.608"/>
				<path fill="#DCBE2D" stroke="#9A8000" stroke-miterlimit="10" d="M443.642,325.381l-4.645-9.557l1.617-10.869l7.594-10.072
					l9.883-2.151c4.818-1.048,9.696-1.803,14.606-2.259l10.394-0.966c3.57-0.332,7.149-0.555,10.732-0.671l20.86-0.673l-0.248,4.393
					c-0.623,11.052-0.311,22.137,0.933,33.136l0.935,8.268l-27.209-0.729l-24.367-0.827c-2.411-0.045-4.815-0.272-7.193-0.678
					l-0.293-0.05c-3.016-0.515-5.906-1.599-8.517-3.193L443.642,325.381z"/>
			</g>
			<g>
				<g>
					<path fill="#EABD9E" stroke="#C08C6C" stroke-miterlimit="10" d="M561.009,321.473l24.527,6.307
						c5.769,1.484,11.658,2.454,17.598,2.901l8.334,0.626c4.163,0.313,8.292,0.976,12.343,1.982l41.125,10.212l4.649-15.834
						l-75.23-21.577l-23.66-5.638L561.009,321.473z"/>
					<circle fill="#EABD9E" cx="667.451" cy="335.64" r="8.256"/>
					<circle fill="#EABD9E" cx="563.33" cy="309.799" r="11.899"/>
				</g>
				<g>
					<path fill="#EABD9E" stroke="#C08C6C" stroke-miterlimit="10" d="M673.003,327.509l-2.488,0.465l-7.377,14.592
						c0,0,3.068,2.179,3.585,3.997c0.256,0.9,0.007,0.365,0.93,3.275c0.644,2.033,4.096,3.912,6.213,4.165
						c2.264,0.271,3.75,0.064,5.662-1.397l11.963-9.144c1.149-0.878,2.345-1.693,3.583-2.441l18.846-11.386
						c0.9-0.544,1.51-1.461,1.664-2.502l0.143-0.966c0.194-1.317-0.982-2.425-2.285-2.152l-5.892,1.383l6.855-2.364
						c1.123-0.407,1.919-1.415,2.055-2.602l0.116-1.021c0.132-1.155-0.829-2.141-1.987-2.039l-8.263,1.318l8.544-2.294
						c1.17-0.244,1.929-1.381,1.706-2.556l-0.241-1.264c-0.231-1.214-1.419-1.997-2.625-1.731l-8.496,1.887l8.619-2.846
						c1.276-0.408,2.068-1.679,1.874-3.004l-0.277-1.885c-0.233-1.587-1.937-2.493-3.383-1.8l-7.656,3.653l7.872-5.123
						c0.983-0.721,1.444-1.957,1.174-3.146l0,0c-0.345-1.521-1.274-2.846-2.587-3.688l0,0c-1.578-1.013-3.641-0.833-5.019,0.439
						l-13.229,13.26l-11.198,11.511L673.003,327.509z"/>
					<circle fill="#EABD9E" cx="667.451" cy="335.64" r="8.256"/>
				</g>
			</g>
		</g>
		<path id="ass" fill="#DCBE2D" d="M432.266,307.436c0,0,3.885,7.241,5.35,9.552c2.12,3.344,3.102,4.795,7.132,9.697l12.113-11.865
			c3.045-2.947,6.507-5.43,10.275-7.369l7.704-3.964c3.937-1.655,6.402-5.561,6.221-9.857l-0.2-6.418
			c-0.116-3.702,0.285-7.402,1.189-10.994l2.279-8.1c-3.901-1.326-5.017-1.702-7.84-2.836c-1.869-0.75-8.063-2.887-8.063-2.887
			s-3.282,15.846-8.32,22.566l0,0c-6.335,8.451-14.462,15.392-23.826,20.349L432.266,307.436z"/>
		<g>
			<path fill="#EABD9E" stroke="#C08C6C" stroke-miterlimit="10" d="M334.255,205.038c1.309,2.885-2.685,11.876-2.685,11.876
				l-12.061,26.918l9.141,7.789l14.45,7.203c0,0,14.258-3.066,19.09-3.021c3.998,0.037,4.887,0.301,8.076,1.208l37.627-49.925
				c0,0-3.44-4.54-4.819-8.816c-1.503-4.661-1.502-11.179-2.264-13.866l-1.202-4.242l-6.605-6.686l-12.409-1.69
				c0,0-22.371,12.681-24.999,12.981c-2.661,0.304-13.195-9.605-13.195-9.605l-39.544-5.028l5.181,8.894l7.469,8.153
				C315.506,187.181,332.779,201.783,334.255,205.038z"/>
			<circle fill="#EABD9E" cx="390.054" cy="182.948" r="14.645"/>
			<path fill="#497E9F" stroke="#005472" stroke-miterlimit="10" d="M404.133,276.116c0,0,8.288,5.604,12.45,9.321
				c5.229,4.671,9.106,9.594,12.48,14.856c3.007,4.69,3.417,10.054,3.417,10.054l3.003-1.434c7.358-3.512,14.219-7.98,20.408-13.288
				l3.412-2.927c5.031-4.315,9.193-11.478,11.849-17.551l0,0c1.384-3.165,1.789-4.83,1.749-8.284
				c-0.03-2.548-0.038-3.732-0.038-3.732s-3.173-0.875-8.155-3.162c-6.736-3.091-9.834-4.64-16.296-9.724
				c-4.009-3.154-8.383-7.013-10.969-9.575c-4.436-4.395-14.999-15.031-18.776-20.005c-2.621-3.451-8.203-10.09-10.773-13.579
				c-2.503-3.398-7.016-8.839-12.504-14.275c-7.154-7.086-6.987-6.541-17.049-14.093c-3.56-2.672-4.839-2.973-4.839-2.973
				l-7.057,3.836l4.517,3.318c6.92,5.083,12.505,11.767,16.276,19.48l0.525,1.073c1.084,2.218,1.647,4.654,1.644,7.123v0
				c-0.006,5.713-3.713,10.764-9.162,12.481l-4.444,1.401c-5.597,1.764-11.508,2.306-17.333,1.589l-3.103-0.382
				c-4.565-0.562-9.061-1.593-13.415-3.074l-11.212-3.815l-3.298,7.361c0,0,6.193,2.828,8.258,3.77
				c4.742,2.165,12.297,5.863,16.494,8.955c3.858,2.842,7.173,6.325,11.959,10.895c1.716,1.638,6.116,7.254,6.116,7.254
				s9.496,4.402,18.698,9.204C395.394,269.571,401.768,274.59,404.133,276.116z"/>
		</g>
		<g>
			<g>
				<path fill="#EABD9E" stroke="#C08C6C" stroke-miterlimit="10" d="M254.948,265.987l3.662-26.121
					c0.25-1.785,0.548-3.563,0.893-5.333l8.437-43.313l-9.646-1.847l-5.18,21.493l-5.434,20.753
					c-0.851,3.249-1.821,6.465-2.91,9.643l-6.244,18.228L254.948,265.987z"/>
				<circle fill="#B88E75" cx="263.066" cy="190.52" r="4.908"/>
				<circle fill="#EABD9E" cx="245.845" cy="264.986" r="9.155"/>
			</g>
			<g>
				<path fill="#EABD9E" stroke="#C08C6C" stroke-miterlimit="10" d="M267.679,192.204l2.682-2.387
					c0.98-0.872,1.87-1.84,2.657-2.889l0.928-1.237c2.163-2.884,3.769-6.146,4.737-9.619l3.676-14.069
					c0.255-0.916,4.632-9.089,3.773-10.282c-0.661-0.918-1.395-1.034-2.289-0.862c-1.125,0.217-5.537,8.704-5.892,9.665
					l-3.195,10.016l2.385-10.45c0.235-1.019,4.516-10.119,3.975-11.014c-0.609-1.009-1.934-1.876-2.976-1.755
					c-1.17,0.136-5.514,10.152-5.906,11.263l-3.168,10.264l2.429-10.479c0.293-1.242,4.012-11.859,3.185-12.831
					c-0.846-0.995-1.686-1.501-3.184-1.51c-1.402-0.008-5.708,11.199-6.096,12.66l-2.578,10.248l1.71-10.716
					c0.17-1.151,4.318-11.076,3.524-11.926c-0.745-0.797-2.025-1.49-3.292-1.124c-1.469,0.424-5.804,10.318-6.071,11.823
					c-0.685,3.853-2.321,15.482-2.321,15.482c-1.413-4.11,1.257-10.252-1.119-14.462c-0.334-0.591-1.225-0.951-1.693-0.458
					c-2.053,2.159-3.331,9.981-3.498,12.955c-0.101,1.801,0.591,5.383,0.921,7.157c0.326,1.76,1.097,3.406,1.991,4.957
					c1.315,2.279,5.243,9.125,5.243,9.125L267.679,192.204z"/>
				<circle fill="#EABD9E" cx="263.063" cy="190.537" r="4.908"/>
			</g>
		</g>
		<g>
			<g>
				<polygon fill="#DDEDEB" points="305.29,135.822 298.575,134.337 291.754,138.671 287.108,146.163 288.216,152.449 
					292.41,155.726 299.025,157.007 305.701,153.168 310.122,146.673 308.848,140.481 				"/>
				
					<ellipse transform="matrix(0.6923 -0.7216 0.7216 0.6923 -13.3799 260.7197)" fill="#803D3C" cx="299.019" cy="146.049" rx="5.098" ry="4.556"/>
				<path fill="#E3A780" d="M294.724,158.692l4.324-2.934c2.099-1.424,4.034-3.076,5.769-4.926l0.029-0.031
					c1.896-2.021,3.54-4.265,4.897-6.681l1.469-2.616l6.765,6.49l-16.489,17.188L294.724,158.692z"/>
				<path fill="#E3A780" d="M288.216,152.449l1.743-3.751c0.804-1.73,1.833-3.346,3.061-4.806l1.799-2.139
					c0.825-0.981,1.736-1.887,2.722-2.707l0.379-0.315c1.842-1.532,3.925-2.747,6.164-3.596l0.351-0.133l-8.725-8.37l-16.489,17.188
					L288.216,152.449z"/>
			</g>
			<g>
				<polygon fill="#DDEDEB" points="309.922,130.571 308.096,124.29 311.738,117.818 317.688,114.616 322.311,114.824 
					326.164,118.52 328.649,123.17 325.589,129.822 320.473,133.975 314.917,133.627 				"/>
				
					<ellipse transform="matrix(0.6923 -0.7216 0.7216 0.6923 7.6997 268.1096)" fill="#803D3C" cx="318.224" cy="125.026" rx="4.837" ry="4.445"/>
				<path fill="#E3A780" d="M315.561,135.982l4.125-3.037c1.645-1.211,3.154-2.597,4.502-4.132l0.043-0.049
					c1.297-1.478,2.437-3.088,3.402-4.802l1.473-2.619l6.341,6.083l-13.804,14.389L315.561,135.982z"/>
				<path fill="#E3A780" d="M322.311,114.824l-2.25,1.447c-1.923,1.236-3.678,2.716-5.221,4.403v0
					c-2.095,2.29-3.772,4.931-4.953,7.802l-0.608,1.478l-8.725-8.37l13.804-14.389L322.311,114.824z"/>
			</g>
			<path fill="#E3B698" stroke="#B8886C" stroke-miterlimit="10" d="M295.299,91.299L295.299,91.299
				c-7.172-1.191-14.527,0.431-20.532,4.528l-4.666,3.183c-3.66,2.497-6.93,5.522-9.703,8.977l-5.058,6.301
				c-4.046,5.04-6.891,10.935-8.318,17.239l0,0c-1.382,6.104-0.304,12.507,3,17.823l0,0c2.709,4.357,6.05,8.288,9.915,11.663
				l7.234,6.317l-1.167,4.001c-0.507,1.738-0.226,3.612,0.768,5.125l1.268,1.929c1.636,2.49,3.926,4.482,6.618,5.759l1.95,0.925
				c2.622,1.244,5.498,1.86,8.4,1.8l1.197-0.025c2.212-0.046,4.23-1.272,5.29-3.214l0,0l6.853,2.501
				c4.275,1.56,9.023,2.634,13.256,3.039l4.855,0.491c2.898,0.293,5.821,0.217,8.7-0.227l7.526-1.16
				c2.078-0.32,4.112-0.877,6.064-1.659l4.743-1.902c2.582-1.035,4.967-2.506,7.052-4.348l2.486-2.196
				c2.233-1.973,4.021-4.398,5.245-7.114l0.449-0.996c1.484-3.294,1.407-7.08-0.21-10.311l-1.725-3.447
				c-2.979-5.951-6.563-11.579-10.694-16.795l-12.34-15.581l-13.32-15.151l0,0c-2.812-3.198-5.944-6.1-9.347-8.66l-6.342-4.77
				C301.967,93.257,298.727,91.869,295.299,91.299z M309.163,142.016l0.36,1.75c0.382,1.858-0.004,3.792-1.072,5.36l-0.892,1.31
				c-1.224,1.798-2.839,3.295-4.724,4.379l-1.279,0.736c-1.633,0.939-3.55,1.259-5.399,0.901l-1.941-0.376
				c-1.187-0.23-2.303-0.738-3.256-1.483l-0.764-0.597c-1.275-0.996-2.136-2.429-2.416-4.022l-0.117-0.664
				c-0.357-2.026,0.045-4.113,1.129-5.861l1.085-1.75c1.236-1.993,2.905-3.681,4.885-4.938l0.765-0.486
				c1.952-1.24,4.317-1.656,6.575-1.157l1.091,0.241c1.354,0.299,2.559,1.068,3.401,2.171l1.303,1.707
				C308.522,140.056,308.956,141.006,309.163,142.016z M326.469,119.092l0.895,1.674c0.809,1.514,0.863,3.32,0.146,4.88
				l-0.788,1.714c-0.745,1.62-1.853,3.047-3.237,4.171l-0.64,0.519c-1.525,1.238-3.46,1.857-5.42,1.734l-0.738-0.046
				c-1.162-0.073-2.289-0.428-3.282-1.036l-1.885-1.153c-1.028-0.629-1.784-1.619-2.12-2.776l-0.398-1.369
				c-0.579-1.992-0.332-4.132,0.685-5.94l0.52-0.925c1-1.778,2.485-3.234,4.281-4.201l1.181-0.635
				c1.322-0.711,2.812-1.051,4.312-0.984l0.636,0.029c1.092,0.049,2.129,0.494,2.918,1.25l2.161,2.073
				C326.006,118.369,326.267,118.713,326.469,119.092z"/>
			<path fill="#995E3F" d="M282.152,147.567c1.148,0.165,3.269-6.89,4.78-8.918c1.112-1.493,3.776-4.155,5.283-5.247
				c1.335-0.966,5.738-1.994,5.873-2.993c0.106-0.785-0.828-2.294-1.401-2.841c-0.761-0.726-2.457-2.369-3.507-2.321
				c-2.045,0.092-5.302,3.222-6.683,4.732c-1.671,1.827-5.016,5.513-6.351,7.598c-0.635,0.991-2.024,3.077-2.018,4.254
				c0.005,0.88,0.923,2.491,1.407,3.225C280.033,145.814,281.254,147.438,282.152,147.567z"/>
			<path fill="#995E3F" d="M304.491,123.736c0.735-0.293,1.963-4.685,2.704-6.207c0.811-1.665,3.703-4.191,5.212-5.265
				c1.021-0.727,4.275-1.364,4.521-2.167c0.172-0.562-2.163-1.995-3.038-2.413c-0.571-0.273-1.853-0.701-2.468-0.555
				c-1.47,0.348-3.567,2.803-4.676,3.829c-1.068,0.988-3.116,3.067-4.029,4.2c-0.722,0.896-2.558,2.669-2.568,3.82
				c-0.007,0.863,1.291,2.265,1.879,2.896C302.553,122.438,303.773,124.021,304.491,123.736z"/>
			<path fill="#FFA47B" d="M351.192,161.661l-0.167,2.848c-0.121,2.064-0.945,4.024-2.335,5.554l0,0
				c-1.361,1.497-3.013,2.701-4.854,3.538l-3.941,1.791l4.658-3.647c0.411-0.322,0.798-0.672,1.159-1.049l1.983-2.068
				c0.93-0.969,1.655-2.116,2.132-3.372L351.192,161.661z"/>
			<path fill="#DEB396" stroke="#D4A789" stroke-miterlimit="10" d="M311.454,133.533l9.896,5.24
				c1.92,1.016,3.912,1.888,5.961,2.609l2.937,1.032c0.916,0.322,1.753,0.837,2.454,1.509l0.51,0.489
				c0.81,0.777,1.101,1.95,0.749,3.016l0,0c-0.544,1.648-1.569,3.095-2.944,4.155l0,0c-0.544,0.42-1.065,0.87-1.559,1.348
				l-4.012,3.88c-0.734,0.71-1.788,0.978-2.772,0.706l0,0c-0.91-0.252-1.64-0.933-1.955-1.823l-0.269-0.762
				c-0.348-0.984-0.331-2.06,0.049-3.032l0.149-0.381c0.514-1.317,0.445-2.79-0.19-4.053l0,0c-0.492-0.979-1.148-1.866-1.938-2.624
				l-3.823-3.667l-5.251-5.115"/>
			<g>
				<path fill="#FF6452" d="M334.003,159.471l1.387-1.056c1.197-0.912,2.139-2.118,2.733-3.501l0.145-0.338
					c0.511-1.189,1.231-2.277,2.127-3.211l5.235-5.457l-1.612,7.56l-3.641,6.322l-9.105,8.645l-10.565,3.452l6.187-5.285
					c0.724-0.618,1.411-1.279,2.058-1.978l3.258-3.522C332.76,160.506,333.359,159.961,334.003,159.471z"/>
				<path fill="#FF6452" d="M341.39,165.074l-3.87,3.503c-1.612,1.459-3.535,2.531-5.624,3.135l-2.379,0.688
					c-2.635,0.762-5.442,0.679-8.027-0.237l-0.783-0.278l10.565-3.452l9.105-8.645l3.641-6.322l1.612-7.56l0.994,4.858
					c0.428,2.092,0.265,4.261-0.47,6.265l-0.79,2.152C344.536,161.439,343.172,163.461,341.39,165.074z"/>
				<path fill="none" stroke="#C51F11" stroke-miterlimit="10" d="M345.281,147.544l-0.582,2.728
					c-0.451,2.117-1.231,4.15-2.311,6.026l-0.658,1.142c-0.897,1.558-2.015,2.978-3.319,4.216l-2.461,2.337
					c-3.08,2.924-6.772,5.126-10.809,6.445l-2.431,0.794"/>
			</g>
			<path fill="#FF8B7B" d="M283.918,180.645l-3.54-3.038c-0.905-0.777-1.494-1.858-1.655-3.039v0
				c-0.127-0.932,0.178-1.871,0.829-2.549l0.593-0.619l-2.842-1.074c-0.946-0.358-1.985-0.386-2.949-0.081l-0.251,0.079
				c-1.089,0.344-2.014,1.077-2.599,2.058l0,0c-0.59,0.99-0.663,2.205-0.194,3.258l0.08,0.18c0.719,1.616,1.989,2.924,3.584,3.69
				l1.038,0.498c1.126,0.541,2.365,0.804,3.614,0.766L283.918,180.645z"/>
			<g>
				<g>
					<polygon fill="#A1633E" points="308.218,101.704 312.654,103.497 321.375,109.846 316.205,103.965 313.449,100.321 
						310.594,97.372 					"/>
					<path fill="#A1633E" d="M267.862,145.689l7.459,8.453l-1.59,1.657l12.333,8.649l-0.22,7.854l-6.757-5.855
						c-0.878-0.761-1.914-1.318-3.033-1.632l-1.663-0.466c-1.423-0.399-2.951-0.125-4.147,0.745l-1.998,1.453
						c-0.697,0.507-1.207,1.232-1.448,2.06l-7.727-6.143c1.561-2.978,3.122-5.957,4.683-8.935
						C265.123,150.916,266.492,148.302,267.862,145.689z"/>
				</g>
				<polyline fill="#A1633E" points="273.75,83.054 282.201,84.41 291.952,80.698 299.842,85.767 294.797,87.116 305.819,92.439 
					310.594,97.372 308.218,101.704 299.139,98.034 303.046,101.782 293.193,102.082 295.178,105.487 287.732,111.097 
					289.867,114.932 282.24,118.582 279.555,127.636 270.987,125.228 273.831,132.333 262.999,135.445 265.975,143.551 
					267.862,145.689 259.071,162.464 256.206,160.186 255.64,162.144 245.251,148.927 240.6,147.715 241.399,140.105 
					243.722,135.207 240.686,134.982 235.355,137.933 239.911,131.425 243.893,130.197 238.944,126.372 234.649,126.94 
					241.157,122.306 246.129,122.011 247.987,110.103 252.812,101.751 254.145,105.444 261.318,92.884 267.749,89.113 				"/>
			</g>
		</g>
		<g>
			<path fill="#EABD9E" stroke="#C08C6C" stroke-miterlimit="10" d="M324.527,237.049l-20.547,6.726
				c-3.353,1.098-6.742,2.081-10.161,2.947l-9.592,2.431c-8.668,2.197-17.459,3.877-26.327,5.03l-13.153,1.711l6.694,16.337
				l9.646-2.75c9.904-2.824,20.011-4.883,30.231-6.158l0,0c8.268-1.032,16.598-1.471,24.928-1.314l10.917,0.206L324.527,237.049z"/>
			<path fill="#EABD9E" d="M337.957,261.371c-9.734,2.631-13.996,1.438-17.705-5.811s-0.84-16.132,6.409-19.842
				c7.249-3.709,16.132-0.84,19.842,6.409S351.692,257.659,337.957,261.371z"/>
			<circle fill="#EABD9E" cx="245.845" cy="264.986" r="9.155"/>
		</g>
	</g>
	<g>
		<path fill="#93CD78" d="M349.521,406.936c0,28.315-21.088,53.702-68.948,50.633c-35.211-2.258-63.89-22.954-63.89-51.27
			c0-28.315,28.639-49.731,63.89-51.27C329.924,352.875,349.521,378.62,349.521,406.936z"/>
		<path fill="#A8D98A" d="M320.303,408.264c0,16.883-12.842,33.823-44.654,30.529c-20.53-2.126-37.372-13.686-37.372-30.569
			s16.836-28.51,37.372-30.569C304.082,374.805,320.303,391.382,320.303,408.264z"/>
		<path fill="#7D9F67" d="M321.887,342.853c-1.802-9.482-30.998-8.519-41.621-8.565c-10.267-0.044-37.846-1.2-39.998,9.31
			c-1.381,6.746-2.375,21.73-2.375,22.277c0,3.529,1.795,6.194,6.56,6.194c4.763,0,7.001-3.043,7.001-6.572
			c0-0.505-0.806-8.742-0.672-13.255c0.168-5.684,58.58-5.496,58.192-0.886c-0.419,4.973-0.55,11.342-0.55,11.847
			c0,3.529,3.614,7.853,8.378,7.853c4.765,0,8.628-2.86,8.628-6.39C325.43,364.12,323.173,349.619,321.887,342.853z"/>
	</g>
	<g>
		<path fill="#9B9BAB" d="M775.054,424.597H723.68c-2.267,0-4.104-2.794-4.104-6.241c0-3.447,1.837-6.241,4.104-6.241h51.374
			V424.597z"/>
		<path fill="#3E9CBC" stroke="#315368" stroke-miterlimit="10" d="M740.945,382.287c-6.952,0-12.587,16.148-12.587,36.068
			c0,19.92,5.636,36.068,12.587,36.068h17.911v-72.137H740.945z"/>
		<path fill="#3E9CBC" stroke="#315368" stroke-miterlimit="10" d="M758.873,382.287c-6.952,0-12.587,16.148-12.587,36.068
			c0,19.92,5.635,36.068,12.587,36.068h17.911v-72.137H758.873z"/>
		<g>
			<path fill="#3E9CBC" stroke="#315368" stroke-miterlimit="10" d="M776.766,382.287c-6.952,0-12.587,16.148-12.587,36.068
				c0,19.92,5.635,36.068,12.587,36.068h17.911v-72.137H776.766z"/>
			<ellipse fill="#6EB2D1" stroke="#315368" stroke-miterlimit="10" cx="794.677" cy="418.356" rx="12.587" ry="36.068"/>
		</g>
		<path fill="#9B9BAB" d="M795.076,412.115c-2.261,0-4.094,2.794-4.094,6.241c0,3.447,1.833,6.241,4.094,6.241h74.25v-12.483
			H795.076z"/>
		<path fill="#3E9CBC" stroke="#315368" stroke-miterlimit="10" d="M854.782,382.287c-6.952,0-12.587,16.148-12.587,36.068
			c0,19.92,5.635,36.068,12.587,36.068h17.911v-72.137H854.782z"/>
		<g>
			<path fill="#3E9CBC" stroke="#315368" stroke-miterlimit="10" d="M872.694,382.287c-6.952,0-12.587,16.148-12.587,36.068
				c0,19.92,5.635,36.068,12.587,36.068h17.911v-72.137H872.694z"/>
			<ellipse fill="#6EB2D1" stroke="#315368" stroke-miterlimit="10" cx="890.605" cy="418.356" rx="12.587" ry="36.068"/>
		</g>
		<g>
			<path fill="#3E9CBC" stroke="#315368" stroke-miterlimit="10" d="M890.606,382.287c-6.952,0-12.587,16.148-12.587,36.068
				c0,19.92,5.635,36.068,12.587,36.068h17.911v-72.137H890.606z"/>
			<ellipse fill="#6EB2D1" stroke="#315368" stroke-miterlimit="10" cx="908.517" cy="418.356" rx="12.587" ry="36.068"/>
		</g>
		<path fill="#9B9BAB" d="M909.569,412.115c-2.261,0-4.094,2.794-4.094,6.241c0,3.447,1.833,6.241,4.094,6.241h16.605v-12.483
			H909.569z"/>
		<ellipse fill="#AAAAB7" cx="925.756" cy="418.356" rx="4.094" ry="6.241"/>
	</g>
	<g>
		
			<text transform="matrix(1 0 0 1 672.9546 208.4994)" opacity="0.75" fill="#405360" font-family="'PTSans-Bold'" font-size="243.3471px">2</text>
		
			<text transform="matrix(1 0 0 1 550.606 106.746)" opacity="0.75" fill="#405360" font-family="'PTSans-Bold'" font-size="84.16px" letter-spacing="16">MUSCLE</text>
		
			<text transform="matrix(1 0 0 1 578.7954 191.1957)" opacity="0.75" fill="#405360" font-family="'PTSans-Bold'" font-size="67.328px" letter-spacing="13">CLICKER</text>
	</g>
</g>
</svg>
