<?xml version="1.0" encoding="utf-8"?>
<!-- Generator: Adobe Illustrator 22.1.0, SVG Export Plug-In . SVG Version: 6.00 Build 0)  -->
<svg version="1.1" id="Слой_1" xmlns="http://www.w3.org/2000/svg" xmlns:xlink="http://www.w3.org/1999/xlink" x="0px" y="0px"
	 viewBox="0 0 316 105" enable-background="new 0 0 316 105" xml:space="preserve">
<g id="appstor">
	<g>
		<g>
			<path fill="#A6A6A6" d="M290.809-0.371H24.869c-0.969,0-1.927,0-2.894,0.005c-0.809,0.005-1.612,0.021-2.429,0.034
				C17.771-0.311,16-0.155,14.249,0.135C12.5,0.432,10.806,0.991,9.224,1.793C7.644,2.602,6.2,3.653,4.945,4.909
				C3.683,6.161,2.631,7.608,1.83,9.194c-0.804,1.583-1.361,3.28-1.652,5.031c-0.294,1.749-0.453,3.519-0.474,5.292
				c-0.025,0.811-0.027,1.624-0.04,2.434v61.103c0.013,0.821,0.016,1.616,0.04,2.437c0.021,1.774,0.179,3.543,0.474,5.292
				c0.291,1.752,0.848,3.45,1.652,5.034c0.801,1.581,1.853,3.023,3.115,4.267c1.25,1.261,2.695,2.313,4.279,3.116
				c1.582,0.804,3.276,1.367,5.025,1.668c1.752,0.288,3.522,0.444,5.297,0.467c0.817,0.018,1.62,0.028,2.429,0.028
				c0.967,0.005,1.925,0.005,2.894,0.005h265.94c0.95,0,1.916,0,2.866-0.005c0.805,0,1.632-0.01,2.437-0.028
				c1.772-0.022,3.539-0.178,5.287-0.467c1.755-0.303,3.455-0.865,5.044-1.668c1.582-0.803,3.026-1.855,4.275-3.116
				c1.259-1.25,2.313-2.69,3.124-4.267c0.798-1.585,1.35-3.283,1.637-5.034c0.295-1.749,0.459-3.518,0.491-5.292
				c0.01-0.821,0.01-1.616,0.01-2.437C316,82.095,316,81.14,316,80.164V24.839c0-0.968,0-1.928-0.021-2.886
				c0-0.811,0-1.624-0.01-2.434c-0.032-1.774-0.196-3.543-0.491-5.292c-0.287-1.75-0.839-3.447-1.637-5.031
				c-1.632-3.18-4.219-5.768-7.399-7.401c-1.59-0.8-3.29-1.359-5.044-1.657c-1.748-0.291-3.515-0.448-5.287-0.467
				c-0.805-0.013-1.632-0.028-2.437-0.034C292.724-0.371,291.759-0.371,290.809-0.371L290.809-0.371z"/>
			<path d="M21.988,103.058c-0.805,0-1.591-0.01-2.391-0.028c-1.655-0.022-3.307-0.166-4.941-0.431c-1.524-0.262-3-0.751-4.38-1.448
				c-1.367-0.692-2.614-1.599-3.693-2.687c-1.095-1.075-2.006-2.322-2.698-3.692c-0.7-1.378-1.184-2.856-1.435-4.381
				c-0.272-1.639-0.419-3.296-0.44-4.957c-0.017-0.558-0.039-2.414-0.039-2.414V21.952c0,0,0.023-1.828,0.039-2.365
				c0.02-1.658,0.166-3.313,0.438-4.949c0.252-1.529,0.737-3.011,1.437-4.394c0.689-1.369,1.596-2.616,2.684-3.696
				c1.087-1.089,2.338-2.001,3.707-2.703c1.377-0.696,2.85-1.18,4.371-1.438c1.64-0.268,3.297-0.413,4.958-0.434l2.385-0.032
				h271.672l2.414,0.034c1.646,0.02,3.288,0.163,4.913,0.43c1.536,0.261,3.025,0.749,4.417,1.448
				c2.743,1.414,4.976,3.651,6.384,6.397c0.689,1.373,1.166,2.843,1.415,4.359c0.274,1.65,0.428,3.317,0.459,4.989
				c0.008,0.749,0.008,1.553,0.008,2.353c0.021,0.991,0.021,1.935,0.021,2.886v55.326c0,0.96,0,1.898-0.021,2.842
				c0,0.86,0,1.647-0.01,2.458c-0.031,1.642-0.182,3.28-0.452,4.9c-0.247,1.536-0.728,3.025-1.428,4.415
				c-0.697,1.355-1.603,2.591-2.685,3.663c-1.08,1.094-2.329,2.007-3.699,2.703c-1.388,0.703-2.875,1.193-4.409,1.453
				c-1.634,0.267-3.286,0.411-4.941,0.431c-0.774,0.018-1.585,0.028-2.372,0.028l-2.866,0.005L21.988,103.058z"/>
		</g>
		<g id="_Group_">
			<g id="_Group_2">
				<g id="_Group_3">
					<path id="_Path_" fill="#FFFFFF" d="M65.141,53.295c0.058-4.485,2.409-8.627,6.23-10.976
						c-2.421-3.458-6.331-5.572-10.551-5.704c-4.439-0.466-8.743,2.656-11.005,2.656c-2.306,0-5.789-2.61-9.539-2.533
						c-4.935,0.159-9.424,2.897-11.824,7.211c-5.113,8.852-1.299,21.861,3.598,29.016c2.45,3.504,5.314,7.417,9.061,7.278
						c3.667-0.152,5.036-2.338,9.462-2.338c4.385,0,5.67,2.338,9.493,2.25c3.935-0.064,6.414-3.519,8.778-7.056
						c1.761-2.496,3.115-5.256,4.014-8.175C68.185,62.948,65.147,58.369,65.141,53.295z"/>
					<path id="_Path_2" fill="#FFFFFF" d="M57.92,31.909c2.145-2.575,3.202-5.886,2.946-9.228c-3.278,0.344-6.305,1.911-8.479,4.387
						c-2.147,2.443-3.235,5.64-3.023,8.886C52.685,35.989,55.839,34.498,57.92,31.909z"/>
				</g>
			</g>
			<g>
				<path fill="#FFFFFF" d="M111.492,71.374H98.979l-3.005,8.873h-5.3l11.852-32.827h5.506l11.852,32.827h-5.39L111.492,71.374z
					 M100.275,67.28h9.919l-4.89-14.4h-0.137L100.275,67.28z"/>
				<path fill="#FFFFFF" d="M145.481,68.281c0,7.438-3.981,12.216-9.988,12.216c-3.105,0.162-6.03-1.464-7.53-4.187h-0.114v11.855
					h-4.913V56.313h4.755v3.981h0.09c1.567-2.706,4.495-4.332,7.621-4.231C141.476,56.063,145.481,60.864,145.481,68.281z
					 M140.431,68.281c0-4.846-2.504-8.031-6.325-8.031c-3.754,0-6.278,3.253-6.278,8.031c0,4.822,2.525,8.052,6.278,8.052
					C137.927,76.333,140.431,73.171,140.431,68.281z"/>
				<path fill="#FFFFFF" d="M171.823,68.281c0,7.438-3.981,12.216-9.988,12.216c-3.105,0.162-6.03-1.464-7.53-4.187h-0.114v11.855
					h-4.913V56.313h4.755v3.981h0.09c1.567-2.706,4.495-4.332,7.621-4.231C167.819,56.063,171.823,60.864,171.823,68.281z
					 M166.773,68.281c0-4.846-2.504-8.031-6.325-8.031c-3.754,0-6.278,3.253-6.278,8.031c0,4.822,2.525,8.052,6.278,8.052
					C164.269,76.333,166.773,73.171,166.773,68.281L166.773,68.281z"/>
				<path fill="#FFFFFF" d="M189.233,71.1c0.364,3.255,3.526,5.393,7.848,5.393c4.141,0,7.12-2.138,7.12-5.073
					c0-2.548-1.797-4.074-6.051-5.119l-4.254-1.025c-6.028-1.456-8.826-4.275-8.826-8.85c0-5.664,4.936-9.554,11.945-9.554
					c6.937,0,11.692,3.89,11.852,9.554h-4.959c-0.297-3.276-3.005-5.253-6.963-5.253c-3.958,0-6.666,2.001-6.666,4.913
					c0,2.321,1.73,3.686,5.961,4.732l3.617,0.888c6.735,1.593,9.534,4.298,9.534,9.1c0,6.142-4.892,9.988-12.673,9.988
					c-7.28,0-12.195-3.756-12.513-9.694L189.233,71.1z"/>
				<path fill="#FFFFFF" d="M219.993,50.649v5.664h4.551v3.89h-4.551v13.194c0,2.05,0.911,3.005,2.912,3.005
					c0.54-0.009,1.08-0.047,1.616-0.114v3.867c-0.9,0.168-1.814,0.244-2.729,0.227c-4.846,0-6.735-1.82-6.735-6.462V60.204h-3.48
					v-3.89h3.48v-5.664H219.993z"/>
				<path fill="#FFFFFF" d="M227.18,68.281c0-7.53,4.435-12.262,11.351-12.262c6.939,0,11.354,4.732,11.354,12.262
					c0,7.551-4.391,12.262-11.354,12.262C231.571,80.544,227.18,75.832,227.18,68.281z M244.879,68.281
					c0-5.166-2.367-8.215-6.348-8.215s-6.346,3.072-6.346,8.215c0,5.186,2.365,8.212,6.346,8.212S244.879,73.468,244.879,68.281
					L244.879,68.281z"/>
				<path fill="#FFFFFF" d="M253.935,56.313h4.686v4.074h0.114c0.653-2.622,3.056-4.427,5.757-4.324
					c0.566-0.002,1.131,0.06,1.683,0.183v4.595c-0.715-0.218-1.46-0.319-2.207-0.297c-2.732-0.111-5.036,2.014-5.147,4.746
					c-0.01,0.254-0.001,0.508,0.028,0.761v14.196h-4.913L253.935,56.313z"/>
				<path fill="#FFFFFF" d="M288.825,73.217c-0.661,4.345-4.892,7.326-10.306,7.326c-6.962,0-11.284-4.665-11.284-12.149
					c0-7.507,4.345-12.376,11.078-12.376c6.622,0,10.786,4.549,10.786,11.806v1.683h-16.904v0.297
					c-0.304,3.429,2.23,6.455,5.659,6.759c0.259,0.023,0.519,0.03,0.779,0.02c2.384,0.223,4.632-1.146,5.527-3.366L288.825,73.217z
					 M272.218,66.074h11.966c0.177-3.174-2.253-5.89-5.427-6.067c-0.148-0.008-0.296-0.011-0.444-0.008
					c-3.346-0.02-6.075,2.677-6.095,6.023C272.218,66.04,272.218,66.057,272.218,66.074z"/>
			</g>
		</g>
	</g>
	<g id="_Group_4">
		<g>
			<path fill="#FFFFFF" d="M99.659,22.71c3.844-0.276,7.184,2.617,7.46,6.461c0.033,0.459,0.02,0.92-0.038,1.377
				c0,5.039-2.724,7.936-7.422,7.936h-5.698V22.71H99.659z M96.411,36.253h2.974c2.734,0.163,5.083-1.92,5.246-4.654
				c0.02-0.34,0.006-0.682-0.044-1.019c0.373-2.721-1.53-5.229-4.25-5.602c-0.315-0.043-0.634-0.056-0.951-0.039h-2.974V36.253z"/>
			<path fill="#FFFFFF" d="M109.848,32.526c-0.297-3.1,1.976-5.854,5.077-6.151c3.1-0.297,5.854,1.976,6.151,5.077
				c0.034,0.357,0.034,0.717,0,1.074c0.302,3.1-1.967,5.858-5.067,6.16c-3.1,0.302-5.858-1.967-6.16-5.067
				C109.813,33.256,109.813,32.89,109.848,32.526z M118.659,32.526c0-2.58-1.159-4.089-3.193-4.089
				c-2.042,0-3.191,1.509-3.191,4.089c0,2.601,1.149,4.098,3.191,4.098C117.5,36.625,118.659,35.117,118.659,32.526L118.659,32.526z
				"/>
			<path fill="#FFFFFF" d="M136,38.483h-2.437l-2.46-8.767h-0.186l-2.45,8.767h-2.414l-3.281-11.904h2.383l2.132,9.083h0.176
				l2.447-9.083h2.254l2.447,9.083h0.186l2.122-9.083h2.349L136,38.483z"/>
			<path fill="#FFFFFF" d="M142.028,26.58h2.261v1.891h0.176c0.61-1.392,2.037-2.244,3.552-2.121c2.132-0.16,3.991,1.438,4.151,3.57
				c0.021,0.286,0.011,0.573-0.031,0.857v7.706h-2.349v-7.116c0-1.913-0.831-2.864-2.569-2.864c-1.506-0.07-2.785,1.094-2.855,2.601
				c-0.006,0.139-0.002,0.278,0.012,0.416v6.964h-2.349L142.028,26.58z"/>
			<path fill="#FFFFFF" d="M155.88,21.933h2.349v16.55h-2.349V21.933z"/>
			<path fill="#FFFFFF" d="M161.495,32.526c-0.296-3.101,1.977-5.855,5.078-6.151c3.101-0.296,5.855,1.977,6.151,5.078
				c0.034,0.357,0.034,0.716,0,1.073c0.302,3.101-1.968,5.859-5.068,6.16c-3.101,0.302-5.859-1.968-6.16-5.068
				C161.46,33.255,161.46,32.89,161.495,32.526z M170.306,32.526c0-2.58-1.159-4.089-3.193-4.089c-2.042,0-3.191,1.509-3.191,4.089
				c0,2.601,1.149,4.098,3.191,4.098C169.147,36.625,170.306,35.117,170.306,32.526z"/>
			<path fill="#FFFFFF" d="M175.197,35.117c0-2.143,1.595-3.378,4.427-3.554l3.224-0.186V30.35c0-1.257-0.831-1.967-2.437-1.967
				c-1.311,0-2.22,0.481-2.481,1.323h-2.274c0.24-2.045,2.163-3.356,4.864-3.356c2.984,0,4.668,1.486,4.668,4v8.133h-2.261v-1.673
				h-0.186c-0.768,1.222-2.134,1.936-3.575,1.869c-1.975,0.205-3.743-1.229-3.949-3.205
				C175.204,35.356,175.198,35.237,175.197,35.117z M182.849,34.1v-0.995l-2.907,0.186c-1.639,0.11-2.383,0.667-2.383,1.717
				c0,1.071,0.929,1.695,2.207,1.695c1.542,0.156,2.918-0.967,3.074-2.509C182.844,34.162,182.847,34.131,182.849,34.1z"/>
			<path fill="#FFFFFF" d="M188.275,32.526c0-3.761,1.934-6.144,4.941-6.144c1.519-0.07,2.941,0.744,3.65,2.088h0.176v-6.538h2.349
				v16.55h-2.251v-1.881h-0.186c-0.763,1.333-2.203,2.133-3.738,2.077C190.188,38.68,188.275,36.297,188.275,32.526z
				 M190.702,32.526c0,2.525,1.19,4.044,3.181,4.044c1.98,0,3.204-1.541,3.204-4.034c0-2.481-1.237-4.044-3.204-4.044
				C191.905,28.493,190.702,30.022,190.702,32.526L190.702,32.526z"/>
			<path fill="#FFFFFF" d="M209.111,32.526c-0.297-3.1,1.976-5.854,5.077-6.151s5.854,1.976,6.151,5.077
				c0.034,0.357,0.034,0.717,0,1.074c0.302,3.1-1.967,5.858-5.067,6.16c-3.1,0.302-5.858-1.967-6.16-5.067
				C209.076,33.256,209.076,32.89,209.111,32.526z M217.922,32.526c0-2.58-1.159-4.089-3.193-4.089
				c-2.042,0-3.191,1.509-3.191,4.089c0,2.601,1.149,4.098,3.191,4.098C216.763,36.625,217.922,35.117,217.922,32.526z"/>
			<path fill="#FFFFFF" d="M223.491,26.58h2.261v1.891h0.176c0.61-1.392,2.037-2.244,3.552-2.121c2.132-0.16,3.991,1.438,4.151,3.57
				c0.021,0.286,0.011,0.573-0.031,0.857v7.706h-2.349v-7.116c0-1.913-0.831-2.864-2.569-2.864c-1.506-0.07-2.785,1.094-2.855,2.601
				c-0.006,0.139-0.002,0.278,0.012,0.416v6.964h-2.349V26.58z"/>
			<path fill="#FFFFFF" d="M246.874,23.616v3.018h2.579v1.979h-2.579v6.121c0,1.247,0.514,1.793,1.683,1.793
				c0.299-0.001,0.598-0.019,0.896-0.054v1.957c-0.422,0.075-0.849,0.116-1.278,0.12c-2.613,0-3.653-0.919-3.653-3.214v-6.723h-1.89
				v-1.979h1.89v-3.018H246.874z"/>
			<path fill="#FFFFFF" d="M252.662,21.933h2.329v6.56h0.186c0.64-1.404,2.091-2.257,3.63-2.132c2.163-0.118,4.011,1.54,4.129,3.703
				c0.013,0.245,0.004,0.492-0.029,0.735v7.685h-2.352v-7.106c0-1.901-0.886-2.864-2.545-2.864
				c-1.531-0.126-2.873,1.014-2.999,2.544c-0.013,0.158-0.012,0.316,0.002,0.474v6.952h-2.349L252.662,21.933z"/>
			<path fill="#FFFFFF" d="M276.604,35.269c-0.659,2.245-2.832,3.696-5.158,3.444c-2.985,0.079-5.469-2.277-5.548-5.262
				c-0.008-0.295,0.009-0.59,0.049-0.882c-0.403-3.005,1.707-5.768,4.713-6.171c0.257-0.034,0.516-0.051,0.776-0.048
				c3.312,0,5.31,2.263,5.31,6.001v0.82h-8.406v0.132c-0.146,1.732,1.14,3.253,2.871,3.399c0.099,0.008,0.199,0.012,0.299,0.011
				c1.149,0.138,2.268-0.432,2.832-1.443L276.604,35.269z M268.34,31.433h6.012c0.117-1.582-1.07-2.959-2.652-3.077
				c-0.093-0.007-0.185-0.009-0.278-0.007c-1.681-0.021-3.061,1.325-3.082,3.006C268.34,31.381,268.34,31.407,268.34,31.433
				L268.34,31.433z"/>
		</g>
	</g>
</g>
</svg>
