<?xml version="1.0" encoding="utf-8"?>
<!-- Generator: Adobe Illustrator 22.1.0, SVG Export Plug-In . SVG Version: 6.00 Build 0)  -->
<svg version="1.1" id="Слой_1" xmlns="http://www.w3.org/2000/svg" xmlns:xlink="http://www.w3.org/1999/xlink" x="0px" y="0px"
	 viewBox="0 0 421.916 140.194" enable-background="new 0 0 421.916 140.194" xml:space="preserve">
<g id="appstor">
	<g>
		<g>
			<path fill="#A3A3A3" d="M387.092,0H34.506c-1.285,0-2.555,0-3.837,0.007c-1.073,0.007-2.137,0.027-3.221,0.045
				c-2.353,0.028-4.701,0.235-7.023,0.619c-2.319,0.393-4.565,1.134-6.662,2.198C11.668,3.941,9.754,5.335,8.09,7
				c-1.673,1.66-3.067,3.578-4.129,5.682c-1.065,2.099-1.804,4.349-2.191,6.671c-0.39,2.319-0.6,4.665-0.628,7.017
				c-0.033,1.075-0.036,2.153-0.053,3.227v81.012c0.017,1.088,0.021,2.143,0.053,3.231c0.028,2.351,0.238,4.697,0.628,7.016
				c0.385,2.323,1.124,4.574,2.191,6.674c1.062,2.097,2.456,4.007,4.129,5.658c1.658,1.672,3.573,3.067,5.673,4.131
				c2.097,1.067,4.343,1.812,6.662,2.211c2.322,0.382,4.67,0.589,7.023,0.62c1.083,0.024,2.148,0.037,3.221,0.037
				c1.282,0.007,2.552,0.007,3.837,0.007h352.586c1.26,0,2.54,0,3.799-0.007c1.068,0,2.163-0.014,3.231-0.037
				c2.349-0.029,4.692-0.237,7.01-0.62c2.326-0.402,4.58-1.147,6.688-2.211c2.098-1.065,4.012-2.46,5.668-4.131
				c1.669-1.657,3.066-3.566,4.141-5.658c1.058-2.102,1.79-4.352,2.17-6.674c0.391-2.319,0.608-4.665,0.651-7.016
				c0.014-1.089,0.014-2.143,0.014-3.231c0.027-1.273,0.027-2.54,0.027-3.834V33.423c0-1.284,0-2.557-0.027-3.827
				c0-1.075,0-2.153-0.014-3.228c-0.042-2.352-0.26-4.697-0.651-7.017c-0.381-2.321-1.113-4.57-2.17-6.671
				c-2.163-4.216-5.594-7.648-9.809-9.813c-2.108-1.061-4.362-1.802-6.688-2.198c-2.317-0.386-4.661-0.593-7.01-0.62
				c-1.068-0.017-2.163-0.038-3.231-0.044C389.632,0,388.352,0,387.092,0L387.092,0z"/>
			<path d="M30.686,137.127c-1.068,0-2.11-0.014-3.169-0.038c-2.195-0.029-4.384-0.22-6.551-0.572
				c-2.02-0.348-3.977-0.995-5.807-1.92c-1.813-0.917-3.466-2.121-4.896-3.563c-1.451-1.425-2.659-3.079-3.577-4.894
				c-0.927-1.827-1.569-3.786-1.903-5.808c-0.361-2.173-0.556-4.369-0.584-6.572c-0.022-0.739-0.051-3.2-0.051-3.2V29.596
				c0,0,0.031-2.423,0.051-3.135c0.027-2.199,0.221-4.392,0.58-6.561c0.334-2.027,0.977-3.992,1.905-5.825
				c0.914-1.814,2.115-3.469,3.558-4.9c1.441-1.444,3.099-2.653,4.915-3.584c1.825-0.922,3.778-1.565,5.795-1.906
				c2.174-0.356,4.371-0.548,6.573-0.575l3.162-0.043h360.186l3.2,0.045c2.182,0.026,4.36,0.216,6.513,0.57
				c2.037,0.346,4.01,0.993,5.856,1.92c3.637,1.875,6.597,4.84,8.464,8.481c0.913,1.821,1.546,3.769,1.876,5.779
				c0.364,2.187,0.567,4.398,0.609,6.614c0.01,0.993,0.01,2.059,0.01,3.12c0.028,1.314,0.028,2.565,0.028,3.827v73.351
				c0,1.273,0,2.516-0.028,3.768c0,1.14,0,2.184-0.014,3.258c-0.041,2.177-0.241,4.348-0.599,6.496
				c-0.327,2.037-0.965,4.011-1.893,5.853c-0.924,1.796-2.125,3.435-3.56,4.857c-1.432,1.45-3.088,2.66-4.905,3.584
				c-1.841,0.932-3.812,1.582-5.846,1.927c-2.166,0.354-4.356,0.545-6.551,0.572c-1.027,0.024-2.102,0.038-3.145,0.038l-3.799,0.007
				L30.686,137.127z"/>
		</g>
		<g id="_Group_">
			<g id="_Group_2">
				<g id="_Group_3">
					<path id="_Path_" fill="#FFFFFF" d="M87.9,71.151c0.077-5.946,3.194-11.438,8.259-14.552c-3.21-4.585-8.394-7.387-13.988-7.562
						c-5.885-0.618-11.591,3.522-14.59,3.522c-3.057,0-7.675-3.46-12.647-3.358c-6.542,0.211-12.494,3.841-15.677,9.561
						c-6.778,11.736-1.722,28.983,4.771,38.469c3.249,4.645,7.045,9.834,12.013,9.65c4.861-0.202,6.677-3.1,12.545-3.1
						c5.814,0,7.517,3.1,12.586,2.983c5.217-0.085,8.503-4.666,11.638-9.355c2.334-3.31,4.13-6.968,5.322-10.839
						C91.935,83.949,87.907,77.878,87.9,71.151z"/>
					<path id="_Path_2" fill="#FFFFFF" d="M78.326,42.797c2.844-3.414,4.246-7.803,3.906-12.234
						c-4.345,0.456-8.359,2.533-11.242,5.817c-2.847,3.24-4.289,7.478-4.008,11.781C71.385,48.206,75.566,46.23,78.326,42.797z"/>
				</g>
			</g>
			<g>
				<path fill="#FFFFFF" d="M149.351,95.12h-16.59l-3.984,11.764h-7.027l15.714-43.523h7.301l15.714,43.523h-7.147L149.351,95.12z
					 M134.479,89.692h13.15L141.147,70.6h-0.181L134.479,89.692z"/>
				<path fill="#FFFFFF" d="M194.414,91.02c0,9.861-5.278,16.196-13.242,16.196c-4.117,0.215-7.995-1.941-9.984-5.552h-0.151v15.717
					h-6.513V75.152h6.305v5.278h0.12c2.078-3.588,5.96-5.743,10.104-5.61C189.105,74.82,194.414,81.186,194.414,91.02z
					 M187.719,91.02c0-6.424-3.32-10.648-8.386-10.648c-4.977,0-8.324,4.313-8.324,10.648c0,6.394,3.347,10.675,8.324,10.675
					C184.399,101.695,187.719,97.502,187.719,91.02z"/>
				<path fill="#FFFFFF" d="M229.339,91.02c0,9.861-5.278,16.196-13.242,16.196c-4.117,0.215-7.995-1.941-9.984-5.552h-0.151v15.717
					h-6.513V75.152h6.305v5.278h0.12c2.078-3.588,5.96-5.743,10.104-5.61C224.031,74.82,229.339,81.186,229.339,91.02z
					 M222.644,91.02c0-6.424-3.32-10.648-8.386-10.648c-4.977,0-8.324,4.313-8.324,10.648c0,6.394,3.347,10.675,8.324,10.675
					C219.324,101.695,222.644,97.502,222.644,91.02L222.644,91.02z"/>
				<path fill="#FFFFFF" d="M252.422,94.757c0.483,4.316,4.675,7.15,10.405,7.15c5.49,0,9.44-2.834,9.44-6.726
					c0-3.378-2.382-5.401-8.023-6.787l-5.641-1.359c-7.992-1.93-11.702-5.668-11.702-11.733c0-7.509,6.544-12.667,15.837-12.667
					c9.197,0,15.501,5.158,15.714,12.667h-6.575c-0.394-4.343-3.984-6.965-9.231-6.965s-8.837,2.653-8.837,6.513
					c0,3.077,2.293,4.888,7.903,6.274l4.795,1.177c8.93,2.112,12.64,5.699,12.64,12.065c0,8.143-6.486,13.242-16.802,13.242
					c-9.652,0-16.169-4.98-16.59-12.852L252.422,94.757z"/>
				<path fill="#FFFFFF" d="M293.203,67.643v7.509h6.034v5.158h-6.034v17.493c0,2.718,1.208,3.984,3.861,3.984
					c0.716-0.012,1.432-0.063,2.143-0.151v5.127c-1.193,0.223-2.405,0.324-3.618,0.301c-6.424,0-8.93-2.413-8.93-8.567V80.31h-4.614
					v-5.158h4.614v-7.509H293.203z"/>
				<path fill="#FFFFFF" d="M302.732,91.02c0-9.984,5.88-16.258,15.05-16.258c9.2,0,15.053,6.274,15.053,16.258
					c0,10.011-5.822,16.258-15.053,16.258C308.554,107.278,302.732,101.031,302.732,91.02z M326.198,91.02
					c0-6.849-3.139-10.891-8.416-10.891s-8.413,4.073-8.413,10.891c0,6.876,3.135,10.888,8.413,10.888S326.198,97.896,326.198,91.02
					L326.198,91.02z"/>
				<path fill="#FFFFFF" d="M338.205,75.152h6.212v5.401h0.151c0.866-3.477,4.052-5.87,7.633-5.733
					c0.751-0.003,1.499,0.079,2.232,0.243v6.092c-0.948-0.29-1.936-0.423-2.927-0.394c-3.622-0.147-6.677,2.67-6.824,6.292
					c-0.014,0.337-0.001,0.674,0.037,1.009v18.821h-6.513L338.205,75.152z"/>
				<path fill="#FFFFFF" d="M384.462,97.564c-0.876,5.76-6.486,9.714-13.663,9.714c-9.231,0-14.961-6.185-14.961-16.107
					c0-9.953,5.76-16.408,14.687-16.408c8.779,0,14.3,6.031,14.3,15.652v2.232h-22.412v0.394c-0.403,4.546,2.957,8.559,7.503,8.961
					c0.343,0.03,0.689,0.039,1.033,0.027c3.161,0.296,6.141-1.519,7.328-4.463L384.462,97.564z M362.444,88.093h15.864
					c0.234-4.208-2.987-7.809-7.195-8.044c-0.196-0.011-0.392-0.014-0.588-0.01c-4.436-0.026-8.054,3.549-8.081,7.985
					C362.444,88.048,362.444,88.071,362.444,88.093z"/>
			</g>
		</g>
	</g>
	<g id="_Group_4">
		<g>
			<path fill="#FFFFFF" d="M133.663,30.601c5.096-0.366,9.524,3.469,9.89,8.566c0.044,0.609,0.027,1.22-0.05,1.826
				c0,6.681-3.611,10.521-9.84,10.521h-7.554V30.601H133.663z M129.357,48.556h3.943c3.625,0.217,6.739-2.546,6.955-6.171
				c0.027-0.451,0.007-0.904-0.059-1.351c0.495-3.607-2.028-6.933-5.635-7.428c-0.418-0.057-0.84-0.074-1.261-0.051h-3.943V48.556z"
				/>
			<path fill="#FFFFFF" d="M147.172,43.616c-0.393-4.11,2.62-7.761,6.731-8.155c4.11-0.393,7.761,2.62,8.155,6.731
				c0.045,0.474,0.045,0.95,0,1.424c0.4,4.11-2.607,7.767-6.718,8.167c-4.11,0.4-7.767-2.607-8.167-6.718
				C147.126,44.583,147.126,44.098,147.172,43.616z M158.854,43.616c0-3.421-1.537-5.422-4.234-5.422
				c-2.707,0-4.23,2.001-4.23,5.422c0,3.448,1.523,5.434,4.23,5.434C157.317,49.049,158.854,47.05,158.854,43.616L158.854,43.616z"
				/>
			<path fill="#FFFFFF" d="M181.844,51.513h-3.231l-3.262-11.623h-0.246l-3.248,11.623h-3.2l-4.35-15.782h3.159l2.827,12.043h0.233
				l3.245-12.043h2.988l3.245,12.043h0.246l2.813-12.043h3.115L181.844,51.513z"/>
			<path fill="#FFFFFF" d="M189.836,35.731h2.998v2.507h0.233c0.809-1.846,2.701-2.975,4.71-2.812
				c2.827-0.213,5.291,1.907,5.503,4.734c0.029,0.379,0.015,0.76-0.041,1.136v10.217h-3.115v-9.434c0-2.536-1.102-3.797-3.406-3.797
				c-1.997-0.093-3.692,1.451-3.785,3.448c-0.009,0.184-0.003,0.368,0.016,0.551v9.233h-3.115L189.836,35.731z"/>
			<path fill="#FFFFFF" d="M208.202,29.571h3.115v21.943h-3.115V29.571z"/>
			<path fill="#FFFFFF" d="M215.647,43.616c-0.393-4.111,2.621-7.762,6.732-8.155c4.111-0.393,7.762,2.621,8.155,6.732
				c0.045,0.473,0.045,0.95,0,1.423c0.4,4.111-2.609,7.768-6.72,8.167s-7.768-2.609-8.167-6.72
				C215.6,44.582,215.6,44.097,215.647,43.616z M227.328,43.616c0-3.421-1.537-5.422-4.234-5.422c-2.707,0-4.23,2.001-4.23,5.422
				c0,3.448,1.523,5.434,4.23,5.434C225.792,49.049,227.328,47.05,227.328,43.616z"/>
			<path fill="#FFFFFF" d="M233.813,47.05c0-2.841,2.115-4.479,5.87-4.711l4.275-0.246V40.73c0-1.667-1.102-2.608-3.231-2.608
				c-1.739,0-2.943,0.638-3.289,1.754h-3.015c0.318-2.711,2.868-4.449,6.448-4.449c3.957,0,6.188,1.97,6.188,5.303v10.783h-2.998
				v-2.218h-0.246c-1.018,1.62-2.829,2.566-4.74,2.478c-2.619,0.272-4.963-1.63-5.235-4.249
				C233.822,47.367,233.813,47.209,233.813,47.05z M243.957,45.702v-1.319l-3.854,0.246c-2.173,0.145-3.159,0.885-3.159,2.276
				c0,1.42,1.232,2.247,2.927,2.247c2.044,0.207,3.869-1.283,4.076-3.327C243.951,45.784,243.955,45.743,243.957,45.702z"/>
			<path fill="#FFFFFF" d="M251.152,43.616c0-4.987,2.564-8.146,6.551-8.146c2.013-0.093,3.899,0.986,4.84,2.769h0.233v-8.668h3.115
				v21.943h-2.985V49.02h-0.246c-1.012,1.768-2.921,2.829-4.956,2.754C253.688,51.774,251.152,48.614,251.152,43.616z
				 M254.369,43.616c0,3.347,1.578,5.362,4.217,5.362c2.625,0,4.248-2.043,4.248-5.348c0-3.289-1.639-5.362-4.248-5.362
				C255.964,38.268,254.369,40.296,254.369,43.616L254.369,43.616z"/>
			<path fill="#FFFFFF" d="M278.776,43.616c-0.393-4.11,2.62-7.761,6.731-8.155c4.11-0.393,7.761,2.62,8.155,6.731
				c0.045,0.474,0.045,0.95,0,1.424c0.4,4.11-2.607,7.767-6.718,8.167c-4.11,0.4-7.767-2.607-8.167-6.718
				C278.73,44.583,278.73,44.098,278.776,43.616z M290.458,43.616c0-3.421-1.537-5.422-4.234-5.422c-2.707,0-4.23,2.001-4.23,5.422
				c0,3.448,1.523,5.434,4.23,5.434C288.921,49.049,290.458,47.05,290.458,43.616z"/>
			<path fill="#FFFFFF" d="M297.841,35.731h2.998v2.507h0.233c0.809-1.846,2.701-2.975,4.71-2.812
				c2.827-0.213,5.291,1.907,5.503,4.734c0.029,0.379,0.015,0.76-0.041,1.136v10.217h-3.115v-9.434c0-2.536-1.102-3.797-3.406-3.797
				c-1.997-0.093-3.692,1.451-3.785,3.448c-0.009,0.184-0.003,0.368,0.016,0.551v9.233h-3.115V35.731z"/>
			<path fill="#FFFFFF" d="M328.844,31.802v4.001h3.419v2.624h-3.419v8.115c0,1.653,0.681,2.377,2.232,2.377
				c0.397-0.001,0.793-0.025,1.188-0.072v2.594c-0.559,0.1-1.126,0.153-1.694,0.159c-3.464,0-4.843-1.218-4.843-4.261v-8.913h-2.505
				v-2.624h2.505v-4.001H328.844z"/>
			<path fill="#FFFFFF" d="M336.517,29.571h3.087v8.697h0.246c0.848-1.862,2.773-2.993,4.812-2.827
				c2.867-0.156,5.318,2.042,5.474,4.909c0.018,0.325,0.005,0.652-0.039,0.975v10.189h-3.118v-9.421
				c0-2.521-1.174-3.797-3.375-3.797c-2.029-0.166-3.809,1.344-3.976,3.373c-0.017,0.209-0.016,0.419,0.002,0.628v9.217h-3.115
				L336.517,29.571z"/>
			<path fill="#FFFFFF" d="M368.259,47.252c-0.873,2.977-3.754,4.9-6.839,4.566c-3.958,0.104-7.251-3.019-7.355-6.977
				c-0.01-0.391,0.011-0.782,0.065-1.169c-0.534-3.984,2.264-7.647,6.248-8.181c0.341-0.046,0.685-0.067,1.029-0.064
				c4.391,0,7.04,3,7.04,7.956v1.087h-11.144v0.175c-0.193,2.296,1.511,4.313,3.807,4.507c0.132,0.011,0.264,0.016,0.396,0.014
				c1.524,0.183,3.007-0.573,3.755-1.913L368.259,47.252z M357.303,42.166h7.971c0.155-2.097-1.419-3.924-3.516-4.079
				c-0.123-0.009-0.246-0.012-0.369-0.009c-2.229-0.028-4.059,1.756-4.087,3.985C357.303,42.097,357.303,42.132,357.303,42.166
				L357.303,42.166z"/>
		</g>
	</g>
</g>
</svg>
