<?xml version="1.0" encoding="utf-8"?>
<!-- Generator: Adobe Illustrator 22.1.0, SVG Export Plug-In . SVG Version: 6.00 Build 0)  -->
<svg version="1.1" id="Слой_1" xmlns="http://www.w3.org/2000/svg" xmlns:xlink="http://www.w3.org/1999/xlink" x="0px" y="0px"
	 viewBox="0 0 456.958 135.395" enable-background="new 0 0 456.958 135.395" xml:space="preserve">
<path d="M440.033,135.395H16.924C7.447,135.395,0,127.948,0,118.47V16.924C0,7.447,7.447,0,16.924,0h423.109
	c9.478,0,16.924,7.447,16.924,16.924V118.47C456.958,127.948,449.511,135.395,440.033,135.395z"/>
<path fill="#A6A6A6" d="M440.033,2.708c7.785,0,14.216,6.431,14.216,14.216V118.47c0,7.785-6.431,14.216-14.216,14.216H16.924
	c-7.785,0-14.216-6.431-14.216-14.216V16.924c0-7.785,6.431-14.216,14.216-14.216H440.033 M440.033,0H16.924
	C7.447,0,0,7.785,0,16.924V118.47c0,9.478,7.447,16.924,16.924,16.924h423.109c9.478,0,16.924-7.447,16.924-16.924V16.924
	C456.958,7.785,449.511,0,440.033,0z"/>
<path fill="#FFFFFF" stroke="#FFFFFF" stroke-width="0.2" stroke-miterlimit="10" d="M160.443,34.526
	c0,2.708-0.677,5.077-2.369,6.77c-2.031,2.031-4.4,3.046-7.447,3.046c-3.046,0-5.416-1.015-7.447-3.046
	c-2.031-2.031-3.046-4.4-3.046-7.447c0-3.046,1.015-5.416,3.046-7.447s4.4-3.046,7.447-3.046c1.354,0,2.708,0.338,4.062,1.015
	c1.354,0.677,2.369,1.354,3.046,2.369l-1.692,1.692c-1.354-1.692-3.046-2.369-5.416-2.369c-2.031,0-4.062,0.677-5.416,2.369
	c-1.692,1.354-2.369,3.385-2.369,5.754c0,2.369,0.677,4.4,2.369,5.754c1.692,1.354,3.385,2.369,5.416,2.369
	c2.369,0,4.062-0.677,5.754-2.369c1.015-1.015,1.692-2.369,1.692-4.062h-7.447v-2.708h9.816L160.443,34.526L160.443,34.526z
	 M176.013,26.064h-9.139v6.431h8.462v2.369h-8.462v6.431h9.139v2.708h-11.847V23.694h11.847V26.064z M187.183,44.003h-2.708v-17.94
	h-5.754v-2.369h14.216v2.369h-5.754V44.003z M202.754,44.003V23.694h2.708v20.309H202.754z M216.97,44.003h-2.708v-17.94h-5.754
	v-2.369h13.878v2.369h-5.754v17.94H216.97z M249.126,41.295c-2.031,2.031-4.4,3.046-7.447,3.046c-3.046,0-5.416-1.015-7.447-3.046
	c-2.031-2.031-3.046-4.4-3.046-7.447c0-3.046,1.015-5.416,3.046-7.447c2.031-2.031,4.4-3.046,7.447-3.046
	c3.046,0,5.416,1.015,7.447,3.046s3.046,4.4,3.046,7.447C252.173,36.895,251.157,39.265,249.126,41.295z M236.264,39.603
	c1.354,1.354,3.385,2.369,5.416,2.369s4.062-0.677,5.416-2.369c1.354-1.354,2.369-3.385,2.369-5.754c0-2.369-0.677-4.4-2.369-5.754
	c-1.354-1.354-3.385-2.369-5.416-2.369s-4.062,0.677-5.416,2.369c-1.354,1.354-2.369,3.385-2.369,5.754
	C233.895,36.218,234.572,38.249,236.264,39.603z M255.896,44.003V23.694h3.046l9.816,15.909V23.694h2.708v20.309h-2.708
	l-10.493-16.586v16.586H255.896L255.896,44.003z"/>
<path fill="#FFFFFF" d="M230.51,73.79c-8.124,0-14.555,6.093-14.555,14.555c0,8.124,6.431,14.555,14.555,14.555
	c8.124,0,14.555-6.093,14.555-14.555C245.065,79.544,238.633,73.79,230.51,73.79z M230.51,96.807c-4.4,0-8.124-3.723-8.124-8.801
	c0-5.077,3.723-8.801,8.124-8.801s8.124,3.385,8.124,8.801C238.633,93.084,234.91,96.807,230.51,96.807z M199.03,73.79
	c-8.124,0-14.555,6.093-14.555,14.555c0,8.124,6.431,14.555,14.555,14.555s14.555-6.093,14.555-14.555
	C213.585,79.544,207.154,73.79,199.03,73.79z M199.03,96.807c-4.4,0-8.124-3.723-8.124-8.801c0-5.077,3.723-8.801,8.124-8.801
	c4.4,0,8.124,3.385,8.124,8.801C207.154,93.084,203.431,96.807,199.03,96.807z M161.458,78.191v6.093h14.555
	c-0.338,3.385-1.692,6.093-3.385,7.785c-2.031,2.031-5.416,4.4-11.17,4.4c-9.139,0-15.909-7.108-15.909-16.247
	s7.108-16.247,15.909-16.247c4.739,0,8.462,2.031,11.17,4.4l4.4-4.4c-3.723-3.385-8.462-6.093-15.232-6.093
	c-12.186,0-22.679,10.155-22.679,22.34s10.493,22.34,22.679,22.34c6.77,0,11.509-2.031,15.57-6.431
	c4.062-4.062,5.416-9.816,5.416-14.216c0-1.354,0-2.708-0.338-3.723L161.458,78.191L161.458,78.191z M315.131,82.929
	c-1.354-3.385-4.739-9.139-12.186-9.139c-7.447,0-13.539,5.754-13.539,14.555c0,8.124,6.093,14.555,14.216,14.555
	c6.431,0,10.493-4.062,11.847-6.431l-4.739-3.385c-1.692,2.369-3.723,4.062-7.108,4.062s-5.416-1.354-7.108-4.4l19.294-8.124
	L315.131,82.929L315.131,82.929z M295.499,87.668c0-5.416,4.4-8.462,7.447-8.462c2.369,0,4.739,1.354,5.416,3.046L295.499,87.668
	L295.499,87.668z M279.59,101.546h6.431V59.235h-6.431V101.546z M269.436,76.837c-1.692-1.692-4.4-3.385-7.785-3.385
	c-7.108,0-13.878,6.431-13.878,14.555s6.431,14.216,13.878,14.216c3.385,0,6.093-1.692,7.447-3.385h0.338v2.031
	c0,5.416-3.046,8.462-7.785,8.462c-3.723,0-6.431-2.708-7.108-5.077l-5.416,2.369c1.692,3.723,5.754,8.462,12.863,8.462
	c7.447,0,13.539-4.4,13.539-14.893V74.467h-6.093L269.436,76.837L269.436,76.837z M261.989,96.807c-4.4,0-8.124-3.723-8.124-8.801
	c0-5.077,3.723-8.801,8.124-8.801c4.4,0,7.785,3.723,7.785,8.801C269.774,93.084,266.389,96.807,261.989,96.807z M344.58,59.235
	h-15.232v42.311h6.431V85.637h8.801c7.108,0,13.878-5.077,13.878-13.201S351.688,59.235,344.58,59.235z M344.918,79.544h-9.139
	V64.99h9.139c4.739,0,7.447,4.062,7.447,7.108C352.027,75.821,349.319,79.544,344.918,79.544L344.918,79.544z M383.844,73.452
	c-4.739,0-9.478,2.031-11.17,6.431l5.754,2.369c1.354-2.369,3.385-3.046,5.754-3.046c3.385,0,6.431,2.031,6.77,5.416v0.338
	c-1.015-0.677-3.723-1.692-6.431-1.692c-6.093,0-12.186,3.385-12.186,9.478c0,5.754,5.077,9.478,10.493,9.478
	c4.4,0,6.431-2.031,8.124-4.062h0.338v3.385h6.093V85.299C396.707,77.852,390.953,73.452,383.844,73.452L383.844,73.452z
	 M383.167,96.807c-2.031,0-5.077-1.015-5.077-3.723c0-3.385,3.723-4.4,6.77-4.4c2.708,0,4.062,0.677,5.754,1.354
	C389.937,94.099,386.552,96.807,383.167,96.807z M418.709,74.467L411.6,92.745h-0.339l-7.447-18.278h-6.77l11.17,25.725
	l-6.431,14.216h6.431l17.263-39.941H418.709L418.709,74.467z M361.843,101.546h6.431V59.235h-6.431V101.546z"/>
<g>
	
		<linearGradient id="SVGID_1_" gradientUnits="userSpaceOnUse" x1="-1076.8928" y1="2901.0439" x2="-1079.9604" y2="2904.1113" gradientTransform="matrix(18.5185 0 0 18.5185 20016.2344 -53693.5703)">
		<stop  offset="0" style="stop-color:#00A0FF"/>
		<stop  offset="0.007" style="stop-color:#00A1FF"/>
		<stop  offset="0.26" style="stop-color:#00BEFF"/>
		<stop  offset="0.512" style="stop-color:#00D2FF"/>
		<stop  offset="0.76" style="stop-color:#00DFFF"/>
		<stop  offset="1" style="stop-color:#00E3FF"/>
	</linearGradient>
	<path fill="url(#SVGID_1_)" d="M35.203,25.387c-1.015,1.015-1.354,2.708-1.354,4.739v74.806c0,2.031,0.677,3.723,1.692,4.739
		l0.338,0.338l41.972-41.972v-0.677L35.203,25.387z"/>
	
		<linearGradient id="SVGID_2_" gradientUnits="userSpaceOnUse" x1="-1074.6924" y1="2903.1174" x2="-1079.1152" y2="2903.1174" gradientTransform="matrix(18.5185 0 0 18.5185 20016.2344 -53693.5703)">
		<stop  offset="0" style="stop-color:#FFE000"/>
		<stop  offset="0.409" style="stop-color:#FFBD00"/>
		<stop  offset="0.775" style="stop-color:#FFA500"/>
		<stop  offset="1" style="stop-color:#FF9C00"/>
	</linearGradient>
	<path fill="url(#SVGID_2_)" d="M91.392,82.252L77.514,68.374v-1.015l13.878-13.878l0.338,0.338l16.586,9.478
		c4.739,2.708,4.739,7.108,0,9.816L91.392,82.252z"/>
	
		<linearGradient id="SVGID_3_" gradientUnits="userSpaceOnUse" x1="-1076.3408" y1="2903.5259" x2="-1080.5006" y2="2907.6858" gradientTransform="matrix(18.5185 0 0 18.5185 20016.2344 -53693.5703)">
		<stop  offset="0" style="stop-color:#FF3A44"/>
		<stop  offset="1" style="stop-color:#C31162"/>
	</linearGradient>
	<path fill="url(#SVGID_3_)" d="M91.73,81.914L77.514,67.697l-42.311,42.311c1.692,1.692,4.062,1.692,7.108,0.338L91.73,81.914"/>
	
		<linearGradient id="SVGID_4_" gradientUnits="userSpaceOnUse" x1="-1079.5494" y1="2899.4915" x2="-1077.6918" y2="2901.3489" gradientTransform="matrix(18.5185 0 0 18.5185 20016.2344 -53693.5703)">
		<stop  offset="0" style="stop-color:#32A071"/>
		<stop  offset="0.069" style="stop-color:#2DA771"/>
		<stop  offset="0.476" style="stop-color:#15CF74"/>
		<stop  offset="0.801" style="stop-color:#06E775"/>
		<stop  offset="1" style="stop-color:#00F076"/>
	</linearGradient>
	<path fill="url(#SVGID_4_)" d="M91.73,53.481L42.311,25.387c-3.046-1.692-5.416-1.354-7.108,0.338l42.311,41.972L91.73,53.481
		L91.73,53.481z"/>
	<path opacity="0.2" enable-background="new    " d="M91.392,81.575l-49.081,27.756c-2.708,1.692-5.077,1.354-6.77,0l-0.338,0.338
		l0.338,0.338c1.692,1.354,4.062,1.692,6.77,0L91.392,81.575z"/>
	<path opacity="0.12" enable-background="new    " d="M35.203,109.331c-1.015-1.015-1.354-2.708-1.354-4.739v0.338
		c0,2.031,0.677,3.723,1.692,4.739v-0.338L35.203,109.331L35.203,109.331z M108.316,72.098l-16.924,9.478l0.338,0.338l16.586-9.478
		c2.369-1.354,3.385-3.046,3.385-4.739C111.701,69.39,110.347,70.744,108.316,72.098z"/>
	<path opacity="0.25" fill="#FFFFFF" enable-background="new    " d="M42.311,25.725l66.005,37.572
		c2.031,1.354,3.385,2.708,3.385,4.4c0-1.692-1.015-3.385-3.385-4.739L42.311,25.387c-4.739-2.708-8.462-0.677-8.462,4.739v0.338
		C33.849,25.387,37.572,23.017,42.311,25.725z"/>
</g>
</svg>
