<?xml version="1.0" encoding="utf-8"?>
<!-- Generator: Adobe Illustrator 24.0.1, SVG Export Plug-In . SVG Version: 6.00 Build 0)  -->
<svg version="1.1" id="Слой_1" xmlns="http://www.w3.org/2000/svg" xmlns:xlink="http://www.w3.org/1999/xlink" x="0px" y="0px"
	 viewBox="0 0 107 107" enable-background="new 0 0 107 107" xml:space="preserve">
<g>
	<path fill="#2C2C2C" d="M77.469,0.07H29.531c-16.271,0-29.46,13.19-29.46,29.46v47.938c0,16.271,13.19,29.46,29.46,29.46h47.938
		c16.271,0,29.46-13.19,29.46-29.46V29.531C106.93,13.26,93.74,0.07,77.469,0.07z M97.608,76.977
		c0,11.394-9.237,20.631-20.631,20.631H30.023c-11.394,0-20.631-9.237-20.631-20.631V30.023c0-11.394,9.237-20.631,20.631-20.631
		h46.955c11.394,0,20.631,9.237,20.631,20.631V76.977z"/>
	<path fill="#2C2C2C" d="M53.5,26.049c-15.161,0-27.451,12.29-27.451,27.451S38.339,80.951,53.5,80.951S80.951,68.661,80.951,53.5
		S68.661,26.049,53.5,26.049z M53.5,71.581c-9.986,0-18.081-8.095-18.081-18.081S43.514,35.419,53.5,35.419
		S71.581,43.514,71.581,53.5S63.486,71.581,53.5,71.581z"/>
	<circle fill="#2C2C2C" cx="82.168" cy="24.895" r="6.929"/>
</g>
</svg>
