<?xml version="1.0" encoding="utf-8"?>
<!-- Generator: Adobe Illustrator 24.0.1, SVG Export Plug-In . SVG Version: 6.00 Build 0)  -->
<svg version="1.1" id="Слой_1" xmlns="http://www.w3.org/2000/svg" xmlns:xlink="http://www.w3.org/1999/xlink" x="0px" y="0px"
	 viewBox="0 0 117.655 107" enable-background="new 0 0 117.655 107" xml:space="preserve">
<g>
	<path fill="#2C2C2C" d="M66.506,66.42H7.722c-4.009,0-7.259,3.25-7.259,7.259v0.251c0,4.009,3.25,7.259,7.259,7.259h66.061
		C77.583,70.839,66.506,66.42,66.506,66.42z"/>
	<path fill="#2C2C2C" d="M74.434,66.42h35.094c4.009,0,7.259,3.25,7.259,7.259v0.251c0,4.009-3.25,7.259-7.259,7.259H83.013"/>
	<path fill="#2C2C2C" d="M65.733,52.431l27.973,48.408c2.006,3.471,6.446,4.659,9.917,2.653l0.217-0.126
		c3.471-2.006,4.659-6.446,2.653-9.917L69.472,29.382C60.425,39.346,65.733,52.431,65.733,52.431z"/>
	<path fill="#2C2C2C" d="M58.745,40.337L42.769,12.692c-2.006-3.471-0.818-7.911,2.653-9.917l0.217-0.126
		c3.471-2.006,7.911-0.818,9.917,2.653l11.715,20.272"/>
	<path fill="#2C2C2C" d="M18.035,81.19L61.898,5.351c2.005-3.472,6.445-4.66,9.917-2.655l0.217,0.126
		c3.472,2.005,4.66,6.445,2.655,9.917L35.944,79.809"/>
	<path fill="#2C2C2C" d="M15.978,84.848l-5.002,8.659c-2.005,3.472-0.817,7.911,2.655,9.917l0.217,0.126
		c3.472,2.005,7.911,0.817,9.917-2.655l6.816-11.799C25.565,81.808,15.978,84.848,15.978,84.848z"/>
</g>
</svg>
