<?xml version="1.0" encoding="utf-8"?>
<!-- Generator: Adobe Illustrator 22.1.0, SVG Export Plug-In . SVG Version: 6.00 Build 0)  -->
<svg version="1.1" id="Слой_1" xmlns="http://www.w3.org/2000/svg" xmlns:xlink="http://www.w3.org/1999/xlink" x="0px" y="0px"
	 viewBox="0 0 1024 500" enable-background="new 0 0 1024 500" xml:space="preserve">
<g>
	<rect x="0.004" y="0.021" fill="#C2FCFF" width="1024" height="158.742"/>
	<polygon fill="#A4E4F5" points="1024.004,240.298 0.004,240.298 0.004,150.943 507.62,146.276 1024.004,150.943 	"/>
	<polygon fill="#B3E7F2" points="1024.004,282.987 0.004,280.844 0.004,229.853 92.441,232.883 262.581,224.981 513.997,228.429 
		707.333,241.304 900.765,229.051 1024.004,231.995 	"/>
	<path fill="#F5E6A8" d="M1024.004,500.021h-1024V275.59h71.141c14.297,0,28.59-0.453,42.851-1.358l85.422-5.42
		c21.92-1.391,43.889-2.087,65.865-2.087H433.91c25.654,0,51.299,0.854,76.882,2.56l132.197,8.815
		c42.839,2.857,85.85,3.031,128.717,0.522l120.558-7.056c23.653-1.384,47.362-1.85,71.06-1.396l60.681,1.162V500.021z"/>
	<g>
		<polygon fill="#C2BEB8" points="567.533,259.615 630.084,265.364 665.49,252.257 692.484,249.147 695.306,244.076 
			638.563,242.144 581.88,245.716 558.24,250.092 		"/>
		<polygon fill="#CFCBC4" points="567.533,259.615 552.93,287.282 548.731,306.384 581.459,312.443 627.893,314.329 
			627.893,281.687 630.084,265.364 		"/>
		<polygon fill="#ACA9A3" points="567.533,259.615 552.93,287.282 548.731,306.384 542.464,297.312 542.464,289.602 
			548.731,268.627 558.24,250.092 		"/>
		<polygon fill="#ABA8A5" points="665.49,252.257 692.484,249.147 705.416,264.211 723.358,304.985 680.81,302.502 671.989,277.066 
					"/>
		<polygon fill="#B2B1B1" points="665.49,252.257 630.084,265.364 627.893,281.687 627.893,314.329 663.443,306.384 680.81,302.502 
			671.989,277.066 		"/>
		<polygon fill="#9B9A9A" points="723.358,304.985 726.771,298.911 726.771,290.693 709.13,259.615 695.306,244.076 
			692.484,249.147 705.416,264.211 		"/>
	</g>
	<g>
		<polygon fill="#B0ADA9" points="940.59,286.189 917.796,292.254 923.421,299.9 956.576,308.074 975.324,303.549 1014.639,300.482 
			1019.63,295.681 986.475,289.617 		"/>
		<polygon fill="#D2D0C6" points="923.421,299.9 911.144,317.412 902.894,342.571 929.933,355.534 954.8,360.28 954.8,328.112 
			956.576,308.074 		"/>
		<polygon fill="#BCBBB5" points="917.796,292.254 906.921,315.193 901.805,336.984 902.894,342.571 911.144,317.412 923.421,299.9 
					"/>
		<polygon fill="#A2A09B" points="954.8,360.28 984.896,351.579 1024.46,342.847 1020.991,318.223 1014.639,300.482 
			975.324,303.549 956.576,308.074 954.8,328.112 		"/>
		<polygon fill="#8D8B84" points="1019.63,295.681 1030.624,320.114 1032.746,333.347 1029.808,339.019 1024.46,342.847 
			1020.991,318.223 1014.639,300.482 		"/>
	</g>
	<g>
		<g>
			<path fill="#DB8952" d="M440.425,273.773l3.112,32.792c0.065,0.666-0.365,1.279-1.013,1.445l-4.679,1.199
				c-5.834,1.495-11.928,1.678-17.841,0.534l-4.842-0.937c-0.531-0.103-0.915-0.568-0.915-1.109v-32.405L440.425,273.773z"/>
			<path fill="#BD5C45" d="M441.53,286.076l-1.445,0.351c-5.495,1.335-11.193,1.619-16.794,0.835l0,0l0.268,0.075
				c5.84,1.632,11.95,2.062,17.961,1.264l0.009-0.001V286.076z"/>
			<polygon fill="#BD5C45" points="414.247,299.498 420.718,298.078 414.247,298.078 			"/>
		</g>
		<g>
			<path fill="#DB8952" d="M440.425,273.773l-3.838-38.156c-1.962-20.029-3.008-40.136-3.134-60.26l-0.373-76.565h-8.19
				l-7.462,75.587c-2.119,21.516-3.18,43.124-3.18,64.745v37.51L440.425,273.773z"/>
			<path fill="#BD5C45" d="M438.493,255.067l-3.757,0.696c-5.549,1.028-11.252,0.882-16.741-0.43h0h4.019
				c2.863,0,5.718-0.304,8.516-0.908l7.738-1.669L438.493,255.067z"/>
			<path fill="#BD5C45" d="M437.748,247.46L437.748,247.46c-3.517,0.998-7.207,1.228-10.82,0.673l-1.82-0.28l2.222-0.017
				c3.354-0.026,6.67-0.714,9.757-2.026l0.479-0.203L437.748,247.46z"/>
			<path fill="#BD5C45" d="M414.415,224.267L414.415,224.267c4.911,1.09,10.029,0.781,14.774-0.892l0.039-0.014l-1.299,0.226
				c-4.019,0.698-8.145,0.473-12.064-0.658l-1.409-0.407L414.415,224.267z"/>
			<path fill="#BD5C45" d="M433.736,190.96L433.736,190.96c-3.873,1.18-8.03,1.02-11.801-0.453l-0.876-0.342l1.451,0.299
				c3.198,0.66,6.516,0.438,9.598-0.642l1.58-0.554L433.736,190.96z"/>
			<path fill="#BD5C45" d="M433.296,150.249L433.296,150.249c-3.089,1.156-6.526,0.932-9.439-0.615l-0.263-0.14l0.72,0.191
				c2.665,0.707,5.496,0.434,7.977-0.769l0.994-0.482L433.296,150.249z"/>
			<path fill="#BD5C45" d="M421.555,132.466L421.555,132.466c2.722,1.411,5.876,1.744,8.833,0.934l0.926-0.254l-1.165,0.088
				c-2.819,0.212-5.624-0.561-7.935-2.188l-0.485-0.341L421.555,132.466z"/>
			<g>
				<polygon fill="#81D868" points="492.465,163.965 497.257,149.848 497.711,131.699 490.314,115.806 477.59,104.009 
					462.72,96.796 448.533,93.948 433.523,95.407 427.267,97.751 440.997,103.395 462.837,118.484 464.958,115.858 466.13,119.798 
					465.644,122.389 472.087,129.496 473.872,126.559 474.435,131.277 473.527,135.692 477.629,139.839 479.833,135.667 
					480.39,141.564 478.419,146.208 484.856,154.494 486.946,149.497 487.21,155.096 486.308,158.333 				"/>
				<polygon fill="#11CC5D" points="491.387,148.445 487.868,129.244 478.804,113.769 465.031,102.599 447.958,96.803 
					428.305,97.362 447.244,98.037 464.846,104.012 478.354,115.092 486.19,128.969 				"/>
			</g>
			<g>
				<polygon fill="#80DD66" points="350.664,180.449 344.695,162.865 344.131,140.26 353.344,120.464 369.192,105.77 
					387.714,96.786 405.384,93.239 424.08,95.055 431.872,97.975 414.771,105.005 387.569,123.799 384.926,120.529 383.467,125.437 
					384.072,128.663 376.046,137.516 373.824,133.858 373.122,139.734 374.253,145.233 369.144,150.399 366.399,145.203 
					365.705,152.547 368.16,158.332 360.142,168.653 357.539,162.428 357.21,169.403 358.333,173.434 				"/>
				<polygon fill="#11D15F" points="352.008,161.118 356.391,137.202 367.681,117.926 384.836,104.014 406.101,96.795 
					430.58,97.491 406.991,98.332 385.066,105.774 368.24,119.575 358.481,136.86 				"/>
			</g>
			<g>
				<polygon fill="#56D162" points="545.315,154.971 543.127,137.779 528.658,116.397 535.87,115.475 520.484,97.169 
					506.376,92.014 511.784,89.608 497.356,81.165 478.891,81.633 482.471,75.975 466.686,76.901 457.585,79.237 443.977,86.244 
					435.684,93.719 429.98,97.701 445.033,102.034 452.408,99.768 449.982,102.88 463.631,109.002 470.889,107.043 465.824,111.075 
					475.889,115.996 484.636,114.029 479.048,117.385 494.042,128.244 502.785,125.624 497.036,130.976 506.443,136.699 
					513.233,142.824 520.739,141.135 515.308,145.203 532.234,154.694 542.845,165.978 				"/>
				<polygon fill="#54C656" points="539.669,152.275 527.834,131.245 500.124,104.514 471.413,93.09 447.515,92.482 429.98,97.701 
					449.229,90.767 473.339,91.852 501.502,103.329 527.533,129.283 				"/>
			</g>
			<g>
				<polygon fill="#60E252" points="318.857,172.493 311.739,157.594 310.651,135.933 316.976,116.777 327.065,107.647 
					319.957,106.598 332.915,94.72 344.162,88.2 352.154,90.731 346.773,84.487 364.439,77.846 374.463,76.637 379.07,82.543 
					379.633,76.389 392.263,79.134 413.582,89.951 427.501,98.851 408.183,98.136 391.183,103.971 387.06,99.667 387.356,105.327 
					378.499,108.403 370.335,116.111 360.83,112.783 366.286,117.736 357.047,124.558 348.722,135.744 339.139,130.946 
					344.767,138.35 340.336,143.721 337.972,152.604 330.472,150.479 325.088,152.356 329.606,155.633 323.134,162.931 				"/>
				<polygon fill="#62D651" points="319.188,161.331 328.722,130.078 348.117,103.65 377.409,89.298 402.02,89.741 427.501,98.851 
					401.892,90.99 377.803,90.827 349.191,104.536 329.73,131.135 				"/>
			</g>
			<g>
				<polygon fill="#5EDD50" points="559.499,85.922 555.298,69.953 542.127,52.723 524.918,42.196 511.319,41.752 516.064,36.357 
					498.499,35.671 485.703,37.966 481.241,45.064 481.31,36.821 463.539,43.174 455.109,48.732 455.413,56.216 451.004,51.884 
					443.143,62.144 433.869,84.177 429.002,99.965 443.279,86.932 460.022,80.395 460.385,74.446 463.819,78.956 472.564,75.577 
					483.776,76.181 488.877,67.497 487.916,74.803 499.375,74.036 512.958,77.189 517.167,67.334 517.659,76.62 524.513,77.854 
					532.058,83.104 536.407,76.635 541.729,74.586 540.399,80.007 550.055,81.391 				"/>
				<polygon fill="#60D150" points="552.031,77.62 524.554,59.937 492.673,52.311 461.046,60.296 442.555,76.543 429.002,99.965 
					443.46,77.413 461.734,61.717 492.426,53.681 524.469,61.396 				"/>
			</g>
			<g>
				<polygon fill="#58DD4E" points="326.875,67.375 335.198,66.091 342.175,66.471 347.987,61.845 346.96,66.519 357.146,67.016 
					371.415,72.272 380.741,68.706 373.294,74.633 384.306,78.032 393.576,82.224 398.253,81.764 406.39,81.498 395.455,84.585 
					404.754,91.423 413.057,91.045 421.455,94.515 427.559,100.206 429.389,97.774 429.21,93.356 428.27,83.09 424.969,67.621 
					416.704,53.136 404.733,42.194 404.48,49.139 396.475,39.274 383.18,35.615 377.524,35.964 380.418,40.707 367.012,35.43 
					354.032,36.267 344.885,41.175 348.869,42.453 338.81,49.57 330.428,60.098 				"/>
				<polygon fill="#59D34C" points="347.61,53.171 369.801,50.862 396.668,59.738 416.58,77.487 429.002,99.965 415.654,79.114 
					396.626,61.922 370.159,52.802 				"/>
			</g>
		</g>
	</g>
	<g>
		<g>
			<path fill="#DB8952" d="M819.753,286.924l-1.221,32.58c-0.041,1.092,0.668,2.071,1.719,2.373l2.979,0.856
				c6.444,1.852,13.138,2.687,19.839,2.475l0,0c6.495-0.205,12.901-1.564,18.919-4.015l2.568-1.046
				c1.156-0.471,1.708-1.793,1.229-2.946l-0.78-1.877c-2.314-5.571-4.295-11.275-5.931-17.081l-3.147-13.011L819.753,286.924z"/>
			<path fill="#BD5C45" d="M860.362,302.65l-2.422,1.251c-3.281,1.694-6.858,2.737-10.535,3.071l0,0
				c-2.038,0.185-4.092,0.107-6.11-0.234l-3.007-0.508l3.98,0.14c1.791,0.063,3.583-0.076,5.343-0.416l0.659-0.127
				c3.011-0.581,5.908-1.642,8.582-3.143l3.039-1.706L860.362,302.65z"/>
		</g>
		<g>
			<path fill="#DB8952" d="M819.911,282.714l0.093-2.474l1.716-70.376c0.115-4.696,0.378-9.388,0.791-14.067l2.037-23.095
				c0.566-6.413,1.363-12.803,2.392-19.158l1.567-9.688c2.099-12.974,5.154-25.774,9.141-38.297l0.692-2.172l7.011,0.086
				l-1.492,34.921c-0.264,6.18-0.337,12.366-0.22,18.55l0.767,40.395l2.378,34.526c0.302,4.386,0.799,8.757,1.488,13.1l4.029,25.378
				c0.469,2.955,3.624,14.893,3.624,14.893c-4.171,2.402-36.238,3.46-36.238,3.46L819.911,282.714z"/>
			<g>
				<polygon fill="#5BD363" points="737.621,22.323 754.84,17.145 781.212,21.841 779.044,14.617 802.887,21.48 813.724,32.679 
					813.724,26.538 827.813,36.653 835.158,54.354 839.012,48.574 844.792,63.927 846.416,73.54 845.514,89.395 841.926,100.41 
					840.557,107.496 830.101,95.055 829.137,87.107 827.211,90.72 815.651,80.364 814.447,72.657 812.761,79.16 803.85,71.694 
					802.026,62.572 801.201,69.286 784.583,59.652 783.379,50.26 780.73,57.966 771.338,51.464 762.667,47.611 761.102,39.784 
					759.537,46.647 743.401,34.606 728.228,29.307 				"/>
				<polygon fill="#58C658" points="742.558,26.538 767.484,28.886 804.512,43.878 827.452,66.275 838.108,88.673 840.557,107.496 
					839.012,86.325 827.813,63.927 805.054,42.071 769.471,28.344 				"/>
			</g>
			<g>
				<polygon fill="#7FDB65" points="721.243,101.906 730.63,85.08 747.641,68.924 769.29,62.249 791.626,64.23 811.425,72.242 
					826.446,83.38 838.05,99.038 841.222,107.068 823.915,98.791 790.526,90.918 791.206,86.61 786.412,88.899 784.349,91.609 
					771.951,91.587 773.222,87.332 768.21,90.878 764.763,95.574 757.231,95.233 759.323,89.506 753.187,94.08 750.439,99.993 
					736.917,100.998 739.899,94.664 734.3,99.262 731.978,102.931 				"/>
				<polygon fill="#11D360" points="737.06,89.495 758.523,76.235 781.215,71.522 803.858,75.053 824.206,86.406 840.558,106.354 
					823.642,88.159 802.663,76.455 780.335,73.099 760.24,77.607 				"/>
			</g>
			<g>
				<polygon fill="#5AE04F" points="749.903,164.896 754.238,157.31 759.055,151.891 759.055,144.185 762.186,148.038 
					769.17,140.091 782.657,131.902 785.787,122.028 785.787,131.902 795.662,125.159 805.054,120.342 807.703,116.248 
					812.744,109.471 808.185,120.342 819.745,117.211 824.802,110.227 833.046,105.651 841.609,104.374 840.818,101.316 
					837.115,98.607 828.174,92.737 813.483,85.421 796.384,82.772 779.767,85.421 785.241,90.113 772.06,90.238 760.5,98.667 
					757.128,103.484 762.849,104.199 749.903,111.672 742.197,122.751 740.27,133.347 743.883,130.939 743.16,143.703 
					746.291,157.31 				"/>
				<polygon fill="#59D34C" points="751.77,138.886 764.233,119.379 788.798,103.303 816.072,98.607 839.012,102.942 
					816.795,100.41 790.544,104.748 766.039,120.342 				"/>
			</g>
			<g>
				<polygon fill="#85DD6C" points="958.483,126.831 953.644,108.182 941.257,88.258 921.991,76.338 899.878,72.622 878.699,75.382 
					861.354,82.371 846.176,94.595 841.081,101.566 859.916,97.922 894.212,98.725 894.64,94.384 898.701,97.809 900.014,100.951 
					912.017,104.057 911.86,99.619 915.816,104.315 917.967,109.728 925.341,111.298 924.761,105.228 929.546,111.202 
					930.713,117.617 943.545,122 942.257,115.119 946.515,120.98 947.837,125.116 				"/>
				<polygon fill="#18D363" points="946.307,110.833 928.883,92.588 908.113,82.304 885.312,80.01 862.758,85.863 841.926,100.41 
					862.862,87.702 886.115,81.668 908.567,84.052 926.876,93.483 				"/>
			</g>
			<g>
				<polygon fill="#65DD58" points="938.123,153.391 928.17,146.672 918.506,143.795 917.223,136.571 914.178,132.808 
					914.045,141.825 900.877,134.046 900.255,127.829 897.952,123.003 895.739,133.24 889.841,126.884 883.726,122.831 
					880.505,115.727 877.133,111.026 875.867,119.633 864.386,109.596 854.067,104.844 841.879,104.487 840.558,102.473 
					847.529,94.659 860.216,86.337 876.263,82.134 889.967,82.732 906.225,88.196 924.35,103.092 936.901,122.222 940.246,139.614 
									"/>
				<polygon fill="#0FD35E" points="914.859,115.296 901.355,103.416 886.637,94.998 869.743,91.968 854.578,94.487 
					842.624,102.329 857.227,92.978 872.508,90.585 888.147,94.007 902.978,102.784 				"/>
			</g>
			<g>
				<polygon fill="#63E256" points="971.229,69.165 964.004,53.631 947.386,38.459 927.879,30.873 913.911,32.92 917.764,26.538 
					899.702,29.066 887.058,33.763 883.807,41.831 882.362,33.401 865.383,43.155 857.797,50.38 859.482,57.966 854.184,54.354 
					848.043,66.275 842.624,90.479 840.557,107.496 852.739,91.563 868.634,81.809 867.912,75.668 872.247,79.641 880.555,74.584 
					892.115,73.139 895.727,63.334 896.089,70.971 907.649,68.081 922.099,68.804 924.585,57.966 926.795,67.359 934.02,67.359 
					942.69,71.333 945.941,63.927 950.999,60.856 950.638,66.636 960.753,66.275 				"/>
				<polygon fill="#5FDB4D" points="962.077,62.061 930.769,49.056 896.812,47.129 865.985,61.097 850.09,81.086 840.557,107.496 
					851.174,81.809 866.948,62.422 896.812,48.574 930.95,50.561 				"/>
			</g>
			<path fill="#BD5C45" d="M820.422,263.093l2.336,0.205c4.456,0.391,8.942-0.223,13.129-1.796v0l-3.278,0.564
				c-2.438,0.419-4.919,0.534-7.386,0.342l-4.776-0.372L820.422,263.093z"/>
			<path fill="#BD5C45" d="M847.405,238.619l-4.46,1.686c-1.56,0.59-3.178,1.011-4.827,1.257l-0.768,0.115
				c-2.034,0.304-4.099,0.338-6.142,0.103l-2.035-0.234l1.798,0.484c2.859,0.77,5.838,0.991,8.779,0.651l0,0
				c1.114-0.129,2.217-0.337,3.302-0.623l4.353-1.151V238.619z"/>
			<path fill="#BD5C45" d="M821.39,223.397l1.694,0.233c2.32,0.32,4.674,0.299,6.988-0.061l1.104-0.172l-0.916,0.332
				c-2.631,0.955-5.409,1.443-8.208,1.443h-0.662V223.397z"/>
			<path fill="#BD5C45" d="M843.984,175.111L843.984,175.111c-3.916,1.081-8.047,1.114-11.978,0.093l-0.359-0.093h2.848
				c2.866,0,5.708-0.532,8.38-1.57l1.109-0.431V175.111z"/>
			<path fill="#BD5C45" d="M843.682,159.205l-3.591,1.158c-1.507,0.486-3.082,0.734-4.666,0.734h-0.443
				c-1.816,0-3.618-0.325-5.319-0.961l-2.492-0.931l4.189,0.647c1.285,0.198,2.591,0.231,3.884,0.097l0,0
				c1.702-0.176,3.362-0.638,4.91-1.367l3.485-1.64L843.682,159.205z"/>
			<path fill="#BD5C45" d="M831.647,127.65l0.492,0.183c2.138,0.797,4.472,0.9,6.672,0.296l1.747-0.48l-1.31,0.631
				c-2.457,1.182-5.268,1.397-7.876,0.604l0,0L831.647,127.65z"/>
		</g>
	</g>
	<g>
		<g>
			<path fill="#DB8952" d="M111.452,319.611l-5.289,40.822c-0.161,1.486,0.451,2.912,1.41,3.286l8.451,3.297
				c8.378,3.269,17.152,3.41,25.574,0.413l5.791-2.061c0.837-0.298,1.414-1.462,1.373-2.767l-1.246-39.578L111.452,319.611z"/>
			<path fill="#BD5C45" d="M108.346,343.147l2.309,0.834c8.041,2.906,16.472,3.758,24.784,2.507l4.796-0.722l-4.878,1.364
				c-8.994,2.514-18.324,2.507-27.315-0.022l-0.212-0.059L108.346,343.147z"/>
		</g>
		<g>
			<path fill="#DB8952" d="M111.452,319.611l2.022-26.723c1.288-11.904,2.112-23.914,2.466-35.966l2.253-76.688l4.559-76.278h9.1
				l7.024,85.583l6.14,73.605c0.66,7.912,1.116,15.861,1.367,23.828l1.21,38.445L111.452,319.611z"/>
			<path fill="#BD5C45" d="M113.76,289.874l3.374,1.501c8.536,3.798,17.721,3.865,26.285,0.191h0l-1.341,0.311
				c-7.737,1.797-15.684,0.676-22.993-3.242l-4.918-2.637L113.76,289.874z"/>
			<path fill="#BD5C45" d="M142.694,235.06l-1.184,0.288c-6.822,1.662-13.957,0.942-20.376-2.055l0,0l0.902,0.211
				c5.872,1.371,11.979,0.986,17.664-1.112l2.568-0.948L142.694,235.06z"/>
			<path fill="#BD5C45" d="M140.516,209.032L140.516,209.032c-6.37,2.137-13.055,1.201-19.014-2.661l-0.981-0.636l2.138,0.81
				c5.144,1.949,10.561,1.881,15.681-0.194l1.87-0.758L140.516,209.032z"/>
			<path fill="#BD5C45" d="M115.778,261.624l1.503,0.432c5.52,1.586,11.346,1.436,16.79-0.432h0h-2.806
				c-4.18,0-8.315-0.944-12.137-2.771l-3.144-1.503L115.778,261.624z"/>
			<path fill="#BD5C45" d="M120.467,141.238l3.607,1.427c3.666,1.45,7.753,0.92,10.997-1.427h0h-2.573
				c-1.707,0-3.395-0.386-4.955-1.134l-6.709-3.217L120.467,141.238z"/>
			<g>
				<polygon fill="#5AE250" points="38.386,176.422 42.318,167.95 46.853,161.796 46.43,153.45 49.782,157.438 56.353,148.417 
					69.433,138.751 72.032,127.873 72.574,138.566 82.109,130.679 91.267,124.906 93.7,120.315 98.385,112.678 94.408,124.721 
					105.833,120.646 110.523,112.783 118.541,107.339 127.062,105.448 126.1,102.184 122.237,99.47 112.946,93.642 97.807,86.59 
					80.509,84.734 63.984,88.587 69.733,93.344 56.517,94.259 45.383,104.072 42.265,109.488 48.043,109.923 35.466,118.783 
					28.343,131.237 26.991,142.826 30.483,140.004 30.459,153.87 34.346,168.42 				"/>
				<polygon fill="#4EC644" points="38.831,148.144 50.264,126.28 74.025,107.417 101.128,100.716 124.378,104.052 101.952,102.625 
					75.856,108.878 52.129,127.217 				"/>
			</g>
			<g>
				<polygon fill="#56D162" points="-39.336,173.588 -33.908,148.374 -10.987,118.797 -20.784,116.332 2.968,91.465 23.112,85.945 
					16.006,81.549 37.052,71.192 62.404,74.689 58.271,65.738 79.868,69.509 92.069,74.362 109.815,86.838 120.18,99.205 
					127.471,105.987 106.142,110.142 96.308,105.656 99.21,110.648 79.563,117.674 69.847,113.661 76.253,120.422 61.706,126.207 
					49.942,121.956 57.162,127.792 34.997,141.652 23.331,136.433 30.491,145.258 16.739,152.335 6.532,160.406 -3.563,156.758 
					3.341,163.627 -21.292,175.161 -37.483,190.32 				"/>
				<polygon fill="#56CC59" points="-31.186,170.439 -11.94,140.986 29.961,105.468 71.087,92.849 104.068,95.571 127.471,105.987 
					101.95,92.762 68.609,90.717 28.23,103.498 -11.249,138.116 				"/>
			</g>
			<g>
				<polygon fill="#62E053" points="-42.385,62.214 -34.118,40.133 -13.748,17.885 10.84,5.963 28.94,7.811 23.563,-0.776 
					46.96,1.449 63.53,7.068 68.244,18.038 69.546,6.232 92.026,18.565 102.259,28.055 100.591,38.708 107.167,33.315 
					115.852,49.429 124.417,82.646 128.199,106.124 111.48,84.871 90.394,72.461 90.919,63.884 85.606,69.709 74.586,63.28 
					59.624,62.097 54.331,48.742 54.37,59.37 39.312,56.181 20.776,58.214 16.864,43.344 14.641,56.542 5.349,57.056 -5.539,63.191 
					-10.209,53.141 -16.916,49.238 -16.07,57.237 -29.103,57.456 				"/>
				<polygon fill="#5ED64D" points="-31.084,51.699 8.323,31.413 51.868,26.32 92.435,43.518 114.196,70.138 128.199,106.124 
					112.85,71.218 91.284,45.425 51.963,28.326 8.19,33.516 				"/>
			</g>
			<g>
				<polygon fill="#84D86C" points="293.502,65.539 275.969,42.68 247.911,22.968 215.803,18.917 184.976,28.17 159.273,45.847 
					141.084,66.922 128.86,93.887 126.492,106.937 148.63,89.557 193.44,68.287 191.368,61.951 198.688,64.077 202.285,67.604 
					219.675,64.101 216.789,58.011 224.742,61.981 230.796,68.128 241.275,65.504 236.855,57.414 246.651,62.625 252.039,70.813 
					271.274,68.551 265.447,59.791 274.496,65.189 278.705,70.096 				"/>
				<polygon fill="#12D661" points="268.09,51.167 234.538,37.089 201.474,36.3 170.619,47.987 145.011,70.878 126.885,104.773 
					146.257,73.375 172.66,49.775 203.118,38.443 232.484,39.647 				"/>
			</g>
			<g>
				<polygon fill="#59D164" points="274.318,117.635 264.437,98.685 239.499,80.668 246.861,76.189 222.281,62.181 204.834,62.854 
					209.603,57.502 190.373,54.506 170.695,63.774 172.073,55.506 155.483,64.041 146.705,71.057 135.12,85.631 129.462,98.239 
					125.064,105.563 143.168,103.487 150.118,97.368 148.868,102.132 166.244,102.798 173.201,97.091 169.512,104.172 
					182.504,105.136 191.062,98.716 186.514,105.258 207.411,110.795 215.678,103.618 211.832,112.556 224.465,114.764 
					234.457,118.675 241.8,113.165 237.733,120.46 260.112,123.494 276.476,131.597 				"/>
				<polygon fill="#56CC59" points="267.058,117.169 245.111,98.317 203.573,80.338 167.658,80.625 141.66,91.211 125.064,105.563 
					142.754,88.407 169.191,78.276 204.539,78.309 243.928,96.179 				"/>
			</g>
			<g>
				<polygon fill="#65DD58" points="233.93,182.677 223.169,172.551 212.188,167.364 211.73,157.963 208.687,152.691 
					207.214,164.152 192.815,152.17 192.989,144.155 190.977,137.646 186.872,150.334 180.842,141.31 174.22,135.185 
					171.458,125.63 168.166,119.113 165.416,129.875 153.337,115.282 141.858,107.604 127.533,105.229 126.268,102.456 
					135.633,93.604 151.813,85.004 171.357,82.182 187.437,85.103 205.818,94.624 225.026,116.45 237.038,142.79 238.445,165.466 
									"/>
				<polygon fill="#0FCE5C" points="218.876,138.797 197.851,113.239 181.717,100.199 163.48,94.096 143.973,94.495 
					125.751,104.179 144.534,93.087 165.694,92.353 183.643,99.175 199.858,112.689 				"/>
			</g>
		</g>
	</g>
	<g id="char-start">
		<g id="left-leg-start_1_">
			<g id="first-left-leg-start_3_">
				<path id="left-foot-start_3_" fill="#F5B68B" d="M539.988,377.454l-0.64-2.187c-0.228-0.779-0.856-1.376-1.645-1.565
					l-0.823-0.197c-1.714-0.409-3.519-0.197-5.091,0.6l-0.786,0.398c-0.625,0.317-1.063,0.913-1.178,1.604l-0.694,4.165l-1.544,1.78
					c-1.011,1.166-1.321,2.785-0.812,4.242l0,0c0.31,0.889,0.937,1.632,1.76,2.088l9.681,5.364c0.357,0.198,0.704,0.415,1.038,0.65
					l10.859,7.645c0.923,0.65,2.063,0.914,3.177,0.736l0.279-0.045c0.826-0.132,1.544-0.64,1.942-1.376l0,0
					c0.33-0.609,0.184-1.366-0.348-1.809l-4.306-3.583l4.34,3.153c0.661,0.48,1.58,0.372,2.111-0.249l0.377-0.44
					c0.567-0.662,0.484-1.659-0.184-2.219l-3.358-2.816l3.714,2.618c0.597,0.421,1.422,0.277,1.841-0.321l0.364-0.519
					c0.409-0.583,0.281-1.385-0.289-1.813l-3.106-2.329l3.233,2.069c0.615,0.394,1.435,0.188,1.791-0.449l0.044-0.079
					c0.318-0.569,0.153-1.288-0.382-1.66l-2.67-1.86l2.738,1.573c0.582,0.335,1.326,0.133,1.66-0.45l0.048-0.084
					c0.365-0.637,0.085-1.451-0.595-1.728l-6.961-2.845l-7.555-2.68l-3.5-1.519c-0.739-0.321-1.438-0.728-2.082-1.212l-1.28-0.962
					C540.596,378.721,540.185,378.129,539.988,377.454z"/>
				<path fill="#F5B68B" d="M545.459,314.339l1.434,0.678c1.014,0.479,1.911,1.173,2.63,2.034l0,0
					c0.885,1.059,1.324,2.421,1.223,3.797l-0.803,11.01c-0.143,1.96-0.367,3.914-0.671,5.856l-1.122,6.297
					c-0.262,1.674-0.573,3.342-0.979,4.987c-1.903,7.701-6.705,25.517-7.85,29.755c-0.153,0.568-0.599,1.009-1.168,1.158
					l-1.598,0.418c-1.587,0.416-3.277,0.063-4.566-0.951l-1.538-1.211c-0.439-0.346-0.69-0.875-0.676-1.433
					c0.067-2.778,0.279-11.292,0.391-13.74c0.119-2.605,0.231-6.677,0.208-9.569c-0.01-1.274-0.059-3.827-0.2-5.094
					c-0.326-2.91-1.204-6.713-1.177-10.644c0.018-2.582,1.596-10.203,1.596-10.203c0.473-3.025,1.316-5.981,2.509-8.801l0.567-1.341
					c0.494-1.169,1.4-2.116,2.545-2.662l0.701-0.334c1.33-0.634,2.788-0.952,4.261-0.93l0.334,0.005
					C542.877,313.442,544.223,313.755,545.459,314.339z"/>
			</g>
			<g id="second-left-leg-start_3_">
				<path fill="#F5B68B" d="M509.903,268.591l-2.769,1.584c-1.556,0.89-2.599,2.465-2.811,4.246l-0.114,0.959
					c-0.247,2.077,0.053,4.182,0.869,6.108l1.737,4.099c0.275,0.82,0.633,1.609,1.07,2.355c0.525,0.898,1.17,1.961,1.43,2.38
					l5.926,9.528l9.49,14.015c1.203,1.777,2.514,3.479,3.925,5.096l5.885,6.747c1.895,2.173,4.807,3.167,7.635,2.608l1.532-0.303
					c1.726-0.341,3.261-1.315,4.305-2.731l0.866-1.174c0.921-1.249,1.363-2.787,1.247-4.335l-0.18-2.395
					c-0.081-1.08-0.374-2.134-0.863-3.1l-4.778-9.458c-1.106-2.189-2.311-4.326-3.612-6.404l-7.871-12.573
					c-1.305-2.085-2.71-4.106-4.209-6.056l-5.459-7.101c-0.52-0.676-1.095-1.307-1.72-1.886l-0.89-0.825
					c-1.349-1.25-3.039-2.071-4.856-2.359l-0.246-0.039C513.534,267.274,511.58,267.632,509.903,268.591z"/>
				<path id="s_x5F_l-shortright-foot-start_3_" fill="#C5DB89" d="M510.143,267.405l-5.92,3.548l-0.578,3.414
					c-0.306,1.81-0.186,3.666,0.351,5.421l0.489,1.597c0.984,3.215,2.305,6.317,3.942,9.253l5.555,9.969l6.613,9.699l6.538,8.532
					c0,0,2.905-2.246,3.908-2.946c2.379-1.659,4.946-2.817,7.425-4.167l0,0c2.541-1.383,3.939-1.366,6.79-1.852l2.816-0.237
					l-7.372-13.289c-1.171-2.111-2.469-4.15-3.886-6.104l-5.426-8.662c-1.792-2.472-3.744-4.824-5.843-7.04l-5.129-5.414
					l-4.368-2.467L510.143,267.405z"/>
			</g>
		</g>
		<g id="right-leg-start_1_">
			<g id="first-right-leg-start_3_">
				<path id="right-foot-start_3_" fill="#F5B68B" d="M475.19,383.235l-0.158-1.535c-0.103-0.998-0.636-1.901-1.46-2.472
					l-0.843-0.584c-1.676-1.162-2.786-1.178-4.744-0.739c-0.484,0.109-1.885,0.626-1.885,0.626
					c-0.745,0.365-1.396,0.927-1.996,1.916c-0.608,1.003-1.627,4.399-1.627,4.399l-2.405,2.299c-0.895,0.856-1.33,2.088-1.169,3.316
					l0,0c0.181,1.386,0.898,2.645,1.996,3.509l6.875,5.408c0.66,0.519,1.292,1.075,1.892,1.663l9.132,8.956
					c0.436,0.428,1.041,0.638,1.648,0.574l0.564-0.06c0.769-0.081,1.222-0.903,0.88-1.597l-1.088-2.206l1.779,2.606
					c0.391,0.573,1.073,0.875,1.761,0.78l0.591-0.082c0.669-0.093,1.085-0.776,0.86-1.413l-1.191-3.377l1.643,3.338
					c0.307,0.623,1.056,0.886,1.684,0.59l0.676-0.318c0.649-0.305,0.918-1.087,0.594-1.727l-1.759-3.474l2.15,3.421
					c0.414,0.659,1.244,0.921,1.961,0.62l1.021-0.429c0.859-0.361,1.122-1.45,0.523-2.164l-2.702-3.216l3.864,3.165
					c0.548,0.449,1.31,0.53,1.94,0.206l0,0c0.806-0.414,1.417-1.129,1.701-1.989l0,0c0.342-1.034-0.058-2.169-0.973-2.76
					l-8.551-5.529l-11.075-8.993L475.19,383.235z"/>
				<path fill="#F5B68B" d="M499.543,325.817l1.88,1.774c0.785,0.741,1.404,1.64,1.816,2.637l0,0
					c0.586,1.418,0.581,3.011-0.015,4.424l-4.285,10.175c-0.776,1.842-1.631,3.649-2.562,5.417l-4.086,7.751
					c-0.721,1.368-1.498,2.706-2.332,4.009c-4.178,6.522-14.087,21.212-16.473,24.743c-0.339,0.502-0.834,0.878-1.409,1.071
					l-1.356,0.454c-1.311,0.439-2.743,0.34-3.981-0.277l-0.201-0.1c-1.736-0.865-2.441-2.512-2.58-4.446l-0.059-0.816
					c-0.079-1.105,0.116-2.213,0.569-3.224l3.222-8.257c0.805-1.895,3.42-8.15,3.993-10.127l1.447-5.671
					c0.958-3.308,0.909-8.72,2.515-11.766l5.576-10.576c1.181-2.241,2.646-4.32,4.357-6.187l1.091-1.19
					c1.211-1.321,2.869-2.145,4.652-2.312l0.846-0.079c1.067-0.1,2.142,0.038,3.149,0.405l1.741,0.634
					C497.982,324.619,498.828,325.141,499.543,325.817z"/>
			</g>
			<g id="second-right-leg-start_3_">
				<path fill="#F5B68B" d="M492.594,265.959l-0.914-0.067c-2.696-0.199-5.38,0.516-7.619,2.029l-0.457,0.309
					c-1.483,1.002-2.435,2.619-2.591,4.402l-0.802,9.183c-0.162,1.851-0.218,3.71-0.17,5.567l0.307,11.717l1.134,16.893
					c0.16,2.382,0.472,4.752,0.936,7.095l1.748,8.841c0.547,2.765,2.542,5.021,5.22,5.901l0.961,0.316
					c2.421,0.795,5.046,0.7,7.403-0.269l0.607-0.249c1.442-0.593,2.626-1.68,3.34-3.066l1.245-2.417
					c0.456-0.885,0.725-1.854,0.792-2.848l0.799-11.922c0.123-1.834,0.157-3.673,0.104-5.511l-0.468-15.971
					c-0.076-2.58-0.281-5.155-0.617-7.714l-0.605-7.673c-0.238-3.02-0.853-5.998-1.832-8.865l0,0
					c-0.56-1.64-1.695-3.021-3.195-3.888l-0.558-0.322C495.903,266.585,494.273,266.083,492.594,265.959z"/>
				<path id="s_x5F_r-short-start_3_" fill="#C5DB89" d="M484.068,267.915l3.45-2.33l8.685,0.641l5.4,4.468l1.693,8.035
					c0.27,1.28,0.461,2.576,0.574,3.88l1.397,16.2l0.726,16.618l-0.512,8.851c-4.158-0.945-5.902-0.753-10.164-0.63l0,0
					c-3.243,0.094-4.61-0.134-7.775,0.577l-6.192,1.277l-1.47-12.191c-0.087-1.117-0.14-2.236-0.161-3.355l-0.31-16.55l0.29-11.442
					c0.066-2.611,0.329-5.213,0.785-7.784l0.183-1.028C481.045,271.017,482.272,269.128,484.068,267.915z"/>
			</g>
		</g>
		<path id="ass-start_1_" fill="#C5DB89" d="M484.094,261.252l-1.96,6.123c-0.701,2.19-1.122,4.459-1.253,6.755l0,0l12.975,1.987
			l8.089,3.802c2.203,1.248,4.944,1.025,6.918-0.561l5.559-4.369l6.411-2.595l0,0c0.157-1.763,0.049-3.539-0.321-5.27l-1.02-4.781v0
			c-4.168,2.768-9.057,4.25-14.061,4.263h0c-6.291,0.016-12.511-1.327-18.235-3.938L484.094,261.252z"/>
		<g id="hba-start_1_">
			<g id="left-arm-start_3_">
				<path id="second-left-arm-start_3_" fill="#F5B68B" d="M520.639,196.744L520.639,196.744c0.063-1.489,0.549-2.928,1.4-4.151
					l0.474-0.68c0.935-1.343,2.256-2.369,3.788-2.943l1.298-0.486c1.512-0.566,3.189-0.493,4.645,0.203l3.101,1.482
					c1.479,0.707,2.842,1.636,4.041,2.754l2.333,2.176c1.188,1.108,2.566,1.993,4.068,2.612l3.665,1.51
					c1.558,0.642,3.064,1.402,4.506,2.273l10.169,6.144c2.147,1.297,4.178,2.776,6.071,4.421l4.484,3.897
					c0.766,0.665,1.341,1.522,1.668,2.482l0.48,1.409c0.455,1.335,0.324,2.8-0.361,4.033l-0.335,0.604
					c-1.01,1.821-2.898,2.981-4.979,3.061l-1.019,0.039c-0.787,0.03-1.574-0.083-2.321-0.333l-4.542-1.523
					c-3.336-1.118-6.574-2.509-9.682-4.158l-10.922-5.794c-2.59-1.374-5.038-3.001-7.308-4.857l-0.546-0.446
					c-0.898-0.734-1.903-1.327-2.98-1.757l-3.352-1.338c-1.04-0.415-1.994-1.02-2.815-1.783l-1.758-1.635
					c-0.786-0.731-1.432-1.601-1.904-2.565l-0.689-1.408C520.825,198.978,520.591,197.864,520.639,196.744z"/>
				<g id="first-left-arm-start_3_">
					<path id="left-palm-start_3_" fill="#F5B68B" d="M590.974,183.278c0.416-0.047,0.815-0.189,1.168-0.415l2.772-1.778
						c1.587-1.018,3.116-2.227,4.078-3.848c1.084-1.826,7.296-12.142,7.296-12.142c0.305-0.419,0.24-1.001-0.149-1.343l-0.439-0.386
						c-0.419-0.368-1.058-0.324-1.423,0.099l-5.404,8.369l4.984-11.078c0.304-0.46,0.222-1.073-0.192-1.437l-0.489-0.43
						c-0.466-0.41-1.178-0.355-1.576,0.122l-5.597,11.069l4.671-12.854c0.376-0.563,0.277-1.317-0.231-1.764l-0.62-0.545
						c-0.602-0.529-1.529-0.421-1.993,0.233l-5.035,12.766l2.978-11.73c0.154-0.763,0.181-1.221-0.285-1.63l-0.518-0.456
						c-0.612-0.538-1.56-0.399-1.992,0.291l-4.26,13.203c-0.037,0.113-0.26,0.193-0.26,0.193c-0.251,0.005-0.479-0.147-0.57-0.381
						l-0.379-0.977l-0.677-2.567c-0.086-0.327-0.148-0.659-0.186-0.995l-0.174-1.538c-0.074-0.66-0.764-1.061-1.374-0.799
						l-0.388,0.166c-0.505,0.216-0.853,0.69-0.908,1.236l-0.13,1.286c-0.193,1.901-0.13,3.818,0.188,5.701
						c0.415,2.464,0.96,5.698,1.025,6.08l0.645,3.797l0.176,1.352c0.092,0.703,0.463,1.339,1.031,1.763l0.639,0.479
						c0.967,0.724,2.174,1.051,3.374,0.915L590.974,183.278z"/>
					<path fill="#F5B68B" d="M591.864,183.663l-4.154,13.98c-0.259,0.872-0.493,1.752-0.701,2.638l-2.736,11.643
						c-0.299,1.273-0.686,2.523-1.159,3.742l-1.591,4.101c-0.617,1.589-1.443,3.089-2.456,4.459l-0.644,0.87
						c-0.947,1.28-2.213,2.288-3.672,2.924l-0.545,0.238c-0.971,0.424-2.067,0.462-3.066,0.108l-1.835-0.651
						c-1.384-0.491-2.571-1.416-3.385-2.638l0,0c-0.582-0.874-0.853-1.92-0.768-2.967l0.104-1.284
						c0.223-2.753,0.964-5.439,2.186-7.916l2.76-5.598c0.575-1.167,1.241-2.286,1.99-3.349l3.476-4.931
						c1.245-1.766,2.328-3.64,3.237-5.6l6.192-13.353c0.265-0.572,0.753-1.009,1.35-1.212l1.384-0.469l2.684,1.49l1.125,1.916
						C591.967,182.366,592.049,183.039,591.864,183.663z"/>
				</g>
			</g>
			<g id="body-start_3_">
				<path fill="#F5B68B" d="M490.281,177.318l-0.175,2.758c-0.064,1.001-0.622,1.904-1.488,2.409l-0.501,0.292
					c-1.092,0.636-2.288,1.074-3.533,1.292l-4.67,0.819c-2.622,0.46-5.196,1.163-7.688,2.1l-3.649,1.372
					c-1.51,0.567-2.646,1.838-3.041,3.402l-0.349,1.383c-0.409,1.62-0.502,3.303-0.274,4.958l0.129,0.932
					c0.268,1.939,1.56,3.583,3.38,4.302l0.811,0.32c2.061,0.814,3.664,2.488,4.387,4.583l3.266,9.465l3.828,18.968
					c0.175,0.868,0.322,1.741,0.439,2.618l2.697,20.143c0.162,1.209,0.455,2.397,0.875,3.543l0,0c0.48,1.31,1.577,2.297,2.93,2.636
					l3.392,0.851c8.112,2.034,16.589,2.125,24.743,0.264l0,0c1.409-0.322,2.561-1.33,3.067-2.684l0,0
					c0.422-1.132,0.749-2.297,0.977-3.483l5.635-29.318c0.422-2.193,0.978-4.358,1.665-6.483l1.505-4.649l3.1-11.613
					c0.157-0.587,0.356-1.161,0.596-1.719l1.023-2.376c0.797-1.851,1.193-3.851,1.161-5.866l-0.034-2.137
					c-0.018-1.155-0.391-2.276-1.067-3.211v0c-1.258-1.74-2.876-3.189-4.744-4.249l-1.199-0.68
					c-1.727-0.979-3.587-1.703-5.522-2.147l-3.986-0.916l-3.706-1.246c-0.598-0.201-1.134-0.551-1.559-1.017l-0.394-0.432
					c-0.607-0.666-0.95-1.529-0.967-2.429l-0.139-7.46l-20.775-7.989L490.281,177.318z"/>
				<path id="shirt-start_3_" fill="#FFFEF5" d="M480.094,233.597l1.391,9.082c0.646,4.219,1.084,8.467,1.312,12.729l0.454,8.476
					l4.563,2.061c2.457,1.11,5.05,1.89,7.711,2.322l5.769,0.935c3.711,0.601,7.503,0.493,11.173-0.32l0,0
					c2.175-0.482,4.24-1.369,6.086-2.615l1.552-1.047l1.271-10.917c0.348-2.989,0.807-5.965,1.375-8.92l1.977-10.284l2.407-10.341
					l2.261-7.483l-1.005-2.5c-1.235-3.072-2.154-6.262-2.744-9.52l-0.323-1.783c-0.401-2.217-0.649-4.459-0.741-6.709l-0.41-10.007
					l-4.529-1.176l-0.126,6.203c-0.06,2.948-0.335,5.888-0.825,8.796l-0.786,4.667c-0.419,2.489-1.565,4.799-3.294,6.639v0
					c-2.709,2.884-7.178,3.206-10.273,0.741l-1.888-1.503c-2.608-2.077-4.867-4.558-6.69-7.35l-4.43-6.782
					c-1.059-1.621-2.018-3.305-2.873-5.043l-3.875-7.88l-4.67,0.819l2.285,9.429c0.68,2.808,0.96,5.698,0.831,8.584l-0.145,3.242
					c-0.141,3.143-1.054,6.203-2.658,8.909l-2.891,4.878L480.094,233.597z"/>
			</g>
			<g id="head-start_3_">
				<g>
					<polygon fill="#E7F7F5" points="514.324,142.778 512.37,139.058 507.658,137.582 502.329,138.366 499.831,141.361 
						499.954,144.611 501.963,148.204 506.387,149.808 511.163,149.312 513.551,146.276 					"/>
					
						<ellipse transform="matrix(0.0634 -0.998 0.998 0.0634 331.3214 640.812)" fill="#803D3C" cx="507.077" cy="143.882" rx="2.784" ry="3.115"/>
				</g>
				<g>
					<polygon fill="#E7F7F5" points="518.601,142.871 520.814,139.543 525.272,138.692 529.112,140.208 530.837,142.448 
						530.63,145.704 529.439,148.697 525.127,149.891 521.172,149.139 519.144,146.408 					"/>
					
						<ellipse transform="matrix(0.0634 -0.998 0.998 0.0634 346.9259 658.799)" fill="#803D3C" cx="524.463" cy="144.562" rx="2.716" ry="2.956"/>
				</g>
				<path fill="#EDB189" d="M499.481,146.861l3.074,0.863c1.492,0.419,3.026,0.671,4.574,0.752l0.026,0.001
					c1.691,0.088,3.387-0.028,5.05-0.347l1.801-0.345l-0.363,5.717l-14.525-0.923L499.481,146.861z"/>
				<path fill="#EDB189" d="M518.298,147.637l3.044,0.729c1.214,0.291,2.456,0.449,3.704,0.473l0.04,0.001
					c1.202,0.023,2.403-0.079,3.583-0.305l1.803-0.345l-0.341,5.358l-12.16-0.773L518.298,147.637z"/>
				<path fill="#EDB189" d="M499.831,141.361l2.438-0.665c1.125-0.307,2.285-0.463,3.45-0.465l1.708-0.003
					c0.783-0.001,1.565,0.067,2.337,0.204l0.297,0.053c1.441,0.256,2.83,0.75,4.109,1.46l0.2,0.111l0.469-7.373l-14.525-0.923
					L499.831,141.361z"/>
				<path fill="#EDB189" d="M530.837,142.448l-1.563-0.48c-1.335-0.411-2.718-0.647-4.114-0.702l0,0
					c-1.895-0.075-3.789,0.183-5.595,0.763l-0.93,0.299l0.469-7.373l12.16,0.773L530.837,142.448z"/>
				<path fill="#C46D46" d="M485.835,155.26l0.064,2.118c0.068,2.254,0.462,4.486,1.171,6.626l0,0
					c0.259,0.784,0.646,1.52,1.144,2.179l1.082,1.432l0.983-1.13l0.135-2.12l-3.849-9.181L485.835,155.26z"/>
				<path fill="#FFBE92" d="M531.173,120.563L531.173,120.563c-2.271-3.818-5.927-6.613-10.208-7.801l-3.326-0.924
					c-2.608-0.724-5.31-1.059-8.016-0.992l-4.936,0.122c-3.948,0.098-7.822,1.093-11.327,2.912v0
					c-3.395,1.761-5.959,4.788-7.139,8.426v0c-0.967,2.982-1.485,6.092-1.537,9.227l-0.098,5.868l-2.328,1.032
					c-1.012,0.449-1.775,1.318-2.09,2.379l-0.401,1.353c-0.517,1.746-0.545,3.6-0.08,5.36l0.337,1.275
					c0.453,1.715,1.299,3.3,2.471,4.632l0.483,0.549c0.893,1.015,2.261,1.474,3.586,1.203l0,0l1.534,4.186
					c0.957,2.611,2.327,5.251,3.807,7.387l1.685,2.46c1.006,1.469,2.194,2.803,3.535,3.973l3.508,3.056
					c0.969,0.844,2.031,1.574,3.165,2.177l2.757,1.465c1.501,0.797,3.128,1.331,4.81,1.579l2.005,0.295
					c1.801,0.265,3.638,0.144,5.389-0.356l0.642-0.183c2.123-0.605,3.86-2.134,4.731-4.163l0.929-2.164
					c1.604-3.737,2.819-7.628,3.626-11.614l2.41-11.903l1.823-12.191l0,0c0.385-2.574,0.505-5.18,0.358-7.778l-0.273-4.841
					C532.887,124.448,532.258,122.388,531.173,120.563z M512.959,147.029l-0.675,0.858c-0.717,0.911-1.772,1.493-2.925,1.613
					l-0.963,0.1c-1.322,0.137-2.658-0.027-3.907-0.48l-0.848-0.307c-1.082-0.392-1.987-1.161-2.549-2.166l-0.59-1.054
					c-0.361-0.645-0.563-1.366-0.591-2.105l-0.022-0.592c-0.037-0.988,0.292-1.955,0.925-2.714l0.264-0.317
					c0.805-0.965,1.938-1.6,3.181-1.783l1.245-0.183c1.418-0.209,2.864-0.095,4.231,0.334l0.529,0.166
					c1.349,0.423,2.475,1.362,3.132,2.614l0.318,0.605c0.394,0.75,0.51,1.616,0.327,2.443l-0.283,1.282
					C513.622,145.957,513.349,146.534,512.959,147.029z M530.484,146.072l-0.429,1.078c-0.388,0.975-1.21,1.712-2.221,1.992
					l-1.111,0.308c-1.05,0.291-2.153,0.336-3.223,0.133l-0.494-0.094c-1.179-0.224-2.231-0.883-2.946-1.847l-0.269-0.363
					c-0.424-0.571-0.702-1.238-0.81-1.941l-0.205-1.335c-0.112-0.728,0.052-1.471,0.46-2.084l0.482-0.726
					c0.702-1.055,1.798-1.784,3.043-2.021l0.637-0.122c1.224-0.234,2.49-0.115,3.649,0.343l0.762,0.301
					c0.853,0.337,1.599,0.899,2.159,1.625l0.237,0.308c0.408,0.529,0.609,1.189,0.567,1.855l-0.116,1.826
					C530.639,145.571,530.581,145.828,530.484,146.072z"/>
				<path fill="#FFAE7B" d="M520.354,174.395l-1.395,1.045c-1.011,0.757-2.251,1.145-3.514,1.099l0,0
					c-1.235-0.045-2.449-0.342-3.566-0.872l-2.389-1.134l3.539,0.737c0.312,0.065,0.628,0.108,0.947,0.128l1.747,0.111
					c0.819,0.052,1.64-0.062,2.415-0.334L520.354,174.395z"/>
				<g id="beards-start_3_">
					<path id="beard10-start_3_" fill="#B57759" d="M528.078,160.142L528.078,160.142c-0.41,0.367-0.891,0.645-1.413,0.818
						l-0.263,0.087c-1.106,0.365-2.275,0.497-3.435,0.389l0,0c-0.416-0.039-0.834-0.053-1.252-0.044l-2.036,0.047l-3.214-0.045
						c-0.816-0.011-1.63-0.083-2.435-0.215l-1.33-0.218c-1.76-0.288-3.545-0.384-5.326-0.288l0,0
						c-0.54,0.029-1.081,0.007-1.616-0.065l-2.116-0.285c-0.948-0.128-1.868-0.413-2.722-0.842l0,0
						c-1.137-0.572-2.132-1.389-2.916-2.392l-0.973-1.245c-0.758-0.97-1.414-2.017-1.958-3.122l-0.364-0.741
						c-0.758-1.54-1.184-3.222-1.252-4.938l-0.077-1.958l-3.753,2.993l0.034,0.277c0.181,1.482,0.138,2.983-0.128,4.452l-0.163,0.9
						c-0.171,0.943-0.418,1.871-0.74,2.774l-0.339,0.95c-0.217,0.607-0.352,1.24-0.401,1.883l0,0c-0.058,0.75,0,1.504,0.173,2.236
						l1.271,5.384c0.676,2.864,1.677,5.642,2.983,8.279v0c0.927,1.871,2.147,3.582,3.615,5.067l0.784,0.793
						c2.39,2.418,5.317,4.237,8.543,5.311v0c2.888,0.961,5.93,1.37,8.969,1.207l1.715-0.092c2.396-0.129,4.706-0.932,6.666-2.317
						l0,0c1.466-1.036,2.6-2.476,3.263-4.145l0.066-0.167c1.149-2.891,1.995-5.892,2.525-8.958l0.565-3.267
						c0.31-1.79,0.542-3.593,0.696-5.403l0.749-8.773l-1.255,3.915C529.001,159.062,528.607,159.668,528.078,160.142z
						 M526.728,165.837l-1.487,4.172c-0.346,0.969-0.839,1.879-1.463,2.698l-0.682,0.894c-0.697,0.914-1.623,1.629-2.685,2.07
						l-0.816,0.339c-1.072,0.446-2.222,0.675-3.383,0.675h-1.38c-0.551,0-1.102-0.045-1.646-0.136l-1.449-0.241
						c-0.836-0.139-1.656-0.363-2.448-0.667l-0.054-0.021c-1.316-0.511-2.523-1.268-3.556-2.232
						c-0.717-0.669-1.298-1.472-1.734-2.351l-0.487-0.982c-0.582-1.173-0.942-2.444-1.06-3.749l-0.186-2.056
						c-0.047-0.52,0.368-0.965,0.89-0.954l3.518,0.074c0.258,0.005,0.516,0.003,0.774-0.008l3.478-0.144
						c0.888-0.037,1.777,0.007,2.658,0.129l2.177,0.304c0.763,0.106,1.532,0.158,2.302,0.155l3.624-0.015
						c0.471-0.002,0.942,0.028,1.41,0.089l1.387,0.182c0.655,0.086,1.282,0.314,1.839,0.669l0.101,0.064
						C526.718,165.017,526.867,165.449,526.728,165.837z"/>
					<path id="beard12-start_3_" fill="#AA6950" d="M529.207,158.87c-0.146,0.636-0.567,1.174-1.148,1.47l-1.091,0.555
						c-0.651,0.331-1.377,0.487-2.107,0.452l-4.669-0.223c-0.005,0-0.01,0-0.015,0l-2.16,0.198c-0.331,0.03-0.664,0.024-0.994-0.019
						l-6.059-0.785c-0.397-0.051-0.798-0.077-1.198-0.077h-3.814c-1.041,0-2.076-0.157-3.071-0.465l-2.043-0.634
						c-1.289-0.4-2.372-1.288-3.016-2.474l-2.446-4.503c-0.436-0.803-0.758-1.664-0.955-2.557l-1.041-4.723l-3.753,2.993v4.979
						c-0.002,1.127-0.256,2.239-0.745,3.254l-0.437,0.909c-0.426,0.885-0.605,1.866-0.52,2.844c0.187,2.139,0.532,5.973,0.648,7.577
						c0.041,0.569,0.649,4.055,0.921,5.396c0.293,1.445,0.774,2.845,1.362,4.197v0c0.951,2.186,2.164,4.249,3.613,6.141l0.542,0.708
						c1.452,1.896,3.221,3.527,5.228,4.821l0.853,0.55c2.357,1.519,4.975,2.587,7.722,3.151l1.503,0.308
						c1.672,0.343,3.384,0.449,5.086,0.315l1.854-0.146c1.927-0.152,3.794-0.739,5.461-1.717v0c1.618-0.949,2.872-2.412,3.565-4.155
						l0,0c0.674-1.698,1.186-3.456,1.529-5.25l0.844-4.414c0.265-1.386,0.461-2.784,0.587-4.189l2.164-24.051L529.207,158.87z
						 M526.56,165.226l-0.156,0.834c-0.17,0.906-0.427,1.794-0.769,2.65l-0.286,0.716c-0.487,1.22-1.136,2.37-1.931,3.416
						l-0.326,0.43c-0.773,1.018-1.779,1.835-2.934,2.382l-0.049,0.024c-0.904,0.428-1.883,0.673-2.882,0.719l-2.117,0.099
						c-0.654,0.031-1.31-0.017-1.953-0.14l-1.787-0.344c-1.244-0.239-2.44-0.687-3.536-1.323l-1.05-0.61
						c-1.112-0.646-1.997-1.619-2.536-2.787l-0.713-1.546c-0.513-1.112-0.838-2.301-0.964-3.519l-0.211-2.047
						c-0.047-0.449,0.311-0.838,0.763-0.828l3.306,0.071l4.626-0.143c0.679-0.021,1.359,0.017,2.032,0.113l2.309,0.33
						c0.483,0.069,0.97,0.098,1.458,0.087l2.428-0.055l2.011-0.008c0.699-0.002,1.397,0.052,2.086,0.164l0.416,0.068
						c0.87,0.141,1.716,0.399,2.517,0.765C526.495,164.83,526.597,165.028,526.56,165.226z"/>
					<path id="beard14-start_3_" fill="#AB633E" d="M529.207,158.87c-0.146,0.636-0.567,1.174-1.148,1.47l-1.091,0.555
						c-0.651,0.331-1.377,0.487-2.107,0.452l-4.669-0.223c-0.005,0-0.01,0-0.015,0l-2.16,0.198c-0.331,0.03-0.664,0.024-0.994-0.019
						l-6.059-0.785c-0.397-0.051-0.798-0.077-1.198-0.077h-3.814c-1.041,0-2.076-0.157-3.071-0.465l-2.043-0.634
						c-1.289-0.4-2.372-1.288-3.016-2.474l-2.446-4.503c-0.436-0.803-0.758-1.664-0.955-2.557l-1.041-4.723l-3.753,2.993v4.979
						c-0.002,1.127-0.256,2.239-0.745,3.254l-1.08,2.246c-0.018,0.058,0.32,4.51,0.323,4.571c0,0,0.534,5.652,0.606,6.218
						l0.822,6.414c0.367,2.859,1.185,5.642,2.424,8.244v0c0.856,1.798,1.951,3.472,3.255,4.977l1.179,1.361
						c2.149,2.48,4.688,4.593,7.519,6.254l1.582,0.928c2.132,1.251,4.438,2.181,6.842,2.758l0.789,0.189
						c1.958,0.47,3.999,0.473,5.958,0.01l0,0c1.666-0.394,3.162-1.313,4.266-2.622l0,0c1.192-1.412,2-3.107,2.347-4.922
						l2.282-11.935c0.705-3.688,1.227-7.408,1.563-11.147l1.849-20.548L529.207,158.87z M526.56,165.226l-0.156,0.834
						c-0.169,0.907-0.427,1.794-0.769,2.651l-0.286,0.716c-0.488,1.221-1.138,2.371-1.932,3.419l-0.311,0.41
						c-0.777,1.024-1.787,1.847-2.947,2.4l-0.049,0.024c-0.896,0.428-1.869,0.672-2.862,0.718l-2.138,0.1
						c-0.654,0.031-1.31-0.017-1.954-0.14l-1.79-0.344c-1.243-0.239-2.438-0.686-3.532-1.323l-1.051-0.611
						c-1.111-0.646-1.997-1.619-2.535-2.787l-0.713-1.546c-0.513-1.112-0.839-2.301-0.964-3.519l-0.211-2.047
						c-0.046-0.449,0.312-0.838,0.763-0.828l3.306,0.071l4.628-0.143c0.679-0.021,1.358,0.017,2.03,0.113l2.309,0.33
						c0.482,0.069,0.968,0.098,1.455,0.087l2.431-0.055l2.011-0.008c0.699-0.003,1.398,0.052,2.088,0.165l0.414,0.067
						c0.872,0.141,1.721,0.4,2.524,0.769C526.499,164.832,526.597,165.031,526.56,165.226z"/>
				</g>
				<path fill="#FF957B" d="M516.712,144.15L516.712,144.15c0.477-0.18,1.002,0.106,1.111,0.604l1.454,6.686
					c0.282,1.297,0.66,2.571,1.132,3.812l0.676,1.778c0.211,0.555,0.3,1.148,0.263,1.741l-0.027,0.431
					c-0.044,0.684-0.476,1.283-1.113,1.539l0,0c-0.984,0.395-2.064,0.487-3.1,0.264l0,0c-0.411-0.089-0.826-0.154-1.244-0.197
					l-3.393-0.344c-0.621-0.063-1.162-0.449-1.422-1.016v0c-0.241-0.524-0.211-1.133,0.081-1.631l0.249-0.426
					c0.322-0.55,0.831-0.966,1.435-1.172l0.237-0.081c0.818-0.279,1.478-0.892,1.817-1.686l0,0c0.263-0.616,0.419-1.271,0.461-1.939
					l0.205-3.231l0.28-3.925C515.851,144.813,516.202,144.342,516.712,144.15z"/>
				<polygon fill="#A35E3F" points="499.719,136.606 505.767,135.322 510.299,135.721 514.012,137.283 514.786,135.509 
					514.487,132.956 509.643,131.701 503.592,131.731 500.811,132.466 499.86,134.394 				"/>
				<polygon fill="#A35E3F" points="519.652,137.641 523.616,136.457 528.128,136.814 530.922,138.071 530.852,135.701 
					530.138,134.33 526.507,133.656 522.958,133.43 520.162,133.737 519.551,135.756 				"/>
				<g>
					<path fill="#FF6452" d="M514.601,165.507l1.04,0.231c0.898,0.199,1.832,0.163,2.712-0.104l0.215-0.066
						c0.757-0.23,1.549-0.323,2.338-0.273l4.611,0.293l-4.165,2.227l-4.387,0.792l-7.625-0.843l-5.776-3.572l4.906,0.805
						c0.574,0.094,1.153,0.155,1.735,0.181l2.929,0.133C513.628,165.334,514.119,165.4,514.601,165.507z"/>
					<path fill="#FF6452" d="M514.897,171.164l-3.161-0.426c-1.317-0.177-2.575-0.653-3.681-1.39l-1.259-0.839
						c-1.394-0.93-2.462-2.273-3.053-3.841l-0.179-0.475l5.776,3.572l7.625,0.843l4.387-0.792l4.165-2.227l-1.876,2.379
						c-0.808,1.024-1.885,1.803-3.11,2.25l-1.316,0.48C517.834,171.2,516.353,171.361,514.897,171.164z"/>
					<path fill="none" stroke="#CF1F11" stroke-miterlimit="10" d="M524.616,166.071l-1.503,0.804
						c-1.166,0.624-2.423,1.061-3.724,1.296l-0.793,0.143c-1.081,0.195-2.185,0.233-3.277,0.112l-2.061-0.228
						c-2.579-0.285-5.063-1.141-7.27-2.506l-1.329-0.822"/>
				</g>
				<path fill="#FF957B" d="M484.972,150.469l0.023-2.851c0.006-0.729,0.279-1.43,0.767-1.971l0,0
					c0.385-0.427,0.944-0.654,1.517-0.618l0.523,0.033l-0.619-1.75c-0.206-0.583-0.602-1.079-1.125-1.409l-0.136-0.086
					c-0.59-0.373-1.297-0.516-1.985-0.402l0,0c-0.695,0.115-1.291,0.56-1.598,1.193l-0.052,0.108
					c-0.471,0.973-0.581,2.081-0.31,3.128l0.176,0.681c0.191,0.739,0.557,1.421,1.067,1.989L484.972,150.469z"/>
				<path fill="#AB633E" d="M494.963,129.193l-1.006,6.814l-1.401-0.089l0.824,9.168l-3.753,2.993l0.07-5.463
					c0.009-0.71-0.139-1.413-0.434-2.059l-0.438-0.96c-0.375-0.822-1.105-1.427-1.982-1.642l-1.466-0.36
					c-0.512-0.126-1.051-0.078-1.533,0.136l0,0l-0.178-6.029L494.963,129.193z"/>
				<polygon fill="#AB633E" points="531.408,130.697 532.319,133.474 532.792,140.049 533.5,135.317 534.115,132.594 
					534.367,130.098 				"/>
				<polygon fill="#AB633E" points="531.408,130.697 529.542,125.011 529.332,128.312 525.308,123.83 524.501,126.099 
					518.946,124.835 517.997,127.343 513.287,125.221 508.001,127.537 505.748,122.587 503.552,126.715 497.829,122.885 
					495.217,127.47 494.963,129.193 483.666,131.701 483.6,129.466 482.463,129.974 484.538,119.913 483.27,117.264 
					487.139,114.637 490.341,113.791 489.249,112.285 485.77,110.959 490.604,110.521 492.747,111.896 492.583,108.078 
					490.624,106.296 495.354,107.508 497.451,109.713 503.743,105.887 509.545,104.847 508.345,106.925 517.038,105.323 
					521.333,106.839 520.809,108.131 526.528,107.252 529.226,111.732 534.803,114.821 535.546,120.504 532.928,118.68 
					534.788,125.924 534.367,130.098 				"/>
			</g>
			<g id="right-arm-start_3_">
				<path id="second-right-arm-start_3_" fill="#F5B68B" d="M467.31,189.71l0.862-0.557c1.231-0.795,2.633-1.286,4.091-1.433
					l1.768-0.178c1.91-0.193,3.827,0.296,5.411,1.379v0c1.613,1.103,2.731,2.794,3.114,4.71l0.638,3.191
					c0.404,2.02,0.449,4.096,0.131,6.131l-0.298,1.911c-0.353,2.264-0.265,4.575,0.259,6.806l0.604,2.573
					c0.428,1.823,0.729,3.673,0.901,5.537l0.93,10.094c0.36,3.905,0.205,7.84-0.46,11.705l-0.809,4.7
					c-0.24,1.395-0.796,2.716-1.626,3.862l-0.125,0.172c-1.162,1.605-2.948,2.644-4.918,2.86l0,0
					c-2.107,0.231-4.181-0.655-5.471-2.337l-0.682-0.889c-0.511-0.666-0.908-1.412-1.175-2.208l-2.187-6.521
					c-1.024-3.053-1.722-6.207-2.083-9.407l-1.338-11.873c-0.274-2.431-0.326-4.882-0.157-7.323l0.224-3.22
					c0.076-1.093-0.016-2.191-0.272-3.256l-0.932-3.877c-0.266-1.107-0.419-2.239-0.457-3.377l-0.054-1.63
					c-0.047-1.403,0.29-2.792,0.974-4.018l0.25-0.448C465.12,191.541,466.111,190.484,467.31,189.71z"/>
				<g id="first-right-arm-start_3_">
					<g id="right-palm-start_3_">
						<g id="axes-start_4_">
							<path fill="#895938" d="M547.718,225.399l-138.929-88.786c-1.529-0.977-3.55-0.637-4.674,0.788l-1.362,1.726
								c-1.114,1.411-0.759,3.476,0.761,4.435l140.798,88.798c1.334,0.841,3.104,0.241,3.651-1.238l0.879-2.374
								C549.302,227.507,548.834,226.112,547.718,225.399z"/>
							<path fill="#B6B7B7" d="M402.561,159.232c-1.323-0.843-1.756-2.573-0.985-3.94l12.638-22.413l0.779-12.772l-4.38-20.96
								l52.792,33.202l-20.519,4.493l-12.695,7.174l-14.544,20.336c-0.886,1.239-2.586,1.568-3.87,0.75L402.561,159.232z"/>
							<path fill="#C4CCCC" d="M422.94,104.114l-12.328-4.965l2.628,12.575l4.191,1.667c10.789,4.292,20.757,10.412,29.466,18.092
								l4.073,3.591l12.434-2.723l-10.424-9.434C444.153,114.927,433.983,108.562,422.94,104.114z"/>
						</g>
						<path fill="#F5B68B" d="M519.765,227.088c1.079-0.186,2.089-0.656,2.925-1.363l1.703-1.439c1.6-1.352,2.933-2.99,3.933-4.83
							l3.911-7.487c0.264-0.486,0.114-1.092-0.345-1.4l-0.468-0.313c-0.495-0.331-1.164-0.195-1.491,0.303l-3.112,5.255l2.709-5.606
							c0.266-0.546,0.088-1.205-0.417-1.542l-0.46-0.308c-0.568-0.381-1.339-0.218-1.704,0.36l-3.128,5.399l2.738-5.617
							c0.328-0.665,0.112-1.47-0.504-1.883l-0.597-0.4c-0.729-0.489-1.721-0.238-2.131,0.538l-2.792,5.467l2.362-5.845
							c0.246-0.63,0.021-1.346-0.54-1.722l-0.494-0.331c-0.738-0.494-1.743-0.21-2.112,0.598l-4.146,9.124l-2.954-1.906l0.046,3.484
							c0.014,1.04,0.176,2.072,0.483,3.065l1.352,4.381l0.367,1.399c0.232,0.882,0.855,1.609,1.691,1.973l1.961,0.854
							L519.765,227.088z"/>
					</g>
					<path fill="#F5B68B" d="M518.278,228.476l-11.627,8.917c-0.875,0.671-1.718,1.383-2.527,2.134l-6.767,6.284
						c-1.832,1.701-3.813,3.233-5.92,4.578l-1.721,1.099c-2.16,1.379-4.491,2.47-6.934,3.244l-1.417,0.449
						c-1.273,0.404-2.629,0.466-3.934,0.18l-1.002-0.219c-1.135-0.249-2.133-0.919-2.793-1.876l-1.325-1.923
						c-0.723-1.05-1.087-2.305-1.036-3.579v0c0.053-1.35,0.559-2.642,1.437-3.668l1.664-1.945c1.863-2.178,4.122-3.984,6.657-5.323
						l4.656-2.457c2.137-1.128,4.377-2.047,6.69-2.744l1.626-0.49c4.458-1.344,8.759-3.163,12.829-5.425l7.885-4.382
						c0.606-0.337,1.306-0.465,1.992-0.366l1.16,0.168l1.898,3.709l-0.422,1.948C519.203,227.46,518.823,228.058,518.278,228.476z"
						/>
				</g>
			</g>
		</g>
	</g>
	<g>
		<g>
			<path fill="#BF723D" d="M707.326,339.428l2.27,60.552c0.08,2.146-1.313,4.07-3.377,4.664l-5.854,1.682
				c-12.664,3.639-25.818,5.28-38.988,4.865l0,0c-12.763-0.402-25.353-3.074-37.18-7.891l-5.046-2.055
				c-2.272-0.925-3.356-3.524-2.415-5.789l1.533-3.69c4.548-10.948,8.44-22.157,11.656-33.568l3.008-10.675L707.326,339.428z"/>
			<g>
				<path fill="#D48F63" d="M659.054,355.705c-5.729,0-11.456-0.592-17.022-1.759l-2.519-0.528c-1.572-0.33-2.912-1.193-3.771-2.43
					l-0.509-0.732c-0.742-1.068-0.605-2.445,0.34-3.427l0.587-0.61c1.499-1.558,3.442-2.652,5.619-3.165l7.119-1.675
					c5.377-1.265,10.882-2.257,16.361-2.948l7.08-0.893c5.056-0.638,10.2-0.96,15.29-0.96c4.174,0,8.39,0.217,12.529,0.646
					l2.923,0.303c0.831,0.086,1.549,0.499,1.971,1.131c0.493,0.74,0.487,1.674-0.016,2.439l-0.087,0.132
					c-2.054,3.123-5.046,5.554-8.652,7.029c-7.041,2.878-14.442,4.927-21.999,6.089l-2.49,0.383
					C667.598,355.377,663.307,355.705,659.054,355.705L659.054,355.705z"/>
				<path fill="#BF723D" d="M687.629,338.578c4.105,0,8.251,0.214,12.323,0.636l2.923,0.303c0.275,0.028,0.448,0.153,0.514,0.251
					c0.024,0.036,0.065,0.097-0.022,0.23l-0.087,0.132c-1.832,2.785-4.508,4.956-7.739,6.277
					c-6.895,2.819-14.144,4.825-21.546,5.963l-2.49,0.383c-4.109,0.632-8.297,0.952-12.449,0.952c-5.591,0-11.18-0.578-16.612-1.717
					l-2.518-0.528c-1.071-0.225-1.973-0.798-2.54-1.614l-0.509-0.733c-0.283-0.407,0.035-0.791,0.139-0.899l0.587-0.609
					c1.232-1.28,2.836-2.181,4.637-2.605l7.119-1.675c5.306-1.249,10.741-2.228,16.154-2.91l7.08-0.893
					C677.563,338.896,682.623,338.578,687.629,338.578 M687.629,334.578c-5.187,0-10.378,0.326-15.54,0.976l-7.08,0.893
					c-5.574,0.703-11.106,1.699-16.57,2.985l-7.119,1.675c-2.542,0.598-4.843,1.897-6.603,3.725l-0.586,0.609
					c-1.603,1.665-1.825,4.109-0.542,5.956l0.509,0.733c1.147,1.65,2.939,2.813,5.004,3.246l2.518,0.528
					c5.724,1.2,11.571,1.802,17.433,1.802c4.359,0,8.725-0.332,13.057-0.999l2.49-0.383c7.718-1.187,15.261-3.275,22.452-6.214h0
					c3.96-1.619,7.303-4.338,9.568-7.782l0.086-0.131c0.946-1.438,0.949-3.238,0.008-4.648c-0.75-1.124-2.01-1.863-3.429-2.01
					l-2.923-0.303C696.136,334.797,691.884,334.578,687.629,334.578L687.629,334.578z"/>
			</g>
			<polygon fill="#BF723D" points="707.419,341.595 706.899,326.223 704.745,329.041 703.331,327.415 700.631,333.051 
				699.988,329.149 698.959,334.352 697.673,332.834 697.235,334.951 700.727,348.346 707.419,346.31 			"/>
			<polygon fill="#D48F63" points="697.743,336.898 698.75,335.856 700.004,336.222 700.486,334.596 701.547,335.124 
				703.958,332.32 702.921,341.693 702.033,344.78 700.015,346.442 			"/>
			<path fill="#9F4D30" d="M627.388,366.857l4.76,2.458c6.447,3.329,13.478,5.379,20.704,6.036l0,0
				c4.006,0.364,8.042,0.21,12.008-0.46l5.909-0.998l-7.821,0.276c-3.52,0.124-7.042-0.15-10.5-0.817l-1.295-0.25
				c-5.917-1.142-11.612-3.227-16.866-6.177l-5.971-3.352L627.388,366.857z"/>
		</g>
		<g>
			<path fill="#BF723D" d="M1024.004,415.33c-12.612,1.007-72.58,3.615-85.231,3.707l-45.563,0.331
				c-9.232,0.067-18.463-0.16-27.68-0.68l-138.128-7.792l-4.861-0.21l-2.282-1.603l1.096-0.641l-3.205-1.049l-6.452-1.187
				l1.59-9.808c0.543-2.998,1.224-5.97,2.041-8.905l5.244-18.846c2.536-9.114,6.569-17.742,11.936-25.532l0,0
				c5.62,1.719,13.691,4.7,19.404,6.087l49.073,11.913c8.397,2.038,16.88,3.704,25.424,4.99l51.244,7.827l73.816,10.613
				l72.536,6.667V415.33z"/>
			<path fill="#9F4D30" d="M761.055,412.794l-0.031-4.609c-0.06-8.79,1.853-17.481,5.598-25.433l0,0l-1.623,6.331
				c-1.208,4.71-1.826,9.552-1.841,14.414l-0.029,9.414L761.055,412.794z"/>
			<path fill="#9F4D30" d="M813.274,363.816l-4.01,8.47c-1.402,2.962-2.484,6.064-3.227,9.255l-0.346,1.486
				c-0.917,3.936-1.312,7.975-1.175,12.014l0.137,4.023l-0.663-3.598c-1.055-5.722-1.016-11.592,0.115-17.3l0,0
				c0.428-2.162,1.011-4.29,1.744-6.369l2.944-8.345L813.274,363.816z"/>
			<path fill="#9F4D30" d="M838.968,417.189l-0.189-3.355c-0.259-4.595,0.155-9.203,1.228-13.679l0.512-2.136l-0.796,1.742
				c-2.287,5.003-3.684,10.366-4.128,15.849l-0.105,1.297L838.968,417.189z"/>
			<path fill="#9F4D30" d="M941.3,383.274L941.3,383.274c-2.739,7.499-3.456,15.586-2.081,23.449l0.125,0.718l0.451-5.579
				c0.454-5.615,1.947-11.097,4.403-16.167l1.02-2.105L941.3,383.274z"/>
		</g>
	</g>
	<g id="stone6_3_">
		<g id="piece6_x5F_18_3_">
			<polygon fill="#9B9B9B" points="259.178,392.737 258.755,406.701 250.737,405.999 			"/>
			<polygon fill="#999898" points="267.535,375.453 259.178,392.737 258.755,406.701 284.43,416.669 304.31,420.373 304.31,398.706 
				303.47,393.733 293.502,378.848 273.616,366.945 			"/>
			<polygon fill="#9E9A9A" points="303.47,393.733 304.31,420.373 333.899,419.138 322.781,404.003 			"/>
		</g>
		<g id="piece6_x5F_17_3_">
			<polygon fill="#999898" points="273.616,366.945 293.502,378.848 303.47,393.733 299.18,368.328 282.695,354.243 			"/>
			<polygon fill="#9E9A9A" points="303.47,393.733 322.781,404.003 333.899,419.138 340.563,418.86 334.201,398.601 
				317.535,368.328 299.18,368.328 			"/>
			<polygon fill="#A09D9D" points="282.695,354.243 304.31,353.641 301.743,347.567 			"/>
			<polygon fill="#A09F9F" points="282.695,354.243 304.31,353.641 317.535,368.328 299.18,368.328 			"/>
		</g>
		<g id="piece6_x5F_16_3_">
			<polygon fill="#A09D9D" points="301.743,347.567 282.695,354.243 283.889,325.145 299.18,341.503 			"/>
			<polygon fill="#999898" points="282.695,354.243 267.535,375.453 259.178,392.737 259.848,370.643 266.917,349.219 
				283.889,325.145 			"/>
			<polygon fill="#9B9B9B" points="259.178,392.737 250.737,405.999 241.625,405.201 248.064,395.023 259.848,370.643 			"/>
		</g>
		<g id="piece6_x5F_15_3_">
			<polygon fill="#A09D9D" points="283.889,325.145 299.18,341.503 304.31,353.641 324.232,353.14 320.004,341.194 294.667,311.246 
							"/>
			<polygon fill="#A09F9F" points="304.31,353.641 317.535,368.328 322.095,368.328 337.674,364.448 324.232,353.14 			"/>
			<polygon fill="#9E9A9A" points="317.535,368.328 334.201,398.601 340.563,418.86 360.366,413.018 351.485,386.308 
				337.674,364.448 322.095,368.328 			"/>
		</g>
		<g id="piece6_x5F_14_3_">
			<polygon fill="#A09D9D" points="294.667,311.246 283.889,325.145 284.43,311.98 			"/>
			<polygon fill="#999898" points="283.889,325.145 266.917,349.219 259.848,370.643 263.492,337.796 278.606,308.283 
				284.43,311.98 			"/>
			<polygon fill="#9B9B9B" points="259.848,370.643 248.064,395.023 241.625,405.201 232.635,404.415 239.964,391.284 
				246.238,372.058 263.492,337.796 			"/>
			<polygon fill="#A09F9F" points="281.533,306.398 278.606,308.283 284.43,311.98 294.667,311.246 			"/>
		</g>
		<g id="piece6_x5F_13_3_">
			<polygon fill="#A09F9F" points="281.533,306.398 294.667,311.246 310.727,310.094 300.868,302.521 295.804,297.207 			"/>
			<polygon fill="#A09D9D" points="294.667,311.246 320.004,341.194 324.232,353.14 337.674,350.548 332.041,336.564 
				310.727,310.094 			"/>
			<polygon fill="#A09F9F" points="324.232,353.14 337.674,364.448 346.72,362.194 348.879,359.599 337.674,350.548 			"/>
			<polygon fill="#9E9A9A" points="337.674,364.448 351.485,386.308 360.366,413.018 355.338,381.764 346.72,362.194 			"/>
			<polygon fill="#9E9898" points="360.366,413.018 368.249,405.493 362.288,382.33 348.879,359.599 346.72,362.194 
				355.338,381.764 			"/>
		</g>
		<g id="piece6_x5F_12_3_">
			<polygon fill="#A09F9F" points="295.804,297.207 278.606,308.283 267.544,301.261 278.954,292.156 290.991,292.156 			"/>
			<polygon fill="#9B9A9A" points="282.678,284.079 290.991,292.156 278.954,292.156 			"/>
			<polygon fill="#999898" points="278.606,308.283 263.492,337.796 267.544,301.261 			"/>
			<polygon fill="#9B9B9B" points="263.492,337.796 246.238,372.058 239.964,391.284 232.635,404.415 221.154,403.41 
				234.539,382.33 247.473,339.651 267.544,301.261 			"/>
		</g>
		<g id="piece6_x5F_11_3_">
			<polygon fill="#9B9A9A" points="282.678,284.079 290.991,292.156 306.277,292.156 299.871,270.457 286.91,274.901 			"/>
			<polygon fill="#A09F9F" points="290.991,292.156 300.868,302.521 310.727,310.094 324.232,309.125 306.277,292.156 			"/>
			<polygon fill="#A09D9D" points="310.727,310.094 332.041,336.564 337.674,350.548 352.192,347.749 346.72,334.404 
				324.232,309.125 			"/>
			<polygon fill="#A09F9F" points="337.674,350.548 348.879,359.599 357.296,349.483 352.192,347.749 			"/>
			<polygon fill="#9E9898" points="348.879,359.599 362.288,382.33 368.249,405.493 380.408,393.886 374.633,375.762 
				357.296,349.483 			"/>
		</g>
		<g id="piece6_x5F_10_3_">
			<polygon fill="#9B9A9A" points="299.871,270.457 286.91,274.901 278.954,292.156 267.544,291.291 278.954,257.552 
				282.695,253.984 298.09,264.424 			"/>
			<polygon fill="#A09F9F" points="278.954,292.156 267.544,301.261 257.089,299.461 267.544,291.291 			"/>
			<polygon fill="#9B9B9B" points="267.544,301.261 247.473,339.651 234.539,382.33 221.154,403.41 213.786,402.649 
				219.821,368.328 234.539,335.638 257.089,299.461 			"/>
			<polygon fill="#969696" points="203.536,394.731 213.786,402.649 219.821,368.328 			"/>
		</g>
		<g id="piece6_x5F_9_3_">
			<polygon fill="#9B9A9A" points="282.695,253.984 298.09,264.424 306.277,292.156 309.923,255.452 304.31,233.363 			"/>
			<polygon fill="#A3A0A0" points="334.207,307.91 324.232,309.125 313.715,285.667 309.923,255.452 318.769,284.079 			"/>
			<polygon fill="#939292" points="309.923,255.452 306.277,292.156 324.232,309.125 313.715,285.667 			"/>
			<polygon fill="#A09D9D" points="324.232,309.125 346.72,334.404 352.192,347.749 361.342,341.054 334.207,307.91 			"/>
			<polygon fill="#A09F9F" points="352.192,347.749 361.342,341.054 363.622,341.881 357.296,349.483 			"/>
			<polygon fill="#9E9898" points="357.296,349.483 374.633,375.762 380.408,393.886 383.999,384.685 383.22,377.033 
				363.622,341.881 			"/>
		</g>
		<g id="piece6_x5F_8_3_">
			<polygon fill="#9B9A9A" points="304.31,233.363 278.954,257.552 267.544,291.291 263.214,291.194 267.792,265.033 
				276.794,233.363 			"/>
			<polygon fill="#A09F9F" points="284.43,227.305 276.794,233.363 304.31,233.363 			"/>
			<polygon fill="#939393" points="257.089,288.65 263.214,291.194 267.792,265.033 			"/>
			<polygon fill="#A09F9F" points="267.544,291.291 257.089,299.461 246.387,297.619 257.089,288.65 263.214,291.194 			"/>
			<polygon fill="#9B9B9B" points="257.089,299.461 234.539,335.638 219.821,368.328 221.414,359.272 230.497,332.552 
				246.387,297.619 			"/>
			<polygon fill="#969696" points="219.821,368.328 203.536,394.731 207.697,378.858 221.414,359.272 			"/>
		</g>
		<g id="piece6_x5F_7_3_">
			<polygon fill="#A09F9F" points="284.43,227.305 304.31,233.363 311.398,233.363 321.008,233.004 313.522,224.574 
				302.577,220.904 			"/>
			<polygon fill="#9B9A9A" points="304.31,233.363 309.923,255.452 311.398,233.363 			"/>
			<polygon fill="#A3A0A0" points="309.923,255.452 318.769,284.079 334.207,307.91 346.036,306.469 329.773,275.703 
				321.008,233.004 311.398,233.363 			"/>
			<polygon fill="#A09D9D" points="334.207,307.91 361.342,341.054 364.676,338.614 346.036,306.469 			"/>
			<polygon fill="#A09F9F" points="361.342,341.054 364.676,338.614 365.903,339.14 363.622,341.881 			"/>
			<polygon fill="#9E9898" points="363.622,341.881 383.22,377.033 378.028,364.034 365.903,339.14 			"/>
		</g>
		<g id="piece6_x5F_6_3_">
			<polygon fill="#A09F9F" points="302.577,220.904 284.43,227.305 276.794,233.363 267.792,233.363 264.468,230.675 
				267.792,225.762 287.306,215.784 			"/>
			<polygon fill="#9B9A9A" points="276.794,233.363 267.792,265.033 267.792,233.363 			"/>
			<polygon fill="#939393" points="267.792,265.033 257.089,288.65 246.387,284.205 257.349,261.528 264.468,230.675 
				267.792,233.363 			"/>
			<polygon fill="#A09F9F" points="257.089,288.65 246.387,297.619 233.172,295.344 237.21,289.969 246.387,284.205 			"/>
			<polygon fill="#9B9B9B" points="246.387,297.619 230.497,332.552 221.414,359.272 225.553,335.733 233.172,295.344 			"/>
			<polygon fill="#969696" points="221.414,359.272 207.697,378.858 218.46,337.799 233.172,295.344 225.553,335.733 			"/>
		</g>
		<g id="piece6_x5F_5_3_">
			<polygon fill="#A09F9F" points="287.306,215.784 313.522,224.574 321.008,233.004 332.659,232.568 329.773,226.379 
				315.254,215.784 			"/>
			<polygon fill="#A3A0A0" points="321.008,233.004 329.773,275.703 346.036,306.469 352.843,302.521 340.065,268.354 
				332.659,232.568 			"/>
			<polygon fill="#A09D9D" points="346.036,306.469 364.676,338.614 368.932,335.499 352.843,302.521 			"/>
			<polygon fill="#A09F9F" points="364.676,338.614 368.932,335.499 365.903,339.14 			"/>
			<polygon fill="#9E9898" points="365.903,339.14 378.028,364.034 368.932,335.499 			"/>
		</g>
		<g id="piece6_x5F_4_3_">
			<polygon fill="#A09F9F" points="287.306,215.784 267.792,225.762 264.468,230.675 254.966,222.988 273.956,215.784 			"/>
			<polygon fill="#939393" points="264.468,230.675 257.349,261.528 246.387,284.205 242.669,279.461 249.494,260.569 
				254.966,222.988 			"/>
			<polygon fill="#A09F9F" points="246.387,284.205 237.21,289.969 233.172,295.344 228.767,291.194 233.172,282.289 
				245.86,270.627 242.669,279.461 			"/>
			<polygon fill="#969696" points="233.172,295.344 218.46,337.799 203.536,394.731 200.066,392.051 212.288,332.861 
				228.767,291.194 			"/>
		</g>
		<g id="piece6_x5F_3_3_">
			<polygon fill="#A09F9F" points="315.254,215.784 329.773,226.379 332.659,232.568 344.408,232.129 336.819,221.761 
				331.237,218.581 			"/>
			<polygon fill="#A3A0A0" points="332.659,232.568 340.065,268.354 352.843,302.521 358.861,299.03 348.399,262.76 
				344.408,232.129 			"/>
			<polygon fill="#A09D9D" points="352.843,302.521 368.932,335.499 362.452,304.726 358.861,299.03 			"/>
			<polygon fill="#9B9898" points="362.452,304.726 368.932,335.499 380.664,351.914 372.713,331.014 			"/>
			<polygon fill="#9E9898" points="368.932,335.499 378.028,364.034 383.22,377.033 380.664,351.914 			"/>
		</g>
		<g id="piece6_x5F_2_3_">
			<polygon fill="#A09F9F" points="245.86,270.627 233.172,282.289 228.767,291.194 217.781,280.842 228.76,271.954 
				247.884,265.025 			"/>
			<polygon fill="#969696" points="228.767,291.194 212.288,332.861 200.066,392.051 194.4,387.674 194.4,378.66 203.634,321.813 
				217.781,280.842 			"/>
		</g>
		<g id="piece6_x5F_1_3_">
			<polygon fill="#A09F9F" points="331.237,218.581 336.819,221.761 344.408,232.129 349.915,231.923 357.578,227.598 
				346.549,221.261 			"/>
			<polygon fill="#A3A0A0" points="344.408,232.129 348.399,262.76 358.861,299.03 350.14,260.036 349.915,231.923 			"/>
			<polygon fill="#9B9898" points="362.452,304.726 372.713,331.014 367.069,297.277 358.861,258.283 357.578,227.598 
				349.915,231.923 350.14,260.036 358.861,299.03 			"/>
		</g>
	</g>
	<g>
		<g>
			<g>
				<path fill="#302D29" d="M805.437,351.75l65.438,88.979c4.754,6.464,2.126,14.915-5.87,18.876l-0.144,0.072
					c-8.016,3.97-18.377,1.936-23.143-4.545l-65.417-88.95"/>
				<g>
					
						<line fill="none" stroke="#302D29" stroke-width="12" stroke-miterlimit="10" x1="805.437" y1="351.75" x2="806.918" y2="353.764"/>
					<path fill="none" stroke="#302D29" stroke-width="12" stroke-miterlimit="10" stroke-dasharray="4.9853,4.9853" d="
						M809.872,357.78l61.004,82.949c4.754,6.464,2.126,14.915-5.87,18.876l-0.145,0.072c-8.016,3.97-18.377,1.936-23.143-4.545
						l-62.459-84.928"/>
					
						<line fill="none" stroke="#302D29" stroke-width="12" stroke-miterlimit="10" x1="777.782" y1="368.195" x2="776.301" y2="366.181"/>
				</g>
			</g>
			<path fill="#C3D1D5" d="M805.253,355.802l63.169,85.893c3.873,5.266,1.732,12.15-4.781,15.376l-0.727,0.36
				c-6.513,3.226-14.933,1.573-18.806-3.693l-63.169-85.893"/>
			
				<ellipse transform="matrix(0.3828 -0.9238 0.9238 0.3828 115.9407 1064.2234)" fill="#9BA6AE" cx="854.442" cy="445.341" rx="6.986" ry="8.397"/>
		</g>
		<g>
			<path fill="#B93A31" d="M816.482,349.71L816.482,349.71c1.064-1.79,1.47-3.803,1.169-5.794v0
				c-0.107-0.707-0.329-1.399-0.661-2.058l-2.438-4.848l-1.014-5.252c-0.083-0.431-0.197-0.858-0.34-1.279l-0.621-1.824
				c-0.693-2.035-1.729-3.982-3.076-5.784l-1.44-1.926c-0.888-1.188-1.927-2.294-3.099-3.3l-2.177-1.87
				c-1.937-1.664-4.194-3.05-6.677-4.101l-7.837-3.317c-2.012-0.851-4.27-1.211-6.507-1.035l-15.704,1.235l-17.064-15.582
				c-2.372-2.166-5.207-3.95-8.359-5.262l-0.27-0.112c-2.152-0.895-4.527-1.35-6.924-1.328l0,0c-2.133,0.02-4.213,0.515-6.024,1.431
				l-4.82,2.44c-2.095,1.061-3.652,2.713-4.387,4.656l0,0c-0.508,1.343-0.45,2.795,0.166,4.118l0.093,0.2
				c1.099,2.362,2.464,4.635,4.075,6.79l12.094,16.17l15.996,21.387l6.361,1.667c0.903,0.237,1.678,0.73,2.187,1.392l17.719,23.048
				c0.284,0.37,0.763,0.607,1.288,0.639l0,0c0.432,0.027,0.862-0.059,1.23-0.245l32.293-16.349c0.551-0.279,1.068-0.601,1.545-0.962
				l1.772-1.342C815.63,350.858,816.122,350.315,816.482,349.71z M727.485,295.851c0.801-0.419,3.174-1.737,3.174-1.737
				c0.849-0.407,1.63-0.654,2.594-0.814l0,0c1.655-0.274,3.827-0.066,5.362,0.536l0,0c1.587,0.623,2.358,1.428,3.54,2.505
				l15.371,14.167c0.598,0.551,0.43,1.535-0.317,1.856l-14.54,6.257c-0.715,0.308-1.544,0.128-2.067-0.448
				c-2.695-2.972-10.311-12.324-12.72-16.169C725.664,298.464,724.685,297.315,727.485,295.851z"/>
			<path fill="#434345" d="M750.635,343.463l5.85,7.821c0.657,0.879,1.884,1.35,3.11,1.196l3.773-0.474l-4.803-6.422
				L750.635,343.463z"/>
			<path fill="#434345" d="M778.855,370.251l-5.096,1.656c-0.86,0.28-1.845,0.005-2.336-0.651l-2.426-3.244
				c-0.729-0.975-0.84-2.178-0.297-3.222l1.904-3.657l5.954,7.961C777.057,369.762,777.913,370.193,778.855,370.251L778.855,370.251
				z"/>
			<path fill="#CF5649" d="M781.438,307.417l3.17,4.238c0.718,0.961,1.603,1.83,2.625,2.58l0.477,0.35
				c0.669,0.491,1.392,0.927,2.16,1.304l4.209,2.064c0.3,0.147,0.591,0.307,0.871,0.48l2.614,1.611
				c1.004,0.619,1.859,1.39,2.518,2.27l1.227,1.641c0.648,0.866,1.095,1.824,1.318,2.823l0,0c0.199,0.892,0.216,1.803,0.051,2.696
				l-0.072,0.392c-0.215,1.165-0.736,2.275-1.527,3.251l-1.14,1.408l-0.825,1.106c-0.356,0.477-0.625,0.996-0.797,1.54l-0.137,0.432
				c-0.239,0.755-0.091,1.562,0.41,2.231l11.082,14.817l2.118-1.072c0.5-0.253,0.968-0.545,1.4-0.872l1.477-1.118
				c0.839-0.636,1.528-1.395,2.031-2.241l0.197-0.331c0.794-1.336,1.098-2.839,0.873-4.324l-0.121-0.798
				c-0.105-0.691-0.322-1.368-0.646-2.012l-1.72-3.421c-0.484-0.963-0.829-1.969-1.027-2.996l-0.541-2.803
				c-0.199-1.032-0.471-2.055-0.814-3.063l-0.116-0.341c-0.829-2.435-2.068-4.765-3.681-6.921l-0.529-0.708
				c-1.228-1.642-2.665-3.173-4.286-4.565l-0.609-0.523c-2.529-2.172-5.475-3.982-8.716-5.353l-8.18-3.462
				c-1.038-0.439-2.207-0.614-3.358-0.502L781.438,307.417z"/>
			<path fill="#8A2D26" d="M781.389,321.741l-11.007-0.492c-0.474-0.021-0.948,0.031-1.398,0.154l-0.746,0.204
				c-0.766,0.209-1.429,0.615-1.894,1.159l0,0c-0.568,0.664-0.8,1.487-0.648,2.297l0.146,0.779c0.079,0.421,0.26,0.826,0.533,1.19
				l7.43,9.934c0.506,0.677,1.277,1.192,2.183,1.457l9.564,2.803c0.93,0.273,1.722,0.801,2.242,1.496l12.48,16.685l7.915-4.007
				l-24.23-32.395C783.402,322.261,782.441,321.788,781.389,321.741z"/>
			<path fill="#852B25" d="M792.724,363.172l-12.201-16.312c-0.497-0.664-1.39-1.053-2.327-1.015l-8.057,0.329
				c-0.635,0.026-0.998,0.604-0.662,1.054l13.268,17.739c0.268,0.359,0.654,0.647,1.113,0.831l0.553,0.222
				c0.329,0.132,0.687,0.206,1.05,0.219l0.328,0.011c0.522,0.018,1.037-0.092,1.48-0.316L792.724,363.172z"/>
			
				<ellipse transform="matrix(0.0291 -0.9996 0.9996 0.0291 404.086 1120.7345)" fill="#CCC2A8" cx="778.971" cy="352.353" rx="2.748" ry="3.323"/>
			
				<ellipse transform="matrix(0.0291 -0.9996 0.9996 0.0291 402.2383 1132.3483)" fill="#CCC2A8" cx="784.026" cy="359.111" rx="2.748" ry="3.323"/>
			
				<ellipse transform="matrix(0.4099 -0.9121 0.9121 0.4099 184.1635 907.6654)" fill="#434345" cx="793.565" cy="311.503" rx="1.845" ry="6.65"/>
			<g>
				<path fill="#A8A8A8" d="M759.639,339.679l-0.042-0.51c-0.103-1.251-0.365-2.483-0.779-3.668l0,0
					c-0.508-1.452,0.396-3.015,1.907-3.299l18.442-3.465l1.68,7.443l-18.035,5.638C761.314,342.286,759.768,341.244,759.639,339.679
					z"/>
				
					<ellipse transform="matrix(0.1018 -0.9948 0.9948 0.1018 357.6675 1066.2279)" fill="#505050" cx="769.261" cy="335.054" rx="1.595" ry="1.93"/>
				
					<ellipse transform="matrix(0.0899 -0.996 0.996 0.0899 359.129 1066.2048)" fill="#505050" cx="762.958" cy="336.598" rx="1.599" ry="1.933"/>
				<path fill="#505050" d="M779.168,328.737l36.033-8.813c1.458-0.36,3.025-0.355,4.509,0.015l0,0
					c1.275,0.317,2.707,1.061,3.649,1.86c0.559,0.474,2.154,2.292,2.597,2.876c0.762,1.005,1.611,2.579,1.788,3.469
					c0.175,0.879,0.71,3.682,0.628,4.638c-0.116,1.35-0.414,2.307-1.23,3.376c-0.769,1.007-1.665,1.46-2.727,2.004
					c-1.418,0.726-1.966,0.927-2.924,1.263c-0.788,0.276-4.913,1.614-4.913,1.614l-1.681-3.368l-0.322-0.942
					c0,0,4.857-1.524,5.559-1.714c0.85-0.23,2.264-0.615,2.873-1.252c1.182-1.235,0.9-2.711,0.242-3.967
					c-0.685-1.307-1.039-1.846-2.394-3.031c-1.286-1.125-2.13-0.855-3.56-0.472l-36.447,9.888L779.168,328.737z"/>
			</g>
		</g>
	</g>
	<g>
		<path fill="#82573A" d="M396.516,406.967l-52.5-159.432l-8.551,1.9l54.138,161.154c0.473,1.406,2.12,2.021,3.398,1.269
			l2.148-1.265C396.401,409.856,396.97,408.346,396.516,406.967z"/>
		<polygon fill="#C3C9C7" points="381.208,244.273 349.438,244.813 339.336,247.262 329.766,251.32 303.94,269.832 310.068,278.237 
			333.631,273.124 343.477,277.132 353.824,273.709 359.337,264.621 381.301,254.674 		"/>
		<path fill="#CCD6D3" d="M329.766,251.32l-25.825,18.512l-8.985,17.116c-0.289,0.551,0.347,1.125,0.865,0.78l14.246-9.491
			l23.564-5.112l-22.408,0.956c-0.843,0.036-1.31-0.963-0.742-1.587L329.766,251.32z"/>
		<path fill="#CCD6D3" d="M349.438,244.813l31.77-0.539l17.419,8.382c0.561,0.27,0.392,1.11-0.23,1.142l-17.096,0.876l-21.964,9.947
			l18.558-12.594c0.698-0.474,0.477-1.554-0.351-1.716L349.438,244.813z"/>
	</g>
	<g>
		<path fill="#498085" d="M261.584,235.282c-1.306-0.496-2.647-0.893-4.013-1.187l-3.538-0.762
			c-0.887-0.191-1.783-0.339-2.685-0.442l-2.883-0.33c-2.211-0.253-4.444-0.24-6.652,0.04l-0.624,0.079
			c-2.028,0.257-3.939,1.096-5.5,2.416c-1.186,1.002-2.138,2.254-2.786,3.665l-0.921,2.004c-0.323,0.702-0.567,1.437-0.73,2.192
			l-3.574,16.593l-1.121,1.665l-1.302,0.736l-11.717-0.379c-0.171-0.006-0.344,0.004-0.511,0.04
			c-0.858,0.187-1.477,0.842-1.648,1.638l-5.964,27.685c-0.074,0.344,0.145,0.684,0.489,0.758l0,0
			c0.113,0.204,0.254,0.392,0.418,0.558l0.047,0.047c0.353,0.358,0.802,0.605,1.294,0.711l34.705,7.476l5.444,6.581l-0.492,2.284
			c-0.173,0.805,0.344,1.597,1.151,1.763l16.893,3.459c0.812,0.166,1.603-0.366,1.753-1.181l12.764-69
			c0.063-0.34,0.074-0.689,0.033-1.032l-0.123-1.021c-0.028-0.234-0.08-0.464-0.156-0.688l-0.386-1.14
			c-0.182-0.538-0.494-1.021-0.91-1.408l-0.053-0.049c-0.452-0.421-1.009-0.712-1.613-0.842c-0.589-0.127-1.201-0.096-1.774,0.089
			l-2.812,0.908l-1.693,0.191l-1.579-0.34l-0.362-0.254c-1.886-1.323-3.929-2.406-6.083-3.224L261.584,235.282z M257.39,245.492
			l3.053,1.007c0.266,0.088,0.525,0.195,0.775,0.322l2.174,1.098c0.412,0.208,0.797,0.466,1.147,0.768l0.807,0.698
			c0.26,0.225,0.499,0.473,0.714,0.742l0.39,0.487c0.399,0.498,0.71,1.06,0.92,1.662l0,0c0.26,0.744,0.362,1.534,0.298,2.32
			l-0.1,1.229c-0.02,0.245-0.056,0.489-0.108,0.73l-1.387,6.439l-2.896,2.462c-0.43,0.365-1.005,0.51-1.556,0.391l-0.176-0.038
			c-0.345-0.074-0.66-0.247-0.908-0.498l-0.826-0.836c-0.983-0.995-2.235-1.681-3.602-1.976l-18.063-3.891l2.375-11.025
			c0.038-0.179,0.094-0.353,0.167-0.521l0.709-1.633c0.284-0.655,0.81-1.175,1.468-1.452c0.247-0.104,0.507-0.172,0.773-0.201
			l1.678-0.185c0.176-0.019,0.353-0.022,0.529-0.007l4.48,0.365L257.39,245.492z"/>
		<path fill="#161616" d="M258.116,246.095l0.586-1.322c0.304-0.686,0.825-1.253,1.483-1.614l0.254-0.14
			c0.583-0.32,1.246-0.463,1.909-0.412l3.035,0.233c0.956,0.073,1.916-0.051,2.822-0.364l1.252-0.434
			c0.798-0.276,1.656-0.328,2.481-0.151l1.042,0.224c0.643,0.139,1.249,0.413,1.777,0.805l4.744,3.52l0.379-2.05
			c0.063-0.341,0.074-0.689,0.033-1.032l-0.123-1.021c-0.028-0.234-0.08-0.465-0.156-0.688l-0.386-1.14
			c-0.182-0.538-0.495-1.022-0.91-1.409l-0.053-0.049c-0.452-0.421-1.009-0.712-1.613-0.842l0,0
			c-0.589-0.127-1.201-0.096-1.774,0.089l-2.391,0.773c-0.28,0.09-0.568,0.153-0.861,0.186l-0.536,0.061
			c-0.475,0.054-0.956,0.03-1.423-0.071l-0.558-0.12c-0.208-0.045-0.404-0.131-0.578-0.253l0,0
			c-1.951-1.369-4.065-2.489-6.292-3.335l-0.607-0.231c-1.35-0.513-2.738-0.923-4.15-1.228l-3.423-0.737
			c-0.917-0.198-1.844-0.35-2.776-0.457l-5.627-0.645c-0.292-0.033-0.552,0.185-0.569,0.479l-0.64,10.954l1.015-0.112l4.494,0.366
			c0.167,0.014,0.333,0.038,0.498,0.074l5.996,1.292c0.606,0.13,1.788,0.484,1.788,0.484L258.116,246.095z"/>
		<path fill="#161616" d="M228.619,255.178l6.696,1.442c0.286,0.061,0.422,0.389,0.264,0.635l-5.648,8.793
			c-1.36,2.118-2.339,4.458-2.891,6.913l-5.196,23.103l-14.183-3.055c-0.491-0.106-0.941-0.353-1.294-0.711l-0.047-0.047
			c-0.164-0.166-0.304-0.354-0.418-0.558l0,0c-0.303-0.546-0.398-1.183-0.266-1.794l5.741-26.649
			c0.106-0.49,0.381-0.928,0.778-1.235l0,0c0.392-0.303,0.877-0.46,1.371-0.444l10.915,0.353c0.531,0.017,1.056-0.112,1.519-0.373
			l0,0c0.391-0.221,0.726-0.531,0.977-0.903l0.428-0.635c0.206-0.306,0.351-0.648,0.429-1.008L228.619,255.178z"/>
		<path fill="#333333" d="M216.395,289.903L216.395,289.903c-0.173,0.805-0.966,1.317-1.771,1.143l-7.367-1.587
			c-0.805-0.173-1.317-0.966-1.143-1.771h0c0.173-0.805,0.966-1.317,1.771-1.143l7.367,1.587
			C216.056,288.305,216.568,289.098,216.395,289.903z"/>
		<path fill="#333333" d="M217.387,285.297l-0.031,0.145c-0.165,0.765-0.918,1.251-1.683,1.087l-7.512-1.618
			c-0.765-0.165-1.251-0.918-1.087-1.683l0.031-0.145c0.165-0.765,0.918-1.251,1.683-1.087l7.512,1.618
			C217.065,283.779,217.552,284.532,217.387,285.297z"/>
		<path fill="#333333" d="M218.331,280.917L218.331,280.917c-0.173,0.805-0.966,1.317-1.771,1.143l-7.367-1.587
			c-0.805-0.173-1.317-0.966-1.143-1.771l0,0c0.173-0.805,0.966-1.317,1.771-1.143l7.367,1.587
			C217.992,279.319,218.504,280.112,218.331,280.917z"/>
		<path fill="#333333" d="M219.272,276.545L219.272,276.545c-0.173,0.805-0.966,1.317-1.771,1.143l-7.367-1.587
			c-0.805-0.173-1.317-0.966-1.143-1.771l0,0c0.173-0.805,0.966-1.317,1.771-1.143l7.367,1.587
			C218.934,274.948,219.446,275.741,219.272,276.545z"/>
		<path fill="#333333" d="M220.265,271.938l-0.101,0.47c-0.145,0.675-0.81,1.104-1.485,0.959l-7.837-1.688
			c-0.675-0.145-1.104-0.81-0.959-1.485l0.101-0.47c0.145-0.675,0.81-1.104,1.485-0.959l7.837,1.688
			C219.981,270.599,220.41,271.264,220.265,271.938z"/>
		<path fill="#333333" d="M221.18,267.689l-0.049,0.226c-0.16,0.742-0.891,1.215-1.634,1.055l-7.593-1.636
			c-0.742-0.16-1.215-0.891-1.055-1.634l0.049-0.226c0.16-0.742,0.891-1.215,1.634-1.055l7.593,1.636
			C220.868,266.215,221.34,266.947,221.18,267.689z"/>
		<path fill="#363636" d="M248.247,260.804l-8.43,39.132l2.55,0.549l5.444,6.581l-0.525,2.439c-0.155,0.72,0.307,1.428,1.029,1.576
			l17.205,3.522c0.726,0.149,1.433-0.328,1.568-1.056l8.91-48.164l-9.923-2.392l-3.002,2.552c-0.363,0.309-0.849,0.431-1.315,0.33
			l-0.394-0.085c-0.291-0.063-0.558-0.209-0.767-0.421l-1.076-1.089c-0.858-0.869-1.951-1.468-3.145-1.725L248.247,260.804z"/>
		<polygon fill="#202020" points="246.286,319.85 248.178,311.066 265.787,314.659 263.853,323.634 		"/>
		<path fill="#444444" d="M245.451,321.758l-0.035,0.16c-0.567,2.632,1.107,5.225,3.739,5.792l9.008,1.94
			c2.632,0.567,5.225-1.107,5.792-3.739l0.035-0.16c0.237-1.102-0.464-2.188-1.566-2.426l-14.547-3.134
			C246.775,319.955,245.688,320.656,245.451,321.758z"/>
		
			<rect x="246.779" y="327.737" transform="matrix(0.2106 -0.9776 0.9776 0.2106 -127.4574 510.7126)" fill="#202020" width="11.428" height="13.077"/>
		<path fill="#498085" d="M241.916,346.821l1.269-5.893c0.32-1.485,1.783-2.429,3.267-2.109l9.924,2.138
			c1.485,0.32,2.429,1.783,2.109,3.267l-1.269,5.893L241.916,346.821z"/>
		<path fill="#202020" d="M243.535,347.17L243.535,347.17l11.415,2.459h0c-0.559,2.593-3.114,4.243-5.707,3.684l-2.024-0.436
			C244.626,352.318,242.976,349.763,243.535,347.17z"/>
		<path fill="#3A666A" d="M241.874,347.014l0.041-0.192l15.301,3.296l0,0c-0.25,1.163-1.396,1.902-2.558,1.651l-11.283-2.431
			C242.319,349.111,241.647,348.07,241.874,347.014z"/>
		<circle fill="#262626" cx="258.993" cy="295.86" r="8.274"/>
		<path fill="#181818" d="M252.273,295.193l0.274-1.388c0.169-0.858,1.002-1.416,1.86-1.247l10.2,2.014
			c0.858,0.169,1.416,1.002,1.247,1.86l-0.274,1.388c-0.169,0.858-1.002,1.416-1.86,1.247l-10.2-2.014
			C252.662,296.884,252.104,296.051,252.273,295.193z"/>
		<path fill="#3A666A" d="M256.055,342.825l-1.073,4.979c-0.09,0.419,0.176,0.832,0.595,0.922l0,0
			c0.419,0.09,0.832-0.176,0.922-0.595l1.073-4.979c0.09-0.419-0.176-0.832-0.595-0.922h0
			C256.559,342.14,256.146,342.406,256.055,342.825z"/>
		<path fill="#3A666A" d="M253.627,342.302l-1.073,4.979c-0.09,0.419,0.176,0.832,0.595,0.922l0,0
			c0.419,0.09,0.832-0.176,0.922-0.595l1.073-4.979c0.09-0.419-0.176-0.832-0.595-0.922l0,0
			C254.13,341.616,253.717,341.883,253.627,342.302z"/>
		<path fill="#3A666A" d="M251.209,341.728l-1.073,4.979c-0.09,0.419,0.176,0.832,0.595,0.922l0,0
			c0.419,0.09,0.832-0.176,0.922-0.595l1.073-4.979c0.09-0.419-0.176-0.832-0.595-0.922l0,0
			C251.712,341.043,251.299,341.309,251.209,341.728z"/>
		<path fill="#3A666A" d="M248.78,341.205l-1.073,4.979c-0.09,0.419,0.176,0.832,0.595,0.922l0,0
			c0.419,0.09,0.832-0.176,0.922-0.595l1.073-4.979c0.09-0.419-0.176-0.832-0.595-0.922l0,0
			C249.283,340.52,248.87,340.786,248.78,341.205z"/>
		<path fill="#3A666A" d="M246.341,340.733l-1.073,4.979c-0.09,0.419,0.176,0.832,0.595,0.922l0,0
			c0.419,0.09,0.832-0.176,0.922-0.595l1.073-4.979c0.09-0.419-0.176-0.832-0.595-0.922l0,0
			C246.844,340.047,246.431,340.314,246.341,340.733z"/>
		<path fill="#3A666A" d="M243.912,340.21l-1.073,4.979c-0.09,0.419,0.176,0.832,0.595,0.922l0,0
			c0.419,0.09,0.832-0.176,0.922-0.595l1.073-4.979c0.09-0.419-0.176-0.832-0.595-0.922l0,0
			C244.415,339.524,244.002,339.79,243.912,340.21z"/>
		
			<rect x="245.211" y="352.887" transform="matrix(-0.2071 0.9783 -0.9783 -0.2071 647.1017 186.8609)" fill="#B9C4C6" width="5.227" height="5.568"/>
		<path fill="#C3D1D5" d="M233.75,419.93l-2.605-5.951c-0.252-0.576-0.323-1.141-0.211-1.672l10.715-50.628
			c0.327-1.544,1.324-2.923,2.911-4.027l0,0l5.448,1.153l0,0c0.997,1.692,1.341,3.392,1.007,4.971l-10.698,50.545
			c-0.114,0.537-0.412,1.03-0.883,1.458l-4.773,4.343C234.462,420.304,233.858,420.176,233.75,419.93z"/>
	</g>
</g>
<text transform="matrix(1 0 0 1 90.6906 75.4136)" fill="#00005B" font-family="'PTSans-Bold'" font-size="67.7521px" letter-spacing="5">TAP MINER-LUMBERJACK</text>
</svg>
