<?xml version="1.0" encoding="utf-8"?>
<!-- Generator: Adobe Illustrator 24.0.1, SVG Export Plug-In . SVG Version: 6.00 Build 0)  -->
<svg version="1.1" id="Слой_1" xmlns="http://www.w3.org/2000/svg" xmlns:xlink="http://www.w3.org/1999/xlink" x="0px" y="0px"
	 viewBox="0 0 1342.819 2467.669" enable-background="new 0 0 1342.819 2467.669" xml:space="preserve">
<g id="phon_1_">
	<path fill="#FFFFFF" d="M0,146.006v2175.663c0,80.631,47.429,146,105.931,146h1130.957c58.508,0,105.931-65.368,105.931-146.006
		V146.006C1342.825,65.369,1295.397,0,1236.888,0H105.931C47.429,0,0,65.369,0,146.006z"/>
	<rect x="56.966" y="260.574" width="1223.193" height="1934.184"/>
	<text transform="matrix(1 0 0 1 210.8873 1635.489)" fill="#E8E2A0" font-family="'PTSans-Bold'" font-size="152.9855px">Barsuk Studio</text>
	<g>
		<path fill="#D2D2D0" d="M929.334,1020.856l-20.652-32.226c-5.407-8.437-5.508-19.224-0.262-27.761l12.557-20.433
			c4.827-7.855,7.832-16.692,8.792-25.861l2.192-20.928c1.003-9.573-0.249-19.248-3.656-28.25l-4.623-12.214
			c-5.355-14.148-15.723-25.835-29.134-32.836h0c-13.272-6.929-28.613-8.792-43.158-5.242l-13.518,3.299
			c-13.507,3.297-25.504,11.062-34.043,22.035l-11.965,15.376c-5.595,7.19-9.527,15.53-11.514,24.421l-4.453,19.925
			c-1.555,6.958-8.705,11.118-15.522,9.033l-17.521-5.361c-13.514-4.135-27.364-7.078-41.392-8.794h0
			c-19.52-2.389-39.258-2.389-58.777,0h0c-14.028,1.717-27.878,4.66-41.392,8.794l-17.521,5.361
			c-6.817,2.086-13.967-2.075-15.522-9.033l-4.453-19.925c-1.987-8.891-5.919-17.231-11.514-24.421l-11.965-15.376
			c-8.539-10.973-20.535-18.738-34.043-22.035l-13.518-3.299c-14.545-3.55-29.885-1.687-43.158,5.242h0
			c-13.41,7.001-23.779,18.687-29.134,32.836l-4.623,12.214c-3.407,9.002-4.659,18.677-3.656,28.25l2.192,20.928
			c0.961,9.169,3.965,18.006,8.792,25.861l12.557,20.433c5.247,8.537,5.145,19.324-0.262,27.761l-20.652,32.226
			c-2.763,4.312-5.148,8.855-7.127,13.578l-4.37,10.43c-4.548,10.854-6.891,22.506-6.891,34.275v0
			c0,15.632,4.132,30.986,11.976,44.507l5.638,9.718c3.771,6.501,8.354,12.495,13.637,17.84l155.721,157.542
			c9.813,9.927,21.747,17.502,34.908,22.155h0c9.89,3.497,20.304,5.284,30.795,5.284h22.973h22.973
			c10.49,0,20.904-1.787,30.795-5.284l0,0c13.16-4.653,25.095-12.228,34.908-22.155l155.721-157.542
			c5.283-5.345,9.866-11.34,13.637-17.84l5.638-9.718c7.844-13.521,11.976-28.875,11.976-44.507v0
			c0-11.769-2.342-23.42-6.891-34.275l-4.37-10.43C934.481,1029.711,932.097,1025.168,929.334,1020.856z"/>
		<path opacity="0.5" fill="#ADADA8" d="M935.745,1082.377l-5.638,9.717c-3.771,6.501-8.353,12.495-13.637,17.841l-155.721,157.541
			c-9.812,9.928-21.747,17.503-34.908,22.156l0,0c-9.891,3.497-20.305,5.283-30.795,5.283h-22.973h-22.973
			c-10.49,0-20.904-1.787-30.795-5.283l0,0c-13.161-4.653-25.095-12.228-34.908-22.156l-155.721-157.541
			c-5.283-5.345-9.866-11.34-13.637-17.841l-5.638-9.717c-4.349-7.498-7.512-15.57-9.507-23.929
			c-1.623,6.762-2.469,13.704-2.469,20.692c0,15.632,4.132,30.985,11.976,44.507l5.638,9.717
			c3.771,6.501,8.354,12.495,13.637,17.841l155.721,157.541c9.812,9.928,21.747,17.503,34.908,22.156l0,0
			c9.891,3.497,20.304,5.283,30.795,5.283h22.973h22.973c10.49,0,20.904-1.787,30.795-5.283l0,0
			c13.16-4.653,25.095-12.228,34.908-22.156l155.721-157.541c5.283-5.345,9.865-11.34,13.637-17.841l5.638-9.717
			c7.845-13.522,11.976-28.875,11.976-44.507c0-6.988-0.845-13.93-2.468-20.692C943.258,1066.807,940.095,1074.879,935.745,1082.377
			z"/>
		<path fill="#4E4D54" d="M618.025,1092.194l-5.177-25.021c-2.719-13.14-4.089-26.524-4.089-39.943v-97.065
			c0-4.113-1.156-8.143-3.336-11.631l0,0c-2.827-4.522-7.203-7.861-12.312-9.391h0c-3.022-0.905-6.244-0.896-9.26,0.027l-0.08,0.025
			c-6.817,2.086-13.967-2.075-15.522-9.032l-4.453-19.926c-1.987-8.891-5.919-17.231-11.514-24.421l-11.965-15.376
			c-8.539-10.973-20.535-18.738-34.043-22.035l-13.517-3.299c-14.545-3.55-29.885-1.687-43.158,5.242l0,0
			c-13.41,7.001-23.779,18.687-29.134,32.836l-4.623,12.214c-3.407,9.002-4.659,18.677-3.656,28.25l2.192,20.928
			c0.961,9.169,3.965,18.006,8.792,25.861l12.557,20.433c1.658,2.698,2.508,7.062,2.943,10.874
			c0.624,5.462,2.655,10.663,5.874,15.119l55.388,76.651c5.597,7.746,9.917,16.339,12.795,25.452v0
			c3.24,10.259,8.73,19.664,16.071,27.529l3.004,3.218c4.949,5.302,10.668,9.829,16.966,13.427l1.002,0.573
			c7.116,4.066,12.316,10.803,14.447,18.718l3.228,11.99c2.809,10.435,3.604,21.309,2.341,32.041v0
			c-0.782,6.648-2.346,13.18-4.66,19.461l-7.327,19.886l-1.563,7.295c-2.01,9.378-1.47,19.124,1.563,28.223l0,0l0.66-5.281
			c0.586-4.688,1.879-9.261,3.834-13.562v0c3.134-6.895,7.895-12.927,13.874-17.577l8.986-6.989c6.364-4.95,13.9-8.172,21.875-9.354
			l20.182-2.99c5.156-0.764,8.709-5.572,7.927-10.725L618.025,1092.194z"/>
		<path fill="#4E4D54" d="M726.122,1092.194l5.177-25.021c2.719-13.14,4.089-26.524,4.089-39.943v-97.065
			c0-4.113,1.156-8.143,3.336-11.631l0,0c2.826-4.522,7.203-7.861,12.312-9.391l0,0c3.022-0.905,6.244-0.896,9.26,0.027l0.08,0.025
			c6.817,2.086,13.967-2.075,15.522-9.032l4.453-19.926c1.987-8.891,5.919-17.231,11.514-24.421l11.965-15.376
			c8.539-10.973,20.536-18.738,34.043-22.035l13.517-3.299c14.545-3.55,29.885-1.687,43.158,5.242l0,0
			c13.41,7.001,23.779,18.687,29.134,32.836l4.623,12.214c3.407,9.002,4.659,18.677,3.656,28.25l-2.192,20.928
			c-0.961,9.169-3.965,18.006-8.792,25.861l-12.557,20.433c-1.658,2.698-2.508,7.062-2.943,10.874
			c-0.624,5.462-2.655,10.663-5.874,15.119l-55.388,76.651c-5.597,7.746-9.917,16.339-12.795,25.452v0
			c-3.24,10.259-8.73,19.664-16.071,27.529l-3.004,3.218c-4.949,5.302-10.668,9.829-16.966,13.427l-1.002,0.573
			c-7.116,4.066-12.316,10.803-14.447,18.718l-3.228,11.99c-2.809,10.435-3.604,21.309-2.341,32.041v0
			c0.782,6.648,2.346,13.18,4.66,19.461l7.327,19.886l1.563,7.295c2.01,9.378,1.47,19.124-1.563,28.223l0,0l-0.66-5.281
			c-0.586-4.688-1.879-9.261-3.834-13.562v0c-3.134-6.895-7.895-12.927-13.874-17.577l-8.986-6.989
			c-6.364-4.95-13.9-8.172-21.876-9.354l-20.182-2.99c-5.156-0.764-8.709-5.572-7.927-10.725L726.122,1092.194z"/>
		<g id="nose_13_">
			<path fill="#2B271F" d="M726.685,1264.776l-3.094-1.719c-8.526-4.737-17.892-7.771-27.576-8.933l-11.993-1.439
				c-7.937-0.953-15.96-0.953-23.897,0l-11.993,1.439c-9.684,1.162-19.05,4.196-27.576,8.933l-3.094,1.719
				c-7.667,4.259-13.801,10.82-17.535,18.756l-0.883,1.876c-3.586,7.62-3.193,16.516,1.05,23.791l0,0
				c2.625,4.5,6.561,8.092,11.283,10.295l3.615,1.687c8.158,3.807,16.81,6.451,25.703,7.855l1.774,0.28
				c9.426,1.488,18.955,2.236,28.498,2.236h1.106h1.106c9.543,0,19.072-0.748,28.498-2.236l1.774-0.28
				c8.893-1.404,17.544-4.048,25.703-7.855l3.615-1.687c4.721-2.203,8.657-5.795,11.283-10.295l0,0
				c4.243-7.274,4.636-16.171,1.05-23.791l-0.883-1.875C740.486,1275.596,734.352,1269.035,726.685,1264.776z"/>
			<ellipse fill="#181110" cx="636.556" cy="1297.579" rx="18.531" ry="8.493"/>
			<ellipse fill="#181110" cx="709.136" cy="1297.579" rx="18.531" ry="8.493"/>
		</g>
		<g>
			<path fill="#1F2222" d="M746.243,1084.283l4.892-6.736c6.188-8.52,15.381-14.372,25.72-16.371l5.198-1.005
				c9.474-1.832,19.289-0.309,27.762,4.309l4.602,2.508c5.023,2.738,7.442,8.619,5.798,14.099l-2.948,9.827l-6.095,8.281
				c-4.879,6.628-11.765,11.507-19.635,13.911l-4.124,1.26c-6.767,2.068-13.995,2.086-20.772,0.052l0,0
				c-8.54-2.562-15.818-8.216-20.414-15.856l-0.562-0.935C743.162,1093.466,743.39,1088.212,746.243,1084.283z"/>
			<path fill="#2B271F" d="M740.058,1074.197l7.68-9.655c5.143-6.465,11.899-11.46,19.588-14.482l0,0
				c9.014-3.543,18.902-4.214,28.313-1.922l4.56,1.111c6.283,1.53,12.183,4.341,17.33,8.256l6.247,6.341l-5.177-9.614
				c-3.992-7.414-11.912-13.777-19.661-17.072l-1.658-0.705c-7.833-3.332-16.574-3.867-24.755-1.516l-0.659,0.19
				c-7.412,2.13-13.976,6.518-18.777,12.554l0,0c-1.974,2.481-3.621,5.205-4.902,8.105L740.058,1074.197z"/>
		</g>
		<g>
			<path fill="#1F2222" d="M597.904,1084.283l-4.892-6.736c-6.188-8.52-15.381-14.372-25.72-16.371l-5.198-1.005
				c-9.474-1.832-19.289-0.309-27.762,4.309l-4.602,2.508c-5.023,2.738-7.442,8.619-5.798,14.099l2.948,9.827l6.095,8.281
				c4.879,6.628,11.764,11.507,19.635,13.911l4.124,1.26c6.767,2.068,13.995,2.086,20.772,0.052l0,0
				c8.54-2.562,15.818-8.216,20.414-15.856l0.562-0.935C600.986,1093.466,600.758,1088.212,597.904,1084.283z"/>
			<path fill="#2B271F" d="M604.09,1074.197l-7.68-9.655c-5.143-6.465-11.899-11.46-19.588-14.482h0
				c-9.014-3.543-18.902-4.214-28.313-1.922l-4.56,1.111c-6.283,1.53-12.183,4.341-17.33,8.256l-6.247,6.341l5.177-9.614
				c3.992-7.414,11.912-13.777,19.661-17.072l1.658-0.705c7.833-3.332,16.574-3.867,24.756-1.516l0.659,0.19
				c7.412,2.13,13.976,6.518,18.777,12.554l0,0c1.974,2.481,3.621,5.205,4.902,8.105L604.09,1074.197z"/>
		</g>
	</g>
</g>
</svg>
