<?xml version="1.0" encoding="utf-8"?>
<!-- Generator: Adobe Illustrator 24.0.1, SVG Export Plug-In . SVG Version: 6.00 Build 0)  -->
<svg version="1.1" id="Слой_1" xmlns="http://www.w3.org/2000/svg" xmlns:xlink="http://www.w3.org/1999/xlink" x="0px" y="0px"
	 viewBox="0 0 153.448 107" enable-background="new 0 0 153.448 107" xml:space="preserve">
<g>
	<rect y="0.062" fill="none" width="153.448" height="106.86"/>
	<path fill="#2C2C2C" d="M152.959,53.494c-0.603-17.624,1.792-35.875-8.199-45.866c-6.248-6.248-34.691-7.735-68.036-7.566
		C49.394,0.201,17.219-0.422,9.448,7.844C1.792,15.989,1.115,35.541,1.14,53.65s0.129,38.233,8.525,45.634
		c9.719,8.567,49.628,7.638,67.059,7.638c17.924,0,59.973,0.642,69.122-8.507C152.253,92.007,153.569,71.313,152.959,53.494z
		 M62.009,76.261V30.433l39.855,22.914L62.009,76.261z"/>
</g>
</svg>
