<?xml version="1.0" encoding="utf-8"?>
<!-- Generator: Adobe Illustrator 22.1.0, SVG Export Plug-In . SVG Version: 6.00 Build 0)  -->
<svg version="1.1" id="Слой_1" xmlns="http://www.w3.org/2000/svg" xmlns:xlink="http://www.w3.org/1999/xlink" x="0px" y="0px"
	 viewBox="0 0 218.667 400" enable-background="new 0 0 218.667 400" xml:space="preserve">
<g id="phon">
	<path fill="#FFFFFF" d="M1,23.667v352.667C1,389.404,8.688,400,18.171,400h183.324c9.484,0,17.171-10.596,17.171-23.667V23.667
		C218.667,10.596,210.979,0,201.495,0H18.171C8.688,0,1,10.596,1,23.667z"/>
	<rect x="11.883" y="42.238" width="196.626" height="313.524"/>
	<text transform="matrix(1 0 0 1 55.6339 246.9285)" fill="#E8E2A0" font-family="'PTSans-Bold'" font-size="36px">Barsuk</text>
	<text transform="matrix(1 0 0 1 59.6339 288.2619)" fill="#E8E2A0" font-family="'PTSans-Bold'" font-size="36px">studio</text>
	<g id="pick">
		<path fill="#D2D2D0" d="M138.314,149.507l-2.642-4.123c-0.692-1.079-0.705-2.46-0.033-3.552l1.607-2.614
			c0.618-1.005,1.002-2.136,1.125-3.309l0.28-2.678c0.128-1.225-0.032-2.463-0.468-3.614l-0.591-1.563
			c-0.685-1.81-2.012-3.305-3.727-4.201v0c-1.698-0.887-3.661-1.125-5.522-0.671l-1.729,0.422c-1.728,0.422-3.263,1.415-4.356,2.819
			l-1.531,1.967c-0.716,0.92-1.219,1.987-1.473,3.124l-0.57,2.549c-0.199,0.89-1.114,1.423-1.986,1.156l-2.242-0.686
			c-1.729-0.529-3.501-0.906-5.296-1.125h0c-2.497-0.306-5.023-0.306-7.52,0h0c-1.795,0.22-3.567,0.596-5.296,1.125l-2.242,0.686
			c-0.872,0.267-1.787-0.265-1.986-1.156l-0.57-2.549c-0.254-1.138-0.757-2.205-1.473-3.124l-1.531-1.967
			c-1.092-1.404-2.627-2.397-4.356-2.819l-1.729-0.422c-1.861-0.454-3.824-0.216-5.522,0.671l0,0
			c-1.716,0.896-3.042,2.391-3.727,4.201l-0.591,1.563c-0.436,1.152-0.596,2.39-0.468,3.614l0.28,2.678
			c0.123,1.173,0.507,2.304,1.125,3.309l1.607,2.614c0.671,1.092,0.658,2.472-0.033,3.552l-2.642,4.123
			c-0.354,0.552-0.659,1.133-0.912,1.737l-0.559,1.335c-0.582,1.389-0.882,2.879-0.882,4.385l0,0c0,2,0.529,3.964,1.532,5.694
			l0.721,1.243c0.483,0.832,1.069,1.599,1.745,2.283l19.924,20.157c1.255,1.27,2.782,2.239,4.466,2.835l0,0
			c1.265,0.447,2.598,0.676,3.94,0.676h2.939h2.939c1.342,0,2.675-0.229,3.94-0.676h0c1.684-0.595,3.211-1.564,4.466-2.835
			l19.924-20.157c0.676-0.684,1.262-1.451,1.745-2.283l0.721-1.243c1.004-1.73,1.532-3.694,1.532-5.694l0,0
			c0-1.506-0.3-2.996-0.882-4.385l-0.559-1.335C138.973,150.64,138.668,150.058,138.314,149.507z"/>
		<path fill="#4E4D54" d="M98.484,158.634l-0.662-3.201c-0.348-1.681-0.523-3.394-0.523-5.11v-12.419
			c0-0.526-0.148-1.042-0.427-1.488l0,0c-0.362-0.579-0.922-1.006-1.575-1.202l0,0c-0.387-0.116-0.799-0.115-1.185,0.003
			l-0.01,0.003c-0.872,0.267-1.787-0.265-1.986-1.156l-0.57-2.549c-0.254-1.138-0.757-2.205-1.473-3.124l-1.531-1.967
			c-1.092-1.404-2.627-2.397-4.356-2.819l-1.729-0.422c-1.861-0.454-3.824-0.216-5.522,0.671l0,0
			c-1.716,0.896-3.042,2.391-3.727,4.201l-0.591,1.563c-0.436,1.152-0.596,2.39-0.468,3.614l0.28,2.678
			c0.123,1.173,0.507,2.304,1.125,3.309l1.607,2.614c0.212,0.345,0.321,0.904,0.377,1.391c0.08,0.699,0.34,1.364,0.752,1.934
			l7.087,9.807c0.716,0.991,1.269,2.09,1.637,3.256v0c0.414,1.313,1.117,2.516,2.056,3.522l0.384,0.412
			c0.633,0.678,1.365,1.258,2.171,1.718l0.128,0.073c0.91,0.52,1.576,1.382,1.848,2.395l0.413,1.534
			c0.359,1.335,0.461,2.726,0.3,4.099v0c-0.1,0.851-0.3,1.686-0.596,2.49l-0.937,2.544l-0.2,0.933c-0.257,1.2-0.188,2.447,0.2,3.611
			l0,0l0.084-0.676c0.075-0.6,0.24-1.185,0.491-1.735l0,0c0.401-0.882,1.01-1.654,1.775-2.249l1.15-0.894
			c0.814-0.633,1.778-1.046,2.799-1.197l2.582-0.383c0.66-0.098,1.114-0.713,1.014-1.372L98.484,158.634z"/>
		<path fill="#4E4D54" d="M112.314,158.634l0.662-3.201c0.348-1.681,0.523-3.394,0.523-5.11v-12.419
			c0-0.526,0.148-1.042,0.427-1.488l0,0c0.362-0.579,0.922-1.006,1.575-1.202l0,0c0.387-0.116,0.799-0.115,1.185,0.003l0.01,0.003
			c0.872,0.267,1.787-0.265,1.986-1.156l0.57-2.549c0.254-1.138,0.757-2.205,1.473-3.124l1.531-1.967
			c1.092-1.404,2.627-2.397,4.356-2.819l1.729-0.422c1.861-0.454,3.824-0.216,5.522,0.671l0,0c1.716,0.896,3.042,2.391,3.727,4.201
			l0.591,1.563c0.436,1.152,0.596,2.39,0.468,3.614l-0.28,2.678c-0.123,1.173-0.507,2.304-1.125,3.309l-1.607,2.614
			c-0.212,0.345-0.321,0.904-0.377,1.391c-0.08,0.699-0.34,1.364-0.752,1.934l-7.087,9.807c-0.716,0.991-1.269,2.09-1.637,3.256v0
			c-0.414,1.313-1.117,2.516-2.056,3.522l-0.384,0.412c-0.633,0.678-1.365,1.258-2.171,1.718l-0.128,0.073
			c-0.91,0.52-1.576,1.382-1.848,2.395l-0.413,1.534c-0.359,1.335-0.461,2.726-0.3,4.099v0c0.1,0.851,0.3,1.686,0.596,2.49
			l0.937,2.544l0.2,0.933c0.257,1.2,0.188,2.447-0.2,3.611h0l-0.084-0.676c-0.075-0.6-0.24-1.185-0.491-1.735l0,0
			c-0.401-0.882-1.01-1.654-1.775-2.249l-1.15-0.894c-0.814-0.633-1.778-1.046-2.799-1.197l-2.582-0.383
			c-0.66-0.098-1.114-0.713-1.014-1.372L112.314,158.634z"/>
		<g id="nose_1_">
			<path fill="#2B271F" d="M112.972,181.04l-2.072-1.151c-0.371-0.206-0.779-0.338-1.2-0.389l-3.911-0.469
				c-0.259-0.031-0.521-0.031-0.78,0l-3.911,0.469c-0.421,0.051-0.829,0.183-1.2,0.389l-2.072,1.151
				c-0.6,0.333-1.08,0.847-1.372,1.468l-0.398,0.846c-0.459,0.975-0.409,2.113,0.134,3.044l0,0c0.336,0.576,0.84,1.035,1.444,1.317
				l1.618,0.755c0.277,0.129,0.572,0.219,0.874,0.267l3.044,0.481c0.169,0.027,0.34,0.04,0.511,0.04h1.719h1.719
				c0.171,0,0.342-0.013,0.511-0.04l3.044-0.481c0.302-0.048,0.597-0.138,0.874-0.267l1.618-0.755
				c0.604-0.282,1.108-0.741,1.444-1.317l0,0c0.543-0.931,0.593-2.069,0.134-3.044l-0.398-0.846
				C114.052,181.887,113.572,181.374,112.972,181.04z"/>
			<ellipse fill="#181110" cx="100.855" cy="184.912" rx="2.371" ry="1.087"/>
			<ellipse fill="#181110" cx="110.141" cy="184.912" rx="2.371" ry="1.087"/>
		</g>
		<g id="r-eye_1_">
			<path fill="#1F2222" d="M114.889,157.622l0.626-0.862c0.792-1.09,1.968-1.839,3.291-2.095l0.665-0.129
				c1.212-0.234,2.468-0.039,3.552,0.551l0.589,0.321c0.643,0.35,0.952,1.103,0.742,1.804l-0.377,1.257l-0.78,1.059
				c-0.624,0.848-1.505,1.472-2.512,1.78l-0.528,0.161c-0.866,0.265-1.791,0.267-2.658,0.007l0,0
				c-1.093-0.328-2.024-1.051-2.612-2.029l-0.072-0.12C114.495,158.797,114.524,158.124,114.889,157.622z"/>
			<path fill="#2F2826" d="M114.097,156.331l0.983-1.235c0.658-0.827,1.522-1.466,2.506-1.853l0,0
				c1.153-0.453,2.418-0.539,3.622-0.246l0.583,0.142c0.804,0.196,1.559,0.555,2.217,1.056l0.799,0.811l-0.662-1.23
				c-0.511-0.949-1.524-1.763-2.515-2.184l-0.212-0.09c-1.002-0.426-2.121-0.495-3.167-0.194l-0.084,0.024
				c-0.948,0.273-1.788,0.834-2.402,1.606l0,0c-0.253,0.317-0.463,0.666-0.627,1.037L114.097,156.331z"/>
		</g>
		<g id="l-eye_1_">
			<path fill="#1F2222" d="M95.91,157.622l-0.626-0.862c-0.792-1.09-1.968-1.839-3.291-2.095l-0.665-0.129
				c-1.212-0.234-2.468-0.039-3.552,0.551l-0.589,0.321c-0.643,0.35-0.952,1.103-0.742,1.804l0.377,1.257l0.78,1.059
				c0.624,0.848,1.505,1.472,2.512,1.78l0.528,0.161c0.866,0.265,1.791,0.267,2.658,0.007h0c1.093-0.328,2.024-1.051,2.612-2.029
				l0.072-0.12C96.304,158.797,96.275,158.124,95.91,157.622z"/>
			<path fill="#2F2826" d="M96.701,156.331l-0.983-1.235c-0.658-0.827-1.522-1.466-2.506-1.853l0,0
				c-1.153-0.453-2.418-0.539-3.622-0.246l-0.583,0.142c-0.804,0.196-1.559,0.555-2.217,1.056l-0.799,0.811l0.662-1.23
				c0.511-0.949,1.524-1.763,2.515-2.184l0.212-0.09c1.002-0.426,2.121-0.495,3.167-0.194l0.084,0.024
				c0.948,0.273,1.788,0.834,2.402,1.606l0,0c0.253,0.317,0.463,0.666,0.627,1.037L96.701,156.331z"/>
		</g>
	</g>
</g>
</svg>
