<?xml version="1.0" encoding="utf-8"?>
<!-- Generator: Adobe Illustrator 24.0.1, SVG Export Plug-In . SVG Version: 6.00 Build 0)  -->
<svg version="1.1" id="Слой_1" xmlns="http://www.w3.org/2000/svg" xmlns:xlink="http://www.w3.org/1999/xlink" x="0px" y="0px"
	 viewBox="0 0 104.624 107" enable-background="new 0 0 104.624 107" xml:space="preserve">
<g>
	<path fill="#2C2C2C" d="M58.904,48.802l16.381-16.409L18.368,1.508c-2.544-1.38-5.276-1.609-7.757-0.992L58.904,48.802z"/>
	<path fill="#2C2C2C" d="M54.382,53.331L4.991,3.946C3.36,5.812,2.325,8.252,2.325,11.055v84.802c0,2.76,1.003,5.169,2.591,7.024
		L54.382,53.331z"/>
	<path fill="#2C2C2C" d="M96.573,43.945l-15.422-8.369L63.43,53.327l17.947,17.944l15.19-8.229
		C104.148,58.936,104.152,48.057,96.573,43.945z"/>
	<path fill="#2C2C2C" d="M58.908,57.857l-48.427,48.509c2.513,0.657,5.294,0.443,7.881-0.958l57.144-30.955L58.908,57.857z"/>
</g>
</svg>
