<?xml version="1.0" encoding="utf-8"?>
<!-- Generator: Adobe Illustrator 22.1.0, SVG Export Plug-In . SVG Version: 6.00 Build 0)  -->
<svg version="1.1" id="Слой_1" xmlns="http://www.w3.org/2000/svg" xmlns:xlink="http://www.w3.org/1999/xlink" x="0px" y="0px"
	 viewBox="0 0 1024 584.346" enable-background="new 0 0 1024 584.346" xml:space="preserve">
<g id="loadwindow">
	<g id="ocean_x5F_loadwindow">
		<rect y="84.346" fill="#82D3EA" width="1024" height="500"/>
		<path fill="#78C3D0" d="M214.439,450.734l31.752-3.028c11.783-1.124,23.909-1.693,36.084-1.693h21.517
			c14.235,0,28.417,0.641,42.228,1.907l10.873,0.997c13.151,1.206,26.657,1.816,40.213,1.816h26.897l-19.05,2.444
			c-18.597,2.386-38.426,3.197-57.999,2.371l-18.228-0.769l-38.076-1.117c-12.888-0.378-25.856-0.149-38.585,0.683l-13.722,0.896
			c-15.748,1.028-31.917,0.788-47.386-0.706l-11.446-1.105L214.439,450.734z"/>
		<path fill="#78C3D0" d="M612.263,446.013l81.717-9.105l45.763-2.521c22.439-1.236,45.221-1.395,67.772-0.472h0
			c21.215,0.868,42.639,0.784,63.798-0.251l23.291-1.139l-13.895,2.424c-27.745,4.839-58.146,7.28-88.864,7.134h0
			c-16.261-0.077-32.518,0.245-48.661,0.965l-44.813,1.999c-14.437,0.644-28.966,0.967-43.509,0.967H612.263z"/>
		<path fill="#78C3D0" d="M438.585,507.723l4.556-0.438c20.247-1.948,41.092-2.934,62.023-2.934h0
			c26.032,0,51.95,1.267,77.074,3.766c15.527,1.545,29.949,2.978,30.025,2.978h0c34.189,0,68.144-2.071,100.494-6.129l4.901-0.615
			l-32.208,6.429c-16.678,3.329-34.874,5.511-53.692,6.439h0c-21.919,1.08-44.18,0.787-65.831-0.868l-13.474-1.03
			c-13.299-1.017-26.823-1.588-40.404-1.706l-42.439-0.371c-9.56-0.083-19.126,0.056-28.638,0.417l-65.682,2.493l15.433-2.417
			C406.253,511.305,422.251,509.295,438.585,507.723z"/>
		<path fill="#78C3D0" d="M849.328,486.518l48.398-3.674c15.084-1.145,30.448-1.722,45.852-1.722h10.38
			c22.517,0,44.978,0.829,67.044,2.474l2.999,0.224v5.845l-33.909-2.779c-12.1-0.992-24.461-1.492-36.859-1.492H904.37
			c-6.51,0-13.017,0.081-19.512,0.242L849.328,486.518z"/>
		<path fill="#78C3D0" d="M5.035,498.659l10.423-1.99c10.292-1.965,21.14-3.509,32.351-4.606l10.723-1.049
			c9.146-0.895,18.572-1.348,28.037-1.348h0c14.932,0,29.792,0.764,44.15,2.269l8.856,0.928c8.253,0.865,16.673,1.499,25.188,1.897
			l14.141,0.66c14.061,0.657,28.313,0.517,42.258-0.414l12.628-0.843l-40.258,4.479c-16.089,1.79-33.021,2.325-49.707,1.571
			l-24.411-1.104l-30.987-1.799l-7.162-0.344c-20.088-0.964-40.464-0.759-60.378,0.606L5.035,498.659z"/>
		<path fill="#78C3D0" d="M17.158,565.655l36.837-5.274c8.896-1.274,18.24-2.077,27.752-2.386l55.331-1.799
			c18.005-0.585,36.146-0.214,53.862,1.103l17.512,1.302c16.776,1.247,33.998,1.469,50.971,0.656l26.006-1.245l-32.671,4.384
			c-15.954,2.141-33.086,2.829-49.924,2.004l-27.607-1.353c-7.323-0.359-14.709-0.518-22.096-0.477l-63.399,0.352
			c-4.26,0.024-8.514,0.122-12.748,0.295L17.158,565.655z"/>
		<path fill="#78C3D0" d="M661.733,558.617l23.568-1.694c12.107-0.87,24.567-1.435,37.172-1.685l19.938-0.395
			c17.506-0.347,35.128-0.148,52.417,0.594l11.358,0.487c16.297,0.699,32.824,1.05,49.383,1.05h2.635
			c19.982,0,39.81-0.828,58.595-2.448l2.388-0.206l-19.493,2.617c-18.985,2.549-39.763,4.255-61.318,5.034h0
			c-11.602,0.42-23.401,0.428-35.012,0.024l-14.752-0.513c-13.201-0.459-26.526-0.69-39.868-0.69h-22.57
			c-9.729,0-19.451,0.123-29.124,0.368l-56.976,1.444l0,0C644.983,560.686,652.695,559.266,661.733,558.617z"/>
		<path fill="#78C3D0" d="M1.226,414.126v5.845l15.696,0.92c13.262,0.777,26.824,0.506,39.777-0.796l19.869-1.997H50.311
			c-15.428,0-30.701-1.132-44.92-3.329L1.226,414.126z"/>
		<path fill="#78C3D0" d="M966.695,392.372l9.906-0.827c9.036-0.754,18.266-1.153,27.533-1.188l18.002-0.068l1.226,6.357
			l-15.161-1.223c-16.686-1.346-33.989-1.278-50.593,0.198l-11.531,1.025l0,0C951.665,394.514,958.833,393.029,966.695,392.372z"/>
		<path fill="#78C3D0" d="M1.226,284.649l12.612-0.463c15.345-0.563,30.842-0.105,45.744,1.352h0
			c12.52,1.224,25.336,1.998,38.266,2.309l8.45,0.203c18.571,0.447,37.189-0.564,54.612-2.965l7.574-1.044l-15.249,2.728
			c-17.222,3.081-35.996,4.82-55.14,5.109l-0.127,0.002c-8.723,0.131-17.461-0.033-26.102-0.492l-14.691-0.78
			c-16.345-0.868-32.984-0.629-49.095,0.704L0,291.982L1.226,284.649z"/>
		<path fill="#78C3D0" d="M902.373,289.802l8.655-0.909c10.964-1.151,22.155-1.995,33.476-2.525l3.225-0.151
			c14.945-0.699,30.099-0.548,44.915,0.448h0c4.931,0.331,9.796,0.78,14.565,1.341l16.791,1.978v5.433l-7.543-0.749
			c-20.124-1.999-40.896-3.012-61.761-3.012h-4.833c-6.841,0-13.673,0.174-20.446,0.521l-63.307,3.241l2.544-0.514
			C879.325,292.745,890.637,291.034,902.373,289.802z"/>
		<path fill="#78C3D0" d="M154.004,238.092l29.766-4.262c7.188-1.029,14.739-1.678,22.425-1.928l44.71-1.453
			c14.549-0.473,29.207-0.173,43.522,0.891l14.15,1.052c13.556,1.008,27.472,1.187,41.187,0.53l21.014-1.006l-26.399,3.543
			c-12.891,1.73-26.735,2.286-40.341,1.619l-22.307-1.093c-5.917-0.29-11.885-0.419-17.855-0.386l-51.229,0.285
			c-3.442,0.019-6.879,0.099-10.3,0.238L154.004,238.092z"/>
		<path fill="#78C3D0" d="M656.87,237.101l20.781-1.26c10.676-0.647,21.638-1.023,32.706-1.122l17.507-0.156
			c15.371-0.137,30.806,0.207,45.909,1.022l9.922,0.535c14.237,0.768,28.7,1.235,43.217,1.393l2.31,0.025
			c17.517,0.191,34.959-0.345,51.541-1.585l2.108-0.158l-17.274,2.108c-16.824,2.053-35.16,3.35-54.112,3.827l0,0
			c-10.2,0.257-20.545,0.151-30.695-0.314l-12.896-0.591c-11.54-0.529-23.205-0.858-34.901-0.986l-19.786-0.216
			c-8.529-0.093-17.06-0.078-25.558,0.044l-50.05,0.721l0,0C642.039,238.755,648.9,237.584,656.87,237.101z"/>
	</g>
	<g id="crab8_1_">
		<g id="body-crab8_2_">
			<path fill="#C46565" d="M181.584,344.595l-12.685-4.896c-0.188-0.073-0.383-0.128-0.582-0.164l-7.681-1.404
				c-0.287-0.052-0.58-0.066-0.871-0.04l-7.359,0.663c-0.291,0.026-0.577,0.092-0.85,0.195l-7.305,2.754
				c-0.189,0.071-0.371,0.16-0.543,0.265l-10.699,6.532c-1.138,0.695-2.041,1.714-2.592,2.926l0,0
				c-0.475,1.044-0.671,2.193-0.569,3.336l0.335,3.758c0.064,0.712,0.242,1.409,0.528,2.064l4.47,10.243
				c0.121,0.278,0.282,0.538,0.476,0.771l9.709,11.661c0.328,0.393,0.745,0.703,1.216,0.904l3.425,1.455
				c0.412,0.175,0.856,0.263,1.304,0.257l8.533-0.107c0.162-0.002,0.323-0.016,0.483-0.042l8.966-1.472
				c0.447-0.073,0.873-0.24,1.251-0.488l3.102-2.04c0.428-0.282,0.783-0.661,1.035-1.107l7.459-13.206
				c0.149-0.264,0.26-0.548,0.33-0.844l2.686-11.418c0.079-0.336,0.103-0.684,0.072-1.028l-0.478-5.212
				c-0.051-0.552-0.244-1.082-0.56-1.538l-1.118-1.61C182.704,345.234,182.186,344.827,181.584,344.595z"/>
			<path fill="#D34B4B" d="M142.631,341.533l0.734,3.749l1.366-1.038l1.88-0.936l-1.751-2.103c-0.41-0.492-0.689-1.079-0.812-1.706
				l-0.593-3.027l-2.815,0.548l1.516,3.102C142.376,340.571,142.535,341.045,142.631,341.533z"/>
			<path fill="#D34B4B" d="M166.898,341.238l1.658,0.449l1.961,0.952l-0.628-2.934c-0.16-0.749-0.172-1.521-0.036-2.274l0.599-3.3
				l-2.778,0.021l0.137,3.741c0.017,0.458-0.053,0.914-0.206,1.346L166.898,341.238z"/>
			
				<ellipse transform="matrix(0.9812 -0.1928 0.1928 0.9812 -61.3743 33.4132)" fill="#4B441C" cx="141.006" cy="332.078" rx="3.342" ry="5.364"/>
			
				<ellipse transform="matrix(1 -0.0076 0.0076 1 -2.5046 1.2965)" fill="#4B441C" cx="169.016" cy="329.583" rx="3.185" ry="5.111"/>
			<path fill="#D34B4B" d="M150.645,344.407c-0.504,0.328-1.182,0.15-1.459-0.383l-0.436-0.84c-0.652-1.257-1.102-2.926-1.263-4.683
				l-0.268-2.923l1.44,3.637c0.435,1.099,0.987,1.953,1.591,2.464l1.177,0.995c0.408,0.345,0.368,0.985-0.08,1.277L150.645,344.407z
				"/>
			<path fill="#D34B4B" d="M161.626,342.828c-0.436-0.217-0.529-0.797-0.183-1.139l0.89-0.881c0.478-0.474,0.855-1.278,1.082-2.306
				l0.988-4.492l0.145,5.377c0.04,1.475-0.21,2.82-0.687,3.703l-0.094,0.104c-0.259,0.286-0.678,0.365-1.023,0.193L161.626,342.828z
				"/>
		</g>
		<g id="left-claw8_2_">
			<path fill="#BD4A4A" d="M133.076,351.302l1.044,1.123c0.342,0.368,0.601,0.806,0.758,1.283l0.544,1.648
				c0.272,0.824,0.139,1.727-0.359,2.439h0c-0.823,1.176-2.007,2.055-3.373,2.503l-1.507,0.495c-0.506,0.166-1.03,0.271-1.562,0.312
				l-5.81,0.451c-0.417,0.032-0.836,0.025-1.252-0.021l-4.878-0.542l0.701-1.813c0.509-1.316,0.751-2.719,0.714-4.129l-0.03-1.143
				c-0.021-0.805,0.083-1.608,0.31-2.381l0.442-1.508l11.741,0.167C131.516,350.198,132.426,350.602,133.076,351.302z"/>
			<path fill="#C64D4D" d="M116.682,360.992l-6.582-4.991c-1.238-0.939-2.161-2.23-2.647-3.703l-1.997-6.054l2.371-1.419
				c0.755-0.451,1.648-0.614,2.514-0.458l1.95,0.351c0.688,0.124,1.326,0.444,1.837,0.921l4.689,4.379l-0.43,1.469
				c-0.234,0.799-0.342,1.63-0.32,2.462l0.043,1.636c0.028,1.057-0.154,2.109-0.535,3.096L116.682,360.992z"/>
			<path fill="#CD3D2B" d="M105.457,346.244l-1.509-8.283c-0.24-1.316-0.318-2.656-0.232-3.99l0.43-6.674
				c0.056-0.869,0.181-1.732,0.374-2.582l1.317-5.79l3.559,2.478c0.758,0.528,1.65,0.833,2.574,0.88l5.365,0.272l1.053,1.233
				c0.931,1.09,2.292,1.722,3.727,1.73l2.715,0.016l-1.961,7.546c-0.152,0.584-0.345,1.156-0.579,1.713l-2.393,5.688
				c-0.332,0.79-0.745,1.544-1.23,2.251l-2.991,4.351l-0.91-0.85c-0.926-0.865-2.082-1.444-3.331-1.669h0
				c-1.57-0.283-3.19,0.012-4.558,0.831L105.457,346.244z"/>
			<path id="left-claw1_1_" fill="#B82A2C" d="M105.663,321.47l-1.485-2.636c-0.553-0.982-0.948-2.044-1.17-3.148l-0.536-2.661
				c-0.441-2.19-0.186-4.462,0.728-6.501l0.539-1.202c0.666-1.485,1.661-2.799,2.911-3.844l1.725-1.442
				c1.229-1.027,2.672-1.768,4.224-2.168l2.833-0.73c0.302-0.078,0.587,0.176,0.542,0.485l-0.25,1.729
				c-0.078,0.538-0.273,1.052-0.572,1.506l-1.419,2.156c-0.706,1.074-1.052,2.344-0.987,3.626l0.244,4.808
				c0.051,0.994,0.346,1.961,0.861,2.814l3.147,5.216c0.576,0.955,0.526,2.162-0.129,3.066l0,0c-0.434,0.6-0.989,1.103-1.629,1.477
				l-0.415,0.242c-0.826,0.483-1.76,0.752-2.717,0.783l-0.682,0.022c-0.742,0.024-1.482-0.096-2.179-0.352l0,0
				c-0.938-0.346-1.769-0.93-2.411-1.694l-0.571-0.68C106.039,322.071,105.837,321.779,105.663,321.47z"/>
			<path id="left-claw2_1_" fill="#B82A2C" d="M119.668,320.741l4.093-2.487c0.442-0.269,0.861-0.573,1.254-0.91l4.153-3.566
				c0.859-0.737,1.578-1.622,2.124-2.612l2.187-3.965c0.258-0.468,0.64-0.857,1.105-1.124l1.388-0.798
				c0.289-0.166,0.643,0.07,0.6,0.4l-0.924,7.099c-0.094,0.721-0.305,1.422-0.625,2.076l-2.992,6.109
				c-0.372,0.76-0.885,1.442-1.512,2.012l-3.298,2.994c-0.316,0.287-0.681,0.515-1.078,0.674l-2.083,0.832
				c-0.138,0.055-0.279,0.101-0.422,0.139l-1.146,0.3c-0.537,0.141-1.1,0.155-1.644,0.041l-0.175-0.037
				c-1.041-0.218-1.932-0.887-2.429-1.826l0,0c-0.26-0.49-0.401-1.034-0.413-1.588l-0.009-0.399
				c-0.014-0.634,0.141-1.261,0.451-1.815l0.131-0.235C118.704,321.514,119.14,321.062,119.668,320.741z"/>
		</g>
		<g id="right-claw8_2_">
			<path fill="#BD4A4A" d="M182.87,344.758l10.656-5.694l2.068,2.019c0.919,0.898,1.488,2.092,1.605,3.37l0.068,0.742
				c0.128,1.397,0.647,2.729,1.498,3.846l0.341,0.447l-4.641,3.127c-0.531,0.358-1.116,0.627-1.734,0.798l-3.091,0.857
				c-0.417,0.116-0.845,0.185-1.277,0.208l-2.547,0.134c-0.36,0.019-0.72-0.011-1.072-0.088l-1.15-0.253
				c-0.764-0.168-1.461-0.556-2.006-1.116l-0.467-0.479c-0.538-0.553-0.904-1.25-1.054-2.007l-0.093-0.471
				c-0.143-0.724-0.081-1.473,0.177-2.164l0.241-0.642c0.242-0.646,0.648-1.219,1.179-1.662l0.62-0.517
				C182.402,345.039,182.629,344.886,182.87,344.758z"/>
			<path fill="#C64D4D" d="M193.525,339.064l3.004-7.023l4.34-2.105l4.448,1.15l1.059,1.841c0.573,0.996,0.782,2.159,0.592,3.291
				l-0.842,5.02c-0.172,1.029-0.665,1.977-1.408,2.71l-5.613,5.541l-1.107-1.454c-0.35-0.459-0.563-1.007-0.616-1.581l-0.194-2.11
				c-0.111-1.208-0.649-2.337-1.518-3.186L193.525,339.064z"/>
			<path fill="#CD3D2B" d="M205.317,331.085l-3.495-9.786c-0.182-0.508-0.413-0.998-0.69-1.461l-4.109-6.864
				c-0.278-0.465-0.602-0.901-0.966-1.303l-5.138-5.671l-1.5,4.609c-0.462,1.419-1.57,2.536-2.988,3.012l-3.957,1.328l-0.441,1.851
				c-0.382,1.605-1.578,2.895-3.153,3.399l-2.661,0.852l3.988,4.406c0.75,0.828,1.603,1.557,2.538,2.169l4.607,3.013
				c0.56,0.366,1.147,0.689,1.756,0.965l6.371,2.891l0.332-0.775c0.463-1.083,1.303-1.963,2.365-2.478l1.069-0.519
				c1.048-0.508,2.244-0.628,3.373-0.336L205.317,331.085z"/>
			<path id="right-claw1_1_" fill="#B82A2C" d="M190.461,304.929l-1.42-3.318c-0.435-1.017-1.025-1.962-1.749-2.8l-1.745-2.021
				c-0.568-0.657-1.213-1.244-1.921-1.746l-1.229-0.872c-1.598-1.134-3.476-1.812-5.432-1.962l-1.404-0.107
				c-1.201-0.092-2.41,0.018-3.575,0.324l-6.279,1.651c-0.373,0.098-0.48,0.576-0.183,0.822l0.695,0.578
				c0.335,0.278,0.735,0.467,1.163,0.548l2.415,0.454c0.475,0.089,0.935,0.241,1.369,0.452l2.052,0.997
				c0.74,0.359,1.388,0.882,1.895,1.528l1.854,2.36c0.501,0.637,0.905,1.344,1.199,2.099l4.016,10.288
				c0.191,0.49,0.494,0.93,0.884,1.285l0,0c0.711,0.647,1.662,0.965,2.62,0.878l1.016-0.093c0.809-0.074,1.565-0.432,2.134-1.011
				l1.58-1.608c0.463-0.471,0.774-1.07,0.893-1.719l0,0c0.24-1.306,0.236-2.646-0.013-3.951l-0.16-0.84
				C190.993,306.384,190.766,305.641,190.461,304.929z"/>
			<path id="right-claw2_1_" fill="#B82A2C" d="M175.747,320.753l-2.829-1.783c-0.79-0.498-1.482-1.135-2.043-1.88l-2.427-3.224
				c-0.695-0.923-1.173-1.991-1.397-3.124l-1.28-6.477c-0.051-0.26-0.089-0.522-0.113-0.785l-0.756-8.239
				c-0.031-0.343,0.368-0.552,0.633-0.332l0.773,0.643c0.278,0.231,0.509,0.514,0.68,0.832l3.329,6.195
				c0.363,0.676,0.797,1.311,1.295,1.895l3.997,4.688c0.433,0.507,0.912,0.974,1.43,1.393l5.085,4.111
				c0.232,0.188,0.437,0.406,0.609,0.649l0.153,0.217c0.465,0.658,0.668,1.466,0.568,2.265l-0.064,0.512
				c-0.108,0.867-0.564,1.654-1.263,2.181l-0.42,0.317c-0.483,0.364-1.058,0.586-1.661,0.641l-0.956,0.087
				c-0.338,0.031-0.678,0.009-1.009-0.066l-1.316-0.296C176.405,321.093,176.06,320.951,175.747,320.753z"/>
		</g>
		<g id="crab8-rightleg1_1_">
			<path fill="#C64D4D" d="M185.429,361.867l-0.667,0.6c-0.29,0.26-0.682,0.376-1.067,0.313l-1.213-0.196
				c-0.195-0.032-0.38-0.108-0.541-0.222l-1.176-0.837c-0.167-0.119-0.303-0.276-0.397-0.459l-0.086-0.168
				c-0.244-0.474-0.169-1.048,0.188-1.444l8.842-9.806l1.691,1.663l2.655,1.562l-8.139,8.906
				C185.49,361.809,185.46,361.839,185.429,361.867z"/>
		</g>
		<path fill="#4B441C" d="M151.431,347.931l1.006,0.441c0.742,0.325,1.545,0.488,2.355,0.476l1.464-0.021
			c0.383-0.006,0.765-0.05,1.139-0.133l1.878-0.415c0.762-0.168,1.482-0.493,2.112-0.953l0.488-0.356
			c0.142-0.103,0.192-0.291,0.122-0.452l-0.078-0.177c-0.07-0.159-0.242-0.248-0.413-0.212l-1.825,0.383l-2.74,0.506
			c-0.225,0.042-0.452,0.074-0.68,0.098l-1.167,0.122c-0.843,0.088-1.694,0.053-2.526-0.105l-0.563-0.106
			c-0.143-0.027-0.289,0.027-0.379,0.141l-0.291,0.366C151.228,347.668,151.276,347.864,151.431,347.931z"/>
		<path fill="#4B441C" d="M152.421,347.709l2.323,0.728c0.89,0.279,1.827,0.379,2.757,0.294l0.609-0.056
			c1.294-0.118,2.531-0.591,3.573-1.366l0.66-0.491c0.134-0.1,0.207-0.262,0.192-0.429l-0.239-0.447l-0.45-0.111
			c-0.187-0.056-0.388-0.041-0.563,0.043l-0.867,0.416c-0.305,0.146-0.629,0.249-0.963,0.304l-1.505,0.249
			c-0.418,0.069-0.843,0.085-1.264,0.047l-1.792-0.161l-1.77-0.194c-0.079-0.009-0.159-0.002-0.236,0.021l-0.439,0.127
			c-0.237,0.069-0.392,0.295-0.37,0.541l0.006,0.061C152.098,347.484,152.232,347.65,152.421,347.709z"/>
	</g>
	<g id="island_x5F_loadwindow">
		<path fill="#F2F1AC" d="M72.484,415.982l62.113-31.786c18.576-9.506,39.222-17.648,61.445-24.233l89.715-26.581l78.37-14.622
			c50.386-9.401,103.13-14.192,156.219-14.192h0c43.145,0,86.038,3.698,127.2,10.967l25.946,4.582
			c28.254,4.989,55.546,11.559,81.467,19.61l65.357,20.301c21.114,6.558,41.319,14.003,60.441,22.27l70.949,30.673
			c3.66,1.582,3.947,4.627,0.605,6.418l-28.242,15.136c-5.267,2.823-10.263,5.801-14.968,8.921l-21.674,14.375
			c-2.901,1.924-5.69,3.901-8.361,5.928l-14.011,10.632c-9.961,7.559-22.316,14.021-36.446,19.062l-0.317,0.113
			c-10.61,3.785-22.102,6.727-34.148,8.74l-8.807,1.472c-12.596,2.106-25.669,3.175-38.81,3.175h-7.146
			c-10.198,0-20.38,0.434-30.462,1.297l-22.761,1.949c-12.084,1.035-23.977,2.683-35.531,4.925l-37.902,7.354
			c-6.043,1.172-12.19,2.167-18.417,2.981l-45.404,5.93c-12.479,1.63-25.249,2.453-38.061,2.453h-28.584
			c-7.299,0-14.591-0.267-21.828-0.8l-34.935-2.57c-12.917-0.95-25.562-2.832-37.624-5.598l0,0
			c-12.864-2.95-26.697-4.329-40.582-4.045l-18.189,0.373c-5.074,0.104-10.125,0.429-15.109,0.973l-33.681,3.677
			c-13.511,1.475-27.37,1.647-40.984,0.509l-9.941-0.831c-10.255-0.857-20.273-2.45-29.808-4.738l-34.424-8.262
			c-12.696-3.047-24.195-7.474-33.839-13.026l-21.78-12.539c-5.756-3.314-12.008-6.342-18.689-9.053h0
			c-12.022-4.878-21.5-11.477-27.45-19.111l-2.837-3.64c-2.521-3.234-4.38-6.619-5.542-10.089l-3.922-11.708
			c-0.483-1.443,0.198-2.932,1.86-4.065L72.484,415.982z"/>
		<path fill="#A3D95E" d="M88.425,407.824l6.555,5.578c14.13,12.025,33.602,21.767,56.487,28.263h0
			c9.372,2.66,19.224,4.749,29.387,6.232l45.991,6.708l37.086,6.18c19.993,3.332,41.004,4.278,61.686,2.776l31.464-2.284
			c12.023-0.873,24.144-1.247,36.265-1.12l56.464,0.593c6.995,0.073,13.981,0.314,20.939,0.72l53.936,3.151
			c13.817,0.807,27.761,0.621,41.494-0.553l38.257-3.273c6.459-0.553,12.951-0.975,19.464-1.268l48.991-2.199
			c13.898-0.624,27.651-2.025,41.055-4.183l43.569-7.015c20.375-3.28,40.088-7.744,58.818-13.319l24.819-7.387
			c4.705-1.4,9.28-2.934,13.709-4.595l12.23-4.587c15.88-5.955,29.701-13.484,40.79-22.218l0,0L870,377.648
			c-11.962-5.171-24.6-9.828-37.808-13.931l0,0l-79.06-24.557c-24.707-7.674-50.72-13.936-77.651-18.692l-31.403-5.545
			c-38.851-6.86-79.376-10.251-120.097-10.049l-21.137,0.105c-44.145,0.219-87.959,4.312-129.859,12.129l-56.581,10.556
			c-20.398,3.806-40.203,8.549-59.216,14.182l-59.479,17.623c-23.331,6.913-45.006,15.461-64.508,25.441L88.425,407.824z"/>
	</g>
	<g id="crab8-leftleg1_5_">
		<path fill="#C64D4D" d="M134.756,367.941l0.728-0.74c0.382-0.388,0.567-0.929,0.503-1.469l-0.154-1.29
			c-0.033-0.274-0.129-0.537-0.28-0.768l-0.887-1.356c-0.157-0.24-0.369-0.439-0.619-0.58l0,0c-0.648-0.367-1.456-0.296-2.031,0.176
			l-12.172,10.009l1.924,2.115l1.752,3.268L134.756,367.941z"/>
		<path fill="#CA5D5D" d="M119.845,371.925l-6.022,3.761c-0.993,0.62-1.805,1.489-2.355,2.52l-2.395,4.486
			c-0.442,0.828-0.705,1.741-0.77,2.677l-0.476,6.85l2.686,0.245l1.825,1.359l0.93-4.564c0.207-1.018,0.65-1.973,1.292-2.79
			l1.478-1.881c0.51-0.648,1.135-1.197,1.845-1.618l1.491-0.885c0.782-0.464,1.46-1.082,1.994-1.816l2.153-2.96l-1.752-3.268
			L119.845,371.925z"/>
		<path fill="#CD3D2B" d="M107.826,392.218l0.737,5.619c0.117,0.89,0.34,1.764,0.666,2.601l1.343,3.456
			c0.397,1.022,0.942,1.981,1.618,2.846l1.461,1.871c0.254,0.326,0.775,0.078,0.68-0.324l-0.993-4.226
			c-0.124-0.526-0.209-1.06-0.255-1.599l-0.746-8.639l-1.825-1.359L107.826,392.218z"/>
	</g>
	<g id="crab8-leftleg2_3_">
		<path fill="#C64D4D" d="M137.663,371.405l0.05-0.016c0.536-0.169,1.115-0.129,1.622,0.113l0.529,0.252
			c0.404,0.192,0.739,0.502,0.963,0.888l0.229,0.395c0.205,0.354,0.307,0.757,0.296,1.165l-0.005,0.169
			c-0.013,0.477-0.18,0.936-0.477,1.31l-8.963,11.31l-1.554-2.683l-2.622-1.128l8.87-11.049
			C136.876,371.789,137.245,371.536,137.663,371.405z"/>
		<path fill="#CA5D5D" d="M127.822,383.206l-1.625,2.056c-0.706,0.893-1.154,1.961-1.295,3.089l-0.984,7.862
			c-0.062,0.495-0.064,0.996-0.007,1.492l0.647,5.56l2.093-1.256l2.034,1.6l0.176-5.397c0.031-0.949,0.278-1.878,0.724-2.717
			l2.187-4.119c0.317-0.598,0.535-1.243,0.645-1.91l0.7-4.261l-2.439-1.919L127.822,383.206z"/>
		<path fill="#CD3D2B" d="M124.558,403.265l0.445,6.802c0.072,1.105,0.387,2.181,0.922,3.151l2.716,4.923
			c0.166,0.301,0.626,0.155,0.588-0.186l-0.856-7.562c-0.05-0.439-0.061-0.882-0.033-1.323l0.345-5.461l-2.034-1.6L124.558,403.265z
			"/>
	</g>
	<path fill="#CA5D5D" d="M189.419,349.551l5.647-1.426c0.983-0.248,2.015-0.235,2.992,0.039l3.959,1.11
		c0.784,0.22,1.512,0.602,2.139,1.121l4.355,3.612l-1.39,1.746l-0.227,1.87l-3.428-2.156c-0.632-0.398-1.348-0.643-2.092-0.716
		l-2.293-0.226c-0.591-0.058-1.187-0.007-1.759,0.151l-1.666,0.461c-0.63,0.174-1.289,0.219-1.936,0.13l-3.165-0.431l-0.963-2.921
		L189.419,349.551z"/>
	<path fill="#CD3D2B" d="M208.51,354.006l3.213,3.979c0.299,0.371,0.553,0.776,0.756,1.207l1.694,3.6
		c0.248,0.526,0.417,1.086,0.502,1.661l0.422,2.845c0.036,0.242-0.284,0.364-0.418,0.158l-2.334-3.568
		c-0.157-0.24-0.331-0.468-0.521-0.683l-4.932-5.583l0.227-1.87L208.51,354.006z"/>
	<g>
		<path fill="#ACAC52" d="M722.889,433.62l9.881,15.756l10.483,7.857c3.54,2.653,7.5,4.697,11.716,6.048l15.491,4.962
			c3.459,1.108,7.054,1.737,10.685,1.87l20.34,0.745c4.297,0.157,8.59-0.382,12.713-1.598l10.491-3.092
			c4.598-1.355,8.912-3.53,12.734-6.419l3.74-2.828c3.246-2.454,6.094-5.391,8.444-8.708l6.005-8.475l-14.798,11.929l-31.627,8.066
			l-24.397-0.515l-22.583-8.394l-9.725-7.96l-0.441-8.733l-4.144-7.859l-12.125-5.14l-12.012,1.972L722.889,433.62z"/>
		<g>
			<path fill="#CACF5C" d="M759.284,451.884l-8.937,7.497c-0.865,0.725-1.656,1.534-2.362,2.413l-3.621,4.51
				c-1.307,1.628-2.306,3.479-2.949,5.463l-1.82,5.615c-0.826,2.548-0.909,5.277-0.24,7.871l1.052,4.074
				c1.059,4.1,3.905,7.511,7.756,9.293l6.976,3.228c1.543,0.714,3.202,1.145,4.898,1.272l15.837,1.187
				c2.02,0.151,4.026-0.436,5.643-1.652l1.717-1.291c1.291-0.971,2.271-2.295,2.821-3.812l1.161-3.201
				c0.432-1.191,0.585-2.465,0.448-3.724l-0.234-2.155c-0.306-2.818-2.031-5.287-4.575-6.549l-1.128-0.56
				c-1.327-0.658-2.806-0.952-4.284-0.851l-5.276,0.362c-1.755,0.12-3.507-0.273-5.042-1.132l-2.58-1.444
				c-1.412-0.79-2.129-2.416-1.76-3.988l0.743-3.161c0.403-1.714,1.07-3.355,1.979-4.865l6.491-10.789l-11.723-4.733
				L759.284,451.884z"/>
			
				<ellipse transform="matrix(0.4347 -0.9006 0.9006 0.4347 -8.7673 942.3162)" fill="#CABC5F" cx="746.218" cy="478.142" rx="4.001" ry="2.97"/>
			
				<ellipse transform="matrix(0.2251 -0.9743 0.9743 0.2251 106.8097 1110.2488)" fill="#CABC5F" cx="751.411" cy="487.974" rx="2.946" ry="1.883"/>
			
				<ellipse transform="matrix(0.2228 -0.9749 0.9749 0.2228 106.759 1129.9138)" fill="#CABC5F" cx="762.03" cy="498.001" rx="2.216" ry="3.937"/>
			
				<ellipse transform="matrix(0.2252 -0.9743 0.9743 0.2252 100.4266 1118.3289)" fill="#CABC5F" cx="753.382" cy="496.02" rx="2.77" ry="1.843"/>
			
				<ellipse transform="matrix(0.2227 -0.9749 0.9749 0.2227 131.3376 1095.4417)" fill="#CABC5F" cx="752.604" cy="465.361" rx="1.448" ry="2.38"/>
		</g>
		<g>
			<path fill="#CACF5C" d="M840.478,454.3l7.58,5.996c1.128,0.892,2.404,1.579,3.771,2.028l7.571,2.491
				c3.269,1.076,6.768,1.261,10.133,0.535l5.686-1.226c3.701-0.798,6.995-2.889,9.288-5.896l2.355-3.088
				c1.135-1.489,1.488-3.43,0.95-5.221l-0.508-1.691c-0.606-2.015-2.249-3.551-4.305-4.021l-5.984-1.371
				c-1.912-0.438-3.882-0.561-5.834-0.366l-5.252,0.527c-1.033,0.104-2.055,0.296-3.054,0.575l-9.889,2.763L840.478,454.3z"/>
			
				<ellipse transform="matrix(0.4347 -0.9006 0.9006 0.4347 69.5428 1025.5785)" fill="#CABC5F" cx="851.696" cy="457.395" rx="3.312" ry="2.458"/>
			<ellipse fill="#CABC5F" cx="860.5" cy="454.752" rx="1.853" ry="1.849"/>
			<ellipse fill="#CABC5F" cx="868.862" cy="458.997" rx="2.277" ry="2.271"/>
		</g>
		<g>
			<path fill="#CACF5C" d="M848.355,423.285l4.226-2.141c2.06-1.044,3.725-2.727,4.745-4.795l1.251-2.539
				c0.445-0.903,0.596-1.923,0.431-2.916l-0.594-3.582c-0.19-1.148-1.156-2.008-2.321-2.067l-5.692-0.289
				c-1.012-0.051-2.021,0.153-2.933,0.595l-3.904,1.892c-1.637,0.793-2.826,2.283-3.233,4.053l-0.116,0.502L848.355,423.285z"/>
			
				<ellipse transform="matrix(0.2224 -0.975 0.975 0.2224 256.2258 1145.8088)" fill="#CABC5F" cx="846.402" cy="412.281" rx="1.107" ry="1.621"/>
			<circle fill="#CABC5F" cx="850.891" cy="416.303" r="0.755"/>
		</g>
		<g>
			<path fill="#AAA74A" d="M723.759,423.104l7.592-1.246c2.887-0.474,5.85-0.12,8.542,1.022l2.94,1.246
				c3.274,1.388,5.967,3.861,7.623,7.002v0c1.043,1.978,1.642,4.16,1.755,6.392l0.27,5.344l9.725,7.96l22.583,8.394l24.397,0.515
				l31.627-8.066l17.248-13.904c0.645-0.52,0.654-1.497,0.019-2.028l-2.858-2.393c-1.178-0.986-2.116-2.226-2.745-3.626
				l-4.037-8.994c-1.886-4.202-4.844-7.838-8.577-10.545l-11.99-8.693c-3.188-2.311-6.768-4.028-10.569-5.067l-18.541-5.071
				c-3.765-1.03-7.685-1.378-11.573-1.029l-24.242,2.179c-3.733,0.336-7.381,1.309-10.783,2.879l-6.981,3.221
				c-5.891,2.718-10.838,7.125-14.208,12.658L723.759,423.104z"/>
			<path fill="#A19230" d="M856.784,434.649l1.515,1.268c0.618,0.518,0.894,1.337,0.713,2.122l0,0l-2.737,4.011
				c-2.732,4.004-6.187,7.466-10.189,10.21l0,0c-4.24,2.908-9.013,4.954-14.046,6.021l-5.677,1.203
				c-0.461,0.098-0.917,0.212-1.369,0.343l-9.865,2.856c-4.45,1.288-9.077,1.861-13.708,1.695l-11.168-0.399
				c-4.312-0.154-8.578-0.947-12.657-2.351l-8.701-2.996c-5.615-1.933-10.774-4.991-15.16-8.986l-1.259-1.146
				c-2.361-2.15-3.82-5.111-4.086-8.288l-0.219-2.627c-0.195-2.329-1.155-4.529-2.731-6.258l-2.177-2.387
				c-1.546-1.696-3.602-2.846-5.858-3.279l-5.915-1.135l-6.887,0.933c-0.538,0.073-1.005-0.369-0.961-0.909l0.12-1.445l8.607-1.413
				c2.224-0.365,4.507-0.092,6.581,0.787l5.049,2.14c2.522,1.069,4.597,2.975,5.873,5.394l1.243,2.358
				c0.615,1.165,1.03,2.425,1.23,3.727l0.476,3.102c0.297,1.936,1.304,3.694,2.825,4.932l1.803,1.468
				c3.584,2.918,7.652,5.19,12.019,6.713l10.225,3.565c3.603,1.256,7.368,1.988,11.18,2.173l11.298,0.549
				c4.155,0.202,8.317-0.248,12.332-1.334l15.921-4.305c6.286-1.7,12.057-4.914,16.805-9.361L856.784,434.649z"/>
			<path fill="#A19230" d="M752.254,422.268l2.267,2.525c1.082,1.205,1.863,2.648,2.281,4.211l1.745,6.536
				c0.23,0.863,0.56,1.696,0.982,2.483l2.043,3.807c0.565,1.053,1.482,1.876,2.591,2.327l7.351,2.984
				c1.213,0.492,2.457,0.903,3.725,1.228l10.12,2.596c1.119,0.287,2.213-0.544,2.233-1.696l0.117-6.744
				c0.031-1.81-0.137-3.618-0.503-5.392l-1.71-8.283c-0.409-1.98-1.06-3.901-1.939-5.722l-2.895-5.993
				c-0.664-1.375-1.455-2.685-2.362-3.913l-3.968-5.374c-0.781-1.057-2.2-1.419-3.394-0.866l-7.504,3.481
				c-1.854,0.86-3.582,1.967-5.136,3.292l-5.805,4.946C751.424,419.611,751.316,421.222,752.254,422.268z"/>
			<path fill="#A19230" d="M782.008,406.581l4.776,7.918c1.186,1.967,2.157,4.055,2.897,6.228l3.987,11.722
				c0.636,1.871,1.098,3.797,1.379,5.753l1.34,9.329c0.222,1.546,1.574,2.677,3.139,2.627l5.419-0.174
				c3.355-0.107,6.676-0.718,9.849-1.81l7.916-2.725c1.909-0.657,3.675-1.673,5.201-2.993l0,0c1.135-0.981,1.639-2.503,1.313-3.965
				l-1.284-5.755c-0.284-1.274-0.629-2.535-1.033-3.777l-1.699-5.222c-1.056-3.246-2.512-6.349-4.334-9.237l-2.519-3.994
				c-1.193-1.89-2.537-3.681-4.02-5.355l-3.398-3.835c-1.005-1.134-2.496-1.714-4.005-1.558l-7.541,0.781
				c-1.769,0.183-3.524,0.484-5.252,0.9l-11.093,2.672C781.951,404.374,781.429,405.62,782.008,406.581z"/>
			<path fill="#A19230" d="M819.358,401.774l2.443,2.682c3.363,3.693,6.149,7.869,8.266,12.39l1.7,3.631
				c0.572,1.222,1.094,2.466,1.565,3.73l3.625,9.735c0.518,1.39,2.132,2.024,3.46,1.357l3.027-1.518
				c1.986-0.996,3.812-2.28,5.42-3.81l2.614-2.487l-2.868-6.389c-1.995-4.445-5.124-8.291-9.073-11.154l-14.514-10.522l-4.76,0.199
				C819.165,399.662,818.619,400.964,819.358,401.774z"/>
			<path fill="#A19230" d="M745.583,415.621l4.901-4.622c1.874-1.767,4.01-3.237,6.332-4.356l8.322-4.012
				c0.977-0.471,1.061-1.827,0.149-2.415l-3.526-2.272c-1.238-0.798-2.574-1.434-3.975-1.893l-2.956-0.968
				c-0.763-0.25-1.592-0.202-2.32,0.134l-9.887,4.561c-4.221,1.947-7.766,5.105-10.181,9.07l-3.56,5.846
				c-0.227,0.373,0.057,0.847,0.493,0.824l4.01-0.205c2.115-0.108,4.235,0.077,6.299,0.55l2.716,0.622
				C743.539,416.747,744.734,416.422,745.583,415.621z"/>
			<path fill="#A19230" d="M765.383,392.943l7.028,4.158c0.797,0.472,1.744,0.625,2.65,0.429l8.393-1.818
				c0.835-0.181,1.681-0.303,2.533-0.365l12.21-0.894c0.453-0.033,0.585-0.634,0.188-0.854l-5.368-2.965
				c-0.851-0.47-1.824-0.675-2.794-0.588l-24.687,2.219C765.182,392.297,765.077,392.762,765.383,392.943z"/>
			<polygon fill="#A19230" points="804.714,392.974 809.974,395.97 818.204,396.664 			"/>
		</g>
		<g>
			<path fill="#C1CA57" d="M701.756,431.739l1.028-3.421c1.005-3.344,3.303-6.153,6.386-7.806l3.743-2.007
				c1.71-0.917,3.603-1.446,5.542-1.549l8.973-0.477c3.09-0.164,6.139,0.761,8.614,2.613l5.405,4.045
				c2.281,1.707,3.945,4.105,4.744,6.835l1.302,4.45c0.926,3.165,0.627,6.561-0.838,9.516l-1.705,3.438
				c-1.676,3.379-4.725,5.879-8.373,6.864l-7.504,2.026c-2.218,0.599-4.554,0.609-6.777,0.03l-9.358-2.438
				c-3.126-0.815-5.844-2.746-7.637-5.428l-1.881-2.813c-1.442-2.157-2.213-4.69-2.215-7.282l-0.003-2.802
				C701.199,434.246,701.386,432.969,701.756,431.739z"/>
			<path fill="#5A5629" d="M719.174,428.987l-0.256,0.391c-0.77,1.176-0.99,2.628-0.602,3.979l0.102,0.354
				c0.322,1.122,1.04,2.09,2.021,2.726l0.602,0.39c0.781,0.507,1.693,0.778,2.625,0.781l2.089,0.008
				c1.187,0.005,2.334-0.425,3.224-1.207l0.675-0.592c0.943-0.828,1.527-1.988,1.63-3.236l0.116-1.403
				c0.111-1.352-0.351-2.689-1.275-3.684l-0.037-0.04c-0.958-1.032-2.32-1.598-3.729-1.549l-1.506,0.052
				c-0.658,0.023-1.305,0.179-1.9,0.459l-1.783,0.839C720.355,427.638,719.665,428.238,719.174,428.987z"/>
			<path fill="#1F1E13" stroke="#000000" stroke-miterlimit="10" d="M723.443,429.836l-0.809,0.664
				c-0.444,0.364-0.698,0.91-0.691,1.483l0.001,0.056c0.008,0.643,0.343,1.238,0.889,1.579l1.015,0.634
				c0.547,0.342,1.23,0.382,1.814,0.108l0.862-0.405c0.611-0.288,1.023-0.878,1.08-1.549l0.068-0.795
				c0.06-0.699-0.274-1.374-0.866-1.752l0,0c-0.232-0.148-0.494-0.244-0.768-0.281l-1.136-0.154
				C724.378,429.352,723.85,429.502,723.443,429.836z"/>
			<ellipse fill="#403D3D" cx="705.38" cy="438.19" rx="1.041" ry="1.039"/>
			<ellipse fill="#403D3D" cx="709.001" cy="439.044" rx="1.18" ry="1.177"/>
			<polygon fill="#403D3D" points="703.419,445.615 709.052,447.001 716.065,447.196 716.803,446.402 714.967,445.559 
				709.638,445.078 704.826,444.288 702.323,443.62 			"/>
			<path fill="#4F4C25" d="M705.068,423.943l0.365,1.27c0.259,0.902,0.222,1.862-0.105,2.742l-0.306,0.824
				c-0.336,0.903-0.98,1.66-1.819,2.137l-1.447,0.823l0.662-2.202l0.727-2.256l0.685-1.568c0.101-0.23,0.228-0.447,0.381-0.647
				L705.068,423.943z"/>
			<ellipse fill="#CABC5F" cx="719.818" cy="420.182" rx="1.878" ry="1.873"/>
			
				<ellipse transform="matrix(0.0898 -0.996 0.996 0.0898 246.356 1108.6853)" fill="#CABC5F" cx="729.757" cy="419.557" rx="1.491" ry="2.698"/>
			<ellipse fill="#CABC5F" cx="742.755" cy="429.116" rx="1.764" ry="1.759"/>
		</g>
	</g>
	<g id="stone_x5F_loadwindow">
		<g>
			<path fill="#8C603D" d="M291.1,284.897c-1.1,8.839-1.043,16.704-1.043,16.704l-0.025,0.042l24.288-0.374L291.1,284.897z"/>
			<path fill="#A67C59" d="M337.798,310.977l-4.762-4.717l-18.716-4.991l-24.288,0.374L278.193,321c0,0-9.767,10.136-2.488,25.259
				l22.743,3.318l24.415-0.744l13.08-1.891C334.378,339.269,337.798,310.977,337.798,310.977z"/>
			<path fill="#BE9C76" d="M293.768,303.825l-16.043,24.835l3.573,15.27c0,0,14.468-14.466,15.236-15.118
				c0.769-0.652,29.454-8.421,29.454-8.421l4.869-8.468l-18.949-9.166L293.768,303.825z"/>
		</g>
		<path fill="#A67C59" d="M331.388,295.368c-2.628-8.765-10.614-23.311-10.614-23.311l-10.826-3.007
			c0,0-16.335,11.936-18.781,15.309c-0.023,0.179-0.046,0.358-0.067,0.537l23.22,16.372l18.716,4.991l0.05,0.05
			C333.167,304.217,332.951,300.58,331.388,295.368z"/>
		<path fill="#8C603D" d="M360.96,278.154l-1.144-2.883l-39.042-3.213c0,0,7.986,14.546,10.614,23.311
			c1.563,5.212,1.779,8.849,1.697,10.941l4.712,4.668c0,0-3.419,28.292-1.854,35.965l25.229-3.646c0,0,22.164-4.841,22.143-4.988
			l-8.123-26.712L360.96,278.154z"/>
		<g>
			<polygon fill="#754A30" points="376.59,289.353 377.452,284.397 360.96,278.154 375.192,311.596 375.309,311.928 
				375.446,311.807 			"/>
			<path fill="#8C603D" d="M398.982,291.12l-22.392-1.767l-1.144,22.454l-0.138,0.121l8.007,26.38
				c-0.021-0.147,8.881-1.284,8.881-1.284l34.707-37.173L398.982,291.12z"/>
			<path fill="#A67C59" d="M380.892,292.526l-1.076,34.576c0,0,10.879-13.736,12.833-14.277c1.954-0.541,23.34-11.914,23.34-11.914
				l-20.454-7.87L380.892,292.526z"/>
		</g>
		<g>
			<polygon fill="#754A30" points="426.903,299.851 392.196,337.024 402.222,335.575 416.472,332.221 424.802,329.893 
				430.621,328.171 427.468,303.739 			"/>
			<polygon fill="#67422F" points="427.468,303.739 430.169,327.395 430.621,328.171 440.36,325.103 443.388,324.149 439.3,309.016 
							"/>
		</g>
		<polygon fill="#754A30" points="359.179,273.667 309.948,269.05 320.774,272.057 359.816,275.271 		"/>
		<polygon fill="#BE9C76" points="310.107,271.701 294.288,284.081 315.485,299.392 313.164,288.082 319.728,281.957 		"/>
		<polygon fill="#A67C59" points="328.798,274.434 339.301,304.749 349.439,313.895 347.155,302.837 360.615,288.211 
			356.967,277.092 		"/>
	</g>
	<g>
		<path fill="#81AF46" stroke="#81AF46" stroke-miterlimit="10" d="M616.135,359.975l-8.635,2.659
			c-5.912,1.821-12.264,1.616-18.045-0.581l-2.926-1.112c-4.724-1.795-8.929-4.73-12.239-8.543l-0.868-0.999
			c-4.226-4.868-10.359-7.673-16.815-7.69l0,0c-4.969-0.013-9.801,1.627-13.729,4.662l-0.016,0.013l5.757-10.353
			c2.566-4.615,6.656-8.2,11.574-10.146l13.116-5.189c2.641-1.045,5.454-1.59,8.295-1.607l11.845-0.072
			c4.024-0.025,7.983,1.01,11.478,2.999l12.089,6.879l8.104,10.617l1.891,4.633v4.136l-1.871,2.89
			C623.034,356.422,619.846,358.832,616.135,359.975z"/>
		<path fill="#749E3D" d="M625.661,357.251v-14.234l2.713-11.256l-1.357-8.084h5.62l1.938,11.598l-2.326,7.743l2.127,14.061
			c0.113,0.749-0.349,1.465-1.08,1.672l-1.299,0.368c-1.229,0.348-2.532,0.348-3.761,0l-1.48-0.419
			C626.109,358.515,625.661,357.924,625.661,357.251z"/>
		<path fill="#81AF46" stroke="#81AF46" stroke-miterlimit="10" d="M637.556,356.919l0.656,1.022
			c3.594,5.601,8.977,9.829,15.278,12.001h0c4.781,1.648,9.904,2.048,14.884,1.161l4.783-0.852c2.721-0.484,5.361-1.346,7.843-2.561
			l6.694-3.275c0.787-0.385,1.599-0.717,2.43-0.993l6.903-2.292c2.996-0.995,6.17-1.34,9.31-1.012l9.283,0.969l-10.301-14.496
			c-2.815-3.961-6.56-7.172-10.908-9.353l-3.042-1.525c-5.153-2.584-10.947-3.619-16.679-2.978l-10.605,1.185
			c-2.375,0.265-4.708,0.815-6.951,1.637l-10.207,3.742c-2.282,0.837-4.452,1.949-6.462,3.312l-7.239,4.908v6.233l1.402,0.634
			C635.828,354.933,636.845,355.811,637.556,356.919z"/>
		<g>
			<g>
				<path fill="#78AC3E" d="M638.768,350.76c10.862-3.209,20.438-8.378,32.085-8.277c11.297,0.098,21.83,4.226,31.132,10.442
					c1.61,1.076,3.113-1.522,1.514-2.59c-9.24-6.175-19.739-10.344-30.928-10.809c-12.643-0.525-22.83,4.863-34.601,8.341
					C636.123,348.413,636.91,351.309,638.768,350.76L638.768,350.76z"/>
			</g>
		</g>
		<g>
			<g>
				<path fill="#78AC3E" d="M620.06,347.015c-10.592-5.97-22.279-12.899-34.402-15.091c-5.705-1.031-11.994-1.405-17.753-0.682
					c-5.118,0.643-9.988,3.358-14.664,5.369c-1.768,0.761-0.242,3.346,1.514,2.59c5.135-2.209,10.047-4.816,15.712-5.15
					c5.859-0.346,12.12,0.009,17.789,1.525c10.617,2.838,20.773,8.664,30.29,14.029C620.23,350.554,621.744,347.964,620.06,347.015
					L620.06,347.015z"/>
			</g>
		</g>
		<path fill="#D4772D" d="M597.026,278.002l2.619-9.144c0.768-2.681,2.055-5.186,3.788-7.373l0.704-0.889
			c2.16-2.727,4.955-4.886,8.142-6.291l3.191-1.406c2.362-1.041,4.894-1.647,7.473-1.789l8.1-0.445
			c3.388-0.186,6.771,0.433,9.871,1.808l1.994,0.884c2.788,1.236,5.278,3.052,7.305,5.326v0c2.24,2.514,3.854,5.521,4.708,8.775
			l1.672,6.367l-18.235-2.425l-20.396,1.277L597.026,278.002z"/>
		<path fill="#866939" d="M615.858,298.196L615.858,298.196c-0.158,0.305-0.351,0.591-0.575,0.852l-6.684,7.768
			c-1.25,1.452-2.194,3.14-2.777,4.963l-3.168,9.902l8.645,12.665l14.765,3.743l17.112-1.048l3.992-4.617
			c1.288-1.49,2.271-3.218,2.891-5.086l3.061-9.216c0.732-2.204,0.676-4.594-0.159-6.761l-3.387-8.793
			c-1.101-2.859-1.172-6.01-0.202-8.915v0l4.385-5.777l1.621-6.506l-4.052-5.659l-12.967-1.886l-18.91,0.808l-15.909,3.126
			c-1.243,0.244-2.367,0.903-3.186,1.867l-1.508,1.776c-0.631,0.743-0.848,1.751-0.58,2.687l0,0
			c0.241,0.839,0.852,1.523,1.661,1.856l13.147,5.422c0.802,0.331,1.463,0.931,1.868,1.697l0.9,1.702
			C616.409,295.838,616.415,297.119,615.858,298.196z"/>
		<path fill="#5E3D22" d="M628.38,273.704L628.38,273.704c-0.998-0.958-2.301-1.538-3.682-1.64l0,0
			c-1.03-0.076-2.062,0.116-2.995,0.558l-0.506,0.24c-0.685,0.325-1.044,1.087-0.858,1.82l3.474,13.648
			c0.084,0.332,0.55,0.348,0.658,0.023l4.316-13.009C628.979,274.764,628.821,274.126,628.38,273.704z"/>
		<path fill="#5E3D22" d="M618.394,274.395L618.394,274.395c-0.891-0.855-2.053-1.372-3.286-1.464l0,0
			c-0.919-0.068-1.84,0.103-2.672,0.498l-0.452,0.214c-0.611,0.29-0.932,0.97-0.766,1.625l3.1,12.18
			c0.075,0.296,0.491,0.311,0.587,0.021l3.852-11.61C618.928,275.342,618.787,274.773,618.394,274.395z"/>
		<path fill="#5E3D22" d="M608.973,274.395L608.973,274.395c-0.891-0.855-2.053-1.372-3.286-1.464l0,0
			c-0.919-0.068-1.84,0.103-2.672,0.498l-0.452,0.214c-0.611,0.29-0.932,0.97-0.765,1.625l3.1,12.18
			c0.075,0.296,0.491,0.311,0.587,0.021l3.852-11.61C609.507,275.342,609.366,274.773,608.973,274.395z"/>
		<path fill="#5E3D22" d="M637.598,273.845L637.598,273.845c-0.977-0.937-2.25-1.504-3.601-1.604l0,0
			c-1.007-0.075-2.017,0.113-2.929,0.545l-0.495,0.235c-0.67,0.317-1.021,1.063-0.839,1.78l3.397,13.349
			c0.083,0.324,0.538,0.34,0.644,0.023l4.221-12.724C638.184,274.882,638.029,274.258,637.598,273.845z"/>
		<path fill="#5E3D22" d="M647.063,274.395L647.063,274.395c-0.891-0.855-2.053-1.372-3.286-1.464l0,0
			c-0.919-0.068-1.84,0.103-2.672,0.498l-0.452,0.214c-0.611,0.29-0.932,0.97-0.765,1.625l3.1,12.18
			c0.075,0.296,0.491,0.311,0.587,0.021l3.852-11.61C647.598,275.342,647.457,274.773,647.063,274.395z"/>
		<path fill="#5E3D22" d="M655.37,275.304L655.37,275.304c-0.891-0.855-2.053-1.372-3.286-1.464l0,0
			c-0.919-0.068-1.84,0.103-2.672,0.498l-0.452,0.214c-0.611,0.29-0.932,0.97-0.766,1.625l3.1,12.18
			c0.075,0.296,0.491,0.311,0.587,0.021l3.852-11.61C655.905,276.25,655.764,275.681,655.37,275.304z"/>
		<path fill="#EABA3E" d="M660.783,285.314L660.783,285.314c0.497-2.346,0.305-4.785-0.553-7.025l-0.981-2.559
			c-0.736-1.92-2.341-3.377-4.326-3.928l-7.013-1.946c-2.753-0.764-5.596-1.151-8.453-1.151h-15.987
			c-3.742,0-7.467,0.52-11.065,1.546l-11.087,3.16c-1.576,0.449-3.018,1.275-4.201,2.406l-1.295,1.238
			c-2.098,2.006-2.975,4.969-2.304,7.79v0c0.651,2.737,2.537,5.019,5.107,6.178l3.805,1.716c0.719,0.325,1.467,0.582,2.234,0.77
			l3.297,0.806c0.79,0.193,1.101,1.148,0.576,1.767l-6.747,7.956c-1.213,1.431-2.148,3.075-2.757,4.848l-3.24,9.445
			c-0.794,2.313-0.609,4.848,0.511,7.023l5.779,11.218c1.565,3.037,4.371,5.25,7.694,6.067l10.668,2.624
			c2.528,0.622,5.145,0.801,7.734,0.531l14.231-1.486c3.228-0.337,6.144-2.069,7.979-4.74l5.237-7.621
			c1.413-2.056,2.432-4.354,3.007-6.78l1.684-7.102c0.798-3.364,0.511-6.894-0.819-10.086l-4.655-11.173
			c-0.527-1.265-0.273-2.72,0.651-3.733l2.977-3.263C659.63,288.544,660.427,286.992,660.783,285.314z M653.046,318.34
			l-3.384,10.189c-0.359,1.082-0.928,2.082-1.674,2.945l-2.858,3.305c-1.25,1.446-3.033,2.327-4.944,2.444l-10.146,0.621
			c-2.636,0.161-5.281-0.087-7.841-0.736l-7.205-1.826c-2.382-0.604-4.461-2.056-5.845-4.083l-4.356-6.382
			c-1.352-1.98-1.715-4.47-0.984-6.752l1.859-5.809c0.684-2.139,1.792-4.119,3.258-5.822l6.694-7.78l0.453-0.875
			c0.422-0.817,0.418-1.788-0.012-2.601l-0.843-1.594c-0.584-1.104-1.531-1.972-2.682-2.46l-7.675-3.25l-5.273-2.086
			c-0.593-0.235-1.043-0.731-1.219-1.343l-0.072-0.25c-0.288-1.004-0.055-2.084,0.622-2.881l1.358-1.6
			c0.869-1.023,2.06-1.721,3.378-1.98l13.475-2.647c1.543-0.303,3.107-0.489,4.678-0.556l13.626-0.583
			c1.945-0.083,3.893,0.016,5.819,0.296l7.143,1.039c1.871,0.272,3.549,1.293,4.648,2.828l0.844,1.178
			c0.945,1.319,1.263,2.985,0.871,4.558l-0.812,3.261c-0.126,0.505-0.353,0.979-0.668,1.394l-2.968,3.91
			c-0.622,0.82-1.106,1.736-1.432,2.712l0,0c-0.652,1.953-0.604,4.07,0.135,5.992l3.863,10.029
			C653.765,313.453,653.825,315.995,653.046,318.34z"/>
		<path fill="#5E3D22" d="M620.742,334.325L620.742,334.325c0.67,0.846,1.614,1.432,2.671,1.658l0,0
			c0.788,0.168,1.606,0.129,2.374-0.113l0.417-0.132c0.564-0.178,0.923-0.729,0.857-1.316l-1.229-10.916
			c-0.03-0.265-0.388-0.327-0.506-0.088l-4.723,9.596C620.392,333.442,620.447,333.952,620.742,334.325z"/>
		<path fill="#5E3D22" d="M612.503,331.159L612.503,331.159c0.67,0.846,1.614,1.432,2.671,1.658l0,0
			c0.788,0.168,1.606,0.129,2.374-0.113l0.417-0.132c0.564-0.178,0.923-0.729,0.857-1.316l-1.229-10.916
			c-0.03-0.265-0.388-0.327-0.506-0.088l-4.723,9.596C612.153,330.276,612.207,330.785,612.503,331.159z"/>
		<path fill="#5E3D22" d="M607.438,326.78L607.438,326.78c0.67,0.846,1.614,1.432,2.671,1.658l0,0
			c0.788,0.168,1.606,0.129,2.374-0.113l0.417-0.132c0.564-0.178,0.923-0.729,0.857-1.316l-1.229-10.916
			c-0.03-0.265-0.388-0.327-0.506-0.088l-4.723,9.596C607.088,325.897,607.142,326.407,607.438,326.78z"/>
		<path fill="#5E3D22" d="M607.438,326.251L607.438,326.251c0.67,0.846,1.614,1.432,2.671,1.658l0,0
			c0.788,0.168,1.606,0.129,2.374-0.113l0.417-0.132c0.564-0.178,0.923-0.729,0.857-1.316l-1.229-10.916
			c-0.03-0.265-0.388-0.327-0.506-0.088l-4.723,9.596C607.088,325.368,607.142,325.877,607.438,326.251z"/>
		<path fill="#5E3D22" d="M605.412,316.815L605.412,316.815c0.67,0.846,1.614,1.432,2.671,1.658l0,0
			c0.788,0.168,1.606,0.129,2.374-0.113l0.417-0.132c0.564-0.178,0.923-0.729,0.857-1.316l-1.229-10.916
			c-0.03-0.265-0.388-0.327-0.506-0.088l-4.723,9.596C605.062,315.932,605.116,316.442,605.412,316.815z"/>
		<path fill="#5E3D22" d="M629.709,335.317L629.709,335.317c0.815,0.707,1.852,1.109,2.932,1.136l0,0
			c0.805,0.02,1.602-0.17,2.312-0.55l0.385-0.207c0.521-0.279,0.772-0.887,0.598-1.451l-3.236-10.499
			c-0.079-0.255-0.442-0.25-0.514,0.007l-2.858,10.303C629.201,334.514,629.349,335.005,629.709,335.317z"/>
		<path fill="#5E3D22" d="M638.354,333.363L638.354,333.363c0.815,0.707,1.852,1.109,2.932,1.136l0,0
			c0.805,0.02,1.602-0.17,2.312-0.55l0.385-0.207c0.521-0.279,0.771-0.887,0.598-1.451l-3.236-10.499
			c-0.079-0.255-0.442-0.25-0.514,0.007l-2.858,10.303C637.846,332.56,637.994,333.051,638.354,333.363z"/>
		<path fill="#5E3D22" d="M643.081,326.372L643.081,326.372c0.815,0.707,1.852,1.109,2.932,1.136l0,0
			c0.805,0.02,1.602-0.17,2.312-0.55l0.385-0.207c0.521-0.279,0.772-0.887,0.598-1.451l-3.236-10.499
			c-0.079-0.255-0.442-0.25-0.514,0.007l-2.858,10.303C642.573,325.569,642.722,326.059,643.081,326.372z"/>
		<path fill="#5E3D22" d="M646.435,317.479L646.435,317.479c0.815,0.707,1.852,1.109,2.932,1.136l0,0
			c0.805,0.02,1.602-0.17,2.312-0.55l0.385-0.207c0.521-0.279,0.771-0.887,0.598-1.451l-3.236-10.499
			c-0.079-0.255-0.442-0.25-0.514,0.007l-2.858,10.303C645.927,316.676,646.075,317.167,646.435,317.479z"/>
		<path fill="#865933" d="M631,300.734l-4.814,0.735c-1.054,0.161-2.047,0.592-2.884,1.251l-1.037,0.817
			c-1.085,0.855-1.55,2.275-1.181,3.603l0,0c0.41,1.477,1.561,2.635,3.039,3.057l3.903,1.113c0.555,0.158,1.137,0.206,1.711,0.141
			l5.139-0.583c0.732-0.083,1.431-0.347,2.034-0.769l1.246-0.872c1.058-0.74,1.688-1.948,1.688-3.237v-0.261
			c0-1.329-0.669-2.569-1.782-3.301l-1.139-0.749c-1.002-0.659-2.176-1.012-3.376-1.014l-1.603-0.003
			C631.628,300.663,631.313,300.686,631,300.734z"/>
	</g>
	<g id="tree_x5F_loadwindow">
		<path fill="#856A37" d="M507.439,399.836l6.412-16.768c2.925-7.649,5.01-15.486,6.232-23.423l5.374-34.893
			c0.65-4.223,1.115-8.464,1.392-12.713l6.32-96.762l18.385,1.934l0.141,102.976v37.371c0,10.002,1.305,19.976,3.894,29.762
			l3.311,12.516l-11.25,3.261c-3.112,0.902-6.397,1.364-9.708,1.364h-12.329c-4.505,0-8.945-0.854-12.955-2.492L507.439,399.836z"/>
		<path fill="#70AA3E" d="M505.641,182.259l-8.749,3.124c-7.177,2.562-13.928,5.825-20.099,9.713l-10.317,6.501
			c-6.455,4.067-12.222,8.786-17.157,14.037l-12.292,13.08c-1.471,1.565,0.513,3.698,2.815,3.028l33.417-9.727
			c1.688-0.491,3.403-0.919,5.141-1.282l40.619-8.491l9.488,10.776c2.582,2.932,4.625,6.143,6.069,9.537l6.066,14.256
			c0.472,1.108,2.233,1.442,3.278,0.62l7.613-5.986c4.85-3.814,8.586-8.435,10.94-13.534l2.579-5.586
			c1.888-4.088,2.854-8.411,2.854-12.768v-0.19l17.891,3.605c7.557,1.523,14.673,4.197,20.958,7.877l6.199,3.63
			c2.898,1.697,5.6,3.596,8.075,5.676l6.123,5.146c0.784,0.659,2.168,0.159,2.067-0.746l-1.716-15.268
			c-0.607-5.404-3.144-10.556-7.308-14.844l-4.322-4.451c-3.453-3.556-7.916-6.405-13.02-8.314l-23.907-8.937l6.901-2.74
			c9.12-3.621,19.348-5.081,29.475-4.207l17.647,1.523c1.42,0.123,2.154-1.315,1.032-2.02l-15.746-9.889
			c-7.704-4.838-16.844-8.006-26.533-9.196l-10.676-1.311c-9.613-1.18-19.447-0.282-28.477,2.601l0,0
			c-4.454,1.422-8.384,3.722-11.422,6.686l0,0l-1.844-1.662c-9.152-8.247-21.443-13.868-34.986-15.999l-7.42-1.168
			c-5.47-0.861-11.058-1.139-16.62-0.826l-16.651,0.936c-7.609,0.428-15.057,1.954-21.983,4.505l-4.298,1.583
			c-1.662,0.612-1.368,2.565,0.428,2.845l13.395,2.092c3.03,0.473,6.008,1.136,8.907,1.983l11.493,3.356
			c3.492,1.02,6.855,2.302,10.044,3.829l5.534,2.65c6.768,3.241,12.649,7.537,17.292,12.632L505.641,182.259z"/>
	</g>
	<g id="char_x5F_loadwindow">
		<g id="legs_1_">
			<g id="left-foot_1_">
				<path fill="#8C7961" d="M502.814,443.098l-0.753,3.452c-0.32,1.011-1.322,2.001-1.399,3.055l-0.221,3.027l1.98,1.59l1.469,1.221
					c0.149,0.124,0.317,0.225,0.498,0.3l9.678,4.012c0.064,0.026,0.126,0.055,0.188,0.085l9.839,4.826
					c1.071,0.526,2.213,0.907,3.393,1.133l1.383,0.265c0.789,0.151,1.592,0.227,2.397,0.227h1.111c1.246,0,2.487-0.154,3.692-0.458
					l0,0c0.981-0.248,1.91-0.659,2.743-1.215l1.851-1.236c0.523-0.349,0.994-0.766,1.4-1.238l0.087-0.101
					c0.711-0.827,1.1-1.866,1.1-2.938v-0.49c0-0.565-0.114-1.124-0.334-1.647l0,0c-0.654-1.55-1.878-2.815-3.441-3.555l-7.621-3.612
					l-8.472-5.081l-1.488-2.164l-1.006-1.817l-1.762-0.828l-4.461-0.302h-4.351l-3.933,0.661l-2.092,0.944L502.814,443.098z"/>
				<path fill="#C9CFD1" d="M500.44,452.631l8.322,2.998l7.347,3.039l6.998,3.757c0.532,0.286,1.083,0.538,1.649,0.756l1.152,0.443
					c1.451,0.559,3,0.846,4.564,0.846h1.57c0.872,0,1.743-0.078,2.6-0.233l1.441-0.261c0.968-0.175,1.883-0.553,2.681-1.108
					l0.915-0.636c0.58-0.403,1.11-0.867,1.582-1.383l1.99-2.18v1.196c0,0.58-0.211,1.142-0.596,1.59l-1.204,1.399l-2.778,1.855
					c-0.741,0.495-1.567,0.861-2.441,1.082l-0.557,0.141c-0.944,0.238-1.916,0.359-2.892,0.359h-1.507
					c-0.812,0-1.623-0.077-2.419-0.229l-1.434-0.275c-1.139-0.218-2.241-0.586-3.276-1.093l-9.395-4.609
					c-0.394-0.193-0.795-0.375-1.202-0.543l-9.436-3.912l-2.242-0.754c-0.611-0.206-1.069-0.699-1.211-1.305L500.44,452.631z"/>
				<g>
					<g>
						<path fill="#615C56" d="M515.568,447.158c1.454,0.138,2.846-0.066,4.293-0.162c1.493-0.099,2.935,0.201,4.422,0.184
							c1.929-0.022,1.934-3.022,0-3c-1.49,0.017-2.925-0.287-4.422-0.184c-1.442,0.099-2.843,0.3-4.293,0.162
							C513.647,443.975,513.66,446.976,515.568,447.158L515.568,447.158z"/>
					</g>
				</g>
				<g>
					<g>
						<path fill="#615C56" d="M519.982,442.555c-0.089,2.736,0.803,5.265,0.85,7.99c0.033,1.928,3.033,1.934,3,0
							c-0.047-2.719-0.938-5.287-0.85-7.99C523.045,440.624,520.045,440.626,519.982,442.555L519.982,442.555z"/>
					</g>
				</g>
				<g>
					<g>
						<path fill="#615C56" d="M523.269,452.252c1.05,0.031,2.009-0.435,2.989-0.76c1.085-0.36,2.179-0.69,3.279-1
							c1.855-0.523,1.067-3.418-0.797-2.893c-0.953,0.269-1.902,0.552-2.844,0.857c-0.774,0.251-1.808,0.819-2.627,0.795
							C521.338,449.195,521.34,452.195,523.269,452.252L523.269,452.252z"/>
					</g>
				</g>
				<g>
					<g>
						<path fill="#615C56" d="M524.019,446.986c0.493,1.373,0.933,2.784,1.54,4.113c0.22,0.481,0.457,0.88,0.561,1.397
							c0.131,0.645,0.171,1.144,0.469,1.743c0.86,1.729,3.449,0.211,2.59-1.514c-0.19-0.382-0.097-0.921-0.208-1.334
							c-0.128-0.478-0.383-0.902-0.599-1.341c-0.603-1.23-1-2.572-1.462-3.86C526.265,444.385,523.365,445.163,524.019,446.986
							L524.019,446.986z"/>
					</g>
				</g>
			</g>
			<g id="right-foot_1_">
				<path fill="#8C7961" d="M440.777,452.366l-0.62,0.489c-1.17,0.924-2.113,2.084-2.762,3.398l-0.311,0.63
					c-0.56,1.134-0.867,2.367-0.901,3.622l-0.037,1.344c-0.022,0.784,0.329,1.535,0.953,2.043l0,0
					c1.8,1.465,3.761,2.737,5.848,3.795l12.8,6.487c2.203,1.117,4.644,1.733,7.133,1.801l5.956,0.164l8.217-1.376
					c1.699-0.285,3.248-1.109,4.398-2.341l0.547-0.586c0.674-0.722,1.059-1.651,1.086-2.621l0.027-0.961l-0.064-0.327
					c-0.205-1.055-0.851-1.985-1.787-2.574l-1.045-0.657c-0.766-0.481-1.574-0.896-2.416-1.241l-2.461-1.006l-5.054-2.351
					l-4.152-1.918c-0.901-0.416-1.623-1.12-2.042-1.991l-1.319-2.743l-1.484-1.244c-0.547-0.44-3.01-1.358-3.535-1.372l-3.304-0.657
					c-0.503-0.014-3.385,0.007-3.874-0.106l-3.942,0.27l-3.462,1.086L440.777,452.366z"/>
				<path fill="#C9CFD1" d="M436.183,460.538l2.967,2.423c1.366,1.115,2.847,2.094,4.42,2.919l11.863,6.227
					c1.59,0.835,3.341,1.348,5.144,1.509l5.123,0.456c1.43,0.127,2.871,0.082,4.288-0.135l7.112-1.09
					c0.653-0.1,1.283-0.308,1.862-0.615l0.862-0.457l3.287-3.52l-0.035,1.267c-0.021,0.773-0.328,1.513-0.865,2.088l-1.215,1.301
					c-0.855,0.916-2.007,1.529-3.27,1.74l-7.184,1.203c-1.135,0.19-2.286,0.27-3.438,0.238l-4.921-0.135
					c-2.03-0.056-4.021-0.559-5.818-1.469l-14.02-7.105c-1.686-0.854-3.27-1.882-4.724-3.066l-0.771-0.627
					c-0.466-0.379-0.727-0.94-0.711-1.525L436.183,460.538z"/>
				<g>
					<g>
						<path fill="#615C56" d="M455.035,459.786c3.454-0.001,6.897,0.153,10.338,0.46c1.922,0.172,1.911-2.829,0-3
							c-3.44-0.308-6.884-0.461-10.338-0.46C453.104,456.786,453.101,459.786,455.035,459.786L455.035,459.786z"/>
					</g>
				</g>
				<g>
					<g>
						<path fill="#615C56" d="M460.819,455.206c-0.487,2.504-0.767,4.889-2.202,7.051c-1.071,1.613,1.526,3.117,2.59,1.514
							c1.589-2.393,1.965-4.995,2.505-7.768C464.079,454.117,461.188,453.31,460.819,455.206L460.819,455.206z"/>
					</g>
				</g>
				<g>
					<g>
						<path fill="#615C56" d="M461.987,465.228c3.121-0.94,6.284-1.661,9.503-2.171c1.902-0.301,1.094-3.192-0.798-2.893
							c-3.219,0.509-6.382,1.231-9.503,2.171C459.345,462.891,460.131,465.787,461.987,465.228L461.987,465.228z"/>
					</g>
				</g>
				<g>
					<g>
						<path fill="#615C56" d="M465.819,459.982c0.306,2.27,0.432,4.557,0.432,6.846c-0.001,1.93,2.999,1.934,3,0
							c0.001-2.566-0.196-5.101-0.539-7.643C468.455,457.28,465.564,458.091,465.819,459.982L465.819,459.982z"/>
					</g>
				</g>
			</g>
			<path id="first-left-leg_1_" fill="#6F848C" d="M499.249,401.858l0.945-2.376l2.127-1.846l3.226-1.572l4.181-0.797l5.575,0.113
				l3.596,0.683l1.981,1.256l0.084,0.101c0.855,1.034,1.363,2.149,1.498,3.288l0.037,0.311l0.214,41.697l0,0
				c-1.237,0.968-2.679,1.71-4.237,2.178l-0.772,0.232c-2.087,0.627-4.254,0.993-6.433,1.087l-0.436,0.019
				c-3.012,0.129-5.999-0.232-8.81-1.066l-0.516-0.153L499.249,401.858z"/>
			<path id="first-right-leg_1_" fill="#6F848C" d="M449.776,408.568l1.456-6.171l2.457-1.255l3.489-0.569l4.046,0.149l3.863,0.568
				l3.89,1.08l3.364,1.512l2.529,1.771v0c0.739,1.443,0.924,2.912,0.541,4.297l-12.289,44.446l0,0
				c-1.569,0.625-3.27,0.952-5.001,0.963l-0.274,0.002c-2.776,0.018-5.552-0.31-8.249-0.973l-1.279-0.314
				c-2.23-0.548-4.342-1.449-6.239-2.66l-1.681-1.074L449.776,408.568z"/>
			<path id="second-left-leg_1_" fill="#6F848C" d="M499.249,401.858l-16.245-42.694l-0.406-2.911l0.736-2.321l1.856-2.056
				c0.17-0.189,0.362-0.371,0.573-0.546l1.631-1.351l4.813-1.318l4.852,0.16l4.663,0.597l3.516,1.914l2.051,5.705l12.124,33.135
				l1.724,5.094l0.947,3.31l0.339,1.894l-2.206,2.598l-4.308,1.666l-6.068,0.694l-7.5-1.086L499.249,401.858z"/>
			<path id="second-right-leg_1_" fill="#6F848C" d="M452.242,360.384l-1.336,45.606l1.638,2.324l2.767,1.605l4.134,1.328
				l4.207,0.512l4.02,0.109l3.744-0.559l1.646-0.619c0.596-0.224,1.088-0.523,1.447-0.878l0,0c1.09-1.079,1.691-2.33,1.757-3.658
				l0.175-3.564l2.828-35.787l0.782-8.589l-3.372,0.681l-4.717-1.24l-6.269-1.239l-6.536-0.13l-3.843,0.38
				c-0.581,0.057-1.073,0.238-1.388,0.509l0,0C452.857,358.094,452.277,359.201,452.242,360.384z"/>
		</g>
		<g id="left-arm_2_">
			<path id="second-left-arm_1_" fill="#8EC7A8" d="M499.992,291.138l1.693,2.177l40.037-9.628c0.563-0.123,2.467-8.831,2.467-8.831
				l-3.638-3.538l-38.724,8.044c-1.465,0.31-3.681,1.015-4.67,1.34c-0.334,0.109-0.642,0.262-0.915,0.452l-0.154,0.107
				C495.394,281.743,499.992,291.138,499.992,291.138z"/>
			<g id="first-left-arm_1_">
				<path fill="#E4CC8F" d="M541.859,236.612l-0.874-1.497c-0.113-0.377-0.204-0.759-0.271-1.146l-0.515-2.966
					c-0.081-0.465-0.377-2.533-0.158-2.938l0.239-0.31c0.204-0.377,1.234,0.246,1.648,0.139l0.858-0.22
					c0.261-0.067,0.44-0.303,0.437-0.578l-0.017-1.51c-0.007-0.604,0.255-1.17,0.713-1.542l0.48-0.389
					c0.499-0.405,1.074-0.706,1.694-0.887l0.827-0.242c0.71-0.207,1.465-0.237,2.202-0.087l0.475,0.097
					c0.657,0.134,1.299,0.346,1.912,0.631l0.765,0.356c0.86,0.4,1.615,1.007,2.199,1.765l0.304,0.395
					c0.506,0.657,0.879,1.405,1.098,2.2l0.199,0.722c0.199,0.725,0.226,1.481,0.079,2.206l-0.473,2.325
					c-0.183,0.899-0.486,1.764-0.901,2.573l-1.408,2.742c-0.029,0.056-0.06,0.111-0.093,0.164l-2.308,3.393l-0.44-0.451
					l-0.747-0.727l-0.785-0.663l-0.75-0.632l-1.122-0.615l-0.968-0.508l-0.797-0.347l-0.677-0.3l-0.928-0.374l-0.898-0.305
					L541.859,236.612z"/>
				<path fill="#8EC7A8" d="M544.291,282.317l7.083-40.444c0.146-0.807-10.173-6.222-10.419-5.12l-8.536,37.176l0.357,1.458
					l0.809,1.759l1.013,1.869l1.231,1.732l1.311,1.323l1.507,0.722l1.233,0.238l0.969-0.073l0.834-0.286l0.039,1.016
					L544.291,282.317z"/>
			</g>
		</g>
		<g id="headbody_1_">
			<g id="head_1_">
				<path fill="#E4CC8F" d="M484.274,272.939l-0.161,1.374c-0.123,1.048-0.184,2.103-0.184,3.158l0,0
					c0,0.274,0.033,0.548,0.098,0.815l1.111,4.542l-3.165,1.912l-5.025,1.141h-5.542l-5.089-0.784l0.612-3.638
					c0.319-1.619,0.48-3.263,0.48-4.911l0,0c0-0.503-0.032-1.006-0.096-1.506l-0.307-2.388L484.274,272.939z"/>
				<path fill="#E4CC8F" d="M469.411,204.729h4.683c3.425,0,6.844,0.245,10.231,0.732l0,0c2.547,0.367,5.043,1.01,7.439,1.919l0,0
					c1.831,0.694,3.458,1.807,4.739,3.241l0,0c1.07,1.198,1.919,2.562,2.509,4.035v0c1.379,3.441,2.198,7.065,2.426,10.744
					l0.061,0.976c0.225,3.631,0.233,7.272,0.022,10.904l-0.271,4.678c-0.104,1.803-0.293,3.6-0.566,5.386l-0.307,2.012
					c-1.191,7.798-4.225,15.231-8.87,21.731l-0.207,0.289c-1.194,1.671-2.678,3.132-4.387,4.321l0,0
					c-2.197,1.528-4.803,2.422-7.512,2.577l-0.74,0.042c-3.356,0.192-6.722-0.182-9.944-1.106l-0.58-0.166
					c-4.905-1.406-9.346-4.012-12.884-7.561h0c-2.926-2.934-5.376-6.272-7.268-9.904l-0.285-0.546
					c-2.061-3.953-3.567-8.151-4.479-12.484v0c-1.161-5.514-1.577-11.148-1.24-16.765l0.12-1.996c0.174-2.9,0.825-5.756,1.926-8.462
					h0c1.357-3.332,3.359-6.388,5.902-9.005l1.988-2.047c0.171-0.176,0.38-0.314,0.613-0.404h0
					C457.896,205.796,463.626,204.729,469.411,204.729z"/>
				<path fill="#5D533F" d="M482.522,228.465l1.762-0.525c1.188-0.354,2.426-0.534,3.67-0.534h0.109c1.845,0,3.687,0.135,5.51,0.404
					l0,0c0.749,0.11,1.482,0.303,2.185,0.572l1.924,0.738c0.352,0.135,0.735-0.114,0.735-0.477v-0.313
					c0-1.168-0.306-2.318-0.889-3.344l-0.24-0.423c-0.404-0.71-1.18-1.152-2.023-1.152h-1.372c-1.047,0-2.092,0.056-3.133,0.166
					l-2.587,0.276c-1.686,0.18-3.335,0.593-4.897,1.227l-0.71,0.288c-0.485,0.197-0.8,0.653-0.8,1.158v1.402
					C481.766,228.308,482.147,228.577,482.522,228.465z"/>
				<path fill="#5D533F" d="M477.305,227.733v-1.384c0-0.473-0.323-0.89-0.794-1.027l-2.546-0.74
					c-1.043-0.303-2.107-0.534-3.185-0.691l-1.437-0.209c-1.227-0.178-2.475-0.169-3.699,0.026l-0.382,0.061
					c-0.892,0.143-1.771,0.346-2.633,0.609l-1.29,0.394c-0.458,0.14-0.905,0.309-1.339,0.508l-1.21,0.553
					c-0.812,0.371-1.456,1.013-1.81,1.807l-0.181,0.406c-0.4,0.896-0.607,1.861-0.607,2.837v0.795c0,0.359,0.425,0.565,0.727,0.353
					l2.425-1.706c0.865-0.609,1.84-1.058,2.875-1.327l0.835-0.216c2.057-0.533,4.179-0.804,6.311-0.804h1.744
					c0.364,0,0.728,0.014,1.09,0.041l4.407,0.334C476.983,228.381,477.305,228.095,477.305,227.733z"/>
				<path fill="#E2C38E" d="M481.822,241.542l0.734,2.358c0.463,1.488,1.062,2.935,1.789,4.323l0.445,0.849
					c0.457,0.873,1.092,1.65,1.867,2.284l1.154,0.944c0.504,0.412,0.794,1.016,0.794,1.651l0,0c0,0.43-0.254,0.823-0.655,1.015l0,0
					c-0.938,0.448-1.971,0.681-3.019,0.681h-6.065c-0.632,0-1.252-0.164-1.795-0.475l0,0c-0.909-0.521-1.615-1.313-2.01-2.255h0
					c-0.179-0.426-0.138-0.908,0.109-1.301l0.185-0.294c0.204-0.325,0.513-0.577,0.881-0.717l0.112-0.043
					c0.509-0.194,0.893-0.608,1.036-1.115l0.371-1.314c0.196-0.694,0.311-1.406,0.345-2.124l0.203-4.285
					c0.026-0.556,0.385-1.048,0.921-1.262l0,0c0.573-0.229,1.223-0.195,1.767,0.092l0,0
					C481.392,240.766,481.691,241.121,481.822,241.542z"/>
				<path fill="#685D44" d="M452.327,244.783v-2.045c0-1.374-0.157-2.743-0.467-4.084l-0.169-0.731
					c-0.17-0.734-0.311-1.475-0.422-2.219l-0.129-0.866c-0.298-2.003-0.448-4.024-0.448-6.048v-1.381
					c0-0.068,0.103-0.078,0.117-0.011l0.155,0.744c0.005,0.022,0.038,0.021,0.041-0.002l0.37-2.959
					c0.017-0.133,0.206-0.159,0.26-0.036l0.084,0.189c0.055,0.122,0.239,0.112,0.278-0.016l0.582-1.885
					c0.321-1.041,0.922-1.982,1.741-2.731l1.516-1.385c0.192-0.175,0.498-0.155,0.664,0.043l0,0
					c0.156,0.188,0.445,0.212,0.632,0.053l1.296-1.097c0.555-0.47,1.316-0.648,2.034-0.475h0c0.415,0.099,0.851,0.076,1.251-0.068
					l1.999-0.719c0.615-0.221,1.293-0.214,1.903,0.02l0,0c0.327,0.126,0.701,0.052,0.95-0.187l1.017-0.976
					c0.186-0.179,0.504-0.052,0.504,0.2v0.314l-0.266,0.937c-0.042,0.148,0.155,0.247,0.258,0.129l1.049-1.208l0.67-0.723
					c0.231-0.249,0.657-0.166,0.767,0.151l0.043,0.123c0.166,0.477,0.714,0.724,1.202,0.541l0.803-0.3
					c0.631-0.236,1.328-0.256,1.973-0.058l2.237,0.687c0.317,0.097,0.654,0.115,0.98,0.053l3.342-0.641
					c0.908-0.174,1.832-0.262,2.757-0.262h1.375c0.683,0,1.317,0.34,1.674,0.898l0.314,0.489c0.136,0.212,0.458,0.208,0.588-0.007
					l0.237-0.389c0.312-0.513,0.916-0.793,1.528-0.709l0.42,0.058c0.424,0.058,0.825,0.224,1.16,0.481l0,0
					c0.147,0.113,0.339,0.155,0.522,0.116l0.043-0.009c0.654-0.139,1.337-0.083,1.957,0.162l1.576,0.622l0.609,0.312
					c1.075,0.55,2.059,1.249,2.92,2.075l0,0c0.223,0.214,0.415,0.457,0.57,0.721l0,0c0.734,1.252,1.317,2.58,1.738,3.959l0,0
					c0.216,0.706,0.345,1.434,0.387,2.169l0.155,2.745l0.01-3.644c0.003-0.992-0.081-1.982-0.251-2.96l-0.637-3.665l0.297,0.428
					l-1.002-2.885c-0.125-0.359-0.264-0.712-0.418-1.061l-1.107-2.503c-0.493-1.116-1.144-2.161-1.933-3.108l0,0l-1.71-1.64
					c-0.901-0.951-2.082-1.426-3.717-2.282l-1.635-0.713l-1.784-0.713c-1.504-0.401-1.189-0.57-2.974-0.856l-1.635-0.428
					c-0.216-0.017-1.725-0.228-1.933-0.285h-2.082c-1.158-0.318-1.784-0.143-1.784-0.143h-1.784c-0.137-0.004-2.094,0.011-2.23,0
					h-2.082c-2.082,0-1.041-0.143-2.676,0l-2.23,0.143l-2.23,0.285c-1.977,0.115-3.008,0.742-4.906,1.284l-1.784,0.571
					c-0.91,0.26-1.497,0.66-2.379,0.998l-1.775,0.924c-1.225,0.47-2.305,1.23-3.141,2.21l-1.001,1.174
					c-0.268,0.314-0.551,0.614-0.85,0.901v0c-1.072,1.028-1.863,2.295-2.303,3.687l0,0c-0.057,0.182-0.139,0.356-0.243,0.517
					l-0.036,0.056c-1.344,2.093-2.377,4.354-3.071,6.72v0c-0.195,0.664-0.334,1.342-0.416,2.027l-0.322,2.679l-0.169,2.11
					c-0.184,2.298-0.182,4.607,0.007,6.905l0.162,1.968l0.296,3.653l7.435-2.798l0.965,2.381c0.05,0.124,0.088,0.252,0.113,0.383v0
					c0.173,0.913,0.26,1.839,0.26,2.767v1.282c0,0.304,0.364,0.475,0.614,0.288h0C452.06,245.862,452.327,245.338,452.327,244.783z"
					/>
				<ellipse fill="#E4CC8F" cx="446.306" cy="244.45" rx="4.386" ry="7.06"/>
				<ellipse fill="#DCBF92" cx="446.306" cy="244.45" rx="2.602" ry="4.188"/>
				<path fill="#E3C881" d="M478.618,240.907l0.736,2.223c0.071,0.215,0.132,0.433,0.182,0.653l0.774,3.394
					c0.127,0.559,0.303,1.107,0.524,1.638l0.519,1.244c0.223,0.536,0.338,1.107,0.338,1.684v0.853c0,0.067-0.095,0.089-0.126,0.029
					l-0.58-1.113c-0.213-0.409-0.594-0.715-1.052-0.844l-1.366-0.385c-0.295-0.083-0.601-0.123-0.908-0.118l-0.631,0.011
					c-0.037,0.001-0.062-0.035-0.048-0.068l0.445-1.034c0.124-0.288,0.222-0.587,0.292-0.891l0.224-0.969
					c0.05-0.217,0.082-0.437,0.097-0.659l0.136-2.103l0.043-1.94c0.004-0.164,0.029-0.327,0.075-0.485L478.618,240.907z"/>
				<path fill="#FFFFFF" d="M484.028,234.761l0.137-0.262c0.375-0.719,0.96-1.316,1.685-1.719l0.275-0.153
					c0.942-0.523,2.012-0.799,3.1-0.799h1.121c0.816,0,1.627,0.121,2.405,0.358l0.888,0.271c0.785,0.239,1.466,0.718,1.941,1.364
					l0.393,0.534c0.429,0.583,0.66,1.28,0.66,1.994v1.063c0,0.442-0.192,0.864-0.529,1.164l0,0
					c-1.015,0.904-2.271,1.521-3.629,1.781l-1.273,0.244c-1.214,0.233-2.47,0.151-3.64-0.238l0,0
					c-1.337-0.444-2.452-1.354-3.123-2.549l-0.373-0.665C483.649,236.406,483.635,235.515,484.028,234.761z"/>
				<path fill="#FFFFFF" d="M474.745,234.761l-0.137-0.262c-0.375-0.719-0.96-1.316-1.685-1.719l-0.275-0.153
					c-0.942-0.523-2.012-0.799-3.1-0.799h-1.121c-0.816,0-1.627,0.121-2.405,0.358l-0.888,0.271
					c-0.785,0.239-1.466,0.718-1.941,1.364l-0.393,0.534c-0.429,0.583-0.66,1.28-0.66,1.994v1.063c0,0.442,0.192,0.864,0.529,1.164
					l0,0c1.015,0.904,2.271,1.521,3.629,1.781l1.273,0.244c1.214,0.233,2.47,0.151,3.64-0.238l0,0
					c1.337-0.444,2.452-1.354,3.123-2.549l0.373-0.665C475.124,236.406,475.139,235.515,474.745,234.761z"/>
				<path fill="#DBC37F" d="M462.269,235.434l0.223-0.387c0.113-0.196,0.244-0.381,0.394-0.553l0.12-0.138
					c0.265-0.305,0.57-0.576,0.907-0.807l0,0c0.354-0.243,0.74-0.44,1.147-0.586l0.042-0.015c0.355-0.128,0.719-0.232,1.09-0.311
					l0.341-0.073c0.294-0.063,0.591-0.112,0.89-0.148l0.136-0.016c0.403-0.048,0.808-0.073,1.214-0.073h0.329
					c0.266,0,0.533,0.014,0.798,0.042l0.54,0.058c0.267,0.028,0.532,0.071,0.794,0.127l0.245,0.052
					c0.464,0.099,0.914,0.252,1.34,0.456l0.377,0.181c0.114,0.055,0.222,0.121,0.321,0.197l0,0c0.393,0.302,0.737,0.659,1.019,1.06
					l0.273,0.388l-0.252-0.707l-0.274-0.459c-0.213-0.357-0.487-0.676-0.813-0.943l0,0c-0.364-0.3-0.772-0.547-1.21-0.734l0,0
					c-0.45-0.192-0.922-0.331-1.406-0.416l0,0c-0.603-0.105-1.215-0.158-1.828-0.158h-0.072c-0.526,0-1.052,0.042-1.571,0.125
					l-0.203,0.032c-0.533,0.085-1.058,0.21-1.571,0.374l-0.258,0.083c-0.499,0.16-0.96,0.413-1.356,0.745l-0.026,0.022
					c-0.374,0.314-0.703,0.674-0.978,1.07l-0.18,0.258l-0.181,0.347c-0.077,0.149-0.144,0.302-0.2,0.459L462.269,235.434z"/>
				<path fill="#DBC37F" d="M483.765,235.434l0.223-0.387c0.113-0.196,0.244-0.381,0.394-0.553l0.12-0.138
					c0.265-0.305,0.57-0.576,0.907-0.807l0,0c0.354-0.243,0.74-0.44,1.147-0.586l0.042-0.015c0.355-0.128,0.719-0.232,1.09-0.311
					l0.341-0.073c0.294-0.063,0.591-0.112,0.89-0.148l0.136-0.016c0.403-0.048,0.808-0.073,1.214-0.073h0.329
					c0.266,0,0.533,0.014,0.798,0.042l0.54,0.058c0.267,0.028,0.532,0.071,0.794,0.127l0.245,0.052
					c0.464,0.099,0.914,0.252,1.34,0.456l0.377,0.181c0.114,0.055,0.222,0.121,0.321,0.197l0,0c0.393,0.302,0.737,0.659,1.019,1.06
					l0.273,0.388l-0.252-0.707l-0.274-0.459c-0.212-0.357-0.487-0.676-0.813-0.943l0,0c-0.364-0.3-0.772-0.547-1.21-0.734l0,0
					c-0.45-0.192-0.922-0.331-1.406-0.416l0,0c-0.603-0.105-1.215-0.158-1.828-0.158h-0.072c-0.526,0-1.052,0.042-1.571,0.125
					l-0.203,0.032c-0.533,0.085-1.058,0.21-1.571,0.374l-0.258,0.083c-0.499,0.16-0.96,0.413-1.356,0.745l-0.026,0.022
					c-0.374,0.314-0.703,0.674-0.978,1.07l-0.18,0.258l-0.181,0.347c-0.077,0.149-0.144,0.302-0.2,0.459L483.765,235.434z"/>
			</g>
			<g id="body_1_">
				<path fill="#59595E" d="M466.806,282.183l-1.472,0.417c-0.774,0.219-1.493,0.59-2.11,1.09l-1.685,1.362
					c-0.296,0.239-0.517,0.551-0.64,0.903l-0.2,0.571c-0.2,0.572-0.228,1.187-0.08,1.774l0.316,1.256
					c0.097,0.387,0.348,0.722,0.699,0.935l0.55,0.333c0.936,0.567,1.971,0.966,3.056,1.179l1.408,0.276
					c0.551,0.108,1.113,0.163,1.675,0.163h3.587c0.284,0,0.568-0.013,0.849-0.038l3.352-0.299c0.324-0.029,0.653-0.029,0.977-0.001
					l2.894,0.25c0.676,0.058,1.328,0.268,1.904,0.614l1.503,0.901l1.588-1.523c0.461-0.442,0.955-0.851,1.478-1.223l1.89-1.343
					l1.517-1.073c0.634-0.449,1.163-1.02,1.553-1.676l0.171-0.288c0.152-0.255,0.262-0.531,0.327-0.819l0.198-0.873
					c0.131-0.578,0.11-1.178-0.06-1.747l-0.131-0.438c-0.135-0.451-0.352-0.876-0.641-1.255l-0.309-0.405
					c-0.5-0.656-1.187-1.159-1.978-1.448l-0.651-0.238c-0.456-0.167-0.939-0.252-1.427-0.252l-2.66-0.053l0.241,0.986l1.537,0.242
					l1.278,0.23l0.783,0.293l0.622,0.286l0.481,0.351l0.468,0.564l0.28,0.403l0.518,0.78l0.128,0.445l-0.064,0.524l-0.467,0.891
					l-0.358,0.481l-0.525,0.495l-0.569,0.382l-1.536,0.971l-3.611,2.323l-0.37,0.09l-2.741-0.253l-1.608-0.143l-0.725-0.019
					l-3.131,0.247l-2.275,0.223l-1.765,0.316l-1.507,0.261l-0.837,0.052h-1.641h-0.92l-0.842-0.075l-0.8-0.286l-0.672-0.457
					l-0.737-0.694l-0.373-0.699l-0.137-0.809l0.041-0.72l0.186-0.581l0.46-0.689l0.295-0.317c0.33-0.355,0.852-0.641,1.49-0.818l0,0
					l1.68-0.653L466.806,282.183z"/>
				<path fill="#8EC7A8" d="M483.389,293.867v11.996l1.748,11.65l1.697,13.592v9.709l-1.697,11.65l7.288-1.844
					c2.786-0.705,5.398-1.936,7.681-3.622l2.333-1.722c1.347-0.994,2.242-2.449,2.498-4.061l1.333-8.406
					c0.419-2.642,0.63-5.311,0.63-7.984v-7.049c0-2.544-0.212-5.085-0.634-7.597l-2.501-14.894
					c-0.159-0.945-0.349-1.886-0.572-2.819l-0.586-2.462c-0.374-1.571-0.877-3.111-1.504-4.605l-0.595-1.419
					c-0.386-0.92-1.074-1.695-1.96-2.206l-0.442-0.255c-1.502-0.867-3.194-1.387-4.941-1.518l-4.411-0.331l0.228,0.083
					c0.798,0.292,1.491,0.799,1.995,1.46l0.395,0.518c0.228,0.299,0.399,0.633,0.505,0.989l0.027,0.089
					c0.267,0.892,0.299,1.834,0.094,2.741l-0.182,0.805l-0.408,0.687c-0.384,0.647-0.906,1.21-1.531,1.653l-1.53,1.083l-2.676,1.902
					L483.389,293.867z"/>
				<path fill="#8EC7A8" d="M475.198,353.759l-5.273,0.809c-2.105,0.323-4.234,0.485-6.366,0.485h-3.505
					c-1.812,0-3.604-0.365-5.259-1.071l-0.772-0.329c-1.755-0.748-3.04-2.246-3.468-4.042l-1.179-4.945
					c-0.304-1.273-0.549-2.558-0.736-3.852l-0.715-4.947c-0.356-2.467-0.535-4.954-0.535-7.444v-7.264v-10.1
					c0-1.465,0.067-2.928,0.202-4.387l0.634-6.885c0.069-0.748,0.173-1.493,0.311-2.232l0.63-3.371
					c0.189-1.012,0.541-1.989,1.043-2.896l0,0c0.479-0.866,1.075-1.668,1.772-2.386l0.197-0.203c0.701-0.722,1.519-1.33,2.423-1.801
					l0.506-0.264c0.963-0.502,1.968-0.925,3.005-1.266l5.109-1.68l-1.44,1.164c-0.457,0.37-0.799,0.853-0.99,1.397l-0.016,0.047
					c-0.253,0.723-0.288,1.499-0.101,2.24l0.103,0.411c0.196,0.778,0.7,1.452,1.405,1.879l0.002,0.001
					c0.932,0.565,1.963,0.962,3.043,1.174l0.984,0.193c0.837,0.164,1.689,0.247,2.544,0.247h3.055c0.346,0,0.692-0.015,1.037-0.046
					l3.209-0.286c0.356-0.032,0.714-0.032,1.069-0.002l3.172,0.274c0.462,0.04,0.908,0.184,1.302,0.42l1.78,1.067v11.996
					l1.747,11.65l1.696,13.592v9.709l-1.696,11.65L475.198,353.759z"/>
				<path fill="#E4CC8F" d="M466.528,283.836l17.967-3.636l2.336,0.368c0.347,0.055,0.686,0.152,1.008,0.289l0.593,0.253
					c0.461,0.197,0.855,0.515,1.135,0.918l0.78,1.123c0.293,0.422,0.322,0.964,0.074,1.412l-0.261,0.472
					c-0.307,0.555-0.754,1.027-1.301,1.372l-2.025,1.28l-3.375,2.174c-0.109,0.07-0.239,0.102-0.37,0.09l-4.053-0.374
					c-0.598-0.055-1.201-0.056-1.8-0.003l-4.01,0.356c-0.295,0.026-0.589,0.066-0.88,0.119l-2.624,0.476
					c-0.403,0.073-0.813,0.11-1.224,0.11h-2.718c-0.727,0-1.432-0.243-1.993-0.688l-0.436-0.346
					c-0.618-0.49-0.976-1.219-0.976-1.988v-0.273c0-0.634,0.245-1.245,0.687-1.716l0.169-0.181c0.317-0.338,0.711-0.603,1.15-0.774
					L466.528,283.836z"/>
				<path fill="#67676F" d="M482.862,293.556l0.519,0.311l0.584-0.552v8.541c0,2.845,0.213,5.686,0.638,8.501l1.174,7.782
					l1.227,10.826c0.182,1.603,0.273,3.215,0.273,4.828v4.09c0,2.273-0.181,4.542-0.542,6.788l-1.237,7.703l-0.368,0.091
					l-0.632,0.082l1.325-7.82c0.419-2.474,0.62-4.978,0.601-7.484l-0.026-3.362c-0.013-1.671-0.124-3.34-0.332-4.999l-1.337-10.671
					l-1.205-7.855c-0.439-2.862-0.66-5.751-0.66-8.645V293.556z"/>
				<path fill="#6F848C" d="M452.211,352.465v4.176c0,0.51,0.045,1.019,0.134,1.522l0,0.004c-0.076,1.118,1.155,2.131,3.029,2.496
					l3.227,0.627l11.715,0.189l26.693-5.854l8.203-4.271l-1.587-7.477l-1.636,1.568c-0.496,0.475-1.034,0.907-1.608,1.291
					l-2.201,1.472c-0.369,0.247-0.758,0.466-1.162,0.656l-1.872,0.877l-1.952,0.53c-0.51,0.231-1.042,0.417-1.588,0.556
					l-6.109,1.546l-3.73,0.529l-7.31,0.97l-5.41,0.82l-3.464,0.308c-0.396,0.035-0.797,0.053-1.198,0.053h-3.717
					c-0.409,0-0.817-0.025-1.222-0.074l-1.504-0.184c-0.744-0.091-1.474-0.264-2.176-0.516l-0.641-0.23
					c-0.731-0.263-1.427-0.61-2.072-1.033L452.211,352.465z"/>
			</g>
		</g>
		<g id="mouthsmile_1_">
			<path fill="#786754" d="M470.142,256.171l4.24,0.939c0.903,0.2,1.821,0.328,2.745,0.383l2.063,0.123
				c1.253,0.074,2.51,0.014,3.749-0.18l2.476-0.389c0.832-0.131,1.65-0.327,2.448-0.589l3.374-1.106
				c0.492-0.161,0.993-0.296,1.501-0.404l1.859-0.395c0.952-0.202,1.936-0.229,2.898-0.078l1.053,0.165
				c0.161,0.025,0.313,0.087,0.444,0.181l0,0c0.287,0.206,0.411,0.561,0.313,0.891l-0.744,2.498
				c-0.145,0.486-0.307,0.967-0.486,1.441l-0.75,1.986c-0.434,1.148-0.964,2.259-1.586,3.324l-1.239,2.122l-1.911,3.112
				c-0.314,0.512-0.654,1.008-1.019,1.488l0,0c-1.028,1.352-2.224,2.578-3.561,3.653l-0.316,0.254
				c-0.682,0.548-1.439,1.002-2.25,1.351l-1.254,0.538c-0.608,0.261-1.244,0.457-1.896,0.583l-1.746,0.339
				c-1.14,0.221-2.299,0.333-3.462,0.333h-1.335c-1.502,0-2.999-0.149-4.469-0.443l-0.378-0.076
				c-2.032-0.408-4.01-1.031-5.899-1.858l-1.838-0.805c-0.74-0.324-1.459-0.69-2.153-1.096l-1.159-0.678
				c-1.251-0.731-2.411-1.596-3.459-2.578l-0.852-0.798c-0.405-0.379-0.785-0.781-1.139-1.204l-2.584-3.085
				c-0.434-0.518-0.814-1.075-1.135-1.663l-0.722-1.324c-0.459-0.841-0.699-1.777-0.699-2.726V260c0-0.763,0.227-1.51,0.653-2.154
				l0,0c0.51-0.769,1.21-1.405,2.038-1.851l0.663-0.357c0.716-0.386,1.485-0.674,2.284-0.856l0,0
				c1.553-0.355,3.145-0.534,4.742-0.534h1.452c1.212,0,2.419,0.132,3.6,0.393l1.492,0.33c0.257,0.057,0.511,0.128,0.759,0.213
				l1.438,0.493C468.96,255.874,469.547,256.039,470.142,256.171z"/>
			<path fill="#E4CC8F" d="M464.964,258.76l0.337-0.061c0.501-0.09,1.019-0.048,1.497,0.123l1.653,0.59
				c0.122,0.044,0.246,0.083,0.372,0.117l3.687,0.999c0.204,0.055,0.409,0.104,0.616,0.146l1.791,0.364
				c0.883,0.179,1.783,0.27,2.685,0.27h3.166c0.395,0,0.79-0.018,1.183-0.055l1.755-0.164c1.095-0.102,2.176-0.312,3.226-0.626
				l0.633-0.189c1.405-0.42,2.749-1.011,3.999-1.757l1.323-0.79l1.543-0.861c0.337-0.188,0.748-0.207,1.103-0.051l0,0
				c0.478,0.21,0.784,0.668,0.784,1.173v0.502c0,0.512-0.1,1.019-0.296,1.495l-0.879,2.143c-0.117,0.284-0.256,0.56-0.418,0.823
				l-1.853,3.017c-0.214,0.348-0.473,0.67-0.771,0.956l-1.605,1.539c-0.464,0.445-1.01,0.802-1.611,1.052l-3.423,1.428
				c-0.558,0.233-1.144,0.396-1.745,0.486l-2.673,0.4c-0.5,0.075-1.006,0.1-1.511,0.076l-3.187-0.153
				c-1.112-0.053-2.209-0.264-3.256-0.625l-1.755-0.605c-1.1-0.379-2.102-0.982-2.937-1.767l-0.69-0.648
				c-0.527-0.495-0.948-1.085-1.238-1.735l-1.112-2.49c-0.089-0.2-0.165-0.406-0.227-0.615l-0.726-2.458
				c-0.091-0.308-0.137-0.626-0.137-0.946v-0.295C464.268,259.171,464.56,258.833,464.964,258.76z"/>
			<path fill="#767670" d="M465.811,259.779L465.811,259.779c2.27,1.166,4.623,1.978,7.015,2.423l0.993,0.185
				c1.75,0.325,3.512,0.489,5.277,0.489h1.697c2.015,0,4.024-0.298,5.996-0.89l0.686-0.206c1.536-0.461,3.024-1.201,4.428-2.202
				l2.936-2.093c0.402-0.287,0.831,0.314,0.638,0.892l0,0c-0.65,1.945-1.49,3.748-2.496,5.355l-1.379,2.202
				c-0.674,1.076-1.533,1.882-2.492,2.338l-1.496,0.711c-1.163,0.553-2.363,0.93-3.581,1.127l-4.429,0.715
				c-1.366,0.221-2.747,0.18-4.106-0.122l-2.3-0.51c-1.775-0.394-3.435-1.494-4.79-3.174l-0.056-0.069
				c-0.973-1.206-1.73-2.725-2.209-4.432c0,0-0.48-1.712-0.641-2.283C465.426,259.956,465.614,259.678,465.811,259.779z"/>
			<path fill="#DB9376" d="M473.176,270.187l1.187-1.11c1.38-1.291,2.899-2.25,4.496-2.841l0.16-0.059
				c1.056-0.39,2.178-0.094,3.066,0.81l0,0c0.451,0.459,1.073,0.348,1.43-0.254l0.111-0.187c0.623-1.05,1.539-1.656,2.504-1.656
				h0.395c1.228,0,2.449,0.245,3.629,0.729l1.309,0.536l0,0c-0.583,0.931-1.327,1.629-2.157,2.024l-2.144,1.019
				c-0.863,0.41-1.753,0.69-2.656,0.836l-5.316,0.858c-1.091,0.176-2.194,0.143-3.28-0.097L473.176,270.187z"/>
			<path fill="#FFFFFF" d="M467.652,260.639l0.947,1.565l1.281,0.843c0.502,0.33,1.109,0.605,1.79,0.809l0.947,0.284
				c0.666,0.2,1.381,0.343,2.121,0.424l2.245,0.246c0.478,0.052,0.964,0.079,1.452,0.079h2.873c0.628,0,1.255-0.044,1.864-0.131
				l2.012-0.287c1.17-0.167,2.252-0.488,3.158-0.937l1.441-0.715c0.525-0.26,0.983-0.56,1.363-0.891l1.843-1.606
				c0.273-0.238,0.503-0.49,0.688-0.753l0.664-0.947l0.157-0.895l-1.036,0.739l-2.186,1.514c-0.233,0.162-0.491,0.311-0.769,0.448
				l-1.51,0.74c-0.419,0.205-0.882,0.379-1.38,0.517l-2.31,0.641c-0.436,0.121-0.895,0.214-1.368,0.277l-0.965,0.128
				c-0.435,0.058-0.879,0.09-1.326,0.095l-2.643,0.034c-0.37,0.005-0.741-0.009-1.107-0.04l-2.432-0.207
				c-0.385-0.033-0.764-0.085-1.132-0.157l-2.373-0.46c-0.418-0.081-0.82-0.186-1.2-0.314L467.652,260.639z"/>
			<path fill="#FFFFFF" d="M469.248,267.946l1.548,0.077l1.315,0.577c0.481,0.211,1.01,0.386,1.572,0.519l0.682,0.162
				c0.856,0.203,1.775,0.308,2.704,0.308h1.484c0.685,0,1.366-0.057,2.022-0.169l2.481-0.424c0.303-0.052,0.599-0.115,0.887-0.19
				l2.265-0.587c0.502-0.13,0.975-0.294,1.409-0.487l1.12-0.499c0.49-0.218,0.926-0.473,1.296-0.757l1.483-1.139h0.46l-0.888,1.307
				c-0.135,0.198-0.309,0.387-0.519,0.564l-0.618,0.518c-0.174,0.146-0.373,0.283-0.592,0.408l-0.958,0.547
				c-0.146,0.083-0.301,0.161-0.465,0.234l-0.956,0.424c-0.374,0.166-0.788,0.301-1.23,0.401l-1.192,0.269
				c-0.158,0.036-0.319,0.067-0.483,0.093l-1.753,0.283l-1.485,0.24l-1.23,0.22c-0.326,0.058-0.661,0.097-1.001,0.117l0,0
				c-0.468,0.027-0.94,0.016-1.402-0.031l-0.639-0.066c-0.286-0.029-0.567-0.073-0.839-0.13l-1.353-0.283l-1.083-0.253
				c-0.375-0.088-0.73-0.201-1.057-0.337l-0.518-0.216c-0.303-0.126-0.579-0.271-0.824-0.432l-0.56-0.368
				c-0.149-0.098-0.285-0.201-0.408-0.309L469.248,267.946z"/>
		</g>
		<g id="pupils_1_">
			<ellipse fill="#3F3B35" cx="468.48" cy="236.279" rx="2.751" ry="2.639"/>
			<ellipse fill="#3F3B35" cx="490.187" cy="236.279" rx="2.751" ry="2.639"/>
		</g>
		<path id="second-right-arm_1_" fill="#8EC7A8" d="M444.883,291.381l-2.009,1.991l-1.369,2.189l-16.13,33.447
			c-0.276,0.571-0.51,2.429-0.51,2.429l0.124,1.939l0.645,1.904l0.971,1.996l1.039,1.973l1.362,1.465l1.493,0.672l1.383,0.149
			l1.406-0.474l3.149-0.844l19.702-39.175c0.726-1.479,1.201-3.698,1.592-4.774c0.132-0.363-1.793-3.341-2.301-4.002l-0.449-0.585
			c-0.267-0.349-0.587-0.648-0.951-0.892l-1.43-0.956l-1.249-0.642l-1.966,0.032l-2.457,0.862L444.883,291.381z"/>
		<g id="first-right-arm_2_">
			<g id="axe1_2_">
				<path fill="#C58B3B" d="M397.523,388.61c-0.41-1.408,0.906-3.614,2.266-3.8l99.347-13.556l31.773-6.132l17.842-2.54l2.771,1.496
					l1.536,3.754l-1.83,3.344l-3.231,3.172l-8.634,2.112l-10.341,0.858l-7.753-0.389c-3.79-0.19-7.7-0.023-11.703,0.501
					l-108.833,14.236c-1.404,0.184-2.488-0.571-2.911-2.026L397.523,388.61z"/>
				<path fill="#B3B3B3" d="M531.356,360.316l8.687-0.516c1.324-0.079,2.673,0.552,3.623,1.693l0,0
					c1.014,1.218,1.687,2.71,1.925,4.27l0.619,4.05c0.665,4.355,1.911,8.649,3.696,12.742l1.431,3.282
					c1.543,3.539,3.565,6.849,5.99,9.81l6.742,8.232c0.517,0.631,0.34,1.565-0.339,1.793l-7.953,2.666
					c-2.834,0.95-5.781,1.574-8.796,1.861l0,0c-3.581,0.341-7.229,0.239-10.878-0.306l-8.163-1.219
					c-0.507-0.076-0.864-0.65-0.723-1.161l2.441-8.811c1.436-5.183,2.21-10.628,2.301-16.193l0.03-1.829
					c0.033-2.004-0.149-4.032-0.541-6.042l-1.381-7.076c-0.404-2.071-0.39-4.164,0.043-6.128l0,0
					C530.25,360.793,530.742,360.352,531.356,360.316z"/>
			</g>
			<path fill="#E4CC8F" d="M462.833,367.883l2.174,1.068c0.421,0.266,0.826,0.556,1.211,0.87l2.956,2.405
				c0.463,0.377,0.784,0.89,0.911,1.458l0.317,1.417c0.118,0.529,0.012,1.077-0.296,1.522l-0.636,0.919
				c-0.194,0.28-0.167,0.653,0.064,0.913l1.271,1.427c0.509,0.571,0.729,1.328,0.601,2.061l-0.134,0.769
				c-0.14,0.799-0.438,1.562-0.879,2.247l-0.589,0.915c-0.505,0.785-1.201,1.438-2.029,1.903l-0.534,0.3
				c-0.738,0.415-1.527,0.744-2.35,0.978l-1.026,0.292c-1.153,0.329-2.378,0.374-3.565,0.134l-0.619-0.126
				c-1.028-0.209-2.006-0.614-2.876-1.192l-0.79-0.525c-0.793-0.527-1.447-1.226-1.908-2.04l-1.48-2.61
				c-0.572-1.009-1.002-2.086-1.278-3.201l-0.935-3.781c-0.019-0.077-0.035-0.155-0.048-0.233l-0.617-5.146l0.795,0.066l1.317,0.076
				l1.3-0.016l1.241-0.017l1.582-0.341l1.346-0.316l1.049-0.328l0.895-0.274l1.197-0.41l1.11-0.452L462.833,367.883z"/>
			<path fill="#8EC7A8" d="M424.645,334.146l23.197,35.358c0.498,0.755,1.194,1.298,1.955,1.525l0,0
				c1.367,0.408,4.091,0.243,4.091,0.243c1.424-0.265,7.279-0.815,9.341-3.933l-23.465-37.872l-2.302,2.024l-1.986-0.791
				l-2.234-0.723l-2.303-0.448l-2.055-0.062l-1.754,0.567l-1.166,0.745l-0.718,0.793l-0.447,0.861l-0.193,0.763L424.645,334.146z"/>
		</g>
	</g>
	
		<text transform="matrix(1.536 0 0 1.25 173.0321 64.4598)" fill="#879947" font-family="'PTSans-Regular'" font-size="48px" letter-spacing="1.953">BATTLE ON ISLAND</text>
</g>
</svg>
