<?xml version="1.0" encoding="utf-8"?>
<!-- Generator: Adobe Illustrator 24.0.1, SVG Export Plug-In . SVG Version: 6.00 Build 0)  -->
<svg version="1.1" id="Слой_1" xmlns="http://www.w3.org/2000/svg" xmlns:xlink="http://www.w3.org/1999/xlink" x="0px" y="0px"
	 viewBox="0 0 1593.434 339" enable-background="new 0 0 1593.434 339" xml:space="preserve">
<g id="icon_1_">
	
		<text transform="matrix(1 0 0 1 446.3591 265.0007)" fill="#E8E2A0" font-family="'PTSans-Bold'" font-size="200px" letter-spacing="-2">Barsuk Studio</text>
	<g>
		<path fill="#D2D2D0" d="M345.093,134.304l-13.374-20.869c-3.501-5.463-3.567-12.448-0.17-17.977l8.131-13.231
			c3.126-5.086,5.071-10.809,5.693-16.747l1.42-13.552c0.649-6.199-0.162-12.464-2.368-18.294l-2.993-7.91
			c-3.467-9.162-10.182-16.73-18.866-21.263l0,0c-8.595-4.487-18.529-5.694-27.948-3.395l-8.753,2.137
			c-8.747,2.135-16.516,7.163-22.045,14.269l-7.748,9.957c-3.623,4.656-6.169,10.057-7.456,15.814l-2.883,12.903
			c-1.007,4.506-5.637,7.2-10.052,5.849l-11.346-3.472c-8.751-2.678-17.72-4.583-26.804-5.695l0,0
			c-12.64-1.547-25.422-1.547-38.062,0l0,0c-9.084,1.112-18.053,3.017-26.804,5.695l-11.346,3.472
			c-4.415,1.351-9.045-1.344-10.052-5.849l-2.884-12.903c-1.287-5.757-3.833-11.158-7.456-15.814l-7.748-9.957
			C87.65,10.367,79.881,5.338,71.134,3.203l-8.753-2.137c-9.419-2.299-19.353-1.092-27.948,3.395l0,0
			c-8.684,4.534-15.398,12.101-18.866,21.263l-2.993,7.91c-2.206,5.83-3.017,12.095-2.368,18.294l1.42,13.552
			c0.622,5.938,2.568,11.66,5.693,16.747l8.131,13.231c3.398,5.528,3.332,12.514-0.17,17.977l-13.374,20.869
			c-1.789,2.792-3.333,5.734-4.615,8.793l-2.83,6.754C1.517,156.88,0,164.425,0,172.046v0c0,10.123,2.675,20.065,7.755,28.821
			l3.651,6.293c2.442,4.21,5.41,8.092,8.831,11.553l100.84,102.019c6.354,6.429,14.083,11.334,22.605,14.347h0
			c6.405,2.264,13.148,3.422,19.942,3.422H178.5h14.877c6.793,0,13.537-1.157,19.942-3.422h0
			c8.522-3.013,16.251-7.918,22.605-14.347l100.84-102.019c3.421-3.461,6.389-7.343,8.831-11.553l3.651-6.293
			c5.08-8.756,7.755-18.698,7.755-28.821v0c0-7.621-1.517-15.166-4.462-22.195l-2.83-6.754
			C348.426,140.038,346.882,137.096,345.093,134.304z"/>
		<path fill="#4E4D54" d="M143.5,180.5l-3.352-16.203c-1.761-8.509-2.648-17.176-2.648-25.866V75.576
			c0-2.663-0.749-5.273-2.16-7.532v0c-1.83-2.929-4.664-5.09-7.973-6.082l0,0c-1.957-0.586-4.043-0.58-5.996,0.018l-0.052,0.016
			c-4.415,1.351-9.045-1.343-10.052-5.849l-2.884-12.903c-1.287-5.757-3.833-11.158-7.456-15.814l-7.748-9.957
			C87.65,10.367,79.881,5.338,71.134,3.203l-8.753-2.137c-9.419-2.299-19.353-1.092-27.948,3.395l0,0
			c-8.684,4.534-15.398,12.101-18.866,21.263l-2.993,7.91c-2.206,5.83-3.017,12.095-2.368,18.294l1.42,13.552
			c0.622,5.938,2.568,11.66,5.693,16.747l8.131,13.232c1.074,1.747,1.624,4.573,1.906,7.042c0.404,3.537,1.719,6.905,3.804,9.79
			l35.868,49.637c3.625,5.016,6.422,10.581,8.285,16.482l0,0c2.098,6.643,5.653,12.734,10.407,17.827l1.945,2.084
			c3.205,3.434,6.908,6.365,10.986,8.695l0.649,0.371c4.608,2.633,7.975,6.996,9.355,12.121l2.09,7.765
			c1.819,6.757,2.334,13.799,1.516,20.749v0c-0.506,4.305-1.519,8.535-3.018,12.602L104.5,273.5l-1.012,4.724
			c-1.301,6.073-0.952,12.384,1.012,18.276l0,0l0.427-3.42c0.379-3.036,1.217-5.997,2.483-8.782l0,0
			c2.03-4.465,5.113-8.371,8.984-11.382l5.819-4.526c4.121-3.206,9.001-5.292,14.166-6.057l13.069-1.936
			c3.339-0.495,5.64-3.608,5.133-6.945L143.5,180.5z"/>
		<path fill="#4E4D54" d="M213.5,180.5l3.352-16.203c1.761-8.509,2.648-17.176,2.648-25.866V75.576c0-2.663,0.749-5.273,2.16-7.532
			v0c1.83-2.929,4.664-5.09,7.973-6.082v0c1.957-0.586,4.043-0.58,5.996,0.018l0.052,0.016c4.415,1.351,9.045-1.343,10.052-5.849
			l2.884-12.903c1.287-5.757,3.833-11.158,7.456-15.814l7.748-9.957c5.529-7.106,13.298-12.134,22.045-14.269l8.753-2.137
			c9.419-2.299,19.353-1.092,27.948,3.395l0,0c8.684,4.534,15.398,12.101,18.866,21.263l2.993,7.91
			c2.206,5.83,3.017,12.095,2.368,18.294l-1.42,13.552c-0.622,5.938-2.568,11.66-5.693,16.747l-8.131,13.232
			c-1.074,1.747-1.624,4.573-1.906,7.042c-0.404,3.537-1.719,6.905-3.804,9.79l-35.868,49.637
			c-3.625,5.016-6.422,10.581-8.285,16.482v0c-2.098,6.643-5.653,12.734-10.407,17.827l-1.945,2.084
			c-3.205,3.434-6.908,6.365-10.986,8.695l-0.649,0.371c-4.608,2.633-7.975,6.996-9.355,12.121l-2.09,7.765
			c-1.819,6.757-2.334,13.799-1.516,20.749v0c0.506,4.305,1.519,8.535,3.018,12.602L252.5,273.5l1.012,4.724
			c1.301,6.073,0.952,12.384-1.012,18.276l0,0l-0.427-3.42c-0.38-3.036-1.217-5.997-2.483-8.782l0,0
			c-2.03-4.465-5.113-8.371-8.984-11.382l-5.819-4.526c-4.121-3.206-9.001-5.292-14.166-6.057l-13.069-1.936
			c-3.339-0.495-5.64-3.608-5.133-6.945L213.5,180.5z"/>
		<g id="nose_6_">
			<path fill="#2B271F" d="M216.829,293.905l-10.485-5.825c-1.878-1.043-3.941-1.711-6.073-1.967l-19.796-2.375
				c-1.312-0.157-2.637-0.157-3.949,0l-19.796,2.375c-2.133,0.256-4.196,0.924-6.073,1.967l-10.485,5.825
				c-3.037,1.687-5.467,4.286-6.946,7.43l-2.016,4.283c-2.322,4.934-2.068,10.695,0.68,15.406v0c1.7,2.914,4.249,5.24,7.306,6.667
				l8.188,3.821c1.404,0.655,2.893,1.11,4.423,1.352l15.409,2.433c0.855,0.135,1.719,0.203,2.585,0.203h8.7h8.7
				c0.865,0,1.73-0.068,2.585-0.203l15.409-2.433c1.53-0.242,3.019-0.697,4.423-1.352l8.188-3.821
				c3.057-1.427,5.606-3.753,7.306-6.667v0c2.748-4.711,3.002-10.472,0.68-15.406l-2.016-4.283
				C222.296,298.191,219.866,295.592,216.829,293.905z"/>
			<ellipse fill="#181110" cx="155.5" cy="313.5" rx="12" ry="5.5"/>
			<ellipse fill="#181110" cx="202.5" cy="313.5" rx="12" ry="5.5"/>
		</g>
		<g id="r-eye_2_">
			<path fill="#1F2222" d="M226.53,175.377l3.168-4.362c4.007-5.517,9.96-9.307,16.655-10.601l3.366-0.651
				c6.135-1.186,12.491-0.2,17.978,2.79l2.98,1.624c3.253,1.773,4.819,5.582,3.755,9.13l-1.909,6.364l-3.947,5.362
				c-3.159,4.292-7.618,7.451-12.715,9.009l-2.671,0.816c-4.382,1.339-9.062,1.351-13.451,0.034l0,0
				c-5.53-1.659-10.243-5.32-13.219-10.268l-0.364-0.606C224.534,181.323,224.682,177.921,226.53,175.377z"/>
			<path fill="#2F2826" d="M222.524,168.846l4.974-6.252c3.33-4.187,7.706-7.421,12.685-9.378l0,0
				c5.837-2.294,12.241-2.729,18.334-1.245l2.953,0.719c4.069,0.991,7.889,2.811,11.223,5.346l4.046,4.106l-3.352-6.226
				c-2.585-4.801-7.714-8.921-12.732-11.055l-1.074-0.457c-5.073-2.157-10.733-2.504-16.031-0.981l-0.427,0.123
				c-4.8,1.379-9.05,4.221-12.159,8.129h0c-1.278,1.607-2.345,3.371-3.174,5.249L222.524,168.846z"/>
		</g>
		<g id="l-eye_2_">
			<path fill="#1F2222" d="M130.47,175.377l-3.168-4.362c-4.007-5.517-9.96-9.307-16.655-10.601l-3.366-0.651
				c-6.135-1.186-12.491-0.2-17.978,2.79l-2.98,1.624c-3.253,1.773-4.819,5.582-3.755,9.13l1.909,6.364l3.947,5.362
				c3.159,4.292,7.618,7.451,12.715,9.009l2.671,0.816c4.382,1.339,9.062,1.351,13.451,0.034l0,0
				c5.53-1.659,10.243-5.32,13.219-10.268l0.364-0.606C132.466,181.323,132.318,177.921,130.47,175.377z"/>
			<path fill="#2F2826" d="M134.476,168.846l-4.974-6.252c-3.33-4.187-7.706-7.421-12.685-9.378l0,0
				c-5.837-2.294-12.241-2.729-18.334-1.245l-2.953,0.719c-4.069,0.991-7.889,2.811-11.223,5.346l-4.046,4.106l3.352-6.226
				c2.585-4.801,7.714-8.921,12.732-11.055l1.074-0.457c5.073-2.157,10.733-2.504,16.031-0.981l0.427,0.123
				c4.8,1.379,9.05,4.221,12.159,8.129h0c1.278,1.607,2.345,3.371,3.174,5.249L134.476,168.846z"/>
		</g>
	</g>
</g>
</svg>
